<?xml version="1.0" ?><!DOCTYPE svg  PUBLIC '-//W3C//DTD SVG 1.1//EN'  'http://www.w3.org/Graphics/SVG/1.1/DTD/svg11.dtd'><svg height="90px" id="Capa_1" style="enable-background:new 0 0 80 90;" version="1.1" viewBox="0 0 80 90" width="80px" xml:space="preserve" xmlns="http://www.w3.org/2000/svg" xmlns:xlink="http://www.w3.org/1999/xlink"><g><path d="M65,60c-3.436,0-6.592,1.168-9.121,3.112L29.783,47.455C29.914,46.654,30,45.837,30,45c0-0.839-0.086-1.654-0.217-2.456   l26.096-15.657C58.408,28.833,61.564,30,65,30c8.283,0,15-6.717,15-15S73.283,0,65,0S50,6.717,50,15   c0,0.837,0.086,1.654,0.219,2.455L24.123,33.112C21.594,31.168,18.438,30,15,30C6.717,30,0,36.717,0,45s6.717,15,15,15   c3.438,0,6.594-1.167,9.123-3.113l26.096,15.657C50.086,73.346,50,74.161,50,75c0,8.283,6.717,15,15,15s15-6.717,15-15   S73.283,60,65,60z" fill="#00123e"/></g><g/><g/><g/><g/><g/><g/><g/><g/><g/><g/><g/><g/><g/><g/><g/></svg>