<?xml version="1.0" standalone="no"?>
<!DOCTYPE svg PUBLIC "-//W3C//DTD SVG 1.1//EN" "http://www.w3.org/Graphics/SVG/1.1/DTD/svg11.dtd" >
<svg xmlns="http://www.w3.org/2000/svg">
<metadata></metadata>
<defs>
<font id="bw_modelicamedium" horiz-adv-x="1746" >
<font-face units-per-em="2048" ascent="1597" descent="-451" />
<missing-glyph horiz-adv-x="526" />
<glyph unicode="&#xfb01;" horiz-adv-x="1323" d="M47 922v172h184v200q0 146 91.5 235t242.5 89q147 0 232 -43l-17 -164q-58 27 -151 27q-85 0 -137 -48.5t-52 -127.5v-168h332v-172h-332v-922h-209v922h-184zM930 1452q0 57 37 94t94 37q56 0 92.5 -37t36.5 -94t-36.5 -94t-92.5 -37q-57 0 -94 37t-37 94zM956 0v1094 h209v-1094h-209z" />
<glyph unicode="&#xfb02;" horiz-adv-x="1327" d="M47 922v172h184v200q0 146 91.5 235t242.5 89q147 0 232 -43l-17 -164q-58 27 -151 27q-85 0 -137 -48.5t-52 -127.5v-168h332v-172h-332v-922h-209v922h-184zM958 0v1597h209v-1597h-209z" />
<glyph horiz-adv-x="0" />
<glyph horiz-adv-x="682" />
<glyph unicode="&#xd;" horiz-adv-x="450" />
<glyph unicode=" "  horiz-adv-x="526" />
<glyph unicode="&#x09;" horiz-adv-x="526" />
<glyph unicode="&#xa0;" horiz-adv-x="526" />
<glyph unicode="!" horiz-adv-x="561" d="M150 111q0 57 37 93t94 36t94 -36t37 -93t-37 -94t-94 -37t-94 37t-37 94zM170 1516h221l-20 -1129h-181z" />
<glyph unicode="&#x22;" horiz-adv-x="757" d="M129 1597l4 -442h162l6 442h-172zM457 1597l4 -442h164l4 442h-172z" />
<glyph unicode="#" horiz-adv-x="1460" d="M70 397l34 142h248l80 350h-248l33 141h248l94 404h154l-92 -404h362l92 404h156l-94 -404h252l-33 -141h-252l-80 -350h252l-33 -142h-252l-92 -397h-156l93 397h-363l-92 -397h-154l92 397h-249zM506 539h362l82 350h-362z" />
<glyph unicode="$" horiz-adv-x="1198" d="M102 1100q0 183 120.5 301t320.5 133v63h100v-63q235 -12 406 -172l-97 -152q-135 129 -309 144v-480l31 -10q69 -23 124.5 -47t116 -63.5t100.5 -85.5t66.5 -112.5t26.5 -145.5q0 -182 -127 -298t-338 -130v-68h-100v68q-127 6 -237.5 52t-188.5 128l84 149 q145 -139 342 -149v506l-58 18q-70 23 -123 46.5t-104 58.5t-83.5 77t-52.5 101t-20 131zM319 1133q0 -48 16.5 -85.5t50 -64t69.5 -44.5t88 -36v449q-103 -14 -163.5 -72t-60.5 -147zM643 164q117 14 182.5 73t65.5 152q0 87 -59 145t-189 107v-477z" />
<glyph unicode="%" horiz-adv-x="1665" d="M72 1192q0 155 99 249.5t261 94.5q163 0 262 -94.5t99 -249.5t-99 -249.5t-262 -94.5q-162 0 -261 94.5t-99 249.5zM246 1192q0 -92 51.5 -148.5t136.5 -56.5q82 0 133 56.5t51 148.5q0 93 -51 150t-133 57q-85 0 -136.5 -56.5t-51.5 -150.5zM340 51l870 1485l115 -70 l-870 -1486zM872 324q0 155 100 249.5t263 94.5q161 0 259.5 -94.5t98.5 -249.5t-98.5 -249.5t-259.5 -94.5q-163 0 -263 94.5t-100 249.5zM1047 324q0 -94 51.5 -150.5t136.5 -56.5q82 0 133 57t51 150t-51 148.5t-133 55.5q-85 0 -136.5 -55.5t-51.5 -148.5z" />
<glyph unicode="&#x26;" horiz-adv-x="1593" d="M102 412q0 143 79 248t220 157q-105 48 -164 134.5t-59 199.5q0 173 131 279t346 106q209 0 338 -107t129 -282v-252h359v-164h-361v-387q0 -83 47.5 -133.5t124.5 -50.5q112 0 205 37v-168q-109 -49 -270 -49q-97 0 -170.5 42.5t-110.5 118.5q-68 -79 -167 -120 t-216 -41q-206 0 -333.5 119.5t-127.5 312.5zM319 444q0 -129 81.5 -206.5t213.5 -77.5q126 0 211.5 65.5t85.5 190.5v315h-258q-151 0 -242.5 -79t-91.5 -208zM397 1128q0 -105 70.5 -169t187.5 -64h258v229q0 104 -71 168t-187 64q-117 0 -187.5 -62.5t-70.5 -165.5z" />
<glyph unicode="'" horiz-adv-x="430" d="M129 1597l4 -442h162l6 442h-172z" />
<glyph unicode="(" horiz-adv-x="641" d="M98 614q0 129 21 258.5t52 230.5t74.5 201t79.5 165.5t76 127.5h193q-30 -52 -50 -90t-57.5 -115.5t-63 -155t-52 -176t-40.5 -213t-14 -233.5t14 -233.5t40.5 -213t52 -176t63 -155t57.5 -115.5t50 -90h-193q-40 62 -76 127.5t-79.5 165t-74.5 201t-52 231t-21 258.5z " />
<glyph unicode=")" horiz-adv-x="641" d="M47 -369q38 66 62 111.5t70 151.5t74 202t50.5 236.5t22.5 281.5t-22.5 281.5t-50.5 236.5t-74 202t-70 151.5t-62 111.5h193q40 -62 76 -127.5t79.5 -165.5t74.5 -201t52 -230.5t21 -258.5t-21 -258.5t-52 -231t-74.5 -201t-79.5 -165t-76 -127.5h-193z" />
<glyph unicode="*" horiz-adv-x="804" d="M100 1255l45 131l193 -69l-6 199h139l-4 -199l192 69l46 -131l-201 -59l129 -164l-113 -84l-119 172l-116 -172l-113 84l129 164z" />
<glyph unicode="+" horiz-adv-x="1114" d="M94 627v174h359v360h209v-360h356v-174h-356v-361h-209v361h-359z" />
<glyph unicode="," horiz-adv-x="528" d="M23 -297l141 510h244l-175 -510h-210z" />
<glyph unicode="-" horiz-adv-x="933" d="M137 514v152h660v-152h-660z" />
<glyph unicode="." horiz-adv-x="507" d="M111 125q0 59 42.5 101t100.5 42q60 0 101.5 -42t41.5 -101q0 -60 -41.5 -102.5t-101.5 -42.5q-59 0 -101 42.5t-42 102.5z" />
<glyph unicode="/" horiz-adv-x="866" d="M82 -205l489 1802h211l-489 -1802h-211z" />
<glyph unicode="0" horiz-adv-x="1433" d="M109 758q0 350 167.5 564t442.5 214q181 0 319 -96.5t213.5 -273.5t75.5 -408t-75.5 -408t-213.5 -273.5t-319 -96.5q-275 0 -442.5 214t-167.5 564zM334 758q0 -269 106 -433.5t279 -164.5q172 0 276.5 164.5t104.5 433.5t-104.5 433.5t-276.5 164.5q-173 0 -279 -164.5 t-106 -433.5z" />
<glyph unicode="1" horiz-adv-x="878" d="M18 1147l502 369h166v-1516h-217v1233l-340 -244z" />
<glyph unicode="2" horiz-adv-x="1181" d="M90 0v137l463 502q5 6 36 39t42.5 46t40.5 46.5t43 53.5t38 53.5t36 59.5t26 57.5t19.5 62.5t5.5 61q0 108 -68.5 173t-181.5 65q-119 0 -190.5 -73.5t-71.5 -192.5l-224 18q0 193 132.5 310.5t349.5 117.5q214 0 344.5 -109t130.5 -290q0 -67 -21 -135.5t-50 -123.5 t-83.5 -125t-97 -117t-113.5 -122l-319 -336l704 2v-180h-991z" />
<glyph unicode="3" horiz-adv-x="1171" d="M74 141l84 160q120 -141 342 -141q160 0 256 79.5t96 209.5q0 127 -91.5 202.5t-244.5 75.5q-123 0 -221 -49l-57 110l487 547h-588v181h875v-138l-455 -485q12 2 39 2q216 0 348.5 -123t132.5 -321q0 -213 -150.5 -342t-402.5 -129q-141 0 -260.5 42t-189.5 119z" />
<glyph unicode="4" horiz-adv-x="1280" d="M45 311v154l772 1051h172v-1024h221v-181h-221v-311h-217v311h-727zM256 487h522l4 719z" />
<glyph unicode="5" horiz-adv-x="1187" d="M66 117l63 159q133 -116 363 -116q169 0 271.5 85.5t102.5 225.5q0 128 -81 205.5t-214 77.5q-141 0 -254 -66l-147 21l104 807h746v-181h-551l-70 -428q111 29 211 29q215 0 349.5 -124.5t134.5 -326.5q0 -226 -161.5 -365.5t-420.5 -139.5q-288 0 -446 137z" />
<glyph unicode="6" horiz-adv-x="1177" d="M88 455q0 112 34 206t103 193l457 662h246l-434 -607q70 13 147 13q200 0 332.5 -128.5t132.5 -334.5q0 -215 -139.5 -347t-368.5 -132q-230 0 -370 130.5t-140 344.5zM313 457q0 -134 78 -215.5t205 -81.5q128 0 206.5 82t78.5 215t-78.5 215t-206.5 82 q-127 0 -205 -81.5t-78 -215.5z" />
<glyph unicode="7" horiz-adv-x="1071" d="M45 1335v181h991l-526 -1516h-234l476 1335h-707z" />
<glyph unicode="8" horiz-adv-x="1236" d="M109 410q0 131 69 228.5t193 147.5q-105 48 -163 137t-58 205q0 183 128.5 295.5t339.5 112.5t340 -111.5t129 -294.5q0 -116 -58 -205t-163 -137q124 -50 193 -147.5t69 -226.5q0 -195 -140.5 -314.5t-369.5 -119.5t-369 118.5t-140 311.5zM334 426q0 -120 78 -193 t206 -73t205.5 73t77.5 193t-78 194t-205 74t-205.5 -74t-78.5 -194zM375 1114q0 -107 67 -173.5t176 -66.5t175.5 66.5t66.5 173.5q0 108 -67 175t-175 67t-175.5 -67t-67.5 -175z" />
<glyph unicode="9" horiz-adv-x="1177" d="M70 1057q0 215 139.5 347t368.5 132q230 0 369.5 -130.5t139.5 -344.5q0 -112 -34 -206t-103 -193l-456 -662h-246l434 606q-64 -12 -147 -12q-200 0 -332.5 128.5t-132.5 334.5zM295 1059q0 -133 78.5 -215t206.5 -82q127 0 204.5 81.5t77.5 215.5t-77.5 215.5 t-204.5 81.5q-128 0 -206.5 -82t-78.5 -215z" />
<glyph unicode=":" horiz-adv-x="546" d="M129 125q0 59 42.5 101t102.5 42q59 0 101.5 -42.5t42.5 -100.5q0 -60 -42.5 -102.5t-101.5 -42.5q-60 0 -102.5 42.5t-42.5 102.5zM129 969q0 60 42.5 102.5t102.5 42.5q59 0 101.5 -42.5t42.5 -102.5q0 -59 -43 -101.5t-101 -42.5q-60 0 -102.5 42.5t-42.5 101.5z" />
<glyph unicode=";" horiz-adv-x="626" d="M82 -297l141 510h246l-174 -510h-213zM180 969q0 60 43 102.5t103 42.5q59 0 101 -42.5t42 -102.5q0 -59 -42.5 -101.5t-100.5 -42.5q-60 0 -103 42.5t-43 101.5z" />
<glyph unicode="&#x3c;" horiz-adv-x="1126" d="M76 651v131l905 435v-197l-647 -303l647 -303v-197z" />
<glyph unicode="=" horiz-adv-x="1210" d="M143 395v174h924v-174h-924zM143 858v174h924v-174h-924z" />
<glyph unicode="&#x3e;" horiz-adv-x="1126" d="M145 217v197l648 303l-648 303v197l906 -435v-131z" />
<glyph unicode="?" horiz-adv-x="1093" d="M68 1137q9 180 137 289.5t330 109.5q218 0 350.5 -109t132.5 -286q0 -59 -13.5 -107t-44 -88.5t-54.5 -64t-70 -62.5q-36 -31 -53 -47t-48 -49t-46.5 -62t-34 -70.5t-26 -92.5t-7.5 -111h-181q0 67 8 126.5t18.5 103t31.5 85.5t36.5 67.5t43.5 57t43 45.5t45 41 q43 37 66 60.5t42 64t19 88.5q0 103 -70.5 166.5t-187.5 63.5q-112 0 -184.5 -63.5t-80.5 -166.5zM399 111q0 57 37 93t94 36q56 0 92.5 -36t36.5 -93t-36.5 -94t-92.5 -37q-57 0 -94 37t-37 94z" />
<glyph unicode="@" horiz-adv-x="2242" d="M98 530q0 301 129.5 530t368.5 353.5t555 124.5q218 0 400.5 -62t311 -174.5t200 -274.5t71.5 -357q0 -262 -118.5 -426t-311.5 -164q-108 0 -186.5 53t-114.5 148q-47 -95 -135 -149t-211 -54q-189 0 -309.5 125.5t-120.5 328.5q0 205 120.5 333t305.5 128 q201 0 299 -157l6 141h201v-551q0 -75 38.5 -120.5t102.5 -45.5q101 0 163 110t62 283q0 212 -97.5 372.5t-273 246.5t-403.5 86q-251 0 -441 -103.5t-292.5 -291.5t-102.5 -435q0 -184 58.5 -336t165.5 -259t264 -165.5t348 -58.5q119 0 277.5 20t277.5 54l63 -164 q-131 -41 -305 -65.5t-319 -24.5q-317 0 -555 125t-365 351.5t-127 524.5zM846 535q0 -125 69 -201t183 -76t183 76.5t69 200.5q0 125 -69 201.5t-183 76.5t-183 -76.5t-69 -201.5z" />
<glyph unicode="A" horiz-adv-x="1517" d="M0 0l657 1516h203l656 -1516h-232l-147 352h-756l-148 -352h-233zM459 532h602l-301 715z" />
<glyph unicode="B" horiz-adv-x="1423" d="M195 0v1516h622q197 0 316.5 -107.5t119.5 -284.5q0 -107 -56 -191t-159 -134q135 -40 213 -137.5t78 -231.5q0 -194 -134 -312t-355 -118h-645zM414 180h391q133 0 215 70t82 184t-81.5 184t-213.5 70h-393v-508zM414 868h334q126 0 203 65t77 169t-78.5 168.5 t-204.5 64.5h-331v-467z" />
<glyph unicode="C" horiz-adv-x="1562" d="M98 762q0 230 97.5 406t275.5 272t410 96q360 0 583 -246l-137 -139q-76 94 -188 149.5t-252 55.5q-253 0 -407 -163.5t-154 -430.5q0 -270 154 -436t405 -166q309 0 477 254l149 -135q-107 -143 -267.5 -221t-360.5 -78q-352 0 -568.5 215.5t-216.5 566.5z" />
<glyph unicode="D" horiz-adv-x="1587" d="M195 0v1516h553q333 0 536 -208.5t203 -551.5q0 -168 -53.5 -309t-149.5 -239.5t-233.5 -153t-302.5 -54.5h-553zM414 180h325q235 0 379 159t144 417q0 261 -144 420t-379 159h-325v-1155z" />
<glyph unicode="E" horiz-adv-x="1304" d="M195 0v1516h979v-181h-760v-475h702v-180h-702v-500h776v-180h-995z" />
<glyph unicode="F" horiz-adv-x="1169" d="M195 0v1516h903v-181h-684v-516h600v-180h-600v-639h-219z" />
<glyph unicode="G" horiz-adv-x="1650" d="M100 758q0 231 94 408t266.5 273.5t399.5 96.5q315 0 520 -162l-143 -137q-136 119 -375 119q-241 0 -388.5 -164.5t-147.5 -433.5t147.5 -433.5t388.5 -164.5q217 0 351 132t149 355h-440v180h665q2 -23 2 -69q0 -354 -197.5 -566t-531.5 -212q-169 0 -311 56 t-240.5 157.5t-153.5 246.5t-55 318z" />
<glyph unicode="H" horiz-adv-x="1720" d="M195 0v1516h219v-654h895v654h217v-1516h-217v680h-895v-680h-219z" />
<glyph unicode="I" horiz-adv-x="608" d="M195 0v1516h219v-1516h-219z" />
<glyph unicode="J" horiz-adv-x="854" d="M14 94l58 146q80 -80 190 -80q88 0 139.5 52t51.5 138v1166h217v-1205q0 -150 -101.5 -240.5t-267.5 -90.5q-188 0 -287 114z" />
<glyph unicode="K" horiz-adv-x="1415" d="M195 0v1516h219v-650h209l505 650h263l-582 -740l604 -776h-262l-526 684h-211v-684h-219z" />
<glyph unicode="L" horiz-adv-x="1136" d="M195 0v1516h219v-1336h692v-180h-911z" />
<glyph unicode="M" horiz-adv-x="2033" d="M150 0l96 1522h209l563 -1319l563 1319h207l96 -1522h-217l-61 1112l-480 -1112h-219l-477 1112l-61 -1112h-219z" />
<glyph unicode="N" d="M195 0v1516h137l1007 -1143l-6 1143h219v-1516h-137l-1005 1143l4 -1143h-219z" />
<glyph unicode="O" d="M98 758q0 231 96.5 408t273 273.5t406.5 96.5q172 0 316 -56t245 -157.5t157.5 -246.5t56.5 -318t-56.5 -318t-157.5 -246.5t-245 -157.5t-316 -56q-230 0 -406.5 96.5t-273 273.5t-96.5 408zM326 758q0 -269 150.5 -433.5t397.5 -164.5q246 0 397.5 165t151.5 433 t-151.5 433t-397.5 165q-247 0 -397.5 -164.5t-150.5 -433.5z" />
<glyph unicode="P" horiz-adv-x="1349" d="M195 0v1516h581q230 0 371 -131t141 -345q0 -220 -142.5 -354.5t-375.5 -134.5h-356v-551h-219zM414 731h336q144 0 227.5 82.5t83.5 220.5q0 135 -85 218t-226 83h-336v-604z" />
<glyph unicode="Q" horiz-adv-x="1748" d="M98 758q0 231 96.5 408t273 273.5t406.5 96.5q172 0 316 -56t245 -157.5t157.5 -246.5t56.5 -318q0 -299 -160 -504l201 -254h-256l-91 117q-198 -137 -469 -137q-230 0 -406.5 96.5t-273 273.5t-96.5 408zM326 758q0 -269 150.5 -433.5t397.5 -164.5q206 0 345 114 l-209 269h247l91 -113q75 141 75 328q0 268 -151.5 433t-397.5 165q-247 0 -397.5 -164.5t-150.5 -433.5z" />
<glyph unicode="R" horiz-adv-x="1460" d="M195 0v1516h596q233 0 375.5 -127t142.5 -336q0 -151 -80.5 -261.5t-222.5 -162.5l413 -629h-256l-377 590h-372v-590h-219zM414 770h338q149 0 239 77.5t90 205.5q0 127 -87 204.5t-230 77.5h-350v-565z" />
<glyph unicode="S" horiz-adv-x="1214" d="M111 1100q0 196 136 316t359 120q268 0 451 -174l-96 -152q-152 146 -353 146q-122 0 -196 -61.5t-74 -161.5q0 -52 19 -91.5t59 -67.5t78.5 -45.5t101.5 -39.5l86 -27q71 -24 126 -48t116 -63t101 -84.5t66.5 -111.5t26.5 -145q0 -193 -143.5 -311.5t-376.5 -118.5 q-142 0 -264.5 46t-208.5 136l84 149q157 -151 377 -151q142 0 223.5 61.5t81.5 167.5q0 102 -78.5 162.5t-234.5 110.5l-84 28q-70 22 -122.5 45t-103.5 58t-84 76.5t-53 100t-20 130.5z" />
<glyph unicode="T" horiz-adv-x="1226" d="M29 1335v181h1169v-181h-475v-1335h-219v1335h-475z" />
<glyph unicode="U" horiz-adv-x="1636" d="M176 557v959h217v-951q0 -182 117 -293.5t309 -111.5q189 0 305.5 112t116.5 293v951h219v-959q0 -261 -176 -419t-465 -158t-466 158t-177 419z" />
<glyph unicode="V" horiz-adv-x="1519" d="M2 1516h234l526 -1248l522 1248h234l-656 -1516h-205z" />
<glyph unicode="W" horiz-adv-x="2375" d="M12 1516h234l434 -1223l405 1223h205l410 -1223l430 1223h233l-553 -1516h-204l-418 1217l-418 -1217h-203z" />
<glyph unicode="X" horiz-adv-x="1357" d="M2 0l553 784l-510 732h252l381 -566l381 566h252l-510 -732l555 -784h-252l-426 621l-424 -621h-252z" />
<glyph unicode="Y" horiz-adv-x="1378" d="M29 1516h235l426 -734l426 734h234l-551 -928v-588h-219v588z" />
<glyph unicode="Z" horiz-adv-x="1325" d="M72 0v137l866 1198h-854v181h1149v-138l-864 -1198h884v-180h-1181z" />
<glyph unicode="[" horiz-adv-x="763" d="M180 -369v1966h527v-180h-310v-1605h310v-181h-527z" />
<glyph unicode="\" horiz-adv-x="866" d="M82 1597h211l489 -1802h-211z" />
<glyph unicode="]" horiz-adv-x="763" d="M57 -188h310v1605h-310v180h527v-1966h-527v181z" />
<glyph unicode="^" horiz-adv-x="1050" d="M98 653l324 645h207l323 -645h-207l-221 439l-219 -439h-207z" />
<glyph unicode="_" horiz-adv-x="1138" d="M51 0h1036v-152h-1036v152z" />
<glyph unicode="`" horiz-adv-x="1228" d="M-20 1585l339 -317h183l-273 317h-249z" />
<glyph unicode="a" horiz-adv-x="1157" d="M68 307q0 154 125 247t331 93q137 0 283 -31v50q0 131 -79.5 206.5t-217.5 75.5q-169 0 -281 -106l-92 125q167 147 424 147q204 0 329.5 -117t125.5 -309v-688h-203l-4 193q-58 -101 -157.5 -157t-215.5 -56q-165 0 -266.5 90t-101.5 237zM287 313q0 -84 55 -133 t154 -49q58 0 112.5 23t99 65.5t71.5 108.5t28 145q-142 29 -256 29q-120 0 -192 -52t-72 -137z" />
<glyph unicode="b" horiz-adv-x="1378" d="M156 0v1597h209v-700q124 217 401 217q227 0 374.5 -158.5t147.5 -412.5q0 -251 -147.5 -407t-374.5 -156q-281 0 -404 219l-6 -199h-200zM365 547q0 -175 97 -281t255 -106q160 0 257 106t97 279q0 175 -97 282t-257 107q-158 0 -255 -107t-97 -280z" />
<glyph unicode="c" horiz-adv-x="1107" d="M88 547q0 255 158 411t416 156q206 0 364 -123l-119 -143q-106 86 -243 86q-161 0 -260 -107t-99 -280q0 -174 99.5 -280.5t261.5 -106.5q172 0 274 108l121 -141q-153 -147 -406 -147q-255 0 -411 156t-156 411z" />
<glyph unicode="d" horiz-adv-x="1376" d="M88 543q0 254 148 412.5t376 158.5q139 0 240.5 -57t161.5 -160v700h209v-1597h-203l-4 201q-126 -221 -404 -221q-228 0 -376 156t-148 407zM305 545q0 -173 97 -279t257 -106q159 0 257 106.5t98 280.5q0 173 -98.5 280t-256.5 107q-160 0 -257 -107t-97 -282z" />
<glyph unicode="e" horiz-adv-x="1230" d="M90 543q0 257 146 414t385 157q238 0 383 -152t145 -401q0 -36 -4 -90h-834q15 -153 96 -239.5t220 -86.5q189 0 313 160l160 -86q-77 -114 -199 -176.5t-272 -62.5q-242 0 -390.5 155t-148.5 408zM311 614h621q-14 157 -95.5 245.5t-215.5 88.5t-215 -88.5t-95 -245.5z " />
<glyph unicode="f" horiz-adv-x="798" d="M47 922v172h184v200q0 146 91.5 235t242.5 89q147 0 232 -43l-17 -164q-58 27 -151 27q-85 0 -137 -48.5t-52 -127.5v-168h332v-172h-332v-922h-209v922h-184z" />
<glyph unicode="g" horiz-adv-x="1376" d="M90 551q0 251 148 407t376 156q276 0 404 -221l4 201h203v-1004q0 -253 -171 -407t-452 -154q-298 0 -483 141l45 164q184 -125 432 -125q189 0 304.5 106t115.5 281v101q-60 -103 -161.5 -160t-240.5 -57q-228 0 -376 158.5t-148 412.5zM307 549q0 -175 97.5 -282 t257.5 -107q158 0 256 107t98 280t-98 280t-256 107q-160 0 -257.5 -106t-97.5 -279z" />
<glyph unicode="h" horiz-adv-x="1320" d="M156 0v1597h209v-661q57 86 152.5 132t219.5 46q198 0 320.5 -117t122.5 -309v-688h-209v651q0 127 -83 205t-220 78t-220 -78t-83 -205v-651h-209z" />
<glyph unicode="i" horiz-adv-x="522" d="M131 1452q0 57 37 94t94 37q56 0 92.5 -37t36.5 -94t-36.5 -94t-92.5 -37q-57 0 -94 37t-37 94zM158 0v1094h209v-1094h-209z" />
<glyph unicode="j" horiz-adv-x="536" d="M-147 -438l16 168q56 -21 125 -21q79 0 127.5 54.5t48.5 144.5v1186h209v-1235q0 -149 -89.5 -239.5t-236.5 -90.5q-124 0 -200 33zM141 1452q0 57 36.5 94t92.5 37q57 0 94 -37t37 -94t-37 -94t-94 -37q-56 0 -92.5 37t-36.5 94z" />
<glyph unicode="k" horiz-adv-x="1202" d="M156 0v1597h209v-935h163l390 432h264l-484 -519l510 -575h-266l-416 487h-161v-487h-209z" />
<glyph unicode="l" horiz-adv-x="528" d="M160 0v1597h209v-1597h-209z" />
<glyph unicode="m" horiz-adv-x="2000" d="M156 0v1094h200l4 -152q112 172 342 172q118 0 209.5 -50.5t143.5 -141.5q56 92 150 142t216 50q197 0 317 -117t120 -309v-688h-209v651q0 128 -74 205.5t-195 77.5q-122 0 -196 -78t-74 -205v-651h-209v651q0 128 -73.5 205.5t-194.5 77.5t-194.5 -77.5t-73.5 -205.5 v-651h-209z" />
<glyph unicode="n" horiz-adv-x="1320" d="M156 0v1094h200l4 -162q59 88 155.5 135t221.5 47q198 0 320.5 -117t122.5 -309v-688h-209v651q0 127 -83 205t-220 78t-220 -78t-83 -205v-651h-209z" />
<glyph unicode="o" horiz-adv-x="1316" d="M88 547q0 255 157 411t414 156q255 0 412.5 -156t157.5 -411t-157.5 -411t-412.5 -156q-257 0 -414 156t-157 411zM305 547q0 -174 97.5 -280.5t256.5 -106.5q158 0 255.5 107t97.5 280t-97.5 280t-255.5 107q-159 0 -256.5 -106.5t-97.5 -280.5z" />
<glyph unicode="p" horiz-adv-x="1378" d="M156 -451v1545h200l6 -201q59 105 160.5 163t243.5 58q227 0 374.5 -156t147.5 -407q0 -254 -147.5 -412.5t-374.5 -158.5q-277 0 -401 217v-648h-209zM365 547q0 -173 97 -280t255 -107q160 0 257 107t97 282q0 173 -97 279t-257 106q-158 0 -255 -107t-97 -280z" />
<glyph unicode="q" horiz-adv-x="1376" d="M88 551q0 251 148 407t376 156q276 0 404 -221l4 201h203v-1545h-209v648q-60 -103 -161.5 -160t-240.5 -57q-228 0 -376 158.5t-148 412.5zM305 549q0 -175 97 -282t257 -107q158 0 256.5 107t98.5 280t-98.5 280t-256.5 107q-160 0 -257 -106t-97 -279z" />
<glyph unicode="r" horiz-adv-x="794" d="M156 0v1094h200l4 -164q125 184 418 184l-14 -192q-184 0 -291.5 -84.5t-107.5 -225.5v-612h-209z" />
<glyph unicode="s" horiz-adv-x="954" d="M98 776q0 152 104 245t273 93q221 0 363 -104l-88 -140q-116 78 -261 78q-80 0 -129 -38.5t-49 -102.5q0 -57 41.5 -90t122.5 -62l92 -28q66 -22 115.5 -47t93 -62t66 -89.5t22.5 -119.5q0 -149 -109 -239t-290 -90q-113 0 -208 30.5t-157 89.5l80 129q124 -84 287 -84 q83 0 133.5 40t50.5 106q0 60 -47.5 98.5t-136.5 67.5l-92 30q-137 43 -207 107t-70 182z" />
<glyph unicode="t" horiz-adv-x="841" d="M35 922v172h186v319h209v-319h361v-172h-361v-578q0 -83 47.5 -133.5t124.5 -50.5q112 0 205 37v-168q-109 -49 -270 -49q-141 0 -228.5 88.5t-87.5 232.5v621h-186z" />
<glyph unicode="u" horiz-adv-x="1286" d="M141 406v688h209v-654q0 -126 79 -203t208 -77t208 77t79 203v654h209v-1094h-201l-4 158q-118 -178 -361 -178q-192 0 -309 117t-117 309z" />
<glyph unicode="v" horiz-adv-x="1198" d="M18 1094h230l350 -854l352 854h228l-473 -1094h-211z" />
<glyph unicode="w" horiz-adv-x="1957" d="M23 1094h229l323 -854l316 854h176l315 -854l324 854h229l-434 -1094h-211l-311 860l-311 -860h-211z" />
<glyph unicode="x" horiz-adv-x="1153" d="M18 0l433 559l-408 535h252l280 -387l283 387h252l-408 -535l433 -559h-252l-305 416l-308 -416h-252z" />
<glyph unicode="y" horiz-adv-x="1196" d="M23 1094h229l358 -848l342 848h230l-551 -1266q-32 -75 -61 -124.5t-69.5 -92t-93 -62.5t-120.5 -20q-88 0 -148 29l23 170q40 -19 90 -19q64 0 101.5 35.5t72.5 110.5l76 163z" />
<glyph unicode="z" horiz-adv-x="1081" d="M78 0v135l610 787h-600v172h897v-136l-610 -784h635v-174h-932z" />
<glyph unicode="{" horiz-adv-x="827" d="M66 524v181h14q72 0 117 55.5t45 146.5v402q0 139 85 224t224 85q114 0 217 -25v-172q-77 17 -145 17q-74 0 -119 -52.5t-45 -138.5v-364q0 -101 -45.5 -175t-120.5 -94q75 -20 120.5 -93.5t45.5 -174.5v-364q0 -86 45 -138.5t119 -52.5q73 0 145 16v-172 q-99 -24 -217 -24q-139 0 -224 84.5t-85 224.5v402q0 92 -45 147t-117 55h-14z" />
<glyph unicode="|" horiz-adv-x="581" d="M182 -451v2048h217v-2048h-217z" />
<glyph unicode="}" horiz-adv-x="827" d="M59 -193q72 -16 146 -16t119 52.5t45 138.5v364q0 101 45.5 174.5t120.5 93.5q-75 20 -120.5 94t-45.5 175v364q0 86 -45 138.5t-119 52.5q-69 0 -146 -17v172q103 25 217 25q140 0 225 -85t85 -224v-402q0 -91 45 -146.5t117 -55.5h14v-181h-14q-72 0 -117 -55t-45 -147 v-402q0 -139 -85 -224t-225 -85q-118 0 -217 24v172z" />
<glyph unicode="~" horiz-adv-x="1202" d="M147 483h119q0 52 39.5 82.5t100.5 30.5q39 0 89.5 -21t92.5 -45.5t101.5 -45.5t113.5 -21q116 0 187 71.5t71 194.5h-119q0 -52 -39 -81.5t-102 -29.5q-40 0 -90 20.5t-92 45.5t-101 45.5t-115 20.5q-113 0 -184.5 -73t-71.5 -194z" />
<glyph unicode="&#xa1;" horiz-adv-x="530" d="M135 983q0 57 37 94t94 37t93 -37t36 -94q0 -56 -36.5 -93.5t-92.5 -37.5q-57 0 -94 37.5t-37 93.5zM156 -451l20 1158h180l19 -1158h-219z" />
<glyph unicode="&#xa2;" horiz-adv-x="1171" d="M109 649q0 241 142.5 394.5t379.5 170.5v84h102v-84q178 -15 314 -120l-119 -144q-85 73 -195 84v-770q143 16 228 107l120 -142q-136 -129 -348 -145v-84h-102v84q-236 14 -379 168t-143 397zM328 649q0 -158 82 -261t221 -122v766q-138 -17 -220.5 -121t-82.5 -262z " />
<glyph unicode="&#xa3;" horiz-adv-x="1234" d="M106 0v172h134v455h-113v174h113v344q0 177 119.5 284t314.5 107t314.5 -108t119.5 -285l-213 -15q0 102 -61 165t-160 63q-97 0 -157 -61t-60 -162v-332h581v-174h-581v-453h663v-174h-1014z" />
<glyph unicode="&#xa4;" horiz-adv-x="1277" d="M129 322l125 124q-80 116 -80 259q0 142 80 258l-125 122l129 129l127 -127q113 74 254 74t256 -76l127 127l127 -129l-125 -125q78 -115 78 -253t-78 -256l125 -125l-127 -129l-127 124q-115 -75 -256 -75q-138 0 -256 75l-125 -126zM346 705q0 -126 86 -215t207 -89 t206 89t85 215q0 125 -85 214t-206 89t-207 -89t-86 -214z" />
<glyph unicode="&#xa5;" horiz-adv-x="1441" d="M59 1516h236l428 -734l424 734h235l-479 -805h260v-140h-334v-110h334v-139h-334v-322h-217v322h-331v139h331v110h-331v140h258z" />
<glyph unicode="&#xa6;" horiz-adv-x="575" d="M178 369h219v-820h-219v820zM178 778v819h219v-819h-219z" />
<glyph unicode="&#xa7;" horiz-adv-x="1226" d="M115 649q0 164 100 281q-100 97 -100 252q0 196 136 316t359 120q268 0 451 -174l-96 -152q-152 146 -353 146q-122 0 -196 -62t-74 -162q0 -42 14.5 -76.5t35 -57.5t58 -44.5t69 -34t81.5 -30.5l86 -27q71 -24 125.5 -48t115.5 -63t101 -84.5t66 -111.5t26 -145 q0 -164 -102 -275q102 -105 102 -258q0 -194 -142.5 -312t-375.5 -118q-142 0 -264.5 46t-208.5 136l84 150q158 -152 377 -152q142 0 223.5 62t81.5 168q0 102 -78.5 162t-234.5 110l-84 29q-70 22 -123 45t-104 57.5t-83.5 76t-52.5 100t-20 130.5zM328 682q0 -45 15 -81 t36.5 -60.5t61 -47t73 -36t86.5 -31.5l86 -29q94 -30 170 -67q53 56 53 141q0 57 -23 101.5t-69.5 78t-101 58t-133.5 49.5l-84 26q-74 25 -115 43q-55 -58 -55 -145z" />
<glyph unicode="&#xa8;" horiz-adv-x="1228" d="M123 1452q0 57 37 94t94 37q56 0 92.5 -37t36.5 -94t-36.5 -94t-92.5 -37q-57 0 -94 37t-37 94zM580 1452q0 57 37 94t94 37q56 0 92.5 -37t36.5 -94t-36.5 -94t-92.5 -37q-57 0 -94 37t-37 94z" />
<glyph unicode="&#xa9;" horiz-adv-x="1761" d="M104 758q0 351 213 564.5t564 213.5q350 0 563 -214t213 -564t-213 -564t-563 -214q-351 0 -564 213.5t-213 564.5zM229 758q0 -304 180 -490t472 -186t471.5 186t179.5 490t-179.5 491t-471.5 187t-472 -187t-180 -491zM455 754q0 192 120.5 309t317.5 117 q201 0 328 -136l-95 -96q-85 109 -229 109q-130 0 -209.5 -84t-79.5 -219q0 -139 80 -223.5t209 -84.5q160 0 250 134l100 -91q-121 -165 -352 -165q-197 0 -318.5 118.5t-121.5 311.5z" />
<glyph unicode="&#xaa;" horiz-adv-x="813" d="M98 1053q0 94 76 150.5t201 56.5q77 0 164 -19v25q0 77 -46 120.5t-128 43.5q-99 0 -164 -62l-62 82q106 86 258 86q125 0 201 -69.5t76 -186.5v-414h-133l-2 111q-34 -58 -91.5 -90.5t-125.5 -32.5q-100 0 -162 55t-62 144zM240 1057q0 -48 31.5 -76.5t88.5 -28.5 q70 0 124 54t55 143q-82 16 -148 16q-69 0 -110 -29.5t-41 -78.5z" />
<glyph unicode="&#xab;" horiz-adv-x="1265" d="M82 553l364 465h222l-355 -465l355 -465h-222zM588 553l364 465h224l-355 -465l355 -465h-224z" />
<glyph unicode="&#xac;" horiz-adv-x="1210" d="M139 735v172h924v-495h-209v323h-715z" />
<glyph unicode="&#xad;" horiz-adv-x="933" d="M137 514v152h660v-152h-660z" />
<glyph unicode="&#xae;" horiz-adv-x="845" d="M106 1303q0 142 87.5 228.5t230.5 86.5q141 0 228 -86.5t87 -228.5q0 -141 -87 -228.5t-228 -87.5q-142 0 -230 87.5t-88 228.5zM160 1303q0 -123 72 -198t192 -75q118 0 190 75t72 198t-72 198.5t-190 75.5q-120 0 -192 -75.5t-72 -198.5zM297 1135v333h137 q54 0 85.5 -29t31.5 -77q0 -66 -64 -92l88 -135h-71l-76 125h-70v-125h-61zM358 1309h66q29 0 46 14.5t17 38.5q0 25 -16 40t-43 15h-70v-108z" />
<glyph unicode="&#xaf;" horiz-adv-x="1228" d="M109 1303v165h677v-165h-677z" />
<glyph unicode="&#xb0;" horiz-adv-x="733" d="M92 1366q0 114 76 183t199 69q124 0 199 -69t75 -183t-75 -183t-199 -69q-123 0 -199 69t-76 183zM227 1366q0 -64 39 -102.5t101 -38.5t99.5 38.5t37.5 102.5q0 63 -38 102t-99 39q-62 0 -101 -39t-39 -102z" />
<glyph unicode="&#xb1;" horiz-adv-x="1218" d="M154 115v174h909v-174h-909zM154 780v174h350v361h209v-361h350v-174h-350v-360h-209v360h-350z" />
<glyph unicode="&#xb2;" horiz-adv-x="735" d="M63 811v90l279 301q4 4 26.5 28.5t32.5 36t30.5 36.5t31 43t23.5 42t18.5 47t5.5 46q0 63 -38.5 99t-104.5 36q-67 0 -108.5 -42.5t-41.5 -111.5l-143 13q0 117 80 187.5t211 70.5q129 0 207.5 -66.5t78.5 -175.5q0 -92 -54.5 -175.5t-160.5 -193.5l-186 -196l414 2v-117 h-601z" />
<glyph unicode="&#xb3;" horiz-adv-x="724" d="M51 893l53 104q72 -82 203 -82q93 0 149 46.5t56 121.5q0 72 -53.5 116t-141.5 44q-72 0 -129 -31l-41 72l285 320h-342v116h528v-88l-264 -280h15q130 0 209 -74.5t79 -194.5q0 -128 -90 -206t-243 -78q-85 0 -157.5 25t-115.5 69z" />
<glyph unicode="&#xb4;" horiz-adv-x="1228" d="M240 1268h180l340 317h-248z" />
<glyph unicode="&#xb6;" horiz-adv-x="1212" d="M66 1174q0 155 88 248.5t233 93.5h617v-1967h-162v1813h-199v-1813h-162v1276h-135q-127 0 -203.5 96t-76.5 253z" />
<glyph unicode="&#xb7;" horiz-adv-x="534" d="M123 594q0 58 42.5 100.5t100.5 42.5q60 0 103 -42t43 -101q0 -60 -43 -102.5t-103 -42.5q-59 0 -101 42.5t-42 102.5z" />
<glyph unicode="&#xb8;" horiz-adv-x="1228" d="M41 -416l41 76q53 -43 145 -43q70 0 111 23.5t41 62.5t-38.5 61.5t-102.5 22.5q-51 0 -97 -16l-28 53l102 176h107l-84 -133q6 0 18 1t18 1q96 0 154.5 -45.5t58.5 -118.5q0 -79 -67 -127.5t-180 -48.5q-135 0 -199 55z" />
<glyph unicode="&#xb9;" horiz-adv-x="548" d="M16 1497l301 223h109v-909h-141v729l-199 -143z" />
<glyph unicode="&#xba;" horiz-adv-x="876" d="M94 1196q0 154 94.5 247t251.5 93q154 0 249 -93.5t95 -246.5q0 -154 -95 -248t-249 -94q-156 0 -251 94t-95 248zM233 1196q0 -101 57.5 -163t149.5 -62q91 0 147 62t56 163q0 100 -56 162.5t-147 62.5q-92 0 -149.5 -62.5t-57.5 -162.5z" />
<glyph unicode="&#xbb;" horiz-adv-x="1265" d="M90 88l354 465l-354 465h223l365 -465l-365 -465h-223zM598 88l354 465l-354 465h221l365 -465l-365 -465h-221z" />
<glyph unicode="&#xbc;" horiz-adv-x="1689" d="M16 1292l301 224h109v-910h-141v729l-199 -143zM270 51l871 1485l114 -70l-870 -1486zM932 184v99l463 626h112v-606h129v-119h-129v-184h-141v184h-434zM1069 297h301v412z" />
<glyph unicode="&#xbd;" horiz-adv-x="1714" d="M16 1292l301 224h109v-910h-141v729l-199 -143zM270 51l871 1485l114 -70l-870 -1486zM1042 0v90l279 301q4 4 26.5 28.5t32.5 36t30.5 36.5t31 43t23.5 42t18.5 47t5.5 46q0 63 -38.5 99t-104.5 36q-67 0 -108.5 -42.5t-41.5 -111.5l-143 13q0 117 79.5 187.5 t210.5 70.5q129 0 208 -66.5t79 -175.5q0 -92 -54.5 -175.5t-160.5 -193.5l-186 -196l413 2v-117h-600z" />
<glyph unicode="&#xbe;" horiz-adv-x="1863" d="M51 688l53 105q72 -82 203 -82q93 0 149 46.5t56 121.5q0 72 -53.5 115.5t-141.5 43.5q-73 0 -129 -30l-41 71l285 320h-342v117h528v-89l-264 -280h15q130 0 209 -74t79 -194q0 -128 -90 -206.5t-243 -78.5q-85 0 -157.5 25t-115.5 69zM446 51l871 1485l115 -70 l-871 -1486zM1108 184v99l463 626h112v-606h129v-119h-129v-184h-141v184h-434zM1245 297h301v412z" />
<glyph unicode="&#xbf;" horiz-adv-x="1079" d="M68 -76q0 59 13.5 107t44 88.5t54.5 64t70 62.5q42 39 63.5 60.5t56.5 67t52 87t31 106t14 140.5h180q0 -98 -15.5 -180.5t-34 -133t-55.5 -103.5t-57.5 -75t-62.5 -63q-43 -37 -66 -60.5t-42 -64t-19 -88.5q0 -103 70.5 -166.5t187.5 -63.5q110 0 183 63.5t79 166.5 l203 -11q-7 -180 -135.5 -289.5t-329.5 -109.5q-218 0 -351.5 109t-133.5 286zM426 983q0 57 37 94t94 37t93 -37t36 -94q0 -56 -36.5 -93.5t-92.5 -37.5q-57 0 -94 37.5t-37 93.5z" />
<glyph unicode="&#xc0;" horiz-adv-x="1517" d="M0 0l657 1516h203l656 -1516h-232l-147 352h-756l-148 -352h-233zM369 2007h249l273 -317h-182zM459 532h602l-301 715z" />
<glyph unicode="&#xc1;" horiz-adv-x="1517" d="M0 0l657 1516h203l656 -1516h-232l-147 352h-756l-148 -352h-233zM459 532h602l-301 715zM629 1690l272 317h248l-340 -317h-180z" />
<glyph unicode="&#xc2;" horiz-adv-x="1517" d="M0 0l657 1516h203l656 -1516h-232l-147 352h-756l-148 -352h-233zM391 1690l266 317h205l266 -317h-196l-172 200l-172 -200h-197zM459 532h602l-301 715z" />
<glyph unicode="&#xc3;" horiz-adv-x="1517" d="M0 0l657 1516h203l656 -1516h-232l-147 352h-756l-148 -352h-233zM377 1718q0 121 59.5 194t155.5 73q47 0 96 -20.5t83.5 -45.5t76 -45.5t74.5 -20.5q44 0 71 29.5t27 81.5h119q0 -123 -59 -194.5t-156 -71.5q-45 0 -93.5 21t-84 45.5t-77.5 45.5t-75 21 q-43 0 -70.5 -30.5t-27.5 -82.5h-119zM459 532h602l-301 715z" />
<glyph unicode="&#xc4;" horiz-adv-x="1517" d="M0 0l657 1516h203l656 -1516h-232l-147 352h-756l-148 -352h-233zM401 1874q0 57 37 94t94 37q56 0 93 -37t37 -94t-37 -94t-93 -37q-57 0 -94 37t-37 94zM459 532h602l-301 715zM858 1874q0 57 37 94t94 37q56 0 92.5 -37t36.5 -94t-36.5 -94t-92.5 -37q-57 0 -94 37 t-37 94z" />
<glyph unicode="&#xc5;" horiz-adv-x="1517" d="M0 0l657 1516h203l656 -1516h-232l-147 352h-756l-148 -352h-233zM459 532h602l-301 715zM528 1837q0 97 64 157t168 60t167.5 -60t63.5 -157q0 -100 -63.5 -159.5t-167.5 -59.5q-105 0 -168.5 60t-63.5 159zM645 1837q0 -54 32 -87.5t83 -33.5t81.5 33.5t30.5 87.5 q0 53 -30.5 85t-81.5 32t-83 -32.5t-32 -84.5z" />
<glyph unicode="&#xc6;" horiz-adv-x="2213" d="M-27 0l918 1516h1192v-181h-971l129 -475h784v-180h-735l135 -500h676v-180h-858l-92 352h-729l-203 -352h-246zM526 532h578l-180 689z" />
<glyph unicode="&#xc7;" horiz-adv-x="1562" d="M98 762q0 230 97.5 406t275.5 272t410 96q360 0 583 -246l-137 -139q-76 94 -188 149.5t-252 55.5q-253 0 -407 -163.5t-154 -430.5q0 -270 154 -436t405 -166q309 0 477 254l149 -135q-104 -139 -258.5 -217t-345.5 -82l-71 -113q12 2 36 2q96 0 154.5 -45.5 t58.5 -118.5q0 -79 -67 -127.5t-180 -48.5q-135 0 -199 55l41 76q53 -43 145 -43q70 0 111 23.5t41 62.5t-38.5 61.5t-102.5 22.5q-51 0 -97 -16l-28 53l92 158q-319 26 -512 238t-193 542z" />
<glyph unicode="&#xc8;" horiz-adv-x="1304" d="M195 0v1516h979v-181h-760v-475h702v-180h-702v-500h776v-180h-995zM293 2007h250l272 -317h-182z" />
<glyph unicode="&#xc9;" horiz-adv-x="1304" d="M195 0v1516h979v-181h-760v-475h702v-180h-702v-500h776v-180h-995zM553 1690l272 317h248l-340 -317h-180z" />
<glyph unicode="&#xca;" horiz-adv-x="1304" d="M195 0v1516h979v-181h-760v-475h702v-180h-702v-500h776v-180h-995zM315 1690l267 317h204l267 -317h-197l-172 200l-172 -200h-197z" />
<glyph unicode="&#xcb;" horiz-adv-x="1304" d="M195 0v1516h979v-181h-760v-475h702v-180h-702v-500h776v-180h-995zM326 1874q0 57 37 94t94 37q56 0 92.5 -37t36.5 -94t-36.5 -94t-92.5 -37q-57 0 -94 37t-37 94zM782 1874q0 57 37 94t94 37q56 0 92.5 -37t36.5 -94t-36.5 -94t-92.5 -37q-57 0 -94 37t-37 94z" />
<glyph unicode="&#xcc;" horiz-adv-x="608" d="M-88 2007l340 -317h182l-272 317h-250zM195 0v1516h219v-1516h-219z" />
<glyph unicode="&#xcd;" horiz-adv-x="608" d="M172 1690h180l340 317h-248zM195 0v1516h219v-1516h-219z" />
<glyph unicode="&#xce;" horiz-adv-x="608" d="M-66 1690l267 317h205l266 -317h-197l-172 200l-172 -200h-197zM195 0v1516h219v-1516h-219z" />
<glyph unicode="&#xcf;" horiz-adv-x="608" d="M-55 1874q0 57 37 94t94 37q56 0 92.5 -37t36.5 -94t-36.5 -94t-92.5 -37q-57 0 -94 37t-37 94zM195 0v1516h219v-1516h-219zM401 1874q0 57 37 94t94 37q56 0 93 -37t37 -94t-37 -94t-93 -37q-57 0 -94 37t-37 94z" />
<glyph unicode="&#xd0;" horiz-adv-x="1587" d="M29 684v152h166v680h553q333 0 536 -208.5t203 -551.5q0 -168 -53.5 -309t-149.5 -239.5t-233.5 -153t-302.5 -54.5h-553v684h-166zM414 180h325q235 0 379 159t144 417q0 261 -144 420t-379 159h-325v-499h377v-152h-377v-504z" />
<glyph unicode="&#xd1;" d="M195 0v1516h137l1007 -1143l-6 1143h219v-1516h-137l-1005 1143l4 -1143h-219zM489 1718h119q0 52 27.5 82.5t71.5 30.5q33 0 75 -21t77 -45.5t83.5 -45.5t93.5 -21q97 0 156 71.5t59 194.5h-118q0 -51 -27.5 -81t-71.5 -30q-33 0 -74 20.5t-75.5 45.5t-83.5 45.5 t-96 20.5q-96 0 -156 -73t-60 -194z" />
<glyph unicode="&#xd2;" d="M98 758q0 231 96.5 408t273 273.5t406.5 96.5q172 0 316 -56t245 -157.5t157.5 -246.5t56.5 -318t-56.5 -318t-157.5 -246.5t-245 -157.5t-316 -56q-230 0 -406.5 96.5t-273 273.5t-96.5 408zM326 758q0 -269 150.5 -433.5t397.5 -164.5q246 0 397.5 165t151.5 433 t-151.5 433t-397.5 165q-247 0 -397.5 -164.5t-150.5 -433.5zM483 2007l340 -317h183l-273 317h-250z" />
<glyph unicode="&#xd3;" d="M98 758q0 231 96.5 408t273 273.5t406.5 96.5q172 0 316 -56t245 -157.5t157.5 -246.5t56.5 -318t-56.5 -318t-157.5 -246.5t-245 -157.5t-316 -56q-230 0 -406.5 96.5t-273 273.5t-96.5 408zM326 758q0 -269 150.5 -433.5t397.5 -164.5q246 0 397.5 165t151.5 433 t-151.5 433t-397.5 165q-247 0 -397.5 -164.5t-150.5 -433.5zM743 1690h181l340 317h-248z" />
<glyph unicode="&#xd4;" d="M98 758q0 231 96.5 408t273 273.5t406.5 96.5q172 0 316 -56t245 -157.5t157.5 -246.5t56.5 -318t-56.5 -318t-157.5 -246.5t-245 -157.5t-316 -56q-230 0 -406.5 96.5t-273 273.5t-96.5 408zM326 758q0 -269 150.5 -433.5t397.5 -164.5q246 0 397.5 165t151.5 433 t-151.5 433t-397.5 165q-247 0 -397.5 -164.5t-150.5 -433.5zM506 1690l266 317h205l266 -317h-196l-173 200l-172 -200h-196z" />
<glyph unicode="&#xd5;" d="M98 758q0 231 96.5 408t273 273.5t406.5 96.5q172 0 316 -56t245 -157.5t157.5 -246.5t56.5 -318t-56.5 -318t-157.5 -246.5t-245 -157.5t-316 -56q-230 0 -406.5 96.5t-273 273.5t-96.5 408zM326 758q0 -269 150.5 -433.5t397.5 -164.5q246 0 397.5 165t151.5 433 t-151.5 433t-397.5 165q-247 0 -397.5 -164.5t-150.5 -433.5zM492 1718h118q0 52 27.5 82.5t71.5 30.5q33 0 75 -21t77 -45.5t83.5 -45.5t93.5 -21q97 0 156 71.5t59 194.5h-118q0 -51 -27.5 -81t-71.5 -30q-33 0 -74 20.5t-75.5 45.5t-83.5 45.5t-96 20.5q-96 0 -155.5 -73 t-59.5 -194z" />
<glyph unicode="&#xd6;" d="M98 758q0 231 96.5 408t273 273.5t406.5 96.5q172 0 316 -56t245 -157.5t157.5 -246.5t56.5 -318t-56.5 -318t-157.5 -246.5t-245 -157.5t-316 -56q-230 0 -406.5 96.5t-273 273.5t-96.5 408zM326 758q0 -269 150.5 -433.5t397.5 -164.5q246 0 397.5 165t151.5 433 t-151.5 433t-397.5 165q-247 0 -397.5 -164.5t-150.5 -433.5zM516 1874q0 57 37 94t94 37q56 0 92.5 -37t36.5 -94t-36.5 -94t-92.5 -37q-57 0 -94 37t-37 94zM973 1874q0 57 37 94t94 37q56 0 92.5 -37t36.5 -94t-36.5 -94t-92.5 -37q-57 0 -94 37t-37 94z" />
<glyph unicode="&#xd7;" horiz-adv-x="1050" d="M121 989l129 127l274 -276l277 276l129 -127l-277 -276l275 -275l-129 -129l-275 275l-272 -275l-129 129l274 275z" />
<glyph unicode="&#xd8;" horiz-adv-x="1753" d="M102 758q0 350 213.5 564t563.5 214q288 0 491 -154l139 154l88 -80l-141 -153q197 -213 197 -545q0 -231 -96.5 -408t-272.5 -273.5t-405 -96.5q-293 0 -494 153l-141 -153l-86 79l139 154q-195 211 -195 545zM328 758q0 -233 114 -387l791 862q-145 123 -354 123 q-247 0 -399 -164.5t-152 -433.5zM522 283q145 -123 357 -123q246 0 396 164.5t150 433.5q0 231 -112 387z" />
<glyph unicode="&#xd9;" horiz-adv-x="1636" d="M176 557v959h217v-951q0 -182 117 -293.5t309 -111.5q189 0 305.5 112t116.5 293v951h219v-959q0 -261 -176 -419t-465 -158t-466 158t-177 419zM428 2007l340 -317h182l-272 317h-250z" />
<glyph unicode="&#xda;" horiz-adv-x="1636" d="M176 557v959h217v-951q0 -182 117 -293.5t309 -111.5q189 0 305.5 112t116.5 293v951h219v-959q0 -261 -176 -419t-465 -158t-466 158t-177 419zM688 1690h180l340 317h-247z" />
<glyph unicode="&#xdb;" horiz-adv-x="1636" d="M176 557v959h217v-951q0 -182 117 -293.5t309 -111.5q189 0 305.5 112t116.5 293v951h219v-959q0 -261 -176 -419t-465 -158t-466 158t-177 419zM449 1690l266 317h205l266 -317h-197l-172 200l-172 -200h-196z" />
<glyph unicode="&#xdc;" horiz-adv-x="1636" d="M176 557v959h217v-951q0 -182 117 -293.5t309 -111.5q189 0 305.5 112t116.5 293v951h219v-959q0 -261 -176 -419t-465 -158t-466 158t-177 419zM459 1874q0 57 37 94t94 37q56 0 92.5 -37t36.5 -94t-36.5 -94t-92.5 -37q-57 0 -94 37t-37 94zM915 1874q0 57 37.5 94 t94.5 37q56 0 92.5 -37t36.5 -94t-36.5 -94t-92.5 -37q-57 0 -94.5 37t-37.5 94z" />
<glyph unicode="&#xdd;" horiz-adv-x="1378" d="M29 1516h235l426 -734l426 734h234l-551 -928v-588h-219v588zM561 1690l273 317h247l-340 -317h-180z" />
<glyph unicode="&#xde;" horiz-adv-x="1353" d="M195 0v1516h219v-265h362q231 0 371.5 -129.5t140.5 -343.5q0 -221 -142.5 -356t-375.5 -135h-356v-287h-219zM414 469h336q143 0 227 82.5t84 218.5q0 135 -85 218t-226 83h-336v-602z" />
<glyph unicode="&#xdf;" horiz-adv-x="1261" d="M156 0v1212q0 183 128 294.5t339 111.5q214 0 344.5 -111.5t130.5 -294.5q0 -119 -59.5 -210.5t-166.5 -141.5q143 -52 223.5 -160t80.5 -254q0 -210 -139 -338t-365 -128q-103 0 -166 24l20 172q49 -16 111 -16q145 0 232 83.5t87 221.5t-91.5 222.5t-241.5 84.5v164 q116 0 187 70t71 184q0 112 -71 180t-187 68q-117 0 -187.5 -67t-70.5 -179v-1192h-209z" />
<glyph unicode="&#xe0;" horiz-adv-x="1157" d="M68 307q0 154 125 247t331 93q137 0 283 -31v50q0 131 -79.5 206.5t-217.5 75.5q-169 0 -281 -106l-92 125q167 147 424 147q204 0 329.5 -117t125.5 -309v-688h-203l-4 193q-58 -101 -157.5 -157t-215.5 -56q-165 0 -266.5 90t-101.5 237zM193 1585h249l273 -317h-183z M287 313q0 -84 55 -133t154 -49q58 0 112.5 23t99 65.5t71.5 108.5t28 145q-142 29 -256 29q-120 0 -192 -52t-72 -137z" />
<glyph unicode="&#xe1;" horiz-adv-x="1157" d="M68 307q0 154 125 247t331 93q137 0 283 -31v50q0 131 -79.5 206.5t-217.5 75.5q-169 0 -281 -106l-92 125q167 147 424 147q204 0 329.5 -117t125.5 -309v-688h-203l-4 193q-58 -101 -157.5 -157t-215.5 -56q-165 0 -266.5 90t-101.5 237zM287 313q0 -84 55 -133 t154 -49q58 0 112.5 23t99 65.5t71.5 108.5t28 145q-142 29 -256 29q-120 0 -192 -52t-72 -137zM453 1268l272 317h248l-340 -317h-180z" />
<glyph unicode="&#xe2;" horiz-adv-x="1157" d="M68 307q0 154 125 247t331 93q137 0 283 -31v50q0 131 -79.5 206.5t-217.5 75.5q-169 0 -281 -106l-92 125q167 147 424 147q204 0 329.5 -117t125.5 -309v-688h-203l-4 193q-58 -101 -157.5 -157t-215.5 -56q-165 0 -266.5 90t-101.5 237zM215 1268l266 317h205 l266 -317h-196l-172 200l-172 -200h-197zM287 313q0 -84 55 -133t154 -49q58 0 112.5 23t99 65.5t71.5 108.5t28 145q-142 29 -256 29q-120 0 -192 -52t-72 -137z" />
<glyph unicode="&#xe3;" horiz-adv-x="1157" d="M68 307q0 154 125 247t331 93q137 0 283 -31v50q0 131 -79.5 206.5t-217.5 75.5q-169 0 -281 -106l-92 125q167 147 424 147q204 0 329.5 -117t125.5 -309v-688h-203l-4 193q-58 -101 -157.5 -157t-215.5 -56q-165 0 -266.5 90t-101.5 237zM201 1296q0 121 59.5 194 t155.5 73q47 0 96 -20.5t83.5 -45t75.5 -45t74 -20.5q44 0 71.5 29.5t27.5 80.5h119q0 -123 -59 -194.5t-156 -71.5q-45 0 -93.5 21t-84 45.5t-77.5 45.5t-75 21q-44 0 -71.5 -30.5t-27.5 -82.5h-118zM287 313q0 -84 55 -133t154 -49q58 0 112.5 23t99 65.5t71.5 108.5 t28 145q-142 29 -256 29q-120 0 -192 -52t-72 -137z" />
<glyph unicode="&#xe4;" horiz-adv-x="1157" d="M68 307q0 154 125 247t331 93q137 0 283 -31v50q0 131 -79.5 206.5t-217.5 75.5q-169 0 -281 -106l-92 125q167 147 424 147q204 0 329.5 -117t125.5 -309v-688h-203l-4 193q-58 -101 -157.5 -157t-215.5 -56q-165 0 -266.5 90t-101.5 237zM225 1452q0 57 37 94t94 37 q56 0 92.5 -37t36.5 -94t-36.5 -94t-92.5 -37q-57 0 -94 37t-37 94zM287 313q0 -84 55 -133t154 -49q58 0 112.5 23t99 65.5t71.5 108.5t28 145q-142 29 -256 29q-120 0 -192 -52t-72 -137zM682 1452q0 57 37 94t94 37q56 0 92.5 -37t36.5 -94t-36.5 -94t-92.5 -37 q-57 0 -94 37t-37 94z" />
<glyph unicode="&#xe5;" horiz-adv-x="1157" d="M68 307q0 154 125 247t331 93q137 0 283 -31v50q0 131 -79.5 206.5t-217.5 75.5q-169 0 -281 -106l-92 125q167 147 424 147q204 0 329.5 -117t125.5 -309v-688h-203l-4 193q-58 -101 -157.5 -157t-215.5 -56q-165 0 -266.5 90t-101.5 237zM287 313q0 -84 55 -133 t154 -49q58 0 112.5 23t99 65.5t71.5 108.5t28 145q-142 29 -256 29q-120 0 -192 -52t-72 -137zM352 1415q0 97 64 157t168 60t167.5 -60t63.5 -157q0 -100 -63.5 -159.5t-167.5 -59.5q-105 0 -168.5 60t-63.5 159zM469 1415q0 -54 32 -87.5t83 -33.5t81.5 33.5t30.5 87.5 q0 53 -30.5 85t-81.5 32t-83 -32.5t-32 -84.5z" />
<glyph unicode="&#xe6;" horiz-adv-x="1931" d="M68 307q0 154 125 247t331 93q137 0 283 -31v50q0 131 -79.5 206.5t-217.5 75.5q-169 0 -281 -106l-92 125q159 147 410 147q128 0 227 -54.5t156 -150.5q69 97 173 151t232 54q232 0 374 -152t142 -401q0 -36 -4 -90h-835q15 -153 96 -239.5t221 -86.5q189 0 313 160 l160 -86q-75 -115 -193 -177t-263 -62q-146 0 -260.5 62.5t-182.5 176.5q-60 -114 -178 -176.5t-260 -62.5q-179 0 -288 89.5t-109 237.5zM287 313q0 -84 55 -133t154 -49q58 0 112.5 23t99 65.5t71.5 108.5t28 145q-142 29 -256 29q-120 0 -192 -52t-72 -137zM1012 614h622 q-15 158 -96.5 246t-216.5 88q-132 0 -213 -88.5t-96 -245.5z" />
<glyph unicode="&#xe7;" horiz-adv-x="1107" d="M88 547q0 255 158 411t416 156q206 0 364 -123l-119 -143q-106 86 -243 86q-161 0 -260 -107t-99 -280q0 -174 99.5 -280.5t261.5 -106.5q172 0 274 108l121 -141q-140 -137 -381 -147l-72 -113q12 2 37 2q96 0 154.5 -45.5t58.5 -118.5q0 -79 -67.5 -127.5t-180.5 -48.5 q-134 0 -198 55l41 76q53 -43 145 -43q70 0 111 23.5t41 62.5t-39 61.5t-103 22.5q-50 0 -96 -16l-29 53l92 160q-222 25 -354.5 177t-132.5 386z" />
<glyph unicode="&#xe8;" horiz-adv-x="1230" d="M90 543q0 257 146 414t385 157q238 0 383 -152t145 -401q0 -36 -4 -90h-834q15 -153 96 -239.5t220 -86.5q189 0 313 160l160 -86q-77 -114 -199 -176.5t-272 -62.5q-242 0 -390.5 155t-148.5 408zM229 1585h250l273 -317h-183zM311 614h621q-14 157 -95.5 245.5 t-215.5 88.5t-215 -88.5t-95 -245.5z" />
<glyph unicode="&#xe9;" horiz-adv-x="1230" d="M90 543q0 257 146 414t385 157q238 0 383 -152t145 -401q0 -36 -4 -90h-834q15 -153 96 -239.5t220 -86.5q189 0 313 160l160 -86q-77 -114 -199 -176.5t-272 -62.5q-242 0 -390.5 155t-148.5 408zM311 614h621q-14 157 -95.5 245.5t-215.5 88.5t-215 -88.5t-95 -245.5z M489 1268l273 317h248l-340 -317h-181z" />
<glyph unicode="&#xea;" horiz-adv-x="1230" d="M90 543q0 257 146 414t385 157q238 0 383 -152t145 -401q0 -36 -4 -90h-834q15 -153 96 -239.5t220 -86.5q189 0 313 160l160 -86q-77 -114 -199 -176.5t-272 -62.5q-242 0 -390.5 155t-148.5 408zM252 1268l266 317h205l266 -317h-196l-172 200l-172 -200h-197zM311 614 h621q-14 157 -95.5 245.5t-215.5 88.5t-215 -88.5t-95 -245.5z" />
<glyph unicode="&#xeb;" horiz-adv-x="1230" d="M90 543q0 257 146 414t385 157q238 0 383 -152t145 -401q0 -36 -4 -90h-834q15 -153 96 -239.5t220 -86.5q189 0 313 160l160 -86q-77 -114 -199 -176.5t-272 -62.5q-242 0 -390.5 155t-148.5 408zM262 1452q0 57 37 94t94 37q56 0 92.5 -37t36.5 -94t-36.5 -94 t-92.5 -37q-57 0 -94 37t-37 94zM311 614h621q-14 157 -95.5 245.5t-215.5 88.5t-215 -88.5t-95 -245.5zM719 1452q0 57 37 94t94 37q56 0 92.5 -37t36.5 -94t-36.5 -94t-92.5 -37q-57 0 -94 37t-37 94z" />
<glyph unicode="&#xec;" horiz-adv-x="522" d="M-129 1585l340 -317h182l-272 317h-250zM158 0v1094h209v-1094h-209z" />
<glyph unicode="&#xed;" horiz-adv-x="522" d="M131 1268h180l340 317h-248zM158 0v1094h209v-1094h-209z" />
<glyph unicode="&#xee;" horiz-adv-x="522" d="M-106 1268l266 317h205l266 -317h-197l-172 200l-172 -200h-196zM158 0v1094h209v-1094h-209z" />
<glyph unicode="&#xef;" horiz-adv-x="522" d="M-96 1452q0 57 37 94t94 37q56 0 92.5 -37t36.5 -94t-36.5 -94t-92.5 -37q-57 0 -94 37t-37 94zM158 0v1094h209v-1094h-209zM360 1452q0 57 37.5 94t94.5 37q56 0 92.5 -37t36.5 -94t-36.5 -94t-92.5 -37q-57 0 -94.5 37t-37.5 94z" />
<glyph unicode="&#xf0;" horiz-adv-x="1325" d="M90 549q0 246 147.5 398.5t374.5 152.5q161 0 273 -76q-100 163 -279 301l-141 -92l-119 80l146 96q-76 49 -164 94l174 115q91 -49 160 -96l145 96l117 -86l-144 -94q219 -172 334 -381t115 -443q0 -288 -155.5 -461t-411.5 -173q-258 0 -415 155.5t-157 413.5zM307 547 q0 -173 97.5 -280t257.5 -107q157 0 254.5 107t97.5 280t-97.5 280t-254.5 107q-160 0 -257.5 -107t-97.5 -280z" />
<glyph unicode="&#xf1;" horiz-adv-x="1320" d="M156 0v1094h200l4 -162q59 88 155.5 135t221.5 47q198 0 320.5 -117t122.5 -309v-688h-209v651q0 127 -83 205t-220 78t-220 -78t-83 -205v-651h-209zM287 1296q0 121 59.5 194t155.5 73q47 0 96 -20.5t83.5 -45t75.5 -45t74 -20.5q44 0 71.5 29.5t27.5 80.5h119 q0 -123 -59 -194.5t-156 -71.5q-45 0 -93.5 21t-84 45.5t-77.5 45.5t-75 21q-43 0 -70.5 -30.5t-27.5 -82.5h-119z" />
<glyph unicode="&#xf2;" horiz-adv-x="1316" d="M88 547q0 255 157 411t414 156q255 0 412.5 -156t157.5 -411t-157.5 -411t-412.5 -156q-257 0 -414 156t-157 411zM268 1585l340 -317h183l-273 317h-250zM305 547q0 -174 97.5 -280.5t256.5 -106.5q158 0 255.5 107t97.5 280t-97.5 280t-255.5 107q-159 0 -256.5 -106.5 t-97.5 -280.5z" />
<glyph unicode="&#xf3;" horiz-adv-x="1316" d="M88 547q0 255 157 411t414 156q255 0 412.5 -156t157.5 -411t-157.5 -411t-412.5 -156q-257 0 -414 156t-157 411zM305 547q0 -174 97.5 -280.5t256.5 -106.5q158 0 255.5 107t97.5 280t-97.5 280t-255.5 107q-159 0 -256.5 -106.5t-97.5 -280.5zM528 1268h181l340 317 h-248z" />
<glyph unicode="&#xf4;" horiz-adv-x="1316" d="M88 547q0 255 157 411t414 156q255 0 412.5 -156t157.5 -411t-157.5 -411t-412.5 -156q-257 0 -414 156t-157 411zM291 1268l266 317h205l266 -317h-197l-172 200l-172 -200h-196zM305 547q0 -174 97.5 -280.5t256.5 -106.5q158 0 255.5 107t97.5 280t-97.5 280 t-255.5 107q-159 0 -256.5 -106.5t-97.5 -280.5z" />
<glyph unicode="&#xf5;" horiz-adv-x="1316" d="M88 547q0 255 157 411t414 156q255 0 412.5 -156t157.5 -411t-157.5 -411t-412.5 -156q-257 0 -414 156t-157 411zM276 1296h119q0 52 27.5 82.5t71.5 30.5q33 0 75 -21t77 -45.5t83.5 -45.5t93.5 -21q97 0 156 71.5t59 194.5h-118q0 -51 -27.5 -80.5t-71.5 -29.5 q-33 0 -74 20.5t-75.5 45t-83.5 45t-96 20.5q-96 0 -156 -73t-60 -194zM305 547q0 -174 97.5 -280.5t256.5 -106.5q158 0 255.5 107t97.5 280t-97.5 280t-255.5 107q-159 0 -256.5 -106.5t-97.5 -280.5z" />
<glyph unicode="&#xf6;" horiz-adv-x="1316" d="M88 547q0 255 157 411t414 156q255 0 412.5 -156t157.5 -411t-157.5 -411t-412.5 -156q-257 0 -414 156t-157 411zM301 1452q0 57 37 94t94 37q56 0 92.5 -37t36.5 -94t-36.5 -94t-92.5 -37q-57 0 -94 37t-37 94zM305 547q0 -174 97.5 -280.5t256.5 -106.5 q158 0 255.5 107t97.5 280t-97.5 280t-255.5 107q-159 0 -256.5 -106.5t-97.5 -280.5zM758 1452q0 57 37 94t94 37q56 0 92.5 -37t36.5 -94t-36.5 -94t-92.5 -37q-57 0 -94 37t-37 94z" />
<glyph unicode="&#xf7;" horiz-adv-x="1169" d="M123 627v174h924v-174h-924zM455 362q0 57 37 93.5t94 36.5q56 0 92.5 -36.5t36.5 -93.5t-36.5 -94t-92.5 -37q-57 0 -94 37t-37 94zM455 1067q0 57 37 93t94 36q56 0 92.5 -36t36.5 -93t-36.5 -94t-92.5 -37q-57 0 -94 37t-37 94z" />
<glyph unicode="&#xf8;" horiz-adv-x="1320" d="M90 547q0 255 157.5 411t414.5 156q200 0 346 -100l92 100l88 -67l-96 -107q139 -155 139 -393q0 -255 -156.5 -411t-412.5 -156q-200 0 -349 100l-90 -100l-90 67l96 107q-139 155 -139 393zM307 547q0 -140 64 -238l503 557q-90 68 -212 68q-160 0 -257.5 -107 t-97.5 -280zM446 227q89 -67 216 -67q158 0 255 107t97 280q0 139 -64 237z" />
<glyph unicode="&#xf9;" horiz-adv-x="1286" d="M141 406v688h209v-654q0 -126 79 -203t208 -77t208 77t79 203v654h209v-1094h-201l-4 158q-118 -178 -361 -178q-192 0 -309 117t-117 309zM246 1585h250l272 -317h-182z" />
<glyph unicode="&#xfa;" horiz-adv-x="1286" d="M141 406v688h209v-654q0 -126 79 -203t208 -77t208 77t79 203v654h209v-1094h-201l-4 158q-118 -178 -361 -178q-192 0 -309 117t-117 309zM506 1268l272 317h248l-340 -317h-180z" />
<glyph unicode="&#xfb;" horiz-adv-x="1286" d="M141 406v688h209v-654q0 -126 79 -203t208 -77t208 77t79 203v654h209v-1094h-201l-4 158q-118 -178 -361 -178q-192 0 -309 117t-117 309zM268 1268l267 317h204l267 -317h-197l-172 200l-172 -200h-197z" />
<glyph unicode="&#xfc;" horiz-adv-x="1286" d="M141 406v688h209v-654q0 -126 79 -203t208 -77t208 77t79 203v654h209v-1094h-201l-4 158q-118 -178 -361 -178q-192 0 -309 117t-117 309zM279 1452q0 57 37 94t94 37q56 0 92.5 -37t36.5 -94t-36.5 -94t-92.5 -37q-57 0 -94 37t-37 94zM735 1452q0 57 37 94t94 37 q56 0 92.5 -37t36.5 -94t-36.5 -94t-92.5 -37q-57 0 -94 37t-37 94z" />
<glyph unicode="&#xfd;" horiz-adv-x="1196" d="M23 1094h229l358 -848l342 848h230l-551 -1266q-32 -75 -61 -124.5t-69.5 -92t-93 -62.5t-120.5 -20q-88 0 -148 29l23 170q40 -19 90 -19q64 0 101.5 35.5t72.5 110.5l76 163zM473 1268h180l340 317h-248z" />
<glyph unicode="&#xfe;" horiz-adv-x="1378" d="M156 -451v2048h209v-700q124 217 401 217q227 0 374.5 -156t147.5 -407q0 -254 -147.5 -412.5t-374.5 -158.5q-277 0 -401 217v-648h-209zM365 547q0 -173 97 -280t255 -107q160 0 257 107t97 282q0 173 -97 279t-257 106q-158 0 -255 -107t-97 -280z" />
<glyph unicode="&#xff;" horiz-adv-x="1196" d="M23 1094h229l358 -848l342 848h230l-551 -1266q-32 -75 -61 -124.5t-69.5 -92t-93 -62.5t-120.5 -20q-88 0 -148 29l23 170q40 -19 90 -19q64 0 101.5 35.5t72.5 110.5l76 163zM246 1452q0 57 37 94t94 37q56 0 92.5 -37t36.5 -94t-36.5 -94t-92.5 -37q-57 0 -94 37 t-37 94zM702 1452q0 57 37.5 94t94.5 37q56 0 92.5 -37t36.5 -94t-36.5 -94t-92.5 -37q-57 0 -94.5 37t-37.5 94z" />
<glyph unicode="&#x152;" horiz-adv-x="2541" d="M100 758q0 231 94.5 408t267.5 273.5t400 96.5q179 0 325 -64.5t245 -183.5v228h978v-181h-761v-475h704v-180h-704v-500h778v-180h-995v227q-99 -119 -245 -183t-325 -64q-227 0 -400 96.5t-267.5 273.5t-94.5 408zM326 758q0 -269 152 -433.5t399 -164.5 q246 0 396 164.5t150 433.5t-150 433.5t-396 164.5q-247 0 -399 -164.5t-152 -433.5z" />
<glyph unicode="&#x153;" horiz-adv-x="2152" d="M90 547q0 255 152.5 411t404.5 156q161 0 283.5 -72t189.5 -202q61 130 174 202t262 72q232 0 374.5 -152t142.5 -401q0 -23 -5 -90h-835q15 -153 96 -239.5t221 -86.5q95 0 175 42.5t137 117.5l161 -86q-75 -114 -193.5 -176.5t-262.5 -62.5q-152 0 -268.5 71.5 t-180.5 200.5q-65 -129 -187.5 -200.5t-283.5 -71.5q-252 0 -404.5 156t-152.5 411zM305 547q0 -173 98 -280t256 -107t255.5 107t97.5 280t-97.5 280t-255.5 107t-256 -107t-98 -280zM1233 614h622q-14 158 -95.5 246t-217.5 88q-132 0 -213 -88.5t-96 -245.5z" />
<glyph unicode="&#x178;" horiz-adv-x="1378" d="M29 1516h235l426 -734l426 734h234l-551 -928v-588h-219v588zM334 1874q0 57 37 94t94 37q56 0 92.5 -37t36.5 -94t-36.5 -94t-92.5 -37q-57 0 -94 37t-37 94zM791 1874q0 57 37 94t94 37q56 0 92.5 -37t36.5 -94t-36.5 -94t-92.5 -37q-57 0 -94 37t-37 94z" />
<glyph unicode="&#x2c6;" horiz-adv-x="1228" d="M82 1268l266 317h205l266 -317h-196l-172 198l-172 -198h-197z" />
<glyph unicode="&#x2dc;" horiz-adv-x="1228" d="M90 1296h119q0 52 27.5 82.5t70.5 30.5q33 0 75 -21t77.5 -45.5t84 -45.5t93.5 -21q97 0 156 71.5t59 194.5h-119q0 -51 -27 -80.5t-71 -29.5q-33 0 -74.5 20.5t-76 45t-83.5 45t-96 20.5q-96 0 -155.5 -73t-59.5 -194z" />
<glyph unicode="&#x2000;" horiz-adv-x="1027" />
<glyph unicode="&#x2001;" horiz-adv-x="2054" />
<glyph unicode="&#x2002;" horiz-adv-x="1027" />
<glyph unicode="&#x2003;" horiz-adv-x="2054" />
<glyph unicode="&#x2004;" horiz-adv-x="684" />
<glyph unicode="&#x2005;" horiz-adv-x="513" />
<glyph unicode="&#x2006;" horiz-adv-x="342" />
<glyph unicode="&#x2007;" horiz-adv-x="342" />
<glyph unicode="&#x2008;" horiz-adv-x="256" />
<glyph unicode="&#x2009;" horiz-adv-x="410" />
<glyph unicode="&#x200a;" horiz-adv-x="114" />
<glyph unicode="&#x2010;" horiz-adv-x="933" d="M137 514v152h660v-152h-660z" />
<glyph unicode="&#x2011;" horiz-adv-x="933" d="M137 514v152h660v-152h-660z" />
<glyph unicode="&#x2012;" horiz-adv-x="933" d="M137 514v152h660v-152h-660z" />
<glyph unicode="&#x2013;" horiz-adv-x="1208" d="M137 514v152h934v-152h-934z" />
<glyph unicode="&#x2014;" horiz-adv-x="1914" d="M137 514v152h1641v-152h-1641z" />
<glyph unicode="&#x2018;" horiz-adv-x="518" d="M92 1032l166 484h188l-135 -484h-219z" />
<glyph unicode="&#x2019;" horiz-adv-x="514" d="M98 1032l135 484h220l-166 -484h-189z" />
<glyph unicode="&#x201a;" horiz-adv-x="501" d="M27 -272l135 485h219l-166 -485h-188z" />
<glyph unicode="&#x201c;" horiz-adv-x="890" d="M96 1030l166 486h189l-138 -486h-217zM465 1030l166 486h188l-135 -486h-219z" />
<glyph unicode="&#x201d;" horiz-adv-x="884" d="M98 1032l135 486h220l-166 -486h-189zM467 1032l137 486h217l-166 -486h-188z" />
<glyph unicode="&#x201e;" horiz-adv-x="870" d="M27 -272l135 485h219l-166 -485h-188zM395 -272l137 485h218l-166 -485h-189z" />
<glyph unicode="&#x2022;" horiz-adv-x="774" d="M172 641q0 98 59 157.5t156 59.5t156 -59.5t59 -157.5q0 -97 -59 -156t-156 -59t-156 59t-59 156z" />
<glyph unicode="&#x2026;" horiz-adv-x="1443" d="M111 125q0 59 42.5 101t100.5 42q60 0 101.5 -42t41.5 -101q0 -60 -41.5 -102.5t-101.5 -42.5q-59 0 -101 42.5t-42 102.5zM578 125q0 59 42 101t101 42q60 0 102.5 -42t42.5 -101q0 -60 -42.5 -102.5t-102.5 -42.5q-59 0 -101 42.5t-42 102.5zM1044 125q0 59 43 101 t103 42q58 0 100.5 -42t42.5 -101q0 -60 -42 -102.5t-101 -42.5q-60 0 -103 42.5t-43 102.5z" />
<glyph unicode="&#x202f;" horiz-adv-x="410" />
<glyph unicode="&#x2039;" horiz-adv-x="757" d="M82 553l364 465h222l-355 -465l355 -465h-222z" />
<glyph unicode="&#x203a;" horiz-adv-x="757" d="M90 88l354 465l-354 465h223l365 -465l-365 -465h-223z" />
<glyph unicode="&#x205f;" horiz-adv-x="513" />
<glyph unicode="&#x20ac;" horiz-adv-x="1697" d="M86 539v139h119q-4 54 -4 84v26h-115v140h129q50 280 255.5 444t512.5 164q361 0 584 -246l-137 -139q-76 94 -189 149.5t-252 55.5q-211 0 -355.5 -115t-187.5 -313h525v-140h-543v-26q0 -30 4 -84h539v-139h-510q56 -176 195 -277.5t331 -101.5q309 0 477 254l148 -135 q-106 -143 -266.5 -221t-360.5 -78q-290 0 -492.5 150.5t-265.5 408.5h-141z" />
<glyph unicode="&#x2122;" horiz-adv-x="1486" d="M78 1499v98h487v-98h-184v-487h-119v487h-184zM631 1012l41 585h114l203 -481l201 481h115l41 -585h-119l-23 383l-168 -383h-94l-170 385l-22 -385h-119z" />
<glyph unicode="&#x25fc;" horiz-adv-x="1095" d="M0 0v1096h1096v-1096h-1096z" />
</font>
</defs>
</svg>
