<?xml version="1.0" standalone="no"?>
<!DOCTYPE svg PUBLIC "-//W3C//DTD SVG 1.1//EN" "http://www.w3.org/Graphics/SVG/1.1/DTD/svg11.dtd" >
<svg xmlns="http://www.w3.org/2000/svg">
<metadata>
Created by FontPrep 20130207 at Fri May 26 14:40:03 2017
 By Lizzy Knight
Copyright (c) 2016 by Jason Vandenberg. All rights reserved.
</metadata>
<defs>
<font id="0345de59d8107273549cc219c643364b" horiz-adv-x='1024' >
  <font-face 
    font-family="Town10Display-Regular"
    font-weight="400"
    font-stretch="normal"
    units-per-em="2048"
    panose-1="0 0 5 0 0 0 0 0 0 0"
    ascent="1536"
    descent="-512"
    x-height="1434"
    cap-height="1434"
    bbox="-946 -559 2073 1896"
    underline-thickness="102"
    underline-position="-102"
    unicode-range="U+0020-2212"
  />
<missing-glyph horiz-adv-x="1228" 
d="M188 154l-55 47l434 557l-436 559l57 43l426 -543l426 545l56 -45l-437 -559l439 -559l-60 -43l-424 542zM61 61h1106v1393h-1106v-1393zM0 0v1516h1229v-1516h-1229z" />
    <glyph glyph-name=".notdef" horiz-adv-x="1228" 
d="M188 154l-55 47l434 557l-436 559l57 43l426 -543l426 545l56 -45l-437 -559l439 -559l-60 -43l-424 542zM61 61h1106v1393h-1106v-1393zM0 0v1516h1229v-1516h-1229z" />
    <glyph glyph-name=".null" horiz-adv-x="0" 
 />
    <glyph glyph-name="nonmarkingreturn" horiz-adv-x="681" 
 />
    <glyph glyph-name="space" unicode=" " horiz-adv-x="524" 
 />
    <glyph glyph-name="exclam" unicode="!" horiz-adv-x="569" 
d="M289 -12q-49 0 -84 34t-35 82t35 83q35 34 84 34t85 -34t36 -83q0 -48 -36 -82t-85 -34zM229 358l-32 1127h188l-35 -1127h-121z" />
    <glyph glyph-name="quotedbl" unicode="&#x22;" horiz-adv-x="704" 
d="M492 1008l-23 448h172l-23 -448h-126zM195 1008l-23 448h172l-22 -448h-127z" />
    <glyph glyph-name="numbersign" unicode="#" horiz-adv-x="1308" 
d="M481 526h307l41 381h-307zM256 0l41 375h-260l18 151h256l41 381h-258l17 152h258l39 375h170l-39 -375h307l39 375h170l-39 -375h258l-17 -152h-258l-41 -381h261l-19 -151h-256l-41 -375h-170l41 375h-307l-41 -375h-170z" />
    <glyph glyph-name="dollar" unicode="$" horiz-adv-x="1069" 
d="M479 -127v168q-274 25 -422 240l123 92q131 -188 365 -189q133 0 211 52t78 139q0 125 -204 207l-160 64q-34 13 -97 43t-110 70q-48 39 -64 69q-43 79 -43 159q0 131 87 214t236 99v152h154v-154q211 -27 313 -172l-121 -90q-94 123 -272 123q-109 0 -168 -44t-59 -120
t80 -124t183 -87q269 -102 345 -187t76 -216t-104 -224t-273 -114v-170h-154z" />
    <glyph glyph-name="percent" unicode="%" horiz-adv-x="1488" 
d="M1096 94q68 0 118 50t50 120t-50 120t-118 50t-118 -50t-50 -120t50 -120t118 -50zM1096 -27q-125 0 -212 85t-87 205t87 205t212 85t212 -85t87 -205t-87 -205t-212 -85zM391 774q70 0 119 50t49 120t-49 120t-119 50t-119 -50t-49 -120t49 -120t119 -50zM391 655
q-125 0 -212 84t-87 205t87 206t212 85t212 -85t87 -206t-87 -205t-212 -84zM393 -35l-106 68l809 1204l106 -68z" />
    <glyph glyph-name="ampersand" unicode="&#x26;" horiz-adv-x="1505" 
d="M575 127q166 0 338 162l-348 436q-119 -80 -182 -158t-63 -182t68 -181q70 -77 187 -77zM586 -31q-193 0 -317 122q-124 121 -124 283t86 268t238 208q-111 162 -111 298t98 224t263 88q166 0 313 -135l-88 -125q-113 111 -239 111q-72 0 -122 -47t-51 -117
q0 -111 150 -299l346 -432q78 98 150 217l129 -101q-100 -158 -174 -247l227 -285h-213l-129 160q-205 -191 -432 -191z" />
    <glyph glyph-name="quotesingle" unicode="'" horiz-adv-x="503" 
d="M195 1008l-23 448h172l-22 -448h-127z" />
    <glyph glyph-name="parenleft" unicode="(" horiz-adv-x="552" 
d="M43 616q0 282 114 524q114 241 289 386l93 -96q-143 -138 -229 -346t-85 -468q0 -260 85 -468t229 -345l-93 -96q-176 145 -289 386q-114 241 -114 523z" />
    <glyph glyph-name="parenright" unicode=")" horiz-adv-x="552" 
d="M328 616q0 260 -85 468t-229 346l92 96q176 -145 290 -386t114 -524q0 -284 -114 -524t-290 -385l-92 96q143 137 229 345q85 208 85 468z" />
    <glyph glyph-name="asterisk" unicode="*" horiz-adv-x="946" 
d="M356 874l-133 99l150 168l-221 51l51 156l209 -88l-21 225h164l-18 -223l206 86l52 -156l-222 -51l150 -168l-133 -99l-117 197z" />
    <glyph glyph-name="plus" unicode="+" horiz-adv-x="1120" 
d="M479 297v346h-340v156h340v338h162v-338h340v-156h-340v-346h-162z" />
    <glyph glyph-name="comma" unicode="," horiz-adv-x="571" 
d="M172 104q0 49 34 83t83 34t85 -34q36 -33 36 -79t-50 -135l-90 -180h-96l68 205q-70 29 -70 106z" />
    <glyph glyph-name="hyphen" unicode="-" horiz-adv-x="495" 
d="M41 582v151h416v-151h-416z" />
    <glyph glyph-name="period" unicode="." horiz-adv-x="571" 
d="M291 -12q-49 0 -84 34t-35 82t35 83q35 34 84 34t85 -34t36 -83q0 -48 -36 -82t-85 -34z" />
    <glyph glyph-name="slash" unicode="/" horiz-adv-x="866" 
d="M76 -129l542 1614h173l-543 -1614h-172z" />
    <glyph glyph-name="zero" unicode="0" horiz-adv-x="1216" 
d="M606 131q141 0 241 151q99 150 99 436t-99 438t-241 151q-142 0 -239 -152q-99 -151 -99 -437t98 -436t240 -151zM608 -27q-223 0 -369 195q-147 195 -147 550t146 551q146 195 370 195q223 0 369 -195q145 -196 145 -551t-146 -550t-368 -195z" />
    <glyph glyph-name="one" unicode="1" horiz-adv-x="731" 
d="M352 0v1272l-211 -21v158l389 37v-1446h-178z" />
    <glyph glyph-name="two" unicode="2" horiz-adv-x="1062" 
d="M63 0v16l394 494q20 25 60 73q40 49 58 71t51 62q32 40 46 62t37 56t33 56t26 58t16 90q0 98 -69 185q-69 86 -183 86q-114 1 -179 -51t-132 -162l-129 75q139 293 432 293q203 0 320 -134t117 -272t-78 -264q-78 -128 -260 -354l-228 -282h576v-158h-908z" />
    <glyph glyph-name="three" unicode="3" horiz-adv-x="1148" 
d="M551 -31q-133 -1 -261 53t-208 146l115 115q55 -68 152 -113t198 -45q141 0 237 88t97 219q0 131 -90 218t-236 87q-82 0 -141 -18l-39 26l348 531h-543v158h830v-17l-361 -530q172 -23 290 -153t118 -314q1 -184 -145 -317q-146 -134 -361 -134z" />
    <glyph glyph-name="four" unicode="4" horiz-adv-x="1122" 
d="M711 489v537l-398 -537h398zM713 0v334h-678v24l831 1117h21v-986h170v-155h-170v-334h-174z" />
    <glyph glyph-name="five" unicode="5" horiz-adv-x="1148" 
d="M551 -31q-133 -1 -261 53t-208 146l115 115q55 -68 153 -113t199 -45q141 0 237 88t96 218t-88 218q-89 88 -219 88q-180 0 -339 -143l-86 22l143 818h686v-158h-559l-78 -453q111 70 246 70q195 0 332 -135t137 -328q-1 -193 -145 -327t-361 -134z" />
    <glyph glyph-name="six" unicode="6" horiz-adv-x="1155" 
d="M268 430q0 -129 90 -217t215 -88q124 0 220 91t96 217t-91 215t-220 89q-130 0 -220 -89t-90 -218zM598 893q186 0 326 -136q140 -135 139 -325q1 -190 -147 -326t-345 -137q-197 0 -338 136t-141 333q0 150 119 322l461 674h194l-374 -555q51 14 106 14z" />
    <glyph glyph-name="seven" unicode="7" horiz-adv-x="1044" 
d="M70 1276v158h925v-17l-606 -1417h-188l547 1276h-678z" />
    <glyph glyph-name="eight" unicode="8" horiz-adv-x="1155" 
d="M578 125q131 0 221 81t90 198q0 118 -86 204t-224 86q-139 0 -225 -87t-86 -203t90 -198q90 -81 220 -81zM579 842q115 0 181 70t66 168q0 97 -71 164t-176 67t-175 -67t-70 -164t65 -168q66 -70 180 -70zM578 -31q-201 0 -344 127q-142 127 -142 307q0 123 70 225
t186 160q-170 113 -170 306q0 154 117 262t284 108t283 -108t117 -262q0 -94 -46 -175t-126 -133q117 -55 187 -157t69 -226q0 -180 -142 -307t-343 -127z" />
    <glyph glyph-name="nine" unicode="9" horiz-adv-x="1155" 
d="M578 696q129 0 220 89t91 219t-91 217q-91 88 -219 88q-127 0 -219 -89t-92 -217t90 -218q91 -89 220 -89zM557 543q-186 0 -326 136q-139 136 -139 324q0 189 148 325t344 136q197 0 338 -136t141 -333q0 -133 -117 -319l-424 -676h-192l340 557q-51 -14 -113 -14z" />
    <glyph glyph-name="colon" unicode=":" horiz-adv-x="571" 
d="M291 -12q-49 0 -84 34t-35 82t35 83q35 34 84 34t85 -34t36 -83q0 -48 -36 -82t-85 -34zM291 606q-49 0 -84 34t-35 83t35 83t84 34t85 -34t36 -83t-36 -83t-85 -34z" />
    <glyph glyph-name="semicolon" unicode=";" horiz-adv-x="571" 
d="M172 104q0 49 34 83t83 34t85 -34q36 -33 36 -79t-50 -135l-90 -180h-96l68 205q-70 29 -70 106zM291 608q-49 0 -84 34t-35 83t35 83t84 34t85 -34t36 -83t-36 -83t-85 -34z" />
    <glyph glyph-name="less" unicode="&#x3c;" horiz-adv-x="1095" 
d="M895 315l-756 322v162l756 321l61 -141l-622 -260l622 -262z" />
    <glyph glyph-name="equal" unicode="=" horiz-adv-x="1097" 
d="M139 444v154h819v-154h-819zM139 836v153h819v-153h-819z" />
    <glyph glyph-name="greater" unicode="&#x3e;" horiz-adv-x="1095" 
d="M201 315l-62 142l623 262l-623 260l62 141l755 -321v-162z" />
    <glyph glyph-name="question" unicode="?" horiz-adv-x="1007" 
d="M420 -12q-49 0 -84 34t-35 82t35 83q35 34 84 34t85 -34t36 -83q0 -48 -36 -82t-85 -34zM418 1311q-150 0 -283 -127l-90 129q174 151 390 151t349 -120q134 -120 134 -298q0 -180 -112 -285t-304 -145l-21 -258h-121l-26 367q192 16 302 97t110 210t-90 204
q-88 75 -238 75z" />
    <glyph glyph-name="at" unicode="@" horiz-adv-x="1740" 
d="M817 258q123 0 205 84t82 194t-58 170q-58 62 -162 62t-188 -87t-84 -189t58 -168t147 -66zM766 -242q-285 0 -469 188t-184 480q0 356 260 606t600 250q289 0 473 -188t184 -472t-153 -442q-82 -84 -197 -84q-80 0 -135 39t-74 101q-123 -123 -283 -123t-254 102
q-96 102 -96 262t133 298t301 138t258 -102l11 78h168l-70 -494q-29 -190 92 -190q100 0 164 122q63 122 64 287q0 264 -162 432t-424 166q-313 0 -551 -228t-238 -558q0 -266 164 -432t422 -166q180 0 352 84l33 -59q-188 -95 -389 -95z" />
    <glyph glyph-name="A" unicode="A" horiz-adv-x="1355" 
d="M391 438h576l-289 697zM20 0l650 1475h16l649 -1475h-188l-119 289h-700l-119 -289h-189z" />
    <glyph glyph-name="B" unicode="B" horiz-adv-x="1226" 
d="M326 152h311q156 0 240 70t84 196q0 124 -83 194t-241 70h-311v-530zM326 829h254q132 -1 206 61t74 168t-74 166q-74 62 -206 62h-254v-457zM145 0v1434h439q211 0 334 -106t122 -261q0 -205 -196 -297q143 -39 221 -133t78 -225q0 -178 -134 -295t-368 -117h-496z" />
    <glyph glyph-name="C" unicode="C" horiz-adv-x="1411" 
d="M807 -31q-301 0 -508 212t-207 535.5t207 535.5t509 212t507 -204l-90 -125q-186 168 -414.5 168t-383.5 -165t-155 -421t155 -421t388.5 -165t435.5 203l90 -135q-233 -230 -534 -230z" />
    <glyph glyph-name="D" unicode="D" horiz-adv-x="1380" 
d="M326 160h174q307 0 457.5 154.5t150.5 402.5t-150.5 402.5t-457.5 154.5h-174v-1114zM145 0v1434h357q381 0 583.5 -202t202.5 -515.5t-202.5 -515t-583.5 -201.5h-357z" />
    <glyph glyph-name="E" unicode="E" horiz-adv-x="1161" 
d="M145 0v1434h908v-160h-727v-506h645v-160h-645v-448h747v-160h-928z" />
    <glyph glyph-name="F" unicode="F" horiz-adv-x="1138" 
d="M145 0v1434h908v-160h-727v-506h606v-160h-606v-608h-181z" />
    <glyph glyph-name="G" unicode="G" horiz-adv-x="1519" 
d="M805 -31q-299 0 -506 213t-207 536t207 534.5t509 211.5t507 -204l-90 -125q-187 168 -415 168t-383 -165t-155 -420t155 -421t374 -166t409 186v293h-440v156h616v-498q-231 -299 -581 -299z" />
    <glyph glyph-name="H" unicode="H" horiz-adv-x="1388" 
d="M145 0v1434h181v-666h737v666h180v-1434h-180v608h-737v-608h-181z" />
    <glyph glyph-name="I" unicode="I" horiz-adv-x="530" 
d="M176 0v1434h180v-1434h-180z" />
    <glyph glyph-name="J" unicode="J" horiz-adv-x="960" 
d="M368 -31q-176 0 -302 97l77 131q94 -68 210 -68t199 82t83 219v1004h180v-1004q0 -201 -135.5 -331t-311.5 -130z" />
    <glyph glyph-name="K" unicode="K" horiz-adv-x="1267" 
d="M145 0v1434h181v-670l645 670h237l-678 -695l709 -739h-246l-667 713v-713h-181z" />
    <glyph glyph-name="L" unicode="L" horiz-adv-x="1103" 
d="M145 0v1434h181v-1274h751v-160h-932z" />
    <glyph glyph-name="M" unicode="M" horiz-adv-x="1593" 
d="M145 0v1464h17l635 -751l637 751h16v-1464h-180v1001l-465 -534h-17l-462 534v-1001h-181z" />
    <glyph glyph-name="N" unicode="N" horiz-adv-x="1425" 
d="M326 0h-181v1475h19l936 -1072v1031h180v-1475h-16l-938 1065v-1024z" />
    <glyph glyph-name="O" unicode="O" 
d="M813 131q227 0 384 166t157 420t-157 420t-384 166t-384 -166t-157 -420t157 -420t384 -166zM814 -31q-302 0 -512 213t-210 534.5t210 534.5t512 213t512 -213t210 -534.5t-210 -534.5t-512 -213z" />
    <glyph glyph-name="P" unicode="P" horiz-adv-x="1157" 
d="M326 668h223q166 0 260 83t94 223t-95 224t-259 84h-223v-614zM145 0v1434h408q244 0 387 -131t143 -328t-143 -328t-387 -131h-227v-516h-181z" />
    <glyph glyph-name="Q" unicode="Q" 
d="M1354 730q0 241 -157 407t-384 166t-384 -166t-157 -406.5t128 -400.5t325 -191v264h176v-266q197 33 325 192.5t128 400.5zM1536 729.5q0 -309.5 -181 -516.5t-454 -238v-303h-176v303q-272 31 -452.5 238t-180.5 516.5t210 522t512 212.5t512 -212.5t210 -522z" />
    <glyph glyph-name="R" unicode="R" horiz-adv-x="1214" 
d="M326 668h223q166 0 260 83t94 223t-95 224t-259 84h-223v-614zM145 0v1434h408q244 0 387 -131.5t143 -327.5q0 -143 -79.5 -256t-223.5 -166l369 -553h-205l-340 518q-16 -2 -51 -2h-227v-516h-181z" />
    <glyph glyph-name="S" unicode="S" horiz-adv-x="1181" 
d="M602 -27q-358 0 -536 279l124 96q147 -223 408 -223q154 0 244 65.5t90 177.5t-108 184q-78 52 -197 102.5t-157 67.5t-107.5 59t-102.5 81q-88 104 -88 236q0 166 118 265t314 99q141 0 254 -52t178 -153l-129 -90q-98 143 -301 144q-123 0 -189.5 -54.5t-66.5 -151.5
t100 -163q74 -48 181.5 -94t135.5 -58t84 -40t85 -50q95 -70 135.5 -142t40.5 -175q0 -188 -142.5 -299t-367.5 -111z" />
    <glyph glyph-name="T" unicode="T" horiz-adv-x="1191" 
d="M506 0v1274h-459v160h1098v-160h-459v-1274h-180z" />
    <glyph glyph-name="U" unicode="U" horiz-adv-x="1409" 
d="M704.5 -31q-251.5 0 -405.5 150.5t-154 408.5v906h181v-906q0 -188 101 -292.5t277.5 -104.5t277.5 104.5t101 292.5v906h181v-906q0 -258 -154 -408.5t-405.5 -150.5z" />
    <glyph glyph-name="V" unicode="V" horiz-adv-x="1314" 
d="M649 -41l-629 1475h189l448 -1125l449 1125h188l-628 -1475h-17z" />
    <glyph glyph-name="W" unicode="W" horiz-adv-x="2011" 
d="M563 -41l-543 1475h189l373 -1086l415 1106h19l414 -1106l372 1086h191l-545 -1475h-16l-424 1098l-426 -1098h-19z" />
    <glyph glyph-name="X" unicode="X" horiz-adv-x="1284" 
d="M41 0l498 729l-498 705h207l397 -572l387 572h207l-483 -705l487 -729h-207l-389 592l-399 -592h-207z" />
    <glyph glyph-name="Y" unicode="Y" horiz-adv-x="1255" 
d="M539 0v565l-519 869h199l410 -705l409 705h199l-518 -869v-565h-180z" />
    <glyph glyph-name="Z" unicode="Z" horiz-adv-x="1243" 
d="M104 0v16l740 1264h-639v154h932v-17l-754 -1263h733v-154h-1012z" />
    <glyph glyph-name="bracketleft" unicode="[" horiz-adv-x="450" 
d="M80 -252v1737h315v-156h-139v-1425h139v-156h-315z" />
    <glyph glyph-name="backslash" unicode="\" horiz-adv-x="866" 
d="M791 -129h-173l-542 1614h172z" />
    <glyph glyph-name="bracketright" unicode="]" horiz-adv-x="450" 
d="M55 -252v156h140v1425h-140v156h316v-1737h-316z" />
    <glyph glyph-name="asciicircum" unicode="^" horiz-adv-x="1044" 
d="M180 1079l242 373h201l241 -373h-135l-207 254l-209 -254h-133z" />
    <glyph glyph-name="underscore" unicode="_" horiz-adv-x="1210" 
d="M0 -236v132h1210v-132h-1210z" />
    <glyph glyph-name="grave" unicode="`" horiz-adv-x="989" 
d="M610 1536l-291 330h242l141 -330h-92z" />
    <glyph glyph-name="a" unicode="a" horiz-adv-x="1355" 
d="M391 438h576l-289 697zM20 0l650 1475h16l649 -1475h-188l-119 289h-700l-119 -289h-189z" />
    <glyph glyph-name="b" unicode="b" horiz-adv-x="1226" 
d="M326 152h311q156 0 240 70t84 196q0 124 -83 194t-241 70h-311v-530zM326 829h254q132 -1 206 61t74 168t-74 166q-74 62 -206 62h-254v-457zM145 0v1434h439q211 0 334 -106t122 -261q0 -205 -196 -297q143 -39 221 -133t78 -225q0 -178 -134 -295t-368 -117h-496z" />
    <glyph glyph-name="c" unicode="c" horiz-adv-x="1411" 
d="M807 -31q-301 0 -508 212t-207 535.5t207 535.5t509 212t507 -204l-90 -125q-186 168 -414.5 168t-383.5 -165t-155 -421t155 -421t388.5 -165t435.5 203l90 -135q-233 -230 -534 -230z" />
    <glyph glyph-name="d" unicode="d" horiz-adv-x="1380" 
d="M326 160h174q307 0 457.5 154.5t150.5 402.5t-150.5 402.5t-457.5 154.5h-174v-1114zM145 0v1434h357q381 0 583.5 -202t202.5 -515.5t-202.5 -515t-583.5 -201.5h-357z" />
    <glyph glyph-name="e" unicode="e" horiz-adv-x="1161" 
d="M145 0v1434h908v-160h-727v-506h645v-160h-645v-448h747v-160h-928z" />
    <glyph glyph-name="f" unicode="f" horiz-adv-x="1138" 
d="M145 0v1434h908v-160h-727v-506h606v-160h-606v-608h-181z" />
    <glyph glyph-name="g" unicode="g" horiz-adv-x="1519" 
d="M805 -31q-299 0 -506 213t-207 536t207 534.5t509 211.5t507 -204l-90 -125q-187 168 -415 168t-383 -165t-155 -420t155 -421t374 -166t409 186v293h-440v156h616v-498q-231 -299 -581 -299z" />
    <glyph glyph-name="h" unicode="h" horiz-adv-x="1388" 
d="M145 0v1434h181v-666h737v666h180v-1434h-180v608h-737v-608h-181z" />
    <glyph glyph-name="i" unicode="i" horiz-adv-x="530" 
d="M176 0v1434h180v-1434h-180z" />
    <glyph glyph-name="j" unicode="j" horiz-adv-x="960" 
d="M368 -31q-176 0 -302 97l77 131q94 -68 210 -68t199 82t83 219v1004h180v-1004q0 -201 -135.5 -331t-311.5 -130z" />
    <glyph glyph-name="k" unicode="k" horiz-adv-x="1267" 
d="M145 0v1434h181v-670l645 670h237l-678 -695l709 -739h-246l-667 713v-713h-181z" />
    <glyph glyph-name="l" unicode="l" horiz-adv-x="1103" 
d="M145 0v1434h181v-1274h751v-160h-932z" />
    <glyph glyph-name="m" unicode="m" horiz-adv-x="1593" 
d="M145 0v1464h17l635 -751l637 751h16v-1464h-180v1001l-465 -534h-17l-462 534v-1001h-181z" />
    <glyph glyph-name="n" unicode="n" horiz-adv-x="1425" 
d="M326 0h-181v1475h19l936 -1072v1031h180v-1475h-16l-938 1065v-1024z" />
    <glyph glyph-name="o" unicode="o" 
d="M813 131q227 0 384 166t157 420t-157 420t-384 166t-384 -166t-157 -420t157 -420t384 -166zM814 -31q-302 0 -512 213t-210 534.5t210 534.5t512 213t512 -213t210 -534.5t-210 -534.5t-512 -213z" />
    <glyph glyph-name="p" unicode="p" horiz-adv-x="1157" 
d="M326 668h223q166 0 260 83t94 223t-95 224t-259 84h-223v-614zM145 0v1434h408q244 0 387 -131t143 -328t-143 -328t-387 -131h-227v-516h-181z" />
    <glyph glyph-name="q" unicode="q" 
d="M1354 730q0 241 -157 407t-384 166t-384 -166t-157 -406.5t128 -400.5t325 -191v264h176v-266q197 33 325 192.5t128 400.5zM1536 729.5q0 -309.5 -181 -516.5t-454 -238v-303h-176v303q-272 31 -452.5 238t-180.5 516.5t210 522t512 212.5t512 -212.5t210 -522z" />
    <glyph glyph-name="r" unicode="r" horiz-adv-x="1214" 
d="M326 668h223q166 0 260 83t94 223t-95 224t-259 84h-223v-614zM145 0v1434h408q244 0 387 -131.5t143 -327.5q0 -143 -79.5 -256t-223.5 -166l369 -553h-205l-340 518q-16 -2 -51 -2h-227v-516h-181z" />
    <glyph glyph-name="s" unicode="s" horiz-adv-x="1181" 
d="M602 -27q-358 0 -536 279l124 96q147 -223 408 -223q154 0 244 65.5t90 177.5t-108 184q-78 52 -197 102.5t-157 67.5t-107.5 59t-102.5 81q-88 104 -88 236q0 166 118 265t314 99q141 0 254 -52t178 -153l-129 -90q-98 143 -301 144q-123 0 -189.5 -54.5t-66.5 -151.5
t100 -163q74 -48 181.5 -94t135.5 -58t84 -40t85 -50q95 -70 135.5 -142t40.5 -175q0 -188 -142.5 -299t-367.5 -111z" />
    <glyph glyph-name="t" unicode="t" horiz-adv-x="1191" 
d="M506 0v1274h-459v160h1098v-160h-459v-1274h-180z" />
    <glyph glyph-name="u" unicode="u" horiz-adv-x="1409" 
d="M704.5 -31q-251.5 0 -405.5 150.5t-154 408.5v906h181v-906q0 -188 101 -292.5t277.5 -104.5t277.5 104.5t101 292.5v906h181v-906q0 -258 -154 -408.5t-405.5 -150.5z" />
    <glyph glyph-name="v" unicode="v" horiz-adv-x="1314" 
d="M649 -41l-629 1475h189l448 -1125l449 1125h188l-628 -1475h-17z" />
    <glyph glyph-name="w" unicode="w" horiz-adv-x="2011" 
d="M563 -41l-543 1475h189l373 -1086l415 1106h19l414 -1106l372 1086h191l-545 -1475h-16l-424 1098l-426 -1098h-19z" />
    <glyph glyph-name="x" unicode="x" horiz-adv-x="1284" 
d="M41 0l498 729l-498 705h207l397 -572l387 572h207l-483 -705l487 -729h-207l-389 592l-399 -592h-207z" />
    <glyph glyph-name="y" unicode="y" horiz-adv-x="1255" 
d="M539 0v565l-519 869h199l410 -705l409 705h199l-518 -869v-565h-180z" />
    <glyph glyph-name="z" unicode="z" horiz-adv-x="1243" 
d="M104 0v16l740 1264h-639v154h932v-17l-754 -1263h733v-154h-1012z" />
    <glyph glyph-name="braceleft" unicode="{" horiz-adv-x="581" 
d="M487 -252q-139 0 -207 69t-67 214v334q0 176 -137 176v151q137 0 137 176v334q0 145 68 214t206 69h41v-154h-49q-49 1 -71 -25t-21 -89v-361q0 -82 -41 -146t-106 -94q66 -30 106 -94t41 -145v-361q0 -63 22 -89t70 -25h49v-154h-41z" />
    <glyph glyph-name="bar" unicode="|" horiz-adv-x="608" 
d="M227 -256v1741h156v-1741h-156z" />
    <glyph glyph-name="braceright" unicode="}" horiz-adv-x="581" 
d="M53 -252v154h49q49 0 71 26t22 88v361q0 83 41 147t106 92q-66 29 -106 94t-41 146v361q0 63 -22 89t-71 25h-49v154h41q139 0 207 -69t68 -214v-334q0 -176 137 -176v-151q-137 0 -137 -176v-334q0 -145 -68 -214t-207 -69h-41z" />
    <glyph glyph-name="asciitilde" unicode="~" horiz-adv-x="1269" 
d="M1161 758q1 -131 -73 -216t-202 -85t-278 87t-222 87q-73 0 -110 -51t-36 -121h-129q0 135 73 218q74 83 211 83q55 0 113 -18t84 -32q25 -14 124 -68t171 -54q71 0 107 49t38 121h129z" />
    <glyph glyph-name="exclamdown" unicode="&#xa1;" horiz-adv-x="569" 
d="M352 567l33 -1126h-188l34 1126h121zM293 938q49 0 84 -34t35 -83t-35 -83t-84 -34t-85 34t-36 83t36 83t85 34z" />
    <glyph glyph-name="cent" unicode="&#xa2;" horiz-adv-x="911" 
d="M436 49v189q-168 26 -273 140t-105 268t104 272q106 117 272 141v153h137v-151q160 -18 279 -127l-80 -113q-113 97 -244 97t-213 -79t-82 -190t82 -191t209 -79q127 0 252 102l80 -119q-133 -113 -281 -129v-184h-137z" />
    <glyph glyph-name="sterling" unicode="&#xa3;" horiz-adv-x="980" 
d="M57 0v156q150 12 150 268v121h-133v125h133v141q0 201 106 311t301 109q195 0 310 -109l-74 -118q-92 78 -234 77q-236 0 -235 -278v-133h330v-125h-330v-109q0 -180 -84 -280h590v-156h-830z" />
    <glyph glyph-name="currency" unicode="&#xa4;" horiz-adv-x="997" 
d="M498 350q104 0 181 74t77 178t-77 178t-181 74t-180 -74t-76 -178t76 -178t180 -74zM104 602q0 121 72 221l-119 115l95 92l118 -117q104 72 230 72t227 -72l121 117l92 -92l-119 -117q72 -98 72 -219t-72 -219l119 -117l-92 -92l-121 117q-100 -72 -226 -72t-231 72
l-118 -117l-95 92l119 115q-72 100 -72 221z" />
    <glyph glyph-name="yen" unicode="&#xa5;" horiz-adv-x="1171" 
d="M498 0v178h-252v121h252v113h-252v123h209l-398 669h199l330 -583l327 583h201l-393 -669h203v-123h-246v-113h246v-121h-246v-178h-180z" />
    <glyph glyph-name="brokenbar" unicode="&#xa6;" horiz-adv-x="608" 
d="M227 -256v725h156v-725h-156zM227 760v725h156v-725h-156z" />
    <glyph glyph-name="dieresis" unicode="&#xa8;" horiz-adv-x="989" 
d="M776 1701q0 -44 -30 -76t-75 -32q-44 0 -76 32t-32 76t32 75q32 30 76 30q45 0 75 -30t30 -75zM320 1593q-44 0 -76 32t-31 76q0 44 32 75q31 30 75 30t75 -30t31 -75q0 -44 -31 -76t-75 -32z" />
    <glyph glyph-name="copyright" unicode="&#xa9;" horiz-adv-x="1482" 
d="M760 260q-154 0 -258 99q-102 99 -102 247t102 248q104 100 264 100t258 -114l-86 -88q-80 74 -178 74t-160 -62t-61 -158q0 -96 61 -158q62 -62 158 -63q96 0 190 90l84 -96q-118 -119 -272 -119zM164 606q0 -242 168 -402t410 -159q243 0 410 159q167 160 167 402
t-168 402t-410 160q-241 0 -409 -160t-168 -402zM742 1235q270 0 460 -179q190 -180 190 -450t-189 -450q-190 -180 -461 -179q-271 -1 -460 179t-190 450q0 270 190 450t460 179z" />
    <glyph glyph-name="ordfeminine" unicode="&#xaa;" horiz-adv-x="843" 
d="M115 537v125h645v-125h-645zM429 907q85 1 142 59t57 149t-56 149t-142 59q-86 0 -141 -60q-55 -59 -55 -147t54 -148q56 -60 141 -61zM406 774q-126 0 -224 102t-98 239t98 239t224 102t206 -82v60h150v-639h-150v61q-81 -82 -206 -82z" />
    <glyph glyph-name="guillemotleft" unicode="&#xab;" horiz-adv-x="1046" 
d="M819 20l-323 443l323 442l103 -53l-252 -389l252 -389zM442 20l-323 443l323 442l103 -53l-252 -389l252 -389z" />
    <glyph glyph-name="registered" unicode="&#xae;" horiz-adv-x="1482" 
d="M662 649h129q94 0 94 76q0 37 -25 57t-67 21h-131v-154zM526 295v623h269q90 0 153 -54q64 -54 64 -128q0 -72 -36 -120t-95 -63l172 -258h-156l-164 244h-71v-244h-136zM164 606q0 -242 168 -402t410 -159q243 0 410 159q167 160 167 402t-168 402t-410 160
q-241 0 -409 -160t-168 -402zM742 1235q270 0 460 -179q190 -180 190 -450t-189 -450q-190 -180 -461 -179q-271 -1 -460 179t-190 450q0 270 190 450t460 179z" />
    <glyph glyph-name="macron" unicode="&#xaf;" horiz-adv-x="989" 
d="M135 1628v144h719v-144h-719z" />
    <glyph glyph-name="degree" unicode="&#xb0;" horiz-adv-x="761" 
d="M381 995q70 -1 121 51t51 122t-51 120q-51 51 -122 51t-121 -50t-50 -121t51 -122t121 -51zM381 881q-119 0 -204 85q-85 86 -85 204t84 201t204 83t204 -84t84 -203t-84 -203t-203 -83z" />
    <glyph glyph-name="acute" unicode="&#xb4;" horiz-adv-x="989" 
d="M319 1536l140 330h243l-292 -330h-91z" />
    <glyph glyph-name="periodcentered" unicode="&#xb7;" horiz-adv-x="571" 
d="M291 350q-49 0 -84 34t-35 83t35 83t84 34t85 -34t36 -83t-36 -83t-85 -34z" />
    <glyph glyph-name="cedilla" unicode="&#xb8;" horiz-adv-x="989" 
d="M459 -94q109 0 181 -52t71 -136t-75 -144q-74 -59 -166 -59t-191 28v117q77 -25 147 -25t106 26q36 27 35 61q0 34 -46 62t-144 15v101q31 6 82 6z" />
    <glyph glyph-name="ordmasculine" unicode="&#xba;" horiz-adv-x="851" 
d="M100 537v125h654v-125h-654zM427 907q79 1 136 61t57 147t-56 147q-58 60 -138 61q-80 0 -136 -61q-56 -62 -56 -148t56 -146q58 -60 137 -61zM426 774q-141 0 -242 100q-100 100 -100 240t100 242q100 100 242 100t242 -100t100 -240t-100 -242q-101 -100 -242 -100z
" />
    <glyph glyph-name="guillemotright" unicode="&#xbb;" horiz-adv-x="1052" 
d="M610 20l-102 54l252 389l-252 389l102 53l324 -442zM227 20l-102 54l252 389l-252 389l102 53l324 -442z" />
    <glyph glyph-name="onequarter" unicode="&#xbc;" horiz-adv-x="716" 
d="M422 225v176l-152 -176h152zM420 6v113h-336v45l440 506h35v-441h78v-110h-78v-113h-139zM41 696v80h635v-80h-635zM301 821v520l-115 -10v121l267 21v-652h-152z" />
    <glyph glyph-name="onehalf" unicode="&#xbd;" horiz-adv-x="716" 
d="M115 14v9l194 235q6 6 24 27t52 60t43 57q8 18 16 35t9 43q0 26 -28 52t-75 25q-78 0 -131 -88l-108 47q63 160 245 160q113 0 179 -64t65 -139q0 -102 -137 -254l-76 -86h219v-119h-491zM41 696v80h635v-80h-635zM301 821v520l-115 -10v121l267 21v-652h-152z" />
    <glyph glyph-name="threequarters" unicode="&#xbe;" horiz-adv-x="716" 
d="M422 225v176l-152 -176h152zM420 6v113h-336v45l440 506h35v-441h78v-110h-78v-113h-139zM41 696v80h635v-80h-635zM374 807q-98 0 -170 27t-112 65l78 86q66 -66 174 -65q57 0 96 28t39 71q0 44 -37 75q-37 30 -84 30t-73 -10l-43 29l137 203h-229v120h452v-8l-164 -239
q82 -17 134 -71t52 -137t-75 -143q-77 -60 -175 -61z" />
    <glyph glyph-name="questiondown" unicode="&#xbf;" horiz-adv-x="1007" 
d="M262 -107q0 -129 89 -203t239 -75q150 0 282 127l91 -129q-175 -152 -391 -152t-349 120t-133 299q0 178 112 284t304 145l20 258h121l27 -366q-192 -15 -302 -97t-110 -211zM588 938q49 0 84 -34t35 -83t-35 -83t-84 -34t-85 34t-36 83t36 83t85 34z" />
    <glyph glyph-name="Agrave" unicode="&#xc0;" horiz-adv-x="1355" 
d="M391 438h576l-289 697zM20 0l650 1475h16l649 -1475h-188l-119 289h-700l-119 -289h-189zM631 1534l-291 330h242l141 -330h-92z" />
    <glyph glyph-name="Aacute" unicode="&#xc1;" horiz-adv-x="1355" 
d="M391 438h576l-289 697zM20 0l650 1475h16l649 -1475h-188l-119 289h-700l-119 -289h-189zM633 1534l139 330h244l-293 -330h-90z" />
    <glyph glyph-name="Acircumflex" unicode="&#xc2;" horiz-adv-x="1355" 
d="M391 438h576l-289 697zM20 0l650 1475h16l649 -1475h-188l-119 289h-700l-119 -289h-189zM352 1532l316 362h18l315 -362h-133l-190 180l-193 -180h-133z" />
    <glyph glyph-name="Atilde" unicode="&#xc3;" horiz-adv-x="1355" 
d="M391 438h576l-289 697zM20 0l650 1475h16l649 -1475h-188l-119 289h-700l-119 -289h-189zM297 1554q0 125 52 206q51 81 153 81t219 -90q80 -57 117 -57q104 0 104 149h117q0 -127 -53.5 -208t-153.5 -81t-221 91q-78 55 -115 55q-104 0 -104 -146h-115z" />
    <glyph glyph-name="Adieresis" unicode="&#xc4;" horiz-adv-x="1355" 
d="M391 438h576l-289 697zM20 0l650 1475h16l649 -1475h-188l-119 289h-700l-119 -289h-189zM855 1591q-44 0 -75.5 32t-31.5 76t31.5 74.5t75.5 30.5t75 -30.5t31 -74.5t-31 -76t-75 -32zM505 1591q-44 0 -76 32t-32 76t32 74.5t76 30.5t74.5 -30.5t30.5 -74.5t-30.5 -76
t-74.5 -32z" />
    <glyph glyph-name="Aring" unicode="&#xc5;" horiz-adv-x="1355" 
d="M391 438h576l-289 697zM20 0l650 1475h16l649 -1475h-188l-119 289h-700l-119 -289h-189zM678 1597q41 0 71.5 30t30.5 72t-30.5 71.5t-71.5 29.5t-70.5 -29.5t-29.5 -71.5t29.5 -72t70.5 -30zM679 1511q-79 0 -134.5 55.5t-55.5 132.5t55.5 132t134.5 55t135 -55
t56 -132t-56 -132.5t-135 -55.5z" />
    <glyph glyph-name="AE" unicode="&#xc6;" horiz-adv-x="1982" 
d="M967 442v705l-455 -705h455zM1874 1434v-160h-727v-506h645v-160h-645v-448h747v-160h-927v293h-553l-189 -293h-205l943 1434h911z" />
    <glyph glyph-name="Ccedilla" unicode="&#xc7;" horiz-adv-x="1411" 
d="M827.5 -485q-92.5 0 -190.5 28v117q78 -25 147.5 -25t105.5 26t36 60.5t-38 57t-87.5 22.5t-65.5 -2v101q31 6 82 6q109 0 180.5 -52.5t71.5 -136.5t-74.5 -143t-167 -59zM807 -31q-301 0 -508 212t-207 535.5t207 535.5t509 212t507 -204l-90 -125q-186 168 -414.5 168
t-383.5 -165t-155 -421t155 -421t388.5 -165t435.5 203l90 -135q-233 -230 -534 -230z" />
    <glyph glyph-name="Egrave" unicode="&#xc8;" horiz-adv-x="1161" 
d="M145 0v1434h908v-160h-727v-506h645v-160h-645v-448h747v-160h-928zM588 1536l-291 330h242l141 -330h-92z" />
    <glyph glyph-name="Eacute" unicode="&#xc9;" horiz-adv-x="1161" 
d="M145 0v1434h908v-160h-727v-506h645v-160h-645v-448h747v-160h-928zM590 1536l139 330h244l-293 -330h-90z" />
    <glyph glyph-name="Ecircumflex" unicode="&#xca;" horiz-adv-x="1161" 
d="M145 0v1434h908v-160h-727v-506h645v-160h-645v-448h747v-160h-928zM309 1534l316 362h18l315 -362h-133l-190 180l-193 -180h-133z" />
    <glyph glyph-name="Edieresis" unicode="&#xcb;" horiz-adv-x="1161" 
d="M145 0v1434h908v-160h-727v-506h645v-160h-645v-448h747v-160h-928zM812 1593q-44 0 -75.5 32t-31.5 76t31.5 74.5t75.5 30.5t75 -30.5t31 -74.5t-31 -76t-75 -32zM462 1593q-44 0 -76 32t-32 76t32 74.5t76 30.5t74.5 -30.5t30.5 -74.5t-30.5 -76t-74.5 -32z" />
    <glyph glyph-name="Igrave" unicode="&#xcc;" horiz-adv-x="530" 
d="M176 0v1434h180v-1434h-180zM219 1536l-291 330h242l141 -330h-92z" />
    <glyph glyph-name="Iacute" unicode="&#xcd;" horiz-adv-x="530" 
d="M176 0v1434h180v-1434h-180zM221 1536l139 330h244l-293 -330h-90z" />
    <glyph glyph-name="Icircumflex" unicode="&#xce;" horiz-adv-x="530" 
d="M176 0v1434h180v-1434h-180zM-59 1534l315 362h18l316 -362h-133l-191 180l-192 -180h-133z" />
    <glyph glyph-name="Idieresis" unicode="&#xcf;" horiz-adv-x="530" 
d="M176 0v1434h180v-1434h-180zM443 1593q-44 0 -75.5 32t-31.5 76t31.5 74.5t75.5 30.5t75 -30.5t31 -74.5t-31 -76t-75 -32zM93 1593q-44 0 -75.5 32t-31.5 76t31.5 74.5t75.5 30.5t75 -30.5t31 -74.5t-31 -76t-75 -32z" />
    <glyph glyph-name="Eth" unicode="&#xd0;" horiz-adv-x="1380" 
d="M500 160q307 0 457.5 154.5t150.5 402.5t-150.5 402.5t-457.5 154.5h-174v-486h299v-141h-299v-487h174zM502 1434q381 0 583.5 -202t202.5 -515.5t-202.5 -515t-583.5 -201.5h-357v647h-137v141h137v646h357z" />
    <glyph glyph-name="Ntilde" unicode="&#xd1;" horiz-adv-x="1425" 
d="M326 0h-181v1475h19l936 -1072v1031h180v-1475h-16l-938 1065v-1024zM332 1556q0 125 52 206t153.5 81t218.5 -90q80 -57 116 -57q104 0 105 149h117q0 -127 -53.5 -208t-154 -81t-220.5 91q-78 55 -115 55q-104 0 -105 -146h-114z" />
    <glyph glyph-name="Ograve" unicode="&#xd2;" 
d="M813 131q227 0 384 166t157 420t-157 420t-384 166t-384 -166t-157 -420t157 -420t384 -166zM814 -31q-302 0 -512 213t-210 534.5t210 534.5t512 213t512 -213t210 -534.5t-210 -534.5t-512 -213zM766 1536l-291 330h242l141 -330h-92z" />
    <glyph glyph-name="Oacute" unicode="&#xd3;" 
d="M813 131q227 0 384 166t157 420t-157 420t-384 166t-384 -166t-157 -420t157 -420t384 -166zM814 -31q-302 0 -512 213t-210 534.5t210 534.5t512 213t512 -213t210 -534.5t-210 -534.5t-512 -213zM768 1536l139 330h244l-293 -330h-90z" />
    <glyph glyph-name="Ocircumflex" unicode="&#xd4;" 
d="M813 131q227 0 384 166t157 420t-157 420t-384 166t-384 -166t-157 -420t157 -420t384 -166zM814 -31q-302 0 -512 213t-210 534.5t210 534.5t512 213t512 -213t210 -534.5t-210 -534.5t-512 -213zM487 1534l316 362h18l316 -362h-133l-191 180l-192 -180h-134z" />
    <glyph glyph-name="Otilde" unicode="&#xd5;" 
d="M813 131q227 0 384 166t157 420t-157 420t-384 166t-384 -166t-157 -420t157 -420t384 -166zM814 -31q-302 0 -512 213t-210 534.5t210 534.5t512 213t512 -213t210 -534.5t-210 -534.5t-512 -213zM432 1556q0 125 52.5 206t153.5 81t218 -90q80 -57 117 -57
q104 0 104 149h117q0 -127 -53.5 -208t-153.5 -81t-221 91q-78 55 -115 55q-104 0 -104 -146h-115z" />
    <glyph glyph-name="Odieresis" unicode="&#xd6;" 
d="M813 131q227 0 384 166t157 420t-157 420t-384 166t-384 -166t-157 -420t157 -420t384 -166zM814 -31q-302 0 -512 213t-210 534.5t210 534.5t512 213t512 -213t210 -534.5t-210 -534.5t-512 -213zM990 1593q-44 0 -75.5 32t-31.5 76t31.5 74.5t75.5 30.5t75 -30.5
t31 -74.5t-31 -76t-75 -32zM640 1593q-44 0 -76 32t-32 76t32 74.5t76 30.5t74.5 -30.5t30.5 -74.5t-30.5 -76t-74.5 -32z" />
    <glyph glyph-name="multiply" unicode="&#xd7;" horiz-adv-x="1062" 
d="M809 326l-279 278l-274 -274l-117 114l277 277l-275 272l115 115l274 -272l275 274l115 -117l-275 -274l279 -279z" />
    <glyph glyph-name="Oslash" unicode="&#xd8;" 
d="M813 131q227 0 384 166t157 420q0 156 -61.5 281.5t-168.5 203.5l-487 -1040q82 -31 176 -31zM813 1303q-227 0 -384 -166t-157 -420q0 -156 62.5 -283t171.5 -205l491 1041q-84 33 -184 33zM92 717q0 322 210 534.5t511 212.5q129 0 254 -45l68 144h159l-98 -207
q158 -98 249 -265t91 -374q0 -322 -210 -535t-513 -213q-131 0 -248 43l-67 -145h-162l98 209q-158 98 -250 266t-92 375z" />
    <glyph glyph-name="Ugrave" unicode="&#xd9;" horiz-adv-x="1409" 
d="M704.5 -31q-251.5 0 -405.5 150.5t-154 408.5v906h181v-906q0 -188 101 -292.5t277.5 -104.5t277.5 104.5t101 292.5v906h181v-906q0 -258 -154 -408.5t-405.5 -150.5zM657 1536l-290 330h241l142 -330h-93z" />
    <glyph glyph-name="Uacute" unicode="&#xda;" horiz-adv-x="1409" 
d="M704.5 -31q-251.5 0 -405.5 150.5t-154 408.5v906h181v-906q0 -188 101 -292.5t277.5 -104.5t277.5 104.5t101 292.5v906h181v-906q0 -258 -154 -408.5t-405.5 -150.5zM659 1536l140 330h243l-292 -330h-91z" />
    <glyph glyph-name="Ucircumflex" unicode="&#xdb;" horiz-adv-x="1409" 
d="M704.5 -31q-251.5 0 -405.5 150.5t-154 408.5v906h181v-906q0 -188 101 -292.5t277.5 -104.5t277.5 104.5t101 292.5v906h181v-906q0 -258 -154 -408.5t-405.5 -150.5zM379 1534l315 362h19l315 -362h-133l-190 180l-193 -180h-133z" />
    <glyph glyph-name="Udieresis" unicode="&#xdc;" horiz-adv-x="1409" 
d="M704.5 -31q-251.5 0 -405.5 150.5t-154 408.5v906h181v-906q0 -188 101 -292.5t277.5 -104.5t277.5 104.5t101 292.5v906h181v-906q0 -258 -154 -408.5t-405.5 -150.5zM882 1593q-44 0 -76 32t-32 76t32 74.5t76 30.5t74.5 -30.5t30.5 -74.5t-30.5 -76t-74.5 -32z
M531 1593q-44 0 -75.5 32t-31.5 76t31.5 74.5t75.5 30.5t75 -30.5t31 -74.5t-31 -76t-75 -32z" />
    <glyph glyph-name="Yacute" unicode="&#xdd;" horiz-adv-x="1255" 
d="M539 0v565l-519 869h199l410 -705l409 705h199l-518 -869v-565h-180zM584 1536l139 330h244l-293 -330h-90z" />
    <glyph glyph-name="Thorn" unicode="&#xde;" horiz-adv-x="1167" 
d="M326 430h223q166 0 260 83t94 223t-95 224t-259 84h-223v-614zM145 0v1434h181v-238h227q244 0 387 -131t143 -329t-142 -328t-388 -129h-227v-279h-181z" />
    <glyph glyph-name="agrave" unicode="&#xe0;" horiz-adv-x="1355" 
d="M391 438h576l-289 697zM20 0l650 1475h16l649 -1475h-188l-119 289h-700l-119 -289h-189zM631 1534l-291 330h242l141 -330h-92z" />
    <glyph glyph-name="aacute" unicode="&#xe1;" horiz-adv-x="1355" 
d="M391 438h576l-289 697zM20 0l650 1475h16l649 -1475h-188l-119 289h-700l-119 -289h-189zM633 1534l139 330h244l-293 -330h-90z" />
    <glyph glyph-name="acircumflex" unicode="&#xe2;" horiz-adv-x="1355" 
d="M391 438h576l-289 697zM20 0l650 1475h16l649 -1475h-188l-119 289h-700l-119 -289h-189zM352 1532l316 362h18l315 -362h-133l-190 180l-193 -180h-133z" />
    <glyph glyph-name="atilde" unicode="&#xe3;" horiz-adv-x="1355" 
d="M391 438h576l-289 697zM20 0l650 1475h16l649 -1475h-188l-119 289h-700l-119 -289h-189zM297 1554q0 125 52 206q51 81 153 81t219 -90q80 -57 117 -57q104 0 104 149h117q0 -127 -53.5 -208t-153.5 -81t-221 91q-78 55 -115 55q-104 0 -104 -146h-115z" />
    <glyph glyph-name="adieresis" unicode="&#xe4;" horiz-adv-x="1355" 
d="M391 438h576l-289 697zM20 0l650 1475h16l649 -1475h-188l-119 289h-700l-119 -289h-189zM855 1591q-44 0 -75.5 32t-31.5 76t31.5 74.5t75.5 30.5t75 -30.5t31 -74.5t-31 -76t-75 -32zM505 1591q-44 0 -76 32t-32 76t32 74.5t76 30.5t74.5 -30.5t30.5 -74.5t-30.5 -76
t-74.5 -32z" />
    <glyph glyph-name="aring" unicode="&#xe5;" horiz-adv-x="1355" 
d="M391 438h576l-289 697zM20 0l650 1475h16l649 -1475h-188l-119 289h-700l-119 -289h-189zM678 1597q41 0 71.5 30t30.5 72t-30.5 71.5t-71.5 29.5t-70.5 -29.5t-29.5 -71.5t29.5 -72t70.5 -30zM679 1511q-79 0 -134.5 55.5t-55.5 132.5t55.5 132t134.5 55t135 -55
t56 -132t-56 -132.5t-135 -55.5z" />
    <glyph glyph-name="ae" unicode="&#xe6;" horiz-adv-x="1982" 
d="M967 442v705l-455 -705h455zM1874 1434v-160h-727v-506h645v-160h-645v-448h747v-160h-927v293h-553l-189 -293h-205l943 1434h911z" />
    <glyph glyph-name="ccedilla" unicode="&#xe7;" horiz-adv-x="1411" 
d="M827.5 -485q-92.5 0 -190.5 28v117q78 -25 147.5 -25t105.5 26t36 60.5t-38 57t-87.5 22.5t-65.5 -2v101q31 6 82 6q109 0 180.5 -52.5t71.5 -136.5t-74.5 -143t-167 -59zM807 -31q-301 0 -508 212t-207 535.5t207 535.5t509 212t507 -204l-90 -125q-186 168 -414.5 168
t-383.5 -165t-155 -421t155 -421t388.5 -165t435.5 203l90 -135q-233 -230 -534 -230z" />
    <glyph glyph-name="egrave" unicode="&#xe8;" horiz-adv-x="1161" 
d="M145 0v1434h908v-160h-727v-506h645v-160h-645v-448h747v-160h-928zM588 1536l-291 330h242l141 -330h-92z" />
    <glyph glyph-name="eacute" unicode="&#xe9;" horiz-adv-x="1161" 
d="M145 0v1434h908v-160h-727v-506h645v-160h-645v-448h747v-160h-928zM590 1536l139 330h244l-293 -330h-90z" />
    <glyph glyph-name="ecircumflex" unicode="&#xea;" horiz-adv-x="1161" 
d="M145 0v1434h908v-160h-727v-506h645v-160h-645v-448h747v-160h-928zM309 1534l316 362h18l315 -362h-133l-190 180l-193 -180h-133z" />
    <glyph glyph-name="edieresis" unicode="&#xeb;" horiz-adv-x="1161" 
d="M145 0v1434h908v-160h-727v-506h645v-160h-645v-448h747v-160h-928zM812 1593q-44 0 -75.5 32t-31.5 76t31.5 74.5t75.5 30.5t75 -30.5t31 -74.5t-31 -76t-75 -32zM462 1593q-44 0 -76 32t-32 76t32 74.5t76 30.5t74.5 -30.5t30.5 -74.5t-30.5 -76t-74.5 -32z" />
    <glyph glyph-name="igrave" unicode="&#xec;" horiz-adv-x="530" 
d="M176 0v1434h180v-1434h-180zM219 1536l-291 330h242l141 -330h-92z" />
    <glyph glyph-name="iacute" unicode="&#xed;" horiz-adv-x="530" 
d="M176 0v1434h180v-1434h-180zM221 1536l139 330h244l-293 -330h-90z" />
    <glyph glyph-name="icircumflex" unicode="&#xee;" horiz-adv-x="530" 
d="M176 0v1434h180v-1434h-180zM-59 1534l315 362h18l316 -362h-133l-191 180l-192 -180h-133z" />
    <glyph glyph-name="idieresis" unicode="&#xef;" horiz-adv-x="530" 
d="M176 0v1434h180v-1434h-180zM443 1593q-44 0 -75.5 32t-31.5 76t31.5 74.5t75.5 30.5t75 -30.5t31 -74.5t-31 -76t-75 -32zM93 1593q-44 0 -75.5 32t-31.5 76t31.5 74.5t75.5 30.5t75 -30.5t31 -74.5t-31 -76t-75 -32z" />
    <glyph glyph-name="eth" unicode="&#xf0;" horiz-adv-x="1380" 
d="M500 160q307 0 457.5 154.5t150.5 402.5t-150.5 402.5t-457.5 154.5h-174v-486h299v-141h-299v-487h174zM502 1434q381 0 583.5 -202t202.5 -515.5t-202.5 -515t-583.5 -201.5h-357v647h-137v141h137v646h357z" />
    <glyph glyph-name="ntilde" unicode="&#xf1;" horiz-adv-x="1425" 
d="M326 0h-181v1475h19l936 -1072v1031h180v-1475h-16l-938 1065v-1024zM332 1556q0 125 52 206t153.5 81t218.5 -90q80 -57 116 -57q104 0 105 149h117q0 -127 -53.5 -208t-154 -81t-220.5 91q-78 55 -115 55q-104 0 -105 -146h-114z" />
    <glyph glyph-name="ograve" unicode="&#xf2;" 
d="M813 131q227 0 384 166t157 420t-157 420t-384 166t-384 -166t-157 -420t157 -420t384 -166zM814 -31q-302 0 -512 213t-210 534.5t210 534.5t512 213t512 -213t210 -534.5t-210 -534.5t-512 -213zM766 1536l-291 330h242l141 -330h-92z" />
    <glyph glyph-name="oacute" unicode="&#xf3;" 
d="M813 131q227 0 384 166t157 420t-157 420t-384 166t-384 -166t-157 -420t157 -420t384 -166zM814 -31q-302 0 -512 213t-210 534.5t210 534.5t512 213t512 -213t210 -534.5t-210 -534.5t-512 -213zM768 1536l139 330h244l-293 -330h-90z" />
    <glyph glyph-name="ocircumflex" unicode="&#xf4;" 
d="M813 131q227 0 384 166t157 420t-157 420t-384 166t-384 -166t-157 -420t157 -420t384 -166zM814 -31q-302 0 -512 213t-210 534.5t210 534.5t512 213t512 -213t210 -534.5t-210 -534.5t-512 -213zM487 1534l316 362h18l316 -362h-133l-191 180l-192 -180h-134z" />
    <glyph glyph-name="otilde" unicode="&#xf5;" 
d="M813 131q227 0 384 166t157 420t-157 420t-384 166t-384 -166t-157 -420t157 -420t384 -166zM814 -31q-302 0 -512 213t-210 534.5t210 534.5t512 213t512 -213t210 -534.5t-210 -534.5t-512 -213zM432 1556q0 125 52.5 206t153.5 81t218 -90q80 -57 117 -57
q104 0 104 149h117q0 -127 -53.5 -208t-153.5 -81t-221 91q-78 55 -115 55q-104 0 -104 -146h-115z" />
    <glyph glyph-name="odieresis" unicode="&#xf6;" 
d="M813 131q227 0 384 166t157 420t-157 420t-384 166t-384 -166t-157 -420t157 -420t384 -166zM814 -31q-302 0 -512 213t-210 534.5t210 534.5t512 213t512 -213t210 -534.5t-210 -534.5t-512 -213zM990 1593q-44 0 -75.5 32t-31.5 76t31.5 74.5t75.5 30.5t75 -30.5
t31 -74.5t-31 -76t-75 -32zM640 1593q-44 0 -76 32t-32 76t32 74.5t76 30.5t74.5 -30.5t30.5 -74.5t-30.5 -76t-74.5 -32z" />
    <glyph glyph-name="divide" unicode="&#xf7;" horiz-adv-x="1099" 
d="M549 227q-43 0 -74 32t-31 76t30 75q30 30 74 30t77 -32t33 -74q0 -43 -34 -75q-32 -32 -75 -32zM139 639v156h822v-156h-822zM548 995q-44 0 -74 31t-30 75t30 75q30 30 74 30t77 -32t33 -74q0 -43 -34 -74q-32 -31 -76 -31z" />
    <glyph glyph-name="oslash" unicode="&#xf8;" 
d="M813 131q227 0 384 166t157 420q0 156 -61.5 281.5t-168.5 203.5l-487 -1040q82 -31 176 -31zM813 1303q-227 0 -384 -166t-157 -420q0 -156 62.5 -283t171.5 -205l491 1041q-84 33 -184 33zM92 717q0 322 210 534.5t511 212.5q129 0 254 -45l68 144h159l-98 -207
q158 -98 249 -265t91 -374q0 -322 -210 -535t-513 -213q-131 0 -248 43l-67 -145h-162l98 209q-158 98 -250 266t-92 375z" />
    <glyph glyph-name="ugrave" unicode="&#xf9;" horiz-adv-x="1409" 
d="M704.5 -31q-251.5 0 -405.5 150.5t-154 408.5v906h181v-906q0 -188 101 -292.5t277.5 -104.5t277.5 104.5t101 292.5v906h181v-906q0 -258 -154 -408.5t-405.5 -150.5zM657 1536l-290 330h241l142 -330h-93z" />
    <glyph glyph-name="uacute" unicode="&#xfa;" horiz-adv-x="1409" 
d="M704.5 -31q-251.5 0 -405.5 150.5t-154 408.5v906h181v-906q0 -188 101 -292.5t277.5 -104.5t277.5 104.5t101 292.5v906h181v-906q0 -258 -154 -408.5t-405.5 -150.5zM659 1536l140 330h243l-292 -330h-91z" />
    <glyph glyph-name="ucircumflex" unicode="&#xfb;" horiz-adv-x="1409" 
d="M704.5 -31q-251.5 0 -405.5 150.5t-154 408.5v906h181v-906q0 -188 101 -292.5t277.5 -104.5t277.5 104.5t101 292.5v906h181v-906q0 -258 -154 -408.5t-405.5 -150.5zM379 1534l315 362h19l315 -362h-133l-190 180l-193 -180h-133z" />
    <glyph glyph-name="udieresis" unicode="&#xfc;" horiz-adv-x="1409" 
d="M704.5 -31q-251.5 0 -405.5 150.5t-154 408.5v906h181v-906q0 -188 101 -292.5t277.5 -104.5t277.5 104.5t101 292.5v906h181v-906q0 -258 -154 -408.5t-405.5 -150.5zM882 1593q-44 0 -76 32t-32 76t32 74.5t76 30.5t74.5 -30.5t30.5 -74.5t-30.5 -76t-74.5 -32z
M531 1593q-44 0 -75.5 32t-31.5 76t31.5 74.5t75.5 30.5t75 -30.5t31 -74.5t-31 -76t-75 -32z" />
    <glyph glyph-name="yacute" unicode="&#xfd;" horiz-adv-x="1255" 
d="M539 0v565l-519 869h199l410 -705l409 705h199l-518 -869v-565h-180zM584 1536l139 330h244l-293 -330h-90z" />
    <glyph glyph-name="thorn" unicode="&#xfe;" horiz-adv-x="1167" 
d="M326 430h223q166 0 260 83t94 223t-95 224t-259 84h-223v-614zM145 0v1434h181v-238h227q244 0 387 -131t143 -329t-142 -328t-388 -129h-227v-279h-181z" />
    <glyph glyph-name="ydieresis" unicode="&#xff;" horiz-adv-x="1255" 
d="M539 0v565l-519 869h199l410 -705l409 705h199l-518 -869v-565h-180zM806 1593q-44 0 -76 32t-32 76t32 74.5t76 30.5t74.5 -30.5t30.5 -74.5t-30.5 -76t-74.5 -32zM456 1593q-44 0 -76 32t-32 76t32 74.5t76 30.5t74.5 -30.5t30.5 -74.5t-30.5 -76t-74.5 -32z" />
    <glyph glyph-name="Amacron" unicode="&#x100;" horiz-adv-x="1355" 
d="M391 438h576l-289 697zM20 0l650 1475h16l649 -1475h-188l-119 289h-700l-119 -289h-189zM319 1626v143h719v-143h-719z" />
    <glyph glyph-name="amacron" unicode="&#x101;" horiz-adv-x="1355" 
d="M391 438h576l-289 697zM20 0l650 1475h16l649 -1475h-188l-119 289h-700l-119 -289h-189zM319 1626v143h719v-143h-719z" />
    <glyph glyph-name="Abreve" unicode="&#x102;" horiz-adv-x="1355" 
d="M391 438h576l-289 697zM20 0l650 1475h16l649 -1475h-188l-119 289h-700l-119 -289h-189zM677 1532q-138 0 -237.5 104.5t-99.5 229.5h137q0 -68 59.5 -130.5t140.5 -62.5t141.5 62.5t60.5 130.5h135q0 -125 -99.5 -229.5t-237.5 -104.5z" />
    <glyph glyph-name="abreve" unicode="&#x103;" horiz-adv-x="1355" 
d="M391 438h576l-289 697zM20 0l650 1475h16l649 -1475h-188l-119 289h-700l-119 -289h-189zM677 1532q-138 0 -237.5 104.5t-99.5 229.5h137q0 -68 59.5 -130.5t140.5 -62.5t141.5 62.5t60.5 130.5h135q0 -125 -99.5 -229.5t-237.5 -104.5z" />
    <glyph glyph-name="Aogonek" unicode="&#x104;" horiz-adv-x="1355" 
d="M391 438h576l-289 697zM1198.5 -481q-74.5 0 -136 56t-61.5 135t78 157l135 133h-67l-119 289h-700l-119 -289h-189l650 1475h16l649 -1475l-155 -215q-31 -41 -31 -70q1 -29 25 -50q51 -44 165 3l2 -110q-68 -39 -142.5 -39z" />
    <glyph glyph-name="aogonek" unicode="&#x105;" horiz-adv-x="1355" 
d="M391 438h576l-289 697zM1198.5 -481q-74.5 0 -136 56t-61.5 135t78 157l135 133h-67l-119 289h-700l-119 -289h-189l650 1475h16l649 -1475l-155 -215q-31 -41 -31 -70q1 -29 25 -50q51 -44 165 3l2 -110q-68 -39 -142.5 -39z" />
    <glyph glyph-name="Cacute" unicode="&#x106;" horiz-adv-x="1411" 
d="M807 -31q-301 0 -508 212t-207 535.5t207 535.5t509 212t507 -204l-90 -125q-186 168 -414.5 168t-383.5 -165t-155 -421t155 -421t388.5 -165t435.5 203l90 -135q-233 -230 -534 -230zM750 1536l139 330h244l-293 -330h-90z" />
    <glyph glyph-name="cacute" unicode="&#x107;" horiz-adv-x="1411" 
d="M807 -31q-301 0 -508 212t-207 535.5t207 535.5t509 212t507 -204l-90 -125q-186 168 -414.5 168t-383.5 -165t-155 -421t155 -421t388.5 -165t435.5 203l90 -135q-233 -230 -534 -230zM750 1536l139 330h244l-293 -330h-90z" />
    <glyph glyph-name="Ccircumflex" unicode="&#x108;" horiz-adv-x="1411" 
d="M807 -31q-301 0 -508 212t-207 535.5t207 535.5t509 212t507 -204l-90 -125q-186 168 -414.5 168t-383.5 -165t-155 -421t155 -421t388.5 -165t435.5 203l90 -135q-233 -230 -534 -230zM469 1534l315 362h19l315 -362h-133l-190 180l-193 -180h-133z" />
    <glyph glyph-name="ccircumflex" unicode="&#x109;" horiz-adv-x="1411" 
d="M807 -31q-301 0 -508 212t-207 535.5t207 535.5t509 212t507 -204l-90 -125q-186 168 -414.5 168t-383.5 -165t-155 -421t155 -421t388.5 -165t435.5 203l90 -135q-233 -230 -534 -230zM469 1534l315 362h19l315 -362h-133l-190 180l-193 -180h-133z" />
    <glyph glyph-name="Cdotaccent" unicode="&#x10a;" horiz-adv-x="1411" 
d="M807 -31q-301 0 -508 212t-207 535.5t207 535.5t509 212t507 -204l-90 -125q-186 168 -414.5 168t-383.5 -165t-155 -421t155 -421t388.5 -165t435.5 203l90 -135q-233 -230 -534 -230zM796 1593q-44 0 -76 32t-32 76t32 74.5t76 30.5t74.5 -30.5t30.5 -74.5t-30.5 -76
t-74.5 -32z" />
    <glyph glyph-name="cdotaccent" unicode="&#x10b;" horiz-adv-x="1411" 
d="M807 -31q-301 0 -508 212t-207 535.5t207 535.5t509 212t507 -204l-90 -125q-186 168 -414.5 168t-383.5 -165t-155 -421t155 -421t388.5 -165t435.5 203l90 -135q-233 -230 -534 -230zM796 1593q-44 0 -76 32t-32 76t32 74.5t76 30.5t74.5 -30.5t30.5 -74.5t-30.5 -76
t-74.5 -32z" />
    <glyph glyph-name="Ccaron" unicode="&#x10c;" horiz-adv-x="1411" 
d="M807 -31q-301 0 -508 212t-207 535.5t207 535.5t509 212t507 -204l-90 -125q-186 168 -414.5 168t-383.5 -165t-155 -421t155 -421t388.5 -165t435.5 203l90 -135q-233 -230 -534 -230zM784 1507l-315 361h133l193 -180l190 180h133l-315 -361h-19z" />
    <glyph glyph-name="ccaron" unicode="&#x10d;" horiz-adv-x="1411" 
d="M807 -31q-301 0 -508 212t-207 535.5t207 535.5t509 212t507 -204l-90 -125q-186 168 -414.5 168t-383.5 -165t-155 -421t155 -421t388.5 -165t435.5 203l90 -135q-233 -230 -534 -230zM784 1507l-315 361h133l193 -180l190 180h133l-315 -361h-19z" />
    <glyph glyph-name="Dcaron" unicode="&#x10e;" horiz-adv-x="1380" 
d="M326 160h174q307 0 457.5 154.5t150.5 402.5t-150.5 402.5t-457.5 154.5h-174v-1114zM145 0v1434h357q381 0 583.5 -202t202.5 -515.5t-202.5 -515t-583.5 -201.5h-357zM672 1507l-316 361h133l193 -180l190 180h134l-316 -361h-18z" />
    <glyph glyph-name="dcaron" unicode="&#x10f;" horiz-adv-x="1380" 
d="M326 160h174q307 0 457.5 154.5t150.5 402.5t-150.5 402.5t-457.5 154.5h-174v-1114zM145 0v1434h357q381 0 583.5 -202t202.5 -515.5t-202.5 -515t-583.5 -201.5h-357zM672 1507l-316 361h133l193 -180l190 180h134l-316 -361h-18z" />
    <glyph glyph-name="Dcroat" unicode="&#x110;" horiz-adv-x="1380" 
d="M500 160q307 0 457.5 154.5t150.5 402.5t-150.5 402.5t-457.5 154.5h-174v-486h299v-141h-299v-487h174zM502 1434q381 0 583.5 -202t202.5 -515.5t-202.5 -515t-583.5 -201.5h-357v647h-137v141h137v646h357z" />
    <glyph glyph-name="dcroat" unicode="&#x111;" horiz-adv-x="1380" 
d="M500 160q307 0 457.5 154.5t150.5 402.5t-150.5 402.5t-457.5 154.5h-174v-486h299v-141h-299v-487h174zM502 1434q381 0 583.5 -202t202.5 -515.5t-202.5 -515t-583.5 -201.5h-357v647h-137v141h137v646h357z" />
    <glyph glyph-name="Emacron" unicode="&#x112;" horiz-adv-x="1161" 
d="M145 0v1434h908v-160h-727v-506h645v-160h-645v-448h747v-160h-928zM276 1628v144h719v-144h-719z" />
    <glyph glyph-name="emacron" unicode="&#x113;" horiz-adv-x="1161" 
d="M145 0v1434h908v-160h-727v-506h645v-160h-645v-448h747v-160h-928zM276 1628v144h719v-144h-719z" />
    <glyph glyph-name="Ebreve" unicode="&#x114;" horiz-adv-x="1161" 
d="M145 0v1434h908v-160h-727v-506h645v-160h-645v-448h747v-160h-928zM634 1534q-138 0 -237.5 104.5t-99.5 229.5h137q0 -68 59.5 -130.5t140.5 -62.5t141.5 62.5t60.5 130.5h135q0 -125 -99.5 -229.5t-237.5 -104.5z" />
    <glyph glyph-name="ebreve" unicode="&#x115;" horiz-adv-x="1161" 
d="M145 0v1434h908v-160h-727v-506h645v-160h-645v-448h747v-160h-928zM634 1534q-138 0 -237.5 104.5t-99.5 229.5h137q0 -68 59.5 -130.5t140.5 -62.5t141.5 62.5t60.5 130.5h135q0 -125 -99.5 -229.5t-237.5 -104.5z" />
    <glyph glyph-name="Edotaccent" unicode="&#x116;" horiz-adv-x="1161" 
d="M145 0v1434h908v-160h-727v-506h645v-160h-645v-448h747v-160h-928zM636 1593q-44 0 -76 32t-32 76t32 74.5t76 30.5t74.5 -30.5t30.5 -74.5t-30.5 -76t-74.5 -32z" />
    <glyph glyph-name="edotaccent" unicode="&#x117;" horiz-adv-x="1161" 
d="M145 0v1434h908v-160h-727v-506h645v-160h-645v-448h747v-160h-928zM636 1593q-44 0 -76 32t-32 76t32 74.5t76 30.5t74.5 -30.5t30.5 -74.5t-30.5 -76t-74.5 -32z" />
    <glyph glyph-name="Eogonek" unicode="&#x118;" horiz-adv-x="1161" 
d="M936.5 -481q-74.5 0 -136 56t-61.5 135t78 157l135 133h-807v1434h908v-160h-727v-506h645v-160h-645v-448h747v-160l-155 -215q-31 -41 -31 -70q1 -29 25 -50q51 -44 165 3l2 -110q-68 -39 -142.5 -39z" />
    <glyph glyph-name="eogonek" unicode="&#x119;" horiz-adv-x="1161" 
d="M936.5 -481q-74.5 0 -136 56t-61.5 135t78 157l135 133h-807v1434h908v-160h-727v-506h645v-160h-645v-448h747v-160l-155 -215q-31 -41 -31 -70q1 -29 25 -50q51 -44 165 3l2 -110q-68 -39 -142.5 -39z" />
    <glyph glyph-name="Ecaron" unicode="&#x11a;" horiz-adv-x="1161" 
d="M145 0v1434h908v-160h-727v-506h645v-160h-645v-448h747v-160h-928zM625 1507l-316 361h133l193 -180l190 180h133l-315 -361h-18z" />
    <glyph glyph-name="ecaron" unicode="&#x11b;" horiz-adv-x="1161" 
d="M145 0v1434h908v-160h-727v-506h645v-160h-645v-448h747v-160h-928zM625 1507l-316 361h133l193 -180l190 180h133l-315 -361h-18z" />
    <glyph glyph-name="Gcircumflex" unicode="&#x11c;" horiz-adv-x="1519" 
d="M805 -31q-299 0 -506 213t-207 536t207 534.5t509 211.5t507 -204l-90 -125q-187 168 -415 168t-383 -165t-155 -420t155 -421t374 -166t409 186v293h-440v156h616v-498q-231 -299 -581 -299zM471 1534l315 362h19l315 -362h-133l-190 180l-193 -180h-133z" />
    <glyph glyph-name="gcircumflex" unicode="&#x11d;" horiz-adv-x="1519" 
d="M805 -31q-299 0 -506 213t-207 536t207 534.5t509 211.5t507 -204l-90 -125q-187 168 -415 168t-383 -165t-155 -420t155 -421t374 -166t409 186v293h-440v156h616v-498q-231 -299 -581 -299zM471 1534l315 362h19l315 -362h-133l-190 180l-193 -180h-133z" />
    <glyph glyph-name="Gbreve" unicode="&#x11e;" horiz-adv-x="1519" 
d="M805 -31q-299 0 -506 213t-207 536t207 534.5t509 211.5t507 -204l-90 -125q-186 168 -414.5 168t-383.5 -165t-155 -420t155 -421t374 -166t409 186v293h-440v156h616v-498q-231 -299 -581 -299zM796 1534q-138 0 -237.5 104.5t-99.5 229.5h137q0 -68 59.5 -130.5
t140.5 -62.5t141 62.5t60 130.5h136q0 -125 -99.5 -229.5t-237.5 -104.5z" />
    <glyph glyph-name="gbreve" unicode="&#x11f;" horiz-adv-x="1519" 
d="M805 -31q-299 0 -506 213t-207 536t207 534.5t509 211.5t507 -204l-90 -125q-186 168 -414.5 168t-383.5 -165t-155 -420t155 -421t374 -166t409 186v293h-440v156h616v-498q-231 -299 -581 -299zM796 1534q-138 0 -237.5 104.5t-99.5 229.5h137q0 -68 59.5 -130.5
t140.5 -62.5t141 62.5t60 130.5h136q0 -125 -99.5 -229.5t-237.5 -104.5z" />
    <glyph glyph-name="Gdotaccent" unicode="&#x120;" horiz-adv-x="1519" 
d="M805 -31q-299 0 -506 213t-207 536t207 534.5t509 211.5t507 -204l-90 -125q-186 168 -414.5 168t-383.5 -165t-155 -420t155 -421t374 -166t409 186v293h-440v156h616v-498q-231 -299 -581 -299zM798 1593q-44 0 -76 32t-32 76t32 74.5t76 30.5t74.5 -30.5t30.5 -74.5
t-30.5 -76t-74.5 -32z" />
    <glyph glyph-name="gdotaccent" unicode="&#x121;" horiz-adv-x="1519" 
d="M805 -31q-299 0 -506 213t-207 536t207 534.5t509 211.5t507 -204l-90 -125q-186 168 -414.5 168t-383.5 -165t-155 -420t155 -421t374 -166t409 186v293h-440v156h616v-498q-231 -299 -581 -299zM798 1593q-44 0 -76 32t-32 76t32 74.5t76 30.5t74.5 -30.5t30.5 -74.5
t-30.5 -76t-74.5 -32z" />
    <glyph glyph-name="Gcommaaccent" unicode="&#x122;" horiz-adv-x="1519" 
d="M688 -184q0 43 33 73.5t82 30.5t84 -29.5t35 -70.5t-50 -121l-88 -158h-94l66 180q-68 29 -68 95zM805 -31q-299 0 -506 213t-207 536t207 534.5t509 211.5t507 -204l-90 -125q-186 168 -414.5 168t-383.5 -165t-155 -420t155 -421t374 -166t409 186v293h-440v156h616
v-498q-231 -299 -581 -299z" />
    <glyph glyph-name="gcommaaccent" unicode="&#x123;" horiz-adv-x="1519" 
d="M688 -184q0 43 33 73.5t82 30.5t84 -29.5t35 -70.5t-50 -121l-88 -158h-94l66 180q-68 29 -68 95zM805 -31q-299 0 -506 213t-207 536t207 534.5t509 211.5t507 -204l-90 -125q-186 168 -414.5 168t-383.5 -165t-155 -420t155 -421t374 -166t409 186v293h-440v156h616
v-498q-231 -299 -581 -299z" />
    <glyph glyph-name="Hcircumflex" unicode="&#x124;" horiz-adv-x="1388" 
d="M145 0v1434h181v-666h737v666h180v-1434h-180v608h-737v-608h-181zM369 1534l315 362h18l316 -362h-133l-191 180l-192 -180h-133z" />
    <glyph glyph-name="hcircumflex" unicode="&#x125;" horiz-adv-x="1388" 
d="M145 0v1434h181v-666h737v666h180v-1434h-180v608h-737v-608h-181zM369 1534l315 362h18l316 -362h-133l-191 180l-192 -180h-133z" />
    <glyph glyph-name="Hbar" unicode="&#x126;" horiz-adv-x="1433" 
d="M328 768h737v344h-737v-344zM147 0v1112h-147v131h147v191h181v-191h737v191h180v-191h189v-131h-189v-1112h-180v608h-737v-608h-181z" />
    <glyph glyph-name="hbar" unicode="&#x127;" horiz-adv-x="1433" 
d="M328 768h737v344h-737v-344zM147 0v1112h-147v131h147v191h181v-191h737v191h180v-191h189v-131h-189v-1112h-180v608h-737v-608h-181z" />
    <glyph glyph-name="Itilde" unicode="&#x128;" horiz-adv-x="530" 
d="M176 0v1434h180v-1434h-180zM-115 1556q0 125 52.5 206t153.5 81t218 -90q80 -57 117 -57q104 0 104 149h117q0 -127 -53 -208q-54 -81 -154 -81t-221 91q-78 55 -115 55q-104 0 -104 -146h-115z" />
    <glyph glyph-name="itilde" unicode="&#x129;" horiz-adv-x="530" 
d="M176 0v1434h180v-1434h-180zM-115 1556q0 125 52.5 206t153.5 81t218 -90q80 -57 117 -57q104 0 104 149h117q0 -127 -53 -208q-54 -81 -154 -81t-221 91q-78 55 -115 55q-104 0 -104 -146h-115z" />
    <glyph glyph-name="Imacron" unicode="&#x12a;" horiz-adv-x="530" 
d="M176 0v1434h180v-1434h-180zM84 1628v144h365v-144h-365z" />
    <glyph glyph-name="imacron" unicode="&#x12b;" horiz-adv-x="530" 
d="M176 0v1434h180v-1434h-180zM49 1628v144h434v-144h-434z" />
    <glyph glyph-name="Ibreve" unicode="&#x12c;" horiz-adv-x="530" 
d="M176 0v1434h180v-1434h-180zM265 1534q-138 0 -237.5 104.5t-99.5 229.5h138q0 -68 59 -130.5t140 -62.5t141.5 62.5t60.5 130.5h135q0 -125 -99.5 -229.5t-237.5 -104.5z" />
    <glyph glyph-name="ibreve" unicode="&#x12d;" horiz-adv-x="530" 
d="M176 0v1434h180v-1434h-180zM265 1534q-138 0 -237.5 104.5t-99.5 229.5h138q0 -68 59 -130.5t140 -62.5t141.5 62.5t60.5 130.5h135q0 -125 -99.5 -229.5t-237.5 -104.5z" />
    <glyph glyph-name="Iogonek" unicode="&#x12e;" horiz-adv-x="530" 
d="M219.5 -481q-74.5 0 -135.5 56t-61 135t77 157l136 133h-60v1434h180v-1434l-155 -215q-31 -41 -31 -70t24 -50q51 -44 166 3l2 -110q-68 -39 -142.5 -39z" />
    <glyph glyph-name="iogonek" unicode="&#x12f;" horiz-adv-x="530" 
d="M219.5 -481q-74.5 0 -135.5 56t-61 135t77 157l136 133h-60v1434h180v-1434l-155 -215q-31 -41 -31 -70t24 -50q51 -44 166 3l2 -110q-68 -39 -142.5 -39z" />
    <glyph glyph-name="Idotaccent" unicode="&#x130;" horiz-adv-x="530" 
d="M176 0v1434h180v-1434h-180zM267 1593q-44 0 -75.5 32t-31.5 76t31.5 74.5t75.5 30.5t75 -30.5t31 -74.5t-31 -76t-75 -32z" />
    <glyph glyph-name="Jcircumflex" unicode="&#x134;" horiz-adv-x="960" 
d="M368 -31q-176 0 -302 97l77 131q94 -68 210 -68t199 82t83 219v1004h180v-1004q0 -201 -135.5 -331t-311.5 -130zM399 1534l316 362h18l316 -362h-134l-190 180l-193 -180h-133z" />
    <glyph glyph-name="jcircumflex" unicode="&#x135;" horiz-adv-x="960" 
d="M368 -31q-176 0 -302 97l77 131q94 -68 210 -68t199 82t83 219v1004h180v-1004q0 -201 -135.5 -331t-311.5 -130zM399 1534l316 362h18l316 -362h-134l-190 180l-193 -180h-133z" />
    <glyph glyph-name="Kcommaaccent" unicode="&#x136;" horiz-adv-x="1267" 
d="M653 -80q49 0 84 -29.5t35 -70.5t-49 -121l-88 -158h-94l65 180q-68 29 -67 95q0 43 32.5 73.5t81.5 30.5zM145 0v1434h181v-670l645 670h237l-678 -695l709 -739h-246l-667 713v-713h-181z" />
    <glyph glyph-name="kcommaaccent" unicode="&#x137;" horiz-adv-x="1267" 
d="M653 -80q49 0 84 -29.5t35 -70.5t-49 -121l-88 -158h-94l65 180q-68 29 -67 95q0 43 32.5 73.5t81.5 30.5zM145 0v1434h181v-670l645 670h237l-678 -695l709 -739h-246l-667 713v-713h-181z" />
    <glyph glyph-name="Lacute" unicode="&#x139;" horiz-adv-x="1103" 
d="M145 0v1434h181v-1274h751v-160h-932zM190 1536l140 330h243l-292 -330h-91z" />
    <glyph glyph-name="lacute" unicode="&#x13a;" horiz-adv-x="1103" 
d="M145 0v1434h181v-1274h751v-160h-932zM190 1536l140 330h243l-292 -330h-91z" />
    <glyph glyph-name="Lcommaaccent" unicode="&#x13b;" horiz-adv-x="1103" 
d="M608 -80q49 0 84 -29.5t35 -70.5t-49 -121l-88 -158h-94l65 180q-68 29 -67 95q0 43 32.5 73.5t81.5 30.5zM145 0v1434h181v-1274h751v-160h-932z" />
    <glyph glyph-name="lcommaaccent" unicode="&#x13c;" horiz-adv-x="1103" 
d="M608 -80q49 0 84 -29.5t35 -70.5t-49 -121l-88 -158h-94l65 180q-68 29 -67 95q0 43 32.5 73.5t81.5 30.5zM145 0v1434h181v-1274h751v-160h-932z" />
    <glyph glyph-name="Lcaron" unicode="&#x13d;" horiz-adv-x="1103" 
d="M446 1092v342h195l-111 -342h-84zM145 0v1434h181v-1274h751v-160h-932z" />
    <glyph glyph-name="lcaron" unicode="&#x13e;" horiz-adv-x="1103" 
d="M446 1092v342h195l-111 -342h-84zM145 0v1434h181v-1274h751v-160h-932z" />
    <glyph glyph-name="Ldot" unicode="&#x13f;" horiz-adv-x="1103" 
d="M649 590q-49 0 -84 33.5t-35 83t35 83t84 33.5t85 -33.5t36 -83t-36 -83t-85 -33.5zM145 0v1434h181v-1274h751v-160h-932z" />
    <glyph glyph-name="ldot" unicode="&#x140;" horiz-adv-x="1103" 
d="M649 590q-49 0 -84 33.5t-35 83t35 83t84 33.5t85 -33.5t36 -83t-36 -83t-85 -33.5zM145 0v1434h181v-1274h751v-160h-932z" />
    <glyph glyph-name="Lslash" unicode="&#x141;" horiz-adv-x="1103" 
d="M326 160h751v-160h-932v657l-184 -98v154l184 98v623h181v-527l280 152v-156l-280 -149v-594z" />
    <glyph glyph-name="lslash" unicode="&#x142;" horiz-adv-x="1103" 
d="M326 160h751v-160h-932v657l-184 -98v154l184 98v623h181v-527l280 152v-156l-280 -149v-594z" />
    <glyph glyph-name="Nacute" unicode="&#x143;" horiz-adv-x="1425" 
d="M326 0h-181v1475h19l936 -1072v1031h180v-1475h-16l-938 1065v-1024zM668 1536l139 330h244l-293 -330h-90z" />
    <glyph glyph-name="nacute" unicode="&#x144;" horiz-adv-x="1425" 
d="M326 0h-181v1475h19l936 -1072v1031h180v-1475h-16l-938 1065v-1024zM668 1536l139 330h244l-293 -330h-90z" />
    <glyph glyph-name="Ncommaaccent" unicode="&#x145;" horiz-adv-x="1425" 
d="M596 -184q0 43 33 73.5t82 30.5t83.5 -29.5t34.5 -70.5t-49 -121l-88 -158h-94l66 180q-68 29 -68 95zM326 0h-181v1475h19l936 -1072v1031h180v-1475h-16l-938 1065v-1024z" />
    <glyph glyph-name="ncommaaccent" unicode="&#x146;" horiz-adv-x="1425" 
d="M596 -184q0 43 33 73.5t82 30.5t83.5 -29.5t34.5 -70.5t-49 -121l-88 -158h-94l66 180q-68 29 -68 95zM326 0h-181v1475h19l936 -1072v1031h180v-1475h-16l-938 1065v-1024z" />
    <glyph glyph-name="Ncaron" unicode="&#x147;" horiz-adv-x="1425" 
d="M326 0h-181v1475h19l936 -1072v1031h180v-1475h-16l-938 1065v-1024zM702 1507l-315 361h133l193 -180l190 180h133l-315 -361h-19z" />
    <glyph glyph-name="ncaron" unicode="&#x148;" horiz-adv-x="1425" 
d="M326 0h-181v1475h19l936 -1072v1031h180v-1475h-16l-938 1065v-1024zM702 1507l-315 361h133l193 -180l190 180h133l-315 -361h-19z" />
    <glyph glyph-name="Eng" unicode="&#x14a;" horiz-adv-x="1425" 
d="M1012 -354q-111 0 -189 59l72 125q49 -33 102.5 -33t81 38t27.5 97v205l-780 887v-1024h-181v1475h19l936 -1072v1031h180v-1506q0 -119 -78.5 -200.5t-189.5 -81.5z" />
    <glyph glyph-name="eng" unicode="&#x14b;" horiz-adv-x="1425" 
d="M1012 -354q-111 0 -189 59l72 125q49 -33 102.5 -33t81 38t27.5 97v205l-780 887v-1024h-181v1475h19l936 -1072v1031h180v-1506q0 -119 -78.5 -200.5t-189.5 -81.5z" />
    <glyph glyph-name="Omacron" unicode="&#x14c;" 
d="M813 131q227 0 384 166t157 420t-157 420t-384 166t-384 -166t-157 -420t157 -420t384 -166zM814 -31q-302 0 -512 213t-210 534.5t210 534.5t512 213t512 -213t210 -534.5t-210 -534.5t-512 -213zM455 1628v144h719v-144h-719z" />
    <glyph glyph-name="omacron" unicode="&#x14d;" 
d="M813 131q227 0 384 166t157 420t-157 420t-384 166t-384 -166t-157 -420t157 -420t384 -166zM814 -31q-302 0 -512 213t-210 534.5t210 534.5t512 213t512 -213t210 -534.5t-210 -534.5t-512 -213zM455 1628v144h719v-144h-719z" />
    <glyph glyph-name="Obreve" unicode="&#x14e;" 
d="M813 131q227 0 384 166t157 420t-157 420t-384 166t-384 -166t-157 -420t157 -420t384 -166zM814 -31q-302 0 -512 213t-210 534.5t210 534.5t512 213t512 -213t210 -534.5t-210 -534.5t-512 -213zM812 1534q-138 0 -237.5 104.5t-99.5 229.5h137q0 -68 59.5 -130.5
t140.5 -62.5t141.5 62.5t60.5 130.5h135q0 -125 -99.5 -229.5t-237.5 -104.5z" />
    <glyph glyph-name="obreve" unicode="&#x14f;" 
d="M813 131q227 0 384 166t157 420t-157 420t-384 166t-384 -166t-157 -420t157 -420t384 -166zM814 -31q-302 0 -512 213t-210 534.5t210 534.5t512 213t512 -213t210 -534.5t-210 -534.5t-512 -213zM812 1534q-138 0 -237.5 104.5t-99.5 229.5h137q0 -68 59.5 -130.5
t140.5 -62.5t141.5 62.5t60.5 130.5h135q0 -125 -99.5 -229.5t-237.5 -104.5z" />
    <glyph glyph-name="Ohungarumlaut" unicode="&#x150;" 
d="M813 131q227 0 384 166t157 420t-157 420t-384 166t-384 -166t-157 -420t157 -420t384 -166zM814 -31q-302 0 -512 213t-210 534.5t210 534.5t512 213t512 -213t210 -534.5t-210 -534.5t-512 -213zM940 1536l145 330h240l-295 -330h-90zM596 1536l145 330h240l-295 -330
h-90z" />
    <glyph glyph-name="ohungarumlaut" unicode="&#x151;" 
d="M813 131q227 0 384 166t157 420t-157 420t-384 166t-384 -166t-157 -420t157 -420t384 -166zM814 -31q-302 0 -512 213t-210 534.5t210 534.5t512 213t512 -213t210 -534.5t-210 -534.5t-512 -213zM940 1536l145 330h240l-295 -330h-90zM596 1536l145 330h240l-295 -330
h-90z" />
    <glyph glyph-name="OE" unicode="&#x152;" horiz-adv-x="2080" 
d="M842 160h221v1114h-221q-281 0 -425 -156q-145 -156 -145 -402t144 -400q144 -156 426 -156zM840 0q-356 0 -552 203t-196 514t196 514t552 203h1132v-160h-729v-506h645v-160h-645v-448h750v-160h-1153z" />
    <glyph glyph-name="oe" unicode="&#x153;" horiz-adv-x="2080" 
d="M842 160h221v1114h-221q-281 0 -425 -156q-145 -156 -145 -402t144 -400q144 -156 426 -156zM840 0q-356 0 -552 203t-196 514t196 514t552 203h1132v-160h-729v-506h645v-160h-645v-448h750v-160h-1153z" />
    <glyph glyph-name="Racute" unicode="&#x154;" horiz-adv-x="1214" 
d="M326 668h223q166 0 260 83t94 223t-95 224t-259 84h-223v-614zM145 0v1434h408q244 0 387 -131.5t143 -327.5q0 -143 -79.5 -256t-223.5 -166l369 -553h-205l-340 518q-16 -2 -51 -2h-227v-516h-181zM494 1536l139 330h244l-293 -330h-90z" />
    <glyph glyph-name="racute" unicode="&#x155;" horiz-adv-x="1214" 
d="M326 668h223q166 0 260 83t94 223t-95 224t-259 84h-223v-614zM145 0v1434h408q244 0 387 -131.5t143 -327.5q0 -143 -79.5 -256t-223.5 -166l369 -553h-205l-340 518q-16 -2 -51 -2h-227v-516h-181zM494 1536l139 330h244l-293 -330h-90z" />
    <glyph glyph-name="Rcommaaccent" unicode="&#x156;" horiz-adv-x="1214" 
d="M610 -80q49 0 84 -29.5t35 -70.5t-49 -121l-88 -158h-94l65 180q-68 29 -67 95q0 43 32.5 73.5t81.5 30.5zM326 668h223q166 0 260 83t94 223t-95 224t-259 84h-223v-614zM145 0v1434h408q244 0 387 -131.5t143 -327.5q0 -143 -79.5 -256t-223.5 -166l369 -553h-205
l-340 518q-16 -2 -51 -2h-227v-516h-181z" />
    <glyph glyph-name="rcommaaccent" unicode="&#x157;" horiz-adv-x="1214" 
d="M610 -80q49 0 84 -29.5t35 -70.5t-49 -121l-88 -158h-94l65 180q-68 29 -67 95q0 43 32.5 73.5t81.5 30.5zM326 668h223q166 0 260 83t94 223t-95 224t-259 84h-223v-614zM145 0v1434h408q244 0 387 -131.5t143 -327.5q0 -143 -79.5 -256t-223.5 -166l369 -553h-205
l-340 518q-16 -2 -51 -2h-227v-516h-181z" />
    <glyph glyph-name="Rcaron" unicode="&#x158;" horiz-adv-x="1214" 
d="M326 668h223q166 0 260 83t94 223t-95 224t-259 84h-223v-614zM145 0v1434h408q244 0 387 -131.5t143 -327.5q0 -143 -79.5 -256t-223.5 -166l369 -553h-205l-340 518q-16 -2 -51 -2h-227v-516h-181zM528 1507l-315 361h133l193 -180l190 180h133l-315 -361h-19z" />
    <glyph glyph-name="rcaron" unicode="&#x159;" horiz-adv-x="1214" 
d="M326 668h223q166 0 260 83t94 223t-95 224t-259 84h-223v-614zM145 0v1434h408q244 0 387 -131.5t143 -327.5q0 -143 -79.5 -256t-223.5 -166l369 -553h-205l-340 518q-16 -2 -51 -2h-227v-516h-181zM528 1507l-315 361h133l193 -180l190 180h133l-315 -361h-19z" />
    <glyph glyph-name="Sacute" unicode="&#x15a;" horiz-adv-x="1181" 
d="M602 -27q-358 0 -536 279l124 96q147 -223 408 -223q154 0 244 65.5t90 177.5t-108 184q-78 52 -197 102.5t-157 67.5t-107.5 59t-102.5 81q-88 104 -88 236q0 166 118 265t314 99q141 0 254 -52t178 -153l-129 -90q-98 143 -301 144q-123 0 -189.5 -54.5t-66.5 -151.5
t100 -163q74 -48 181.5 -94t135.5 -58t84 -40t85 -50q95 -70 135.5 -142t40.5 -175q0 -188 -142.5 -299t-367.5 -111zM569 1536l140 330h243l-293 -330h-90z" />
    <glyph glyph-name="sacute" unicode="&#x15b;" horiz-adv-x="1181" 
d="M602 -27q-358 0 -536 279l124 96q147 -223 408 -223q154 0 244 65.5t90 177.5t-108 184q-78 52 -197 102.5t-157 67.5t-107.5 59t-102.5 81q-88 104 -88 236q0 166 118 265t314 99q141 0 254 -52t178 -153l-129 -90q-98 143 -301 144q-123 0 -189.5 -54.5t-66.5 -151.5
t100 -163q74 -48 181.5 -94t135.5 -58t84 -40t85 -50q95 -70 135.5 -142t40.5 -175q0 -188 -142.5 -299t-367.5 -111zM569 1536l140 330h243l-293 -330h-90z" />
    <glyph glyph-name="Scircumflex" unicode="&#x15c;" horiz-adv-x="1181" 
d="M602 -27q-358 0 -536 279l124 96q147 -223 408 -223q154 0 244 65.5t90 177.5t-108 184q-78 52 -197 102.5t-157 67.5t-107.5 59t-102.5 81q-88 104 -88 236q0 166 118 265t314 99q141 0 254 -52t178 -153l-129 -90q-98 143 -301 144q-123 0 -189.5 -54.5t-66.5 -151.5
t100 -163q74 -48 181.5 -94t135.5 -58t84 -40t85 -50q95 -70 135.5 -142t40.5 -175q0 -188 -142.5 -299t-367.5 -111zM289 1534l315 362h19l315 -362h-133l-191 180l-192 -180h-133z" />
    <glyph glyph-name="scircumflex" unicode="&#x15d;" horiz-adv-x="1181" 
d="M602 -27q-358 0 -536 279l124 96q147 -223 408 -223q154 0 244 65.5t90 177.5t-108 184q-78 52 -197 102.5t-157 67.5t-107.5 59t-102.5 81q-88 104 -88 236q0 166 118 265t314 99q141 0 254 -52t178 -153l-129 -90q-98 143 -301 144q-123 0 -189.5 -54.5t-66.5 -151.5
t100 -163q74 -48 181.5 -94t135.5 -58t84 -40t85 -50q95 -70 135.5 -142t40.5 -175q0 -188 -142.5 -299t-367.5 -111zM289 1534l315 362h19l315 -362h-133l-191 180l-192 -180h-133z" />
    <glyph glyph-name="Scedilla" unicode="&#x15e;" horiz-adv-x="1181" 
d="M632.5 -485q-92.5 0 -190.5 28v117q78 -25 147.5 -25t105.5 26t36 60.5t-38 57t-87 22.5t-65 -2v101q31 6 82 6q109 0 180 -52.5t71 -136.5t-74.5 -143t-167 -59zM602 -27q-358 0 -536 279l124 96q147 -223 408 -223q154 0 244 65.5t90 177.5t-108 184q-78 52 -197 102.5
t-157 67.5t-107.5 59t-102.5 81q-88 104 -88 236q0 166 118 265t314 99q141 0 254 -52t178 -153l-129 -90q-98 143 -301 144q-123 0 -189.5 -54.5t-66.5 -151.5t100 -163q74 -48 181.5 -94t135.5 -58t84 -40t85 -50q95 -70 135.5 -142t40.5 -175q0 -188 -142.5 -299
t-367.5 -111z" />
    <glyph glyph-name="scedilla" unicode="&#x15f;" horiz-adv-x="1181" 
d="M632.5 -485q-92.5 0 -190.5 28v117q78 -25 147.5 -25t105.5 26t36 60.5t-38 57t-87 22.5t-65 -2v101q31 6 82 6q109 0 180 -52.5t71 -136.5t-74.5 -143t-167 -59zM602 -27q-358 0 -536 279l124 96q147 -223 408 -223q154 0 244 65.5t90 177.5t-108 184q-78 52 -197 102.5
t-157 67.5t-107.5 59t-102.5 81q-88 104 -88 236q0 166 118 265t314 99q141 0 254 -52t178 -153l-129 -90q-98 143 -301 144q-123 0 -189.5 -54.5t-66.5 -151.5t100 -163q74 -48 181.5 -94t135.5 -58t84 -40t85 -50q95 -70 135.5 -142t40.5 -175q0 -188 -142.5 -299
t-367.5 -111z" />
    <glyph glyph-name="Scaron" unicode="&#x160;" horiz-adv-x="1181" 
d="M602 -27q-358 0 -536 279l124 96q147 -223 408 -223q154 0 244 65.5t90 177.5t-108 184q-78 52 -197 102.5t-157 67.5t-107.5 59t-102.5 81q-88 104 -88 236q0 166 118 265t314 99q141 0 254 -52t178 -153l-129 -90q-98 143 -301 144q-123 0 -189.5 -54.5t-66.5 -151.5
t100 -163q74 -48 181.5 -94t135.5 -58t84 -40t85 -50q95 -70 135.5 -142t40.5 -175q0 -188 -142.5 -299t-367.5 -111zM604 1507l-315 361h133l192 -180l191 180h133l-315 -361h-19z" />
    <glyph glyph-name="scaron" unicode="&#x161;" horiz-adv-x="1181" 
d="M602 -27q-358 0 -536 279l124 96q147 -223 408 -223q154 0 244 65.5t90 177.5t-108 184q-78 52 -197 102.5t-157 67.5t-107.5 59t-102.5 81q-88 104 -88 236q0 166 118 265t314 99q141 0 254 -52t178 -153l-129 -90q-98 143 -301 144q-123 0 -189.5 -54.5t-66.5 -151.5
t100 -163q74 -48 181.5 -94t135.5 -58t84 -40t85 -50q95 -70 135.5 -142t40.5 -175q0 -188 -142.5 -299t-367.5 -111zM604 1507l-315 361h133l192 -180l191 180h133l-315 -361h-19z" />
    <glyph glyph-name="uni0162" unicode="&#x162;" horiz-adv-x="1191" 
d="M620.5 -485q-92.5 0 -190.5 28v117q78 -25 147.5 -25t105.5 26t36 60.5t-38 57t-87.5 22.5t-65.5 -2v101q31 6 82 6q109 0 180.5 -52.5t71.5 -136.5t-74.5 -143t-167 -59zM506 0v1274h-459v160h1098v-160h-459v-1274h-180z" />
    <glyph glyph-name="uni0163" unicode="&#x163;" horiz-adv-x="1191" 
d="M620.5 -485q-92.5 0 -190.5 28v117q78 -25 147.5 -25t105.5 26t36 60.5t-38 57t-87.5 22.5t-65.5 -2v101q31 6 82 6q109 0 180.5 -52.5t71.5 -136.5t-74.5 -143t-167 -59zM506 0v1274h-459v160h1098v-160h-459v-1274h-180z" />
    <glyph glyph-name="Tcaron" unicode="&#x164;" horiz-adv-x="1191" 
d="M506 0v1274h-459v160h1098v-160h-459v-1274h-180zM586 1507l-316 361h133l193 -180l190 180h134l-316 -361h-18z" />
    <glyph glyph-name="tcaron" unicode="&#x165;" horiz-adv-x="1191" 
d="M506 0v1274h-459v160h1098v-160h-459v-1274h-180zM586 1507l-316 361h133l193 -180l190 180h134l-316 -361h-18z" />
    <glyph glyph-name="Tbar" unicode="&#x166;" horiz-adv-x="1191" 
d="M1145 1274h-459v-389h418v-131h-418v-754h-180v754h-418v131h418v389h-459v160h1098v-160z" />
    <glyph glyph-name="tbar" unicode="&#x167;" horiz-adv-x="1191" 
d="M1145 1274h-459v-389h418v-131h-418v-754h-180v754h-418v131h418v389h-459v160h1098v-160z" />
    <glyph glyph-name="Utilde" unicode="&#x168;" horiz-adv-x="1409" 
d="M704.5 -31q-251.5 0 -405.5 150.5t-154 408.5v906h181v-906q0 -188 101 -292.5t277.5 -104.5t277.5 104.5t101 292.5v906h181v-906q0 -258 -154 -408.5t-405.5 -150.5zM324 1556q0 125 52 206t154 81t218 -90q80 -57 116 -57q104 0 105 149h116q0 -127 -53 -208
q-54 -81 -154 -81t-221 91q-78 55 -114 55q-104 0 -105 -146h-114z" />
    <glyph glyph-name="utilde" unicode="&#x169;" horiz-adv-x="1409" 
d="M704.5 -31q-251.5 0 -405.5 150.5t-154 408.5v906h181v-906q0 -188 101 -292.5t277.5 -104.5t277.5 104.5t101 292.5v906h181v-906q0 -258 -154 -408.5t-405.5 -150.5zM324 1556q0 125 52 206t154 81t218 -90q80 -57 116 -57q104 0 105 149h116q0 -127 -53 -208
q-54 -81 -154 -81t-221 91q-78 55 -114 55q-104 0 -105 -146h-114z" />
    <glyph glyph-name="Umacron" unicode="&#x16a;" horiz-adv-x="1409" 
d="M704.5 -31q-251.5 0 -405.5 150.5t-154 408.5v906h181v-906q0 -188 101 -292.5t277.5 -104.5t277.5 104.5t101 292.5v906h181v-906q0 -258 -154 -408.5t-405.5 -150.5zM346 1628v144h719v-144h-719z" />
    <glyph glyph-name="umacron" unicode="&#x16b;" horiz-adv-x="1409" 
d="M704.5 -31q-251.5 0 -405.5 150.5t-154 408.5v906h181v-906q0 -188 101 -292.5t277.5 -104.5t277.5 104.5t101 292.5v906h181v-906q0 -258 -154 -408.5t-405.5 -150.5zM346 1628v144h719v-144h-719z" />
    <glyph glyph-name="Ubreve" unicode="&#x16c;" horiz-adv-x="1409" 
d="M704.5 -31q-251.5 0 -405.5 150.5t-154 408.5v906h181v-906q0 -188 101 -292.5t277.5 -104.5t277.5 104.5t101 292.5v906h181v-906q0 -258 -154 -408.5t-405.5 -150.5zM703 1534q-138 0 -237 104.5t-99 229.5h137q0 -68 59.5 -130.5t140 -62.5t141 62.5t60.5 130.5h135
q0 -125 -99.5 -229.5t-237.5 -104.5z" />
    <glyph glyph-name="ubreve" unicode="&#x16d;" horiz-adv-x="1409" 
d="M704.5 -31q-251.5 0 -405.5 150.5t-154 408.5v906h181v-906q0 -188 101 -292.5t277.5 -104.5t277.5 104.5t101 292.5v906h181v-906q0 -258 -154 -408.5t-405.5 -150.5zM703 1534q-138 0 -237 104.5t-99 229.5h137q0 -68 59.5 -130.5t140 -62.5t141 62.5t60.5 130.5h135
q0 -125 -99.5 -229.5t-237.5 -104.5z" />
    <glyph glyph-name="Uring" unicode="&#x16e;" horiz-adv-x="1409" 
d="M704.5 -31q-251.5 0 -405.5 150.5t-154 408.5v906h181v-906q0 -188 101 -292.5t277.5 -104.5t277.5 104.5t101 292.5v906h181v-906q0 -258 -154 -408.5t-405.5 -150.5zM704.5 1599q40.5 0 71.5 30t31 72t-31 71.5t-71.5 29.5t-70.5 -29.5t-30 -71.5t30 -72t70.5 -30z
M706 1513q-79 0 -134.5 55.5t-55.5 132.5t55.5 132t134.5 55t135 -55t56 -132t-56 -132.5t-135 -55.5z" />
    <glyph glyph-name="uring" unicode="&#x16f;" horiz-adv-x="1409" 
d="M704.5 -31q-251.5 0 -405.5 150.5t-154 408.5v906h181v-906q0 -188 101 -292.5t277.5 -104.5t277.5 104.5t101 292.5v906h181v-906q0 -258 -154 -408.5t-405.5 -150.5zM704.5 1599q40.5 0 71.5 30t31 72t-31 71.5t-71.5 29.5t-70.5 -29.5t-30 -71.5t30 -72t70.5 -30z
M706 1513q-79 0 -134.5 55.5t-55.5 132.5t55.5 132t134.5 55t135 -55t56 -132t-56 -132.5t-135 -55.5z" />
    <glyph glyph-name="Uhungarumlaut" unicode="&#x170;" horiz-adv-x="1409" 
d="M704.5 -31q-251.5 0 -405.5 150.5t-154 408.5v906h181v-906q0 -188 101 -292.5t277.5 -104.5t277.5 104.5t101 292.5v906h181v-906q0 -258 -154 -408.5t-405.5 -150.5zM831 1536l146 330h240l-295 -330h-91zM487 1536l146 330h239l-294 -330h-91z" />
    <glyph glyph-name="uhungarumlaut" unicode="&#x171;" horiz-adv-x="1409" 
d="M704.5 -31q-251.5 0 -405.5 150.5t-154 408.5v906h181v-906q0 -188 101 -292.5t277.5 -104.5t277.5 104.5t101 292.5v906h181v-906q0 -258 -154 -408.5t-405.5 -150.5zM831 1536l146 330h240l-295 -330h-91zM487 1536l146 330h239l-294 -330h-91z" />
    <glyph glyph-name="Uogonek" unicode="&#x172;" horiz-adv-x="1409" 
d="M1083 1434h181v-906q0 -315 -224 -467l-155 -213q-31 -42 -31 -70t24.5 -49.5t64.5 -21.5t101 25l3 -111q-68 -39 -143 -39t-136 56.5t-61 135.5t77 156l52 52q-61 -12 -131 -13q-252 0 -406 150.5t-154 408.5v906h181v-906q0 -188 101 -292.5t277.5 -104.5t277.5 104.5
t101 292.5v906z" />
    <glyph glyph-name="uogonek" unicode="&#x173;" horiz-adv-x="1409" 
d="M1083 1434h181v-906q0 -315 -224 -467l-155 -213q-31 -42 -31 -70t24.5 -49.5t64.5 -21.5t101 25l3 -111q-68 -39 -143 -39t-136 56.5t-61 135.5t77 156l52 52q-61 -12 -131 -13q-252 0 -406 150.5t-154 408.5v906h181v-906q0 -188 101 -292.5t277.5 -104.5t277.5 104.5
t101 292.5v906z" />
    <glyph glyph-name="Wcircumflex" unicode="&#x174;" horiz-adv-x="2011" 
d="M563 -41l-543 1475h189l373 -1086l415 1106h19l414 -1106l372 1086h191l-545 -1475h-16l-424 1098l-426 -1098h-19zM680 1534l315 362h19l315 -362h-133l-190 180l-193 -180h-133z" />
    <glyph glyph-name="wcircumflex" unicode="&#x175;" horiz-adv-x="2011" 
d="M563 -41l-543 1475h189l373 -1086l415 1106h19l414 -1106l372 1086h191l-545 -1475h-16l-424 1098l-426 -1098h-19zM680 1534l315 362h19l315 -362h-133l-190 180l-193 -180h-133z" />
    <glyph glyph-name="Ycircumflex" unicode="&#x176;" horiz-adv-x="1255" 
d="M539 0v565l-519 869h199l410 -705l409 705h199l-518 -869v-565h-180zM303 1534l315 362h19l315 -362h-133l-190 180l-193 -180h-133z" />
    <glyph glyph-name="ycircumflex" unicode="&#x177;" horiz-adv-x="1255" 
d="M539 0v565l-519 869h199l410 -705l409 705h199l-518 -869v-565h-180zM303 1534l315 362h19l315 -362h-133l-190 180l-193 -180h-133z" />
    <glyph glyph-name="Ydieresis" unicode="&#x178;" horiz-adv-x="1255" 
d="M539 0v565l-519 869h199l410 -705l409 705h199l-518 -869v-565h-180zM806 1593q-44 0 -76 32t-32 76t32 74.5t76 30.5t74.5 -30.5t30.5 -74.5t-30.5 -76t-74.5 -32zM456 1593q-44 0 -76 32t-32 76t32 74.5t76 30.5t74.5 -30.5t30.5 -74.5t-30.5 -76t-74.5 -32z" />
    <glyph glyph-name="Zacute" unicode="&#x179;" horiz-adv-x="1243" 
d="M104 0v16l740 1264h-639v154h932v-17l-754 -1263h733v-154h-1012zM608 1536l140 330h243l-293 -330h-90z" />
    <glyph glyph-name="zacute" unicode="&#x17a;" horiz-adv-x="1243" 
d="M104 0v16l740 1264h-639v154h932v-17l-754 -1263h733v-154h-1012zM608 1536l140 330h243l-293 -330h-90z" />
    <glyph glyph-name="Zdotaccent" unicode="&#x17b;" horiz-adv-x="1243" 
d="M104 0v16l740 1264h-639v154h932v-17l-754 -1263h733v-154h-1012zM654 1593q-44 0 -75.5 32t-31.5 76t31.5 74.5t75.5 30.5t75 -30.5t31 -74.5t-31 -76t-75 -32z" />
    <glyph glyph-name="zdotaccent" unicode="&#x17c;" horiz-adv-x="1243" 
d="M104 0v16l740 1264h-639v154h932v-17l-754 -1263h733v-154h-1012zM654 1593q-44 0 -75.5 32t-31.5 76t31.5 74.5t75.5 30.5t75 -30.5t31 -74.5t-31 -76t-75 -32z" />
    <glyph glyph-name="Zcaron" unicode="&#x17d;" horiz-adv-x="1243" 
d="M104 0v16l740 1264h-639v154h932v-17l-754 -1263h733v-154h-1012zM643 1507l-315 361h133l192 -180l191 180h133l-315 -361h-19z" />
    <glyph glyph-name="zcaron" unicode="&#x17e;" horiz-adv-x="1243" 
d="M104 0v16l740 1264h-639v154h932v-17l-754 -1263h733v-154h-1012zM643 1507l-315 361h133l192 -180l191 180h133l-315 -361h-19z" />
    <glyph glyph-name="florin" unicode="&#x192;" horiz-adv-x="817" 
d="M633 1489q86 0 127 -25l-27 -139q-39 12 -82 12q-80 0 -129 -53t-63 -131l-51 -291h215l-27 -153h-215l-125 -709h-176l125 709h-148l27 153h147l58 324q23 129 117 216t227 87z" />
    <glyph glyph-name="Scommaaccent" unicode="&#x218;" horiz-adv-x="1181" 
d="M606 -80q49 0 84 -29.5t35 -70.5t-49 -121l-88 -158h-94l65 180q-68 29 -67 95q0 43 32.5 73.5t81.5 30.5zM602 -27q-358 0 -536 279l124 96q147 -223 408 -223q154 0 244 65.5t90 177.5t-108 184q-78 52 -197 102.5t-157 67.5t-107.5 59t-102.5 81q-88 104 -88 236
q0 166 118 265t314 99q141 0 254 -52t178 -153l-129 -90q-98 143 -301 144q-123 0 -189.5 -54.5t-66.5 -151.5t100 -163q74 -48 181.5 -94t135.5 -58t84 -40t85 -50q95 -70 135.5 -142t40.5 -175q0 -188 -142.5 -299t-367.5 -111z" />
    <glyph glyph-name="scommaaccent" unicode="&#x219;" horiz-adv-x="1181" 
d="M606 -80q49 0 84 -29.5t35 -70.5t-49 -121l-88 -158h-94l65 180q-68 29 -67 95q0 43 32.5 73.5t81.5 30.5zM602 -27q-358 0 -536 279l124 96q147 -223 408 -223q154 0 244 65.5t90 177.5t-108 184q-78 52 -197 102.5t-157 67.5t-107.5 59t-102.5 81q-88 104 -88 236
q0 166 118 265t314 99q141 0 254 -52t178 -153l-129 -90q-98 143 -301 144q-123 0 -189.5 -54.5t-66.5 -151.5t100 -163q74 -48 181.5 -94t135.5 -58t84 -40t85 -50q95 -70 135.5 -142t40.5 -175q0 -188 -142.5 -299t-367.5 -111z" />
    <glyph glyph-name="uni021A" unicode="&#x21a;" horiz-adv-x="1191" 
d="M479 -184q0 43 33 73.5t82 30.5t84 -29.5t35 -70.5t-49 -121l-89 -158h-94l66 180q-68 29 -68 95zM506 0v1274h-459v160h1098v-160h-459v-1274h-180z" />
    <glyph glyph-name="uni021B" unicode="&#x21b;" horiz-adv-x="1191" 
d="M479 -184q0 43 33 73.5t82 30.5t84 -29.5t35 -70.5t-49 -121l-89 -158h-94l66 180q-68 29 -68 95zM506 0v1274h-459v160h1098v-160h-459v-1274h-180z" />
    <glyph glyph-name="circumflex" unicode="&#x2c6;" horiz-adv-x="989" 
d="M172 1534l315 362h19l315 -362h-133l-190 180l-193 -180h-133z" />
    <glyph glyph-name="caron" unicode="&#x2c7;" horiz-adv-x="989" 
d="M487 1507l-315 361h133l193 -180l190 180h133l-315 -361h-19z" />
    <glyph glyph-name="breve" unicode="&#x2d8;" horiz-adv-x="989" 
d="M831 1868q0 -126 -99 -230t-237 -104t-238 104q-99 104 -99 230h137q0 -68 59 -130q58 -62 140 -62t142 62t60 130h135z" />
    <glyph glyph-name="dotaccent" unicode="&#x2d9;" horiz-adv-x="989" 
d="M600 1701q0 -44 -30 -76t-75 -32q-44 0 -76 32t-32 76t32 75q32 30 76 30q45 0 75 -30t30 -75z" />
    <glyph glyph-name="ring" unicode="&#x2da;" horiz-adv-x="989" 
d="M494 1599q42 0 72 30t30 72t-31 72q-31 29 -71 29t-71 -30q-30 -30 -30 -71q0 -42 30 -72t71 -30zM686 1701q0 -77 -56 -133t-135 -55q-79 -1 -135 55t-55 133q0 77 55 132q54 55 134 55t136 -55t56 -132z" />
    <glyph glyph-name="ogonek" unicode="&#x2db;" horiz-adv-x="989" 
d="M518 -481q-74 0 -135 56t-61 135t77 157l136 133h120l-155 -215q-31 -41 -31 -70t25 -51q49 -42 165 4l3 -110q-70 -39 -144 -39z" />
    <glyph glyph-name="tilde" unicode="&#x2dc;" horiz-adv-x="989" 
d="M113 1556q0 125 52 206q51 81 153 81t219 -90q80 -57 116 -57q104 0 105 149h116q0 -127 -53 -208t-153 -81t-222 91q-78 55 -114 55q-104 0 -105 -146h-114z" />
    <glyph glyph-name="hungarumlaut" unicode="&#x2dd;" horiz-adv-x="989" 
d="M498 1536l145 330h240l-295 -330h-90zM154 1536l145 330h240l-295 -330h-90z" />
    <glyph glyph-name="gravecomb" unicode="&#x300;" horiz-adv-x="0" 
d="M-379 1536l-291 330h242l141 -330h-92z" />
    <glyph glyph-name="acutecomb" unicode="&#x301;" horiz-adv-x="0" 
d="M-670 1536l140 330h243l-293 -330h-90z" />
    <glyph glyph-name="uni0302" unicode="&#x302;" horiz-adv-x="0" 
d="M-817 1534l315 362h19l315 -362h-133l-191 180l-192 -180h-133z" />
    <glyph glyph-name="tildecomb" unicode="&#x303;" horiz-adv-x="0" 
d="M-877 1556q0 125 52.5 206t153.5 81t218 -90q80 -57 117 -57q104 0 105 149h116q0 -127 -53 -208q-54 -81 -154 -81t-221 91q-78 55 -114 55q-104 0 -105 -146h-115z" />
    <glyph glyph-name="uni0304" unicode="&#x304;" horiz-adv-x="0" 
d="M-854 1628v144h719v-144h-719z" />
    <glyph glyph-name="uni0306" unicode="&#x306;" horiz-adv-x="0" 
d="M-495 1534q-138 0 -237 104.5t-99 229.5h137q0 -68 59.5 -130.5t140 -62.5t141 62.5t60.5 130.5h135q0 -125 -99.5 -229.5t-237.5 -104.5z" />
    <glyph glyph-name="uni0307" unicode="&#x307;" horiz-adv-x="0" 
d="M-495 1593q-44 0 -75.5 32t-31.5 76t31.5 74.5t75.5 30.5t75 -30.5t31 -74.5t-31 -76t-75 -32z" />
    <glyph glyph-name="uni0308" unicode="&#x308;" horiz-adv-x="0" 
d="M-318 1593q-44 0 -76 32t-32 76t32 74.5t76 30.5t74.5 -30.5t30.5 -74.5t-30.5 -76t-74.5 -32zM-669 1593q-44 0 -75.5 32t-31.5 76t31.5 74.5t75.5 30.5t75 -30.5t31 -74.5t-31 -76t-75 -32z" />
    <glyph glyph-name="uni030A" unicode="&#x30a;" horiz-adv-x="0" 
d="M-496 1599q41 0 72 30t31 72t-31 71.5t-72 29.5t-70.5 -29.5t-29.5 -71.5t29.5 -72t70.5 -30zM-495 1513q-79 0 -134 55.5t-55 132.5t55.5 132t134 55t135 -55t56.5 -132t-56.5 -132.5t-135.5 -55.5z" />
    <glyph glyph-name="uni030B" unicode="&#x30b;" horiz-adv-x="0" 
d="M-492 1536l146 330h240l-295 -330h-91zM-836 1536l146 330h239l-294 -330h-91z" />
    <glyph glyph-name="uni030C" unicode="&#x30c;" horiz-adv-x="0" 
d="M-502 1507l-315 361h133l192 -180l191 180h133l-315 -361h-19z" />
    <glyph glyph-name="uni0326" unicode="&#x326;" horiz-adv-x="0" 
d="M-582 -184q0 43 33 73.5t82 30.5t84 -29.5t35 -70.5t-49 -121l-88 -158h-95l66 180q-68 29 -68 95z" />
    <glyph glyph-name="uni0327" unicode="&#x327;" horiz-adv-x="0" 
d="M-520.5 -485q-92.5 0 -190.5 28v117q78 -25 147.5 -25t105.5 26t36 60.5t-38 57t-87 22.5t-65 -2v101q31 6 82 6q109 0 180 -52.5t71 -136.5t-74.5 -143t-167 -59z" />
    <glyph glyph-name="uni0328" unicode="&#x328;" horiz-adv-x="0" 
d="M-470.5 -481q-74.5 0 -136 56t-61.5 135t78 157l135 133h121l-155 -215q-31 -41 -31 -70t24.5 -50t64.5 -21t101 24l2 -110q-68 -39 -142.5 -39z" />
    <glyph glyph-name="uni0335" unicode="&#x335;" horiz-adv-x="0" 
d="M-907 479v142h616v-142h-616z" />
    <glyph glyph-name="uni0338" unicode="&#x338;" horiz-adv-x="0" 
d="M-946 -131l799 1696h159l-796 -1696h-162z" />
    <glyph glyph-name="Wgrave" unicode="&#x1e80;" horiz-adv-x="2011" 
d="M563 -41l-543 1475h189l373 -1086l415 1106h19l414 -1106l372 1086h191l-545 -1475h-16l-424 1098l-426 -1098h-19zM958 1536l-290 330h241l142 -330h-93z" />
    <glyph glyph-name="wgrave" unicode="&#x1e81;" horiz-adv-x="2011" 
d="M563 -41l-543 1475h189l373 -1086l415 1106h19l414 -1106l372 1086h191l-545 -1475h-16l-424 1098l-426 -1098h-19zM958 1536l-290 330h241l142 -330h-93z" />
    <glyph glyph-name="Wacute" unicode="&#x1e82;" horiz-adv-x="2011" 
d="M563 -41l-543 1475h189l373 -1086l415 1106h19l414 -1106l372 1086h191l-545 -1475h-16l-424 1098l-426 -1098h-19zM961 1536l139 330h243l-292 -330h-90z" />
    <glyph glyph-name="wacute" unicode="&#x1e83;" horiz-adv-x="2011" 
d="M563 -41l-543 1475h189l373 -1086l415 1106h19l414 -1106l372 1086h191l-545 -1475h-16l-424 1098l-426 -1098h-19zM961 1536l139 330h243l-292 -330h-90z" />
    <glyph glyph-name="Wdieresis" unicode="&#x1e84;" horiz-adv-x="2011" 
d="M563 -41l-543 1475h189l373 -1086l415 1106h19l414 -1106l372 1086h191l-545 -1475h-16l-424 1098l-426 -1098h-19zM1183 1593q-44 0 -76 32t-32 76t32 74.5t76 30.5t74.5 -30.5t30.5 -74.5t-30.5 -76t-74.5 -32zM832 1593q-44 0 -75.5 32t-31.5 76t31.5 74.5t75.5 30.5
t75 -30.5t31 -74.5t-31 -76t-75 -32z" />
    <glyph glyph-name="wdieresis" unicode="&#x1e85;" horiz-adv-x="2011" 
d="M563 -41l-543 1475h189l373 -1086l415 1106h19l414 -1106l372 1086h191l-545 -1475h-16l-424 1098l-426 -1098h-19zM1183 1593q-44 0 -76 32t-32 76t32 74.5t76 30.5t74.5 -30.5t30.5 -74.5t-30.5 -76t-74.5 -32zM832 1593q-44 0 -75.5 32t-31.5 76t31.5 74.5t75.5 30.5
t75 -30.5t31 -74.5t-31 -76t-75 -32z" />
    <glyph glyph-name="uni1E8A" unicode="&#x1e8a;" horiz-adv-x="1284" 
d="M41 0l498 729l-498 705h207l397 -572l387 572h207l-483 -705l487 -729h-207l-389 592l-399 -592h-207zM642 1593q-44 0 -75.5 32t-31.5 76t31.5 74.5t75.5 30.5t75 -30.5t31 -74.5t-31 -76t-75 -32z" />
    <glyph glyph-name="uni1E8B" unicode="&#x1e8b;" horiz-adv-x="1284" 
d="M41 0l498 729l-498 705h207l397 -572l387 572h207l-483 -705l487 -729h-207l-389 592l-399 -592h-207zM642 1593q-44 0 -75.5 32t-31.5 76t31.5 74.5t75.5 30.5t75 -30.5t31 -74.5t-31 -76t-75 -32z" />
    <glyph glyph-name="Ygrave" unicode="&#x1ef2;" horiz-adv-x="1255" 
d="M539 0v565l-519 869h199l410 -705l409 705h199l-518 -869v-565h-180zM582 1536l-291 330h241l142 -330h-92z" />
    <glyph glyph-name="ygrave" unicode="&#x1ef3;" horiz-adv-x="1255" 
d="M539 0v565l-519 869h199l410 -705l409 705h199l-518 -869v-565h-180zM582 1536l-291 330h241l142 -330h-92z" />
    <glyph glyph-name="uni2002" unicode="&#x2002;" horiz-adv-x="1015" 
 />
    <glyph glyph-name="uni2003" unicode="&#x2003;" horiz-adv-x="2039" 
 />
    <glyph glyph-name="endash" unicode="&#x2013;" horiz-adv-x="1144" 
d="M41 582v151h1065v-151h-1065z" />
    <glyph glyph-name="emdash" unicode="&#x2014;" horiz-adv-x="1882" 
d="M41 582v151h1802v-151h-1802z" />
    <glyph glyph-name="quoteleft" unicode="&#x2018;" horiz-adv-x="571" 
d="M283 1026q-49 0 -85 34t-36 79t49 135l90 180h96l-67 -205q70 -29 69 -106q1 -49 -33 -83t-83 -34z" />
    <glyph glyph-name="quoteright" unicode="&#x2019;" horiz-adv-x="571" 
d="M172 1337q0 49 34 83t83 34t85 -34t36 -80t-50 -134l-90 -180h-96l68 205q-70 29 -70 106z" />
    <glyph glyph-name="quotesinglbase" unicode="&#x201a;" horiz-adv-x="571" 
d="M172 104q0 49 34 83t83 34t85 -34q36 -33 36 -79t-50 -135l-90 -180h-96l68 205q-70 29 -70 106z" />
    <glyph glyph-name="quotedblleft" unicode="&#x201c;" horiz-adv-x="876" 
d="M705 1143q0 -49 -34 -83t-83 -34t-85 34t-36 79t49 135l90 180h96l-67 -205q70 -29 70 -106zM283 1026q-49 0 -85 34t-36 79t49 135l90 180h96l-67 -205q70 -29 69 -106q1 -49 -33 -83t-83 -34z" />
    <glyph glyph-name="quotedblright" unicode="&#x201d;" horiz-adv-x="876" 
d="M475 1337q0 49 34 83t83 34t85 -34t36 -80t-49 -134l-91 -180h-96l68 205q-70 29 -70 106zM172 1337q0 49 34 83t83 34t85 -34t36 -80t-50 -134l-90 -180h-96l68 205q-70 29 -70 106z" />
    <glyph glyph-name="quotedblbase" unicode="&#x201e;" horiz-adv-x="876" 
d="M475 104q0 49 34 83t83 34t85 -34q36 -33 36 -79t-49 -135l-91 -180h-96l68 205q-70 29 -70 106zM172 104q0 49 34 83t83 34t85 -34q36 -33 36 -79t-50 -135l-90 -180h-96l68 205q-70 29 -70 106z" />
    <glyph glyph-name="dagger" unicode="&#x2020;" horiz-adv-x="770" 
d="M322 -252v1206h-224v121h224v410h127v-410h225v-121h-225v-1206h-127z" />
    <glyph glyph-name="daggerdbl" unicode="&#x2021;" horiz-adv-x="770" 
d="M322 -252v707h-224v120h224v379h-224v121h224v410h127v-410h225v-121h-225v-379h225v-120h-225v-707h-127z" />
    <glyph glyph-name="bullet" unicode="&#x2022;" horiz-adv-x="661" 
d="M334 348q-59 0 -101 41q-41 41 -41 99t41 100q41 41 101 41t102 -41q43 -42 43 -100t-43 -99t-102 -41z" />
    <glyph glyph-name="ellipsis" unicode="&#x2026;" horiz-adv-x="1490" 
d="M1210 -12q-49 0 -84 34q-34 34 -34 82t34 83q35 34 84 34t85 -34t36 -83q0 -48 -36 -82t-85 -34zM752 -12q-49 0 -84 34t-35 82t35 83q35 34 84 34t85 -34q35 -34 35 -83q0 -48 -36 -82t-84 -34zM291 -12q-49 0 -84 34t-35 82t35 83q35 34 84 34t85 -34t36 -83
q0 -48 -36 -82t-85 -34z" />
    <glyph glyph-name="perthousand" unicode="&#x2030;" horiz-adv-x="2166" 
d="M1774 94q68 0 118 50t50 120t-50 120t-118 50t-118 -50t-50 -120t50 -120t118 -50zM1096 94q68 0 118 50t50 120t-50 120t-118 50t-118 -50t-50 -120t50 -120t118 -50zM1775 -27q-124 0 -212 86t-88 205t88 204t212 85t211 -85t87 -205t-87 -205t-211 -85zM1096 -27
q-125 0 -212 85t-87 205t87 205t212 85t212 -85t87 -205t-87 -205t-212 -85zM391 774q70 0 119 50t49 120t-49 120t-119 50t-119 -50t-49 -120t49 -120t119 -50zM391 655q-125 0 -212 84t-87 205t87 206t212 85t212 -85t87 -206t-87 -205t-212 -84zM393 -35l-106 68
l809 1204l106 -68z" />
    <glyph glyph-name="guilsinglleft" unicode="&#x2039;" horiz-adv-x="669" 
d="M442 20l-323 443l323 442l103 -53l-252 -389l252 -389z" />
    <glyph glyph-name="guilsinglright" unicode="&#x203a;" horiz-adv-x="669" 
d="M227 20l-102 54l252 389l-252 389l102 53l324 -442z" />
    <glyph glyph-name="fraction" unicode="&#x2044;" horiz-adv-x="634" 
d="M0 696v80h635v-80h-635z" />
    <glyph glyph-name="Euro" unicode="&#x20ac;" horiz-adv-x="1142" 
d="M718 -25q-210 0 -352 131t-184 345h-145v120h131v52h-131v120h143q37 219 180 353q144 134 358 135q214 0 345 -152l-86 -121q-113 113 -254 113t-235 -89t-126 -239h324v-120h-338v-52h338v-120h-321q35 -143 127 -229t234 -87q142 0 269 133l88 -127
q-155 -166 -365 -166z" />
    <glyph glyph-name="trademark" unicode="&#x2122;" horiz-adv-x="1511" 
d="M647 766l64 700h118l213 -530l213 530h119l60 -700h-119l-39 442l-178 -442h-115l-174 442l-39 -442h-123zM270 766v586h-190v114h508v-114h-193v-586h-125z" />
    <glyph glyph-name="minus" unicode="&#x2212;" horiz-adv-x="1120" 
d="M139 639v156h842v-156h-842z" />
    <glyph glyph-name="i.loclTRK" horiz-adv-x="530" 
d="M176 0v1434h180v-1434h-180zM267 1593q-44 0 -75.5 32t-31.5 76t31.5 74.5t75.5 30.5t75 -30.5t31 -74.5t-31 -76t-75 -32z" />
    <glyph glyph-name="one.superior" horiz-adv-x="409" 
d="M172 821v520l-115 -10v121l267 21v-652h-152z" />
    <glyph glyph-name="two.superior" horiz-adv-x="577" 
d="M45 821v8l195 236q6 5 22 25t24 28l21 24t30 37q16 20 22 34l15 30t9 43q0 26 -28 52t-74 26q-78 0 -131 -88l-109 47q63 160 246 160q113 1 179 -63t64 -140q0 -102 -137 -254l-76 -86h220v-119h-492z" />
    <glyph glyph-name="three.superior" horiz-adv-x="604" 
d="M565 1011q1 -83 -75 -143t-174 -61q-98 0 -172 27q-73 27 -111 65l78 86q66 -66 174 -65q57 0 96 28t39 71q0 44 -37 75q-37 30 -85 30t-73 -10l-43 29l137 203h-229v120h453v-8l-164 -239q82 -17 134 -71t52 -137z" />
    <glyph glyph-name="four.superior" horiz-adv-x="612" 
d="M362 1040v177l-151 -177h151zM360 821v113h-335v45l440 506h35v-441h78v-110h-78v-113h-140z" />
    <glyph glyph-name="ampersand.ss01" horiz-adv-x="1003" 
d="M133 0v131h735v-131h-735zM401 600q82 0 183 86l-207 252q-68 -45 -105 -89q-36 -44 -36 -103q0 -58 42 -102t123 -44zM402 471q-142 0 -230 80t-88 197q0 164 215 288q-70 104 -70 196t68 152q69 60 187 60t218 -98l-65 -103q-80 74 -158 74q-45 0 -73 -27t-29 -69
q0 -68 84 -168l215 -265q31 41 90 134l113 -76q-57 -98 -113 -166l154 -188h-177l-73 88q-126 -109 -268 -109z" />
    <glyph glyph-name="caron.alt" horiz-adv-x="989" 
d="M467 1096v342h195l-111 -342h-84z" />
    </font>
</defs>
</svg>
