<?xml version="1.0" standalone="no"?>
<!DOCTYPE svg PUBLIC "-//W3C//DTD SVG 1.1//EN" "http://www.w3.org/Graphics/SVG/1.1/DTD/svg11.dtd" >
<svg xmlns="http://www.w3.org/2000/svg">
<metadata>
Created by FontPrep 20130207 at Fri May 26 14:40:50 2017
 By Lizzy Knight
Copyright (c) 2016 by Jason Vandenberg. All rights reserved.
</metadata>
<defs>
<font id="2afa983271f1e0619dc8eb0c8f157d5a" horiz-adv-x='1024' >
  <font-face 
    font-family="Town31Dim-RegularL"
    font-weight="400"
    font-stretch="normal"
    units-per-em="2048"
    panose-1="0 0 5 0 0 0 0 0 0 0"
    ascent="1536"
    descent="-512"
    x-height="1434"
    cap-height="1434"
    bbox="-1112 -723 2075 1896"
    underline-thickness="102"
    underline-position="-102"
    unicode-range="U+0020-2212"
  />
<missing-glyph horiz-adv-x="1228" 
d="M188 154l-55 47l434 557l-436 559l57 43l426 -543l426 545l56 -45l-437 -559l439 -559l-60 -43l-424 542zM61 61h1106v1393h-1106v-1393zM0 0v1516h1229v-1516h-1229z" />
    <glyph glyph-name=".notdef" horiz-adv-x="1228" 
d="M188 154l-55 47l434 557l-436 559l57 43l426 -543l426 545l56 -45l-437 -559l439 -559l-60 -43l-424 542zM61 61h1106v1393h-1106v-1393zM0 0v1516h1229v-1516h-1229z" />
    <glyph glyph-name=".null" horiz-adv-x="0" 
 />
    <glyph glyph-name="nonmarkingreturn" horiz-adv-x="681" 
 />
    <glyph glyph-name="space" unicode=" " horiz-adv-x="524" 
 />
    <glyph glyph-name="exclam" unicode="!" horiz-adv-x="569" 
d="M289 -39q8 0 28 4l-114 -112q-23 -21 -56 -27l136 135h6zM102 -174q-16 4 -24 8l145 143l21 -8zM51 -150q-6 4 -16 15l145 147l17 -16zM16 -106q-6 18 -6 22l144 143l8 -20zM145 104v-8l-137 -139q4 31 21 51l118 121q-2 -8 -2 -25zM289 -12q-49 0 -84 34t-35 82t35 83
q35 34 84 34t85 -34t36 -83q0 -48 -36 -82t-85 -34zM133 195l139 139h31l-139 -139h-31zM66 195v6l139 139v-6h24l-139 -139h-24zM63 244v30l140 140v-31zM61 317v31l140 139v-30zM59 391v31l140 139v-31zM57 463v33l140 139v-33zM55 537v30l140 140v-31zM53 610v29l140 139
v-28zM51 684v29l139 139v-29zM49 758v28l139 140v-29zM47 829v29l139 139v-28zM45 903v29l139 139v-29zM43 977l-2 29l139 139l2 -29zM41 1051l-2 28l139 140l2 -29zM39 1122l-2 29l139 139l2 -28zM37 1196l-2 29l139 139l2 -29zM35 1270l-2 28l139 140l2 -29zM229 358
l-32 1127h188l-35 -1127h-121z" />
    <glyph glyph-name="quotedbl" unicode="&#x22;" horiz-adv-x="704" 
d="M420 844l139 139h31l-139 -139h-31zM344 844l139 139h31l-139 -139h-31zM119 844l139 139h31l-139 -139h-31zM43 844l139 139h31l-139 -139h-31zM326 870v29l139 139v-28zM29 874v29l139 139v-28zM344 983v12l117 115l2 -31l-139 -139l-2 33l10 10h12zM25 946v29l139 139
v-29zM348 1040v33l109 109l2 -31zM23 1016l-3 31l140 139l2 -31zM352 1120l2 33l99 100l2 -28zM18 1090l-2 28l140 139l2 -28zM356 1202l2 31l93 92v-29zM14 1161v29l140 139v-29zM360 1282l2 33l84 82l3 -29zM10 1233v29l140 139v-29zM492 1008l-23 448h172l-23 -448h-126z
M195 1008l-23 448h172l-22 -448h-127z" />
    <glyph glyph-name="numbersign" unicode="#" horiz-adv-x="1308" 
d="M719 -164l139 139h21l-140 -139h-20zM643 -164l139 139h33l-139 -139h-33zM569 -164l140 139h30l-139 -139h-31zM193 -164l139 139h30l-139 -139h-30zM117 -164l139 139h31l-140 -139h-30zM94 -141l4 35l133 135l-2 -35zM573 -113l5 35l137 135l-4 -32zM102 -57l4 32
l136 136l-4 -35zM584 -29l4 35l135 135l-4 -32zM111 27l4 34l135 134l-4 -33zM594 57l2 35l135 133l-4 -32zM121 111l2 34l135 136l-2 -35zM602 139l4 35l133 133l-4 -33zM1018 211l137 137h19l-138 -137h-18zM956 268l2 35l48 45h30zM950 211v8l131 129h31l-137 -137h-25z
M567 211l138 137h30l-137 -137h-31zM492 211l137 137h30l-137 -137h-30zM485 324l2 24h23zM475 242l4 34l74 72h31zM129 195l2 16h-16l137 137h14l-2 -18zM39 211l137 137h33l-137 -137h-33zM-35 211l137 137h31l-137 -137h-31zM-111 211l138 137h30l-137 -137h-31z
M-125 242l4 34l135 136l-6 -35zM-115 328l4 34l136 136l-5 -35zM231 553l64 65l-4 -34l-29 -31h-31zM684 553l92 92l-4 -35l-57 -57h-31zM168 553v14l137 135l-4 -34l-115 -115h-18zM643 559l4 35l137 135l-4 -33zM174 616l2 35l137 135l-4 -32zM653 643l4 35l136 137
l-2 -35zM182 698l2 35l138 137l-5 -34zM1024 743l137 138h31l-137 -138h-31zM1020 858l2 23h20zM1010 776l4 35l71 70h31zM664 729l2 14h-19l137 138h17l-2 -17zM571 743l138 138h32l-137 -138h-33zM539 831l4 33l16 17h31zM530 745l5 35l100 101h31zM121 743l137 138h31
l-137 -138h-31zM45 743l137 138h31l-137 -138h-31zM-31 743l137 138h31l-137 -138h-31zM481 526h307l41 381h-309zM-72 745l4 35l136 138l-2 -35zM-63 831l4 35l135 135l-2 -34zM311 1085l39 39l-4 -34l-4 -5h-31zM764 1085l65 68l-4 -35l-30 -33h-31zM238 1085l120 121
l-4 -32l-86 -89h-30zM700 1085l2 15l136 137l-2 -35l-117 -117h-19zM227 1120l4 35l136 135l-5 -33zM707 1151l4 35l135 135l-2 -35zM236 1206l4 35l135 135l-2 -35zM717 1233l4 35l135 135l-4 -35zM256 0l41 375h-260l18 151h256l41 381h-258l17 152h258l39 375h170
l-39 -375h307l39 375h170l-39 -375h258l-17 -152h-258l-41 -381h261l-19 -151h-256l-41 -375h-170l41 375h-307l-41 -375h-170z" />
    <glyph glyph-name="dollar" unicode="$" horiz-adv-x="1069" 
d="M397 -291l140 139h30l-139 -139h-31zM322 -291l139 139h31l-140 -139h-30zM315 -252v31l140 139v-31zM315 -178v31l140 139v-31zM297 -121q-10 0 -27 4l142 142q6 0 26 -5zM231 -111l-24 7l143 143l25 -6zM659 -59v30l62 62l43 12zM172 -94q-12 4 -22 8l143 143
q16 -4 22 -8zM119 -74q-4 0 -23 11l146 145q18 -8 22 -10zM68 -49l-19 12l146 146l18 -13zM23 -18l-19 12l148 147q10 -10 16 -14zM111 176l16 -14l-145 -148l-17 17zM-57 53l-15 17l146 145q6 -4 14 -16zM-90 94l-12 19l145 145l12 -18zM696 233l109 109q-21 -76 -109 -109
zM664 244l-9 24l148 148l6 -27zM639 297q-4 6 -14 16l149 150q10 -10 14 -17zM602 336q-10 10 -16 14l149 150q10 -10 17 -15zM559 367l-18 12l147 147q10 -4 21 -10zM512 395q-16 8 -20 11l145 145q4 -2 22 -10zM461 420q-4 0 -11 3t-12 5l146 145q4 0 11 -4t11 -4z
M530 596l21 -10l-143 -144q-4 0 -12 4t-11 5zM352 463q-6 4 -22 8l145 145q10 -6 23 -8zM299 483q-4 2 -11 5t-9 6l143 143q4 -2 11 -4t11 -4zM371 662q2 -2 20 -11l-145 -145q-4 2 -12 5t-9 5zM195 530l-19 13l146 145l18 -12zM147 559l-18 12l145 146l19 -12zM104 590
q-6 4 -16 14l145 146q12 -8 19 -15zM66 627q-6 4 -15 16l148 145q4 -4 12 -16zM33 670q-8 12 -10 18l145 148l10 -21zM8 721l-6 22l143 146q4 -16 9 -23zM-6 780l-2 31l141 141q0 -12 4 -28zM-6 856q0 10 4 35l135 135q-2 -10 -2 -33zM643 903l-16 15l143 143q4 -2 8 -7
t8 -7zM602 938l-18 12l141 142l18 -13zM553 965q-3 0 -23 8l142 141q16 -4 22 -8zM20 958q20 43 58 80l76 76q-8 -18 -11 -33zM626 1126q10 0 13 -2l-141 -141q-16 4 -25 4l139 141q4 -2 14 -2zM352 993v8q0 14 2 21l99 96q25 8 39 10l-136 -135h-4zM432 993q-18 0 -29 2
l138 138h30zM424 1317l31 31v-25zM315 1280v4l140 139v-30l-93 -93q-33 -12 -47 -20zM479 -127v168q-279 25 -422 240l123 92q131 -188 365 -189q133 0 211 52t78 139q0 125 -204 207l-160 64q-34 13 -97 43t-110 70q-48 39 -64 69q-43 79 -43 159q0 129 87 213t236 100v152
h154v-152q211 -29 313 -174l-121 -90q-94 123 -272 123q-109 0 -168 -44t-59 -120t80 -124t183 -87q269 -102 345 -187t76 -217t-102 -224t-275 -113v-170h-154z" />
    <glyph glyph-name="percent" unicode="%" horiz-adv-x="1488" 
d="M942 -190l137 137h31l-133 -133q-25 -4 -35 -4zM899 -188q-10 0 -27 4l142 141l24 -6zM1036 -172l125 125q23 2 43 12l-108 -108q-19 -13 -60 -29zM219 -193l-20 13l147 147l21 -14zM838 -176q-12 4 -23 8l143 143q7 0 23 -8zM172 -164l-18 12l145 146l20 -10zM784 -154
l-18 11l145 145q12 -8 19 -10zM127 -133l-4 2l47 72l84 82l18 -11zM739 -123q-12 8 -16 14l145 146q10 -10 17 -14zM700 -86q-4 6 -14 16l148 148l12 -19zM670 -43q-10 19 -11 20l146 146l10 -21zM647 8q-4 8 -8 25l143 143q4 -10 9 -22zM772 242l2 -29l-141 -141v28z
M1100 117l139 139q0 -18 -6 -37l-94 -94q-25 -8 -39 -8zM1092 154q-2 12 -9 22l146 143l6 -22zM637 152q4 23 12 41l129 129q0 -2 -6 -35zM1067 205q-10 10 -14 16l145 146l14 -19zM975 338q18 33 51 51zM1028 240l-20 12l145 143q6 -2 18 -10zM954 266v4l136 138h8
q14 0 20 -2l-143 -144q-12 4 -21 4zM1096 92q70 0 118 50t50 120q0 70 -50 120t-118 50q-70 0 -119 -50t-49 -120t49 -120t119 -50zM1096 -27q-125 0 -212 84t-87 205t87 206t212 85t212 -85t87 -206t-87 -205t-212 -84zM272 494l134 135q14 0 34 4l-131 -131q-7 -2 -19 -4
t-18 -4zM225 492q-18 0 -28 2l139 139q10 -2 29 -2zM158 500l-25 6l143 143q16 -8 23 -8zM391 539l111 110l16 6l-76 -77q-33 -29 -51 -39zM100 518l-20 10l145 146q12 -8 21 -10zM53 547l-18 12l145 146l19 -15zM12 580q-4 6 -14 16l143 145l17 -16zM-20 621q-4 4 -13 20
l144 143l12 -18zM-49 670q-4 12 -8 22l143 144l10 -23zM-66 729q-4 16 -4 27l140 139l6 -25zM434 807l94 94q-18 -61 -82 -90q-2 0 -6 -2t-6 -2zM-70 801q0 10 4 35l134 133v-33zM393 811l-6 25l143 143q4 -16 5 -27zM375 866q-4 8 -13 21l146 143q6 -6 10 -18zM-45 899
q25 49 61 86l74 72q-8 -18 -12 -37zM342 909l-18 13l143 145q12 -6 20 -14zM295 938l-25 6l144 143l24 -6zM252 971q8 35 20 49l50 51q23 14 47 16zM391 774q70 0 119 50t49 120t-49 120t-119 50t-119 -50t-49 -120t49 -120t119 -50zM391 655q-125 0 -212 84t-87 205t87 206
t212 85t212 -85t87 -206t-87 -205t-212 -84zM393 -35l-106 68l809 1204l106 -68z" />
    <glyph glyph-name="ampersand" unicode="&#x26;" horiz-adv-x="1505" 
d="M465 -193l137 138q4 0 16 1t17 1l-135 -135zM418 -195q-20 0 -31 2l141 140q18 0 29 -2zM348 -188q-10 0 -26 4l141 143l26 -6zM557 -176l131 131q25 4 39 8l-127 -125q-14 -6 -43 -14zM1171 -164l140 139h24l-139 -139h-25zM1096 -164l139 139h31l-140 -139h-30z
M1020 -164l139 139h31l-139 -139h-31zM287 -176q-16 4 -25 8l146 143q6 0 22 -8zM229 -156q-8 0 -20 9l145 145q10 -4 21 -10zM981 -160l-16 19l147 145l14 -18zM678 -129l113 113l55 24l-90 -90q-41 -27 -78 -47zM180 -131l-18 12l145 146l19 -13zM946 -119l-14 19l147 145
l13 -16zM135 -100q-10 10 -16 14l145 145q6 -4 17 -14zM913 -76l-14 17l145 145l15 -16zM96 -66l-14 19l145 145q4 -6 15 -16zM879 -33l-13 17l109 108l39 33l10 -14zM61 -25l-12 19l146 145l12 -18zM33 23q-6 10 -10 20l143 143l10 -18zM143 240q0 -11 9 -23l-144 -143
q-8 16 -8 22zM-8 133l-6 27l141 139l6 -25zM707 182l-9 11l146 145l14 -16l-131 -132zM119 365l2 -29l-139 -139v30zM680 217l-14 16l145 146l14 -17zM645 258l-14 18l147 146l13 -16zM-16 274l6 37l133 133q-4 -25 -4 -34zM612 301l-14 16l145 146l15 -17zM578 342l-15 18
l148 146l12 -17zM10 377q10 29 29 59l111 111q-10 -27 -17 -47zM545 383l-15 18l146 148l14 -19zM1028 457l-14 16l82 82q-15 -24 -68 -98zM512 426l-14 16l145 148l14 -19zM477 467l-14 18l147 146l15 -17zM410 551l-2 4q37 51 118 113zM444 510l-14 16l145 148l15 -19z
M575 127q168 0 338 164l-348 436q-119 -82 -182 -160t-63 -182t68 -181q70 -77 187 -77zM274 733l-6 10l146 146q4 -8 12 -21l-53 -53q-44 -31 -99 -82zM254 770q-6 10 -10 21l145 145q4 -10 10 -21zM229 821l-8 23l146 145q2 -12 8 -22zM209 879l-6 24l145 144l6 -25z
M197 940l-2 29l141 141q0 -10 4 -27zM195 1014l6 37l135 135q-2 -12 -2 -35zM762 1053q-10 10 -17 14l146 147q6 -6 18 -14zM719 1085l-19 13l146 145q6 -2 18 -10zM670 1114q-5 0 -21 8l146 146l20 -8zM221 1114q20 47 60 86l75 74l-12 -35zM616 1135q-16 4 -24 4l143 143
q6 0 27 -4zM557 1149q0 14 4 31v6l94 92q16 6 37 6zM586 -31q-193 0 -317 122q-124 121 -124 283t86 268t238 210q-109 164 -109 299t96 222t264 87q167 0 312 -135l-88 -125q-113 111 -239 111q-72 0 -122 -47t-51 -117q0 -111 152 -299l344 -432q70 86 150 217l129 -101
q-100 -158 -174 -247l229 -285h-213l-131 162q-207 -193 -432 -193z" />
    <glyph glyph-name="quotesingle" unicode="'" horiz-adv-x="503" 
d="M119 844l139 139h31l-139 -139h-31zM43 844l139 139h31l-139 -139h-31zM29 874v29l139 139v-28zM25 946v29l139 139v-29zM23 1016l-3 31l140 139l2 -31zM18 1090l-2 28l140 139l2 -28zM14 1161v29l140 139v-29zM10 1233v29l140 139v-29zM195 1008l-23 448h172l-22 -448
h-127z" />
    <glyph glyph-name="parenleft" unicode="(" horiz-adv-x="552" 
d="M399 -287l17 -14l-148 -148l-16 15zM229 -412q-14 14 -16 15l147 147q4 -2 8 -7t9 -7zM324 -211l14 -16l-145 -146q-9 9 -17 15zM156 -334l-15 17l148 147q4 -6 14 -16zM123 -293l-12 19l145 145q10 -10 14 -16zM92 -248l-12 19l145 145l13 -18zM61 -203l-12 19l148 147
l12 -18zM33 -156l-10 21l145 145l12 -18zM8 -106q-8 10 -10 22l145 145l11 -22zM121 113l8 -23l-145 -145l-11 20zM98 166l8 -23l-145 -145q-8 16 -8 22zM-59 53l-7 25l146 145l6 -24zM-76 113l-6 24l143 144l7 -25zM-92 170q0 17 -4 27l143 143l6 -25zM37 390q0 -9 2 -13
l-143 -144q0 20 -5 27l144 143q2 -4 2 -13zM25 469l4 -27l-144 -141l-2 27zM18 539l2 -29l-141 -141v30zM-123 440v31l139 139v-30zM-121 518l2 33l137 137q0 -20 -2 -33zM-115 600l6 37l136 135q-4 -25 -4 -35zM-100 690q8 32 8 39l133 133q-4 -25 -8 -37zM-78 786
q7 34 15 48l126 127q-8 -29 -10 -43zM-41 901q4 7 11 25t12 26l118 119q-14 -37 -16 -47zM25 1040l43 74l94 94q-18 -31 -29 -59zM43 616q0 282 114 524q114 241 289 386l93 -96q-143 -138 -229 -346t-85 -468q0 -260 85 -468t229 -345l-93 -96q-176 145 -289 386
q-114 241 -114 523z" />
    <glyph glyph-name="parenright" unicode=")" horiz-adv-x="552" 
d="M-59 -455l-17 17l148 147l16 -16zM-96 -416l-17 17l148 145l14 -14zM-133 -379l-14 17l145 147l16 -16zM12 -158q31 55 35 66l100 102q-29 -47 -67 -100zM82 -12q12 33 16 49l123 121q-15 -31 -22 -54zM119 102q8 23 10 41l129 129l-12 -45zM141 197l6 41l134 133
q-4 -29 -9 -41zM154 287q4 20 4 35l137 135l-6 -35zM301 541l-2 -33l-137 -139l2 32zM164 449v28l139 141v-32zM301 692l2 -30l-141 -140v29zM158 590l-4 28l143 142l2 -29zM150 657q0 17 -5 27l142 143q4 -20 4 -26zM276 891l5 -25l-144 -143q0 8 -4 25zM125 784q0 9 -8 25
l145 143l6 -24zM109 842q-2 4 -9 22l144 146q4 -8 8 -25zM225 1065q0 -3 8 -23l-145 -143q0 3 -8 23zM203 1118l10 -20l-145 -146l-11 21zM43 1004l-10 20l145 145l10 -20zM16 1053l-12 20l148 146q8 -12 12 -21zM-12 1100l-13 18l148 146l12 -19zM-43 1145l-12 16l147 148
l12 -19zM-76 1186l-14 18l147 146q10 -10 15 -17zM-111 1227l-16 16l147 148l17 -17zM328 616q0 260 -85 468t-229 346l92 96q176 -145 290 -386t114 -524q0 -284 -114 -524t-290 -385l-92 96q143 137 229 345q85 208 85 468z" />
    <glyph glyph-name="asterisk" unicode="*" horiz-adv-x="946" 
d="M193 711l-9 6l146 145l8 -6zM426 711l-6 10l145 145l6 -10zM162 733l-19 12l146 146l18 -12zM401 748l-12 20l148 145l10 -18zM117 766l-17 12l146 146l16 -15zM74 797l-15 12l33 37l109 108l18 -12zM373 795l-13 18l148 148l12 -19zM397 893l45 78l37 37l13 -21z
M184 983l-24 6l141 141l25 -4zM125 997l-27 4l144 144l24 -6zM662 1083l-17 17l43 41l39 8zM61 1012l-24 4l141 141l27 -4zM0 1024l-12 4l6 21l125 122l22 -6zM16 1116l15 45l125 125l-15 -45zM358 1307l-20 10l37 37l2 -27zM305 1331l-20 8l84 84l2 -26zM356 874l-133 99
l150 168l-221 51l51 156l209 -88l-21 225h164l-18 -223l206 86l52 -156l-222 -51l150 -168l-133 -99l-117 197z" />
    <glyph glyph-name="plus" unicode="+" horiz-adv-x="1120" 
d="M453 133l139 139h24l-139 -139h-24zM377 133l139 139h33l-139 -139h-33zM315 133v12l140 140v-13h18l-139 -139h-19zM315 190v31l140 139v-30zM315 266v31l140 139v-30zM315 342v31l140 139v-31zM315 416v30l140 140v-31zM799 479l139 139h18l-137 -139h-20zM723 479
l139 139h33l-139 -139h-33zM668 479v19l120 120h31l-139 -139h-12zM668 543v30l45 45h30zM272 479l140 139h30l-139 -139h-31zM197 479l139 139h31l-140 -139h-30zM121 479l139 139h31l-139 -139h-31zM47 479l139 139h31l-139 -139h-31zM-25 479v4l140 140v-5h26l-139 -139
h-27zM-25 528v31l140 139v-30zM-25 604v31l140 137v-29zM391 823l64 64v-31l-33 -33h-31zM315 823l140 140v-31l-109 -109h-31zM315 868v31l140 139v-30zM315 944v29l140 137v-27zM479 297v346h-340v156h340v338h162v-338h340v-156h-340v-346h-162z" />
    <glyph glyph-name="comma" unicode="," horiz-adv-x="571" 
d="M86 -371l139 140h21l-140 -140h-20zM10 -371l140 140h32l-139 -140h-33zM31 -307l16 45l125 127l-14 -47zM68 -195l10 29l-8 4l137 137l-14 -45zM43 -143l-14 16l145 145q4 -6 14 -16zM14 -96q-4 12 -6 24l144 142l6 -23zM12 -25q10 33 31 50l107 104q-2 -6 -3 -18z
M172 104q0 49 34 83t83 34t85 -34q36 -33 36 -79t-50 -135l-90 -180h-96l68 205q-70 31 -70 106z" />
    <glyph glyph-name="hyphen" unicode="-" horiz-adv-x="495" 
d="M270 418l138 137h22l-139 -137h-21zM197 418l137 137h31l-138 -137h-30zM121 418l137 137h31l-137 -137h-31zM45 418l137 137h31l-137 -137h-31zM-31 418l137 137h31l-137 -137h-31zM-104 418l137 137h30l-137 -137h-30zM-125 442v31l139 139v-30zM-125 518v31l139 139
v-31zM41 582v151h416v-151h-416z" />
    <glyph glyph-name="period" unicode="." horiz-adv-x="571" 
d="M291 -39q8 0 28 4l-114 -112q-22 -21 -55 -27l135 135h6zM104 -174q-16 4 -24 8l145 143l21 -8zM53 -150q-6 4 -16 15l145 147l17 -16zM18 -106q-6 18 -6 22l144 143l8 -20zM10 -43q4 31 21 51l119 121q-2 -8 -3 -25v-8zM291 -12q-49 0 -84 34t-35 82t35 83q35 34 84 34
t85 -34t36 -83q0 -48 -36 -82t-85 -34z" />
    <glyph glyph-name="slash" unicode="/" horiz-adv-x="866" 
d="M55 -293l140 139h28l-139 -139h-29zM-20 -293l139 139h31l-140 -139h-30zM-88 -293l4 12l127 127h31l-140 -139h-22zM-61 -213l16 47l123 125l-15 -47zM-23 -100l15 45l125 125l-17 -47zM14 12l17 47l125 125l-17 -47zM53 127l17 47l123 125l-15 -47zM92 242l14 47
l125 123l-14 -45zM129 352l16 49l125 125l-16 -49zM168 467l14 47l125 125l-14 -47zM205 582l16 45l125 125l-14 -45zM244 694l16 47l125 125l-16 -45zM283 809l16 47l125 125l-16 -47zM319 920l17 47l125 125l-17 -45zM358 1034l17 47l125 125l-17 -45zM397 1149l15 47
l127 125l-17 -47zM434 1264l17 45l127 127l-17 -47zM76 -129l542 1614h173l-543 -1614h-172z" />
    <glyph glyph-name="zero" unicode="0" horiz-adv-x="1216" 
d="M467 -190h-31l137 137h31zM518 -184l133 133q10 0 35 4l-131 -131zM395 -188q-4 0 -13 2t-13 2l141 141l25 -6zM332 -176l-25 6l144 143q6 -4 22 -8zM625 -154l120 121q25 6 50 19l-101 -101q-32 -23 -69 -39zM397 -4l21 -10l-144 -144q-4 2 -11 5t-9 6zM350 25
q1 -1 19 -13l-146 -145l-18 12zM180 -102l-18 12l145 145q6 -4 17 -14zM139 -68q-6 4 -16 15l145 145l17 -16zM102 -29q-6 4 -14 17l145 145q8 -12 15 -16zM203 178l12 -18l-147 -148l-13 19zM41 57l-12 23l145 145q4 -8 12 -20zM150 274l10 -20l-146 -145l-10 20zM-8 162
l-8 22l145 146q4 -16 8 -23zM-27 219q0 3 -8 23l146 145l6 -25zM735 227q4 10 15 45l124 125q-16 -41 -20 -51zM-43 279l-6 24l143 143l6 -24zM903 502q-8 -32 -8 -39l-131 -131l6 37zM-57 353q0 9 -2 14l143 143q0 -10 4 -27l-143 -143q-2 4 -2 13zM76 578l2 -29l-141 -141
q-2 8 -3 26zM778 436q0 10 2 17l135 137q0 -10 -4 -35l-135 -135q2 6 2 16zM70 647l2 -29l-142 -141v29zM922 670l-2 -33l-138 -137v30zM-72 551v31l140 139v-31zM922 745v-30l-140 -140v31zM-70 627l2 32l138 138v-31zM778 662q0 10 -2 14l142 141q2 -8 2 -29l-140 -139
q-2 3 -2 13zM-63 709q4 25 4 34l137 138l-4 -35zM911 887l2 -29l-141 -141q0 10 -4 26zM762 780l-6 27l143 143l6 -26zM-49 799q4 25 8 39l133 133q-4 -10 -8 -39zM748 842q-4 16 -9 22l146 146l6 -25zM729 899q-3 3 -10 21l145 145q4 -6 8 -23zM-25 899l15 45l127 127
l-13 -43zM705 950q-2 8 -11 21l146 145q8 -12 12 -20zM678 999l-12 19l145 145l12 -18zM23 1020q18 37 47 80l96 96q-2 -2 -12 -25t-15 -34zM645 1040q-8 12 -14 17l147 147q6 -4 15 -16zM608 1079l-18 13l147 147l19 -12zM563 1110l-20 10l145 146q16 -8 21 -11zM412 1139
l131 131q10 4 39 8l-138 -137q-20 0 -32 -2zM508 1130l-25 7l144 143q8 -4 26 -4zM606 131q141 0 241 151q99 150 99 436t-99 438t-241 151q-142 0 -239 -152q-99 -151 -99 -437t98 -436t240 -151zM608 -27q-223 0 -369 195q-147 195 -147 550t146 551q146 195 370 195
q223 0 369 -195q145 -196 145 -551t-146 -550t-368 -195z" />
    <glyph glyph-name="one" unicode="1" horiz-adv-x="731" 
d="M319 -164l140 139h30l-139 -139h-31zM244 -164l139 139h31l-140 -139h-30zM186 -164v19l140 139v-19h12l-139 -139h-13zM186 -102v30l140 140v-31zM186 -27v31l140 139v-30zM186 49v31l140 139v-31zM186 125v31l140 139v-31zM186 199v32l140 140v-33zM186 274v31l140 139
v-30zM186 350v31l140 139v-31zM186 426v31l140 139v-31zM186 502v30l140 140v-31zM186 575v31l140 139v-30zM186 651v31l140 139v-30zM186 727v31l140 139v-31zM186 803v31l140 139v-31zM186 877v30l140 140v-31zM186 952v31l140 139v-30zM186 1028v31l140 139v-31zM-8 1090
l133 135l35 2l-135 -135zM72 1098l135 133l37 4l-135 -135zM186 1104v4l-30 -2l135 133l35 4zM-25 1118v31l140 139v-31zM-25 1194v31l140 139v-31zM352 0v1272l-211 -21v158l389 37v-1446h-178z" />
    <glyph glyph-name="two" unicode="2" horiz-adv-x="1062" 
d="M745 -166l140 139h30l-139 -139h-31zM670 -166l139 139h31l-140 -139h-30zM594 -166l139 139h31l-139 -139h-31zM520 -166l139 139h31l-139 -139h-31zM444 -166l140 139h30l-139 -139h-31zM369 -166l139 139h31l-140 -139h-30zM293 -166l139 139h31l-139 -139h-31z
M219 -166l139 139h31l-139 -139h-31zM143 -166l140 139h30l-139 -139h-31zM68 -166l139 139h31l-140 -139h-30zM-8 -166l139 139h31l-139 -139h-31zM-84 -166l139 139h33l-139 -139h-33zM-123 -162v12l70 89l123 124l-31 -40v-23zM119 156l117 149l137 135l-123 -153z
M414 526q55 72 90 121l151 154q-43 -63 -100 -131zM571 760q8 18 21 51l153 156q-8 -29 -18 -52zM758 1051v-31l-156 -156v31zM57 932l-16 8l145 145l17 -8zM14 956l-18 11l145 145l19 -10zM745 1116l7 -24l-156 -158l-6 27zM-33 983l-20 12l145 146l21 -13zM723 1167
l10 -20l-153 -154l-11 21zM-63 1030q23 43 45 76l94 92l-19 -37l6 -4zM553 1042l-12 19l149 149q10 -10 15 -16zM520 1083l-18 15l147 145l19 -12zM475 1114q-12 8 -20 10l143 144q12 -2 23 -8zM420 1137q-16 4 -25 4l140 139q4 0 13 -1t13 -1zM319 1141l134 133l36 6
l-137 -137q-23 0 -33 -2zM63 0v16l394 494q20 25 60 73q40 49 58 71t51 62q32 40 46 62t37 56t33 56t26 58t16 90q0 98 -69 185q-69 86 -183 86q-114 1 -179 -51t-132 -162l-129 75q139 293 432 293q203 0 320 -134t117 -272t-78 -264q-78 -128 -260 -354l-228 -282h576
v-158h-908z" />
    <glyph glyph-name="three" unicode="3" horiz-adv-x="1148" 
d="M438 -193l137 138q7 0 17 1t16 1l-135 -135q-25 -5 -35 -5zM391 -195h-31l142 142q8 -2 28 -2zM317 -190q-4 0 -12 1t-14 1l143 143q16 -4 27 -4zM526 -178l131 131q29 4 39 8l-127 -127zM254 -180q-10 0 -27 4l144 145q12 -6 24 -6zM195 -166q-16 4 -25 8l145 144
q13 -6 23 -9zM647 -133l113 113l53 24l-65 -67q-38 -35 -101 -70zM137 -147l-20 10l145 145q16 -8 21 -10zM86 -123l-20 10l145 146q10 -4 20 -10zM37 -96l-19 12l146 147l18 -12zM-6 -66q-12 8 -19 15l146 147l18 -16zM84 131l14 -14l-145 -148q-6 4 -16 15zM713 203
q4 12 4 35l133 133q-6 -20 -16 -47zM717 283l-2 28l141 142v-31zM707 346l-7 25l144 143l6 -25zM686 403q-2 6 -10 19l145 147l10 -20zM657 451q-4 4 -12 16l146 145q6 -4 14 -16zM623 489q-13 13 -17 15l146 145q12 -8 16 -12zM582 522l-23 13l146 145l22 -12zM530 547
q-10 6 -22 8l143 143l25 -6zM291 565l129 129q29 8 41 11l-133 -134zM473 565q-17 0 -27 4l142 142q10 0 26 -4zM406 573h-31l137 138q10 2 33 2zM242 559l-19 12l148 148l18 -12zM256 649l59 90l74 74l-49 -74l4 -2zM403 872l60 91l74 73l-60 -90zM551 1096l10 16h-24
l139 139h2l-53 -82zM463 1112l139 139h31l-139 -139h-31zM387 1112l139 139h31l-139 -139h-31zM311 1112l140 139h30l-139 -139h-31zM236 1112l139 139h31l-140 -139h-30zM160 1112l139 139h33l-139 -139h-33zM86 1112l139 139h31l-139 -139h-31zM16 1112v6l140 139v-6h24
l-139 -139h-25zM16 1163v31l140 139v-30zM16 1239v31l140 139v-31zM551 -31q-133 -1 -261 53t-208 146l115 115q55 -68 152 -113t198 -45q141 0 237 88t97 219q0 131 -90 218t-236 87q-82 0 -141 -18l-39 26l350 531h-545v158h830v-17l-361 -530q170 -23 289 -153t119 -314
q1 -184 -145 -317q-146 -134 -361 -134z" />
    <glyph glyph-name="four" unicode="4" horiz-adv-x="1122" 
d="M676 -164l139 139h31l-139 -139h-31zM600 -164l139 139h31l-139 -139h-31zM549 -164v25l139 139v-25h6l-139 -139h-6zM549 -94v31l139 139v-31zM549 -20v30l139 140v-31zM549 55v31l139 139v-30zM549 131v31l139 139v-31zM911 268v31l11 10h30zM911 193v30l86 86h31z
M481 170l140 139h30l-139 -139h-31zM408 170l139 139h31l-140 -139h-30zM332 170l139 139h31l-140 -139h-30zM256 170l139 139h31l-139 -139h-31zM180 170l139 139h31l-139 -139h-31zM104 170l140 139h32l-139 -139h-33zM31 170l139 139h31l-140 -139h-30zM-45 170l139 139
h31l-139 -139h-31zM-121 170l139 139h31l-139 -139h-31zM-139 197l90 120l90 91l-31 -41v-21zM688 516h-10l10 10v-10zM602 516l86 86v-31l-55 -55h-31zM549 516v23l139 139v-31l-131 -131h-8zM549 582v32l139 140v-33zM549 657v31l139 139v-30zM549 733l2 33l137 137v-31z
M713 489v539l-400 -539h400zM713 0v334h-678v24l831 1117h21v-986h170v-155h-170v-334h-174z" />
    <glyph glyph-name="five" unicode="5" horiz-adv-x="1148" 
d="M418 -195l137 140h33l-137 -135q-7 -2 -17 -2t-16 -3zM371 -195q-18 0 -29 2l141 142q10 -2 29 -2zM504 -182l133 133l37 6l-129 -131q-9 0 -41 -8zM301 -188q-6 0 -27 4l144 141q6 0 26 -4zM240 -178l-25 6l143 145q8 -4 25 -8zM610 -150l121 121q37 12 53 21l-104 -105
q-35 -23 -70 -37zM180 -162q-4 2 -12 4t-12 4l145 146q4 -2 23 -8zM125 -141l-23 10l146 145l22 -10zM74 -117l-21 11l146 147l20 -12zM27 -90l-19 12l146 148l18 -13zM-18 -57l-17 14l148 145q4 -4 16 -12zM-57 -23l-17 17l148 147q4 -6 14 -16zM715 223l2 33l137 137
q-2 -16 -10 -39zM715 299l-2 27l141 143q2 -10 2 -29zM840 530q8 -16 8 -24l-146 -144q-2 12 -8 23zM72 430l-9 2l144 143l24 -6l-71 -73q-49 -29 -88 -66zM680 416q-2 6 -10 18l145 148q6 -10 10 -21zM29 442l-25 7l143 143l25 -8zM651 461l-14 16l145 148q4 -6 15 -17z
M-10 479l6 37l133 133l-6 -37zM614 498l-16 14l145 147q6 -4 17 -14zM248 541l112 112q18 10 60 27l-125 -123q-14 -4 -47 -16zM569 530q-12 8 -18 11l145 145l21 -10zM518 555q-18 6 -22 8l143 144q16 -4 25 -9zM350 569l133 131q12 4 41 9l-137 -136q-7 0 -19 -2t-18 -2z
M569 713h31l-141 -144l-29 4zM6 569l6 37l133 133l-6 -39zM23 659l6 39l133 133l-6 -38zM39 752l6 36l133 134l-6 -37zM55 844l6 37l134 133l-9 -37zM70 934l6 37l133 133l-6 -37zM86 1026l6 37l133 133l-6 -37zM743 1112l140 139h30l-139 -139h-31zM668 1112l139 139h31
l-140 -139h-30zM592 1112l139 139h31l-139 -139h-31zM518 1112l139 139h31l-139 -139h-31zM442 1112l140 139h30l-139 -139h-31zM436 1225l4 26h21zM420 1133l6 38l80 80h31zM102 1118l7 37l133 133l-6 -37zM119 1208l6 39l133 133l-6 -39zM551 -31q-133 -1 -261 53
t-208 146l115 115q55 -68 153 -113t199 -45q141 0 237 88t96 218t-88 218q-89 88 -219 88q-180 0 -339 -143l-86 22l143 818h686v-158h-559l-80 -455q119 72 248 72q195 0 332 -135t137 -328q-1 -193 -145 -327t-361 -134z" />
    <glyph glyph-name="six" unicode="6" horiz-adv-x="1155" 
d="M559 -55h33l-139 -138q-10 -2 -33 -2zM379 -195q-6 0 -15 1t-14 1l142 144q20 -4 28 -4zM506 -184l135 133l35 6l-129 -129q-23 -8 -41 -10zM311 -186l-24 6l143 143l25 -6zM252 -170q-16 8 -23 8l146 146q4 -2 20 -9zM618 -147l119 118q31 8 49 19l-98 -99
q-35 -24 -70 -38zM197 -147l-21 10l148 145q12 -8 18 -10zM150 -121q-6 2 -19 10l145 148l19 -12zM104 -90l-16 14l148 146l16 -15zM66 -55l-17 16l148 145l14 -14zM29 -14q-4 4 -13 16l146 148l14 -19zM-2 29q-8 12 -12 20l147 146l12 -21zM109 244q8 -16 8 -21l-146 -145
q0 4 -8 20zM-49 131l-8 25l145 143l6 -23zM-66 193q0 6 -4 26l144 141q0 -8 4 -24zM719 221q4 25 4 35l135 137q-4 -25 -8 -41zM-72 260v31l140 139q0 -18 2 -29zM860 469l2 -29l-141 -141q0 17 -4 27zM-68 338l7 39l133 133q0 -21 -4 -35zM844 528q0 -6 8 -22l-145 -144
q-6 18 -9 23zM684 414q-2 6 -10 18l145 146q8 -12 10 -19zM-39 442q20 45 29 60l114 114q-12 -25 -18 -49zM655 459q-10 10 -14 16l145 146q10 -10 15 -17zM616 498q-4 4 -16 12l145 147l19 -14zM573 528q-12 8 -20 13l145 145q8 -4 21 -12zM524 553q-4 0 -12 4t-12 4
l143 144l25 -7zM356 567l129 129q4 2 41 13l-135 -138q-15 0 -35 -4zM578 713q4 0 14 -1t14 -1l-143 -142q-4 0 -12 1t-15 1l139 142h3zM268 430q0 -129 90 -217t215 -88q124 0 220 91t96 217t-91 215t-220 89q-130 0 -220 -89t-90 -218zM598 893q186 0 326 -136
q140 -135 139 -325q1 -190 -147 -326t-345 -137q-197 0 -338 136t-141 333q0 150 119 322l461 674h194l-374 -555q51 14 106 14z" />
    <glyph glyph-name="seven" unicode="7" horiz-adv-x="1044" 
d="M201 -164l139 139h25l-140 -139h-24zM125 -164l139 139h31l-139 -139h-31zM49 -164l139 139h31l-139 -139h-31zM59 -111l23 54l119 118l-23 -53zM117 23l22 53l117 117l-23 -54zM172 154l23 53l118 119l-22 -54zM229 287l23 53l117 117l-23 -54zM285 416l22 55l119 119
l-25 -58zM340 547l22 53l119 119l-22 -53zM397 680l23 53l117 117l-23 -53zM453 811l22 53l119 119l-23 -53zM510 944l22 53l117 117l-22 -53zM565 1073l17 39h-9l132 131l-23 -53zM498 1112l139 139h31l-140 -139h-30zM422 1112l139 139h31l-139 -139h-31zM346 1112
l139 139h31l-139 -139h-31zM272 1112l140 139h30l-139 -139h-31zM197 1112l139 139h31l-140 -139h-30zM121 1112l139 139h31l-139 -139h-31zM45 1112l139 139h31l-139 -139h-31zM-31 1112l140 139h32l-139 -139h-33zM-94 1112v10l139 140v-11h21l-140 -139h-20zM-94 1167v31
l139 139v-30zM-94 1243v27l139 139v-27zM70 1276v158h925v-17l-606 -1417h-188l544 1276h-675z" />
    <glyph glyph-name="eight" unicode="8" horiz-adv-x="1155" 
d="M451 -193l137 138q12 2 33 2l-136 -135q-24 -5 -34 -5zM403 -195q-6 0 -14 1t-14 1l141 142q8 -2 29 -2zM537 -180l133 133l37 6l-127 -127zM334 -188q-16 4 -27 4l144 143q16 -4 26 -4zM270 -174l-22 6l143 145q8 -4 25 -8zM215 -156q-16 6 -20 9l145 145q4 -2 11 -5
t9 -5zM655 -135l117 115q10 4 53 22l-80 -80q-35 -30 -90 -57zM164 -133l-19 12l146 146l18 -13zM117 -104q-12 8 -19 14l148 145l18 -12zM74 -72l-17 17l148 145q4 -2 8 -7t8 -7zM37 -35l-14 19l145 145l16 -16zM4 8q-8 8 -12 19l145 145l13 -18zM-27 55l-10 21l146 145
q4 -8 12 -20zM-49 106q-8 16 -8 23l145 145q4 -16 8 -22zM-66 166l-4 27l142 143l6 -27zM721 199q4 12 4 34l135 136q-4 -29 -10 -39zM-72 233v31l140 139v-30zM723 276l-6 27l143 141q2 -8 2 -26zM-66 315q2 18 11 41l131 131q-6 -18 -6 -36zM709 336l-9 22l146 146l6 -23z
M684 387l-12 19l147 147q8 -12 10 -21zM-20 436q29 55 73 94l58 58l-19 -39zM651 430q-8 12 -14 16l145 148l17 -16zM612 467l-18 14l147 146q12 -8 17 -13zM567 496q-10 8 -22 10l145 145l23 -10zM336 522l127 127q20 10 43 13l-133 -134q-12 0 -23 -3q-10 -3 -14 -3z
M514 518l-25 6l142 142q10 0 26 -4zM559 670h31l-141 -140h-29zM578 125q131 0 221 81t90 198q0 118 -86 204t-224 86q-139 0 -225 -87t-86 -203t90 -198q90 -81 220 -81zM131 666l-14 14l145 145q6 -4 17 -14zM96 702q-4 6 -14 17l147 147l13 -18zM66 748l-13 18l146 145
l12 -18zM39 797q-8 16 -8 22l145 146q4 -12 8 -23zM160 1024q4 -20 6 -25l-143 -143l-7 25zM657 891q4 16 5 29v4l137 137q0 -20 -6 -35zM14 922v32l140 140v-33zM795 1130l4 -26l-144 -141q0 12 -6 22zM20 1006l13 43l129 127l-6 -37zM637 1018l-12 20l147 146
q8 -12 10 -21zM739 1227l15 -17l-148 -147l-14 16zM567 1100l-18 12l145 145q6 -2 19 -10zM520 1126q-4 0 -11 4t-11 5l143 143l25 -6zM369 1143l6 20l102 103q25 10 45 16l-135 -135q-2 0 -8 -2t-10 -2zM573 1286h31l-143 -143q-16 4 -27 4zM579 842q115 0 181 70t66 168
q0 97 -71 164t-176 67t-175 -67t-70 -164t65 -168q66 -70 180 -70zM578 -31q-201 0 -344 127q-142 127 -142 307q0 123 70 225t186 160q-170 113 -170 306q0 154 117 262t284 108t283 -108t117 -262q0 -94 -46 -175t-126 -133q117 -55 187 -157t69 -226q0 -180 -142 -307
t-343 -127z" />
    <glyph glyph-name="nine" unicode="9" horiz-adv-x="1155" 
d="M297 -164l139 139h31l-139 -139h-31zM221 -164l139 139h31l-139 -139h-31zM166 -164l29 47l92 92h30l-139 -139h-12zM549 518h10l-139 -137q-8 -2 -27 -2h-6l139 141q8 -2 23 -2zM469 387l135 133q2 0 6 1t8 1l-28 -47l-78 -78q-23 -6 -43 -10zM346 381q-17 0 -27 4
l142 143l26 -6zM283 393l-25 6l143 146q4 -2 23 -8zM225 412l-22 10l145 143l21 -8zM172 436q-12 8 -18 10l145 148l18 -12zM127 465q-12 8 -16 12l145 146l18 -13zM86 498q-6 4 -16 14l145 147q10 -10 16 -14zM47 535l-14 18l145 145q10 -10 15 -16zM12 578l-12 18l147 145
l13 -18zM-16 623l-11 20l146 145l12 -20zM96 842q8 -16 8 -23l-145 -145q-4 12 -8 22zM-59 731q-4 16 -4 25l143 143q0 -12 6 -25zM713 754l6 30l131 131q-14 -35 -29 -57l-94 -96q-4 0 -8 -4t-6 -4zM-70 795q-2 10 -2 28l142 142q0 -18 2 -27zM723 840q0 16 -2 24l143 142
v-2q0 -20 -2 -31l-139 -139v6zM-70 886q0 12 2 19l138 135q-2 -10 -2 -34l-140 -138q2 6 2 18zM856 1073l4 -24l-143 -146l-6 25zM698 961l-10 20l146 147q6 -10 10 -20zM-53 961q4 16 16 49l123 120q-8 -23 -10 -40zM672 1010l-13 16l146 148q6 -6 14 -19zM639 1051
q-10 10 -16 14l145 147q6 -4 16 -14zM598 1085l-18 13l145 147l18 -12zM324 1130q4 10 16 31l74 74q41 25 63 31l-131 -129zM551 1114l-23 10l146 144q18 -6 22 -8zM496 1135l-25 6l143 141q8 0 25 -4zM430 1145h-31l138 137q12 2 34 2zM578 696q129 0 220 89t91 219
t-91 217q-91 88 -219 88q-127 0 -219 -89t-92 -217t90 -218q91 -89 220 -89zM557 543q-186 0 -326 136q-139 136 -139 324q0 189 148 325t344 136q197 0 338 -136t141 -333q0 -133 -117 -319l-424 -676h-192l340 557q-51 -14 -113 -14z" />
    <glyph glyph-name="colon" unicode=":" horiz-adv-x="571" 
d="M291 -39q8 0 28 4l-114 -112q-22 -21 -55 -27l135 135h6zM104 -174q-16 4 -24 8l145 143l21 -8zM53 -150q-6 4 -16 15l145 147l17 -16zM18 -106q-6 18 -6 22l144 143l8 -20zM10 -43q4 31 21 51l119 121q-2 -8 -3 -25v-8zM291 -12q-49 0 -84 34t-35 82t35 83q35 34 84 34
t85 -34t36 -83q0 -48 -36 -82t-85 -34zM291 580q8 0 28 4l-114 -113q-22 -21 -55 -27l135 136h6zM104 444q-16 4 -24 9l145 143l21 -8zM53 469q-6 4 -16 14l145 148l17 -17zM18 512q-6 18 -6 23l144 143l8 -21zM10 575q4 31 21 52l119 121q-2 -8 -3 -25v-8zM291 606
q-49 0 -84 34t-35 83t35 83t84 34t85 -34t36 -83t-36 -83t-85 -34z" />
    <glyph glyph-name="semicolon" unicode=";" horiz-adv-x="571" 
d="M86 -371l139 140h21l-140 -140h-20zM10 -371l140 140h32l-139 -140h-33zM31 -307l16 45l125 127l-14 -47zM68 -195l10 29l-8 4l137 137l-14 -45zM43 -143l-14 16l145 145q4 -6 14 -16zM14 -96q-4 12 -6 24l144 142l6 -23zM12 -25q10 33 31 50l107 104q-2 -6 -3 -18z
M172 104q0 49 34 83t83 34t85 -34q36 -33 36 -79t-50 -135l-90 -180h-96l68 205q-70 31 -70 106zM291 582q8 0 28 4l-114 -113q-22 -21 -55 -27l135 136h6zM104 446q-16 4 -24 9l145 143l21 -8zM53 471q-6 4 -16 14l145 148l17 -17zM18 514q-6 18 -6 23l144 143l8 -21z
M10 578q4 31 21 51l119 121q-2 -8 -3 -25v-8zM291 608q-49 0 -84 34t-35 83t35 83t84 34t85 -34t36 -83t-36 -83t-85 -34z" />
    <glyph glyph-name="less" unicode="&#x3c;" horiz-adv-x="1095" 
d="M729 154l-22 8l145 145l22 -8zM676 176l-21 8l146 146l20 -8zM623 199l-21 8l146 145l20 -8zM569 221l-20 8l145 146l21 -8zM518 244l-22 8l145 145l21 -8zM465 264l-23 10l146 146l22 -10zM412 289l-21 8l146 145l20 -10zM358 311l-20 8l145 146l21 -10zM305 334l-20 8
l145 145l21 -8zM252 356l-21 9l146 145l20 -8zM201 377l-21 10l146 145l20 -10zM147 399l-20 11l145 145l21 -10zM94 424l-20 8l145 146l21 -11zM41 446l-21 9l146 145l20 -10zM-10 467l-15 6v10l140 140v-2l20 -9zM-25 528v31l140 139v-30zM446 698l-22 11l41 39l53 22z
M-25 604v31l140 137v-29zM479 686l117 117l53 22l-119 -116zM604 739l119 117l53 23l-119 -119zM735 793l119 118l53 23l-121 -121zM895 315l-756 322v162l756 321l61 -141l-622 -260l622 -262z" />
    <glyph glyph-name="equal" unicode="=" horiz-adv-x="1097" 
d="M743 283l138 137h30l-137 -137h-31zM668 283l137 137h31l-138 -137h-30zM592 283l137 137h33l-137 -137h-33zM518 283l137 137h31l-137 -137h-31zM442 283l138 137h30l-137 -137h-31zM367 283l137 137h31l-138 -137h-30zM291 283l137 137h31l-137 -137h-31zM217 283
l137 137h31l-137 -137h-31zM141 283l138 137h30l-137 -137h-31zM66 283l137 137h30l-137 -137h-30zM-10 283l137 137h31l-138 -137h-30zM-25 311v31l140 139v-30zM-25 387v31l140 139v-31zM139 444v154h819v-154h-819zM743 674l138 137h30l-137 -137h-31zM668 674l137 137
h31l-138 -137h-30zM592 674l137 137h33l-137 -137h-33zM518 674l137 137h31l-137 -137h-31zM442 674l138 137h30l-137 -137h-31zM367 674l137 137h31l-138 -137h-30zM291 674l137 137h31l-137 -137h-31zM217 674l137 137h31l-137 -137h-31zM141 674l138 137h30l-137 -137
h-31zM66 674l137 137h30l-137 -137h-30zM-10 674l137 137h31l-138 -137h-30zM-25 702v31l140 139v-30zM-25 778v31l140 139v-30zM139 836v153h819v-153h-819z" />
    <glyph glyph-name="greater" unicode="&#x3e;" horiz-adv-x="1095" 
d="M92 176l119 117l53 22l-119 -116zM33 160l-8 22l143 144l8 -21zM221 229l117 119l57 25l-116 -119zM10 213l-10 23l145 143l9 -21zM352 287l119 116l53 23l-118 -117zM-12 266l-11 21l146 145l8 -20zM485 342l117 119l53 22l-116 -118zM616 397l119 119l53 23l-118 -117z
M748 455l118 118l41 17l-114 -117zM592 676l61 61l23 -10l-31 -29zM463 621l137 139l23 -10l-109 -107zM424 629l-21 8l144 145l22 -10zM371 651l-21 8l144 146l22 -10zM319 672l-22 10l145 143l21 -8zM266 694l-22 8l145 146l21 -8zM213 717l-23 8l146 145l20 -8zM158 739
l-21 9l146 145l20 -8zM106 760l-22 10l145 145l23 -10zM53 782l-22 11l145 145l23 -10zM0 805l-23 10l146 146l22 -11zM8 889l23 55l114 113l-22 -53zM201 315l-62 142l623 262l-623 260l62 141l755 -321v-162z" />
    <glyph glyph-name="question" unicode="?" horiz-adv-x="1007" 
d="M420 -39q8 0 29 4l-115 -112q-22 -21 -55 -27l135 135h6zM233 -174q-16 4 -24 8l145 143l21 -8zM182 -150q-6 4 -16 15l145 147l17 -16zM147 -106q-6 18 -6 22l144 143l8 -20zM139 -43q4 31 21 51l119 121q-2 -8 -3 -25v-8zM420 -12q-49 0 -84 34t-35 82t35 83
q35 34 84 34t85 -34t36 -83q0 -48 -36 -82t-85 -34zM276 195l140 139h30l-139 -139h-31zM203 195l139 139h31l-140 -139h-30zM193 229l-3 29l142 141l2 -28zM186 299l-2 29l142 141l2 -29zM182 371l-2 28l142 142l2 -29zM520 555l2 35l8 8q18 2 41 10zM176 438l-2 31
l141 141l2 -30zM520 512l119 119q26 6 53 20l-90 -88q-35 -26 -82 -51zM172 510l-2 29l141 141l2 -29zM575 838q2 10 3 34l139 140q0 -20 -6 -39zM717 1070q0 -9 2 -13l-144 -144q-4 16 -4 25l144 145q2 -4 2 -13zM559 973l-8 22l145 146q4 -10 9 -23zM0 1047l119 118
l12 -18l-39 -39q-49 -24 -92 -61zM535 1022l-15 18l148 148l12 -19zM-47 1044l-12 19l145 145l14 -16zM500 1063q-6 6 -19 14l148 148q6 -4 16 -15zM457 1096l-19 12l146 145q12 -8 20 -12zM-78 1090l-12 18l145 145l13 -18zM408 1120q-4 2 -23 8l143 146q16 -4 23 -8z
M164 1135l125 125q37 14 47 16l-133 -133q-29 -4 -39 -8zM348 1139q-16 4 -26 4l141 141q4 0 13 -1t16 -1zM281 1147h-31l137 137q10 2 33 2zM-109 1133l-12 16l148 145l10 -16zM418 1311q-150 0 -283 -127l-90 129q174 151 390 151t349 -120q134 -120 134 -298
q0 -180 -112 -285t-306 -145l-19 -258h-121l-26 367q192 16 302 97t110 210t-90 204q-88 75 -238 75z" />
    <glyph glyph-name="at" unicode="@" horiz-adv-x="1740" 
d="M612 -406l140 140h30l-139 -137q-5 1 -15 -1t-16 -2zM567 -403q-18 0 -28 2l141 139q4 0 13 -1t16 -1zM690 -399l137 137q5 0 17 1t18 1l-135 -135q-25 -4 -37 -4zM626 -254q8 0 13 -2l-141 -141q-6 0 -27 4l143 141q4 -2 12 -2zM782 -385l133 133q7 0 39 8l-131 -131
q-7 -2 -21 -5t-20 -5zM434 -385q-12 0 -24 6l143 143q8 -4 25 -8zM377 -371q-10 6 -23 9l144 145q4 -2 22 -8zM889 -354l127 127l21 7q15 5 24 7l-121 -121zM322 -348l-21 8l145 145q4 -2 12 -5t9 -5zM270 -324l-18 11l145 145q12 -8 19 -10zM223 -295q-12 8 -16 12l145 146
q4 -4 17 -13zM182 -264q-6 6 -18 14l145 148l19 -17zM141 -227q-8 6 -14 14l145 145l15 -14zM104 -188q-10 10 -14 16l146 145l14 -16zM72 -147l-13 18l146 145l12 -18zM41 -100q-8 12 -10 18l143 145q8 -12 12 -20zM1100 -68l141 142q4 0 13 -1t16 -1l-135 -133l-2 6
l-25 -13h-8zM1182 -59l135 135q2 0 39 6l-125 -125q-35 -14 -49 -16zM1059 -61l-23 6l144 143l22 -6zM610 -51q-14 0 -20 2l141 139q18 0 29 -2l-139 -139h-11zM670 -47l135 137q14 0 35 4l-133 -133q-12 -4 -37 -8zM549 -45q-4 0 -12 2t-13 2l144 145l24 -6zM1006 -43
q-8 4 -21 12l145 144l19 -11zM14 -53l-8 20l144 146l10 -21zM770 -18l125 124q20 6 47 17l-108 -109q-33 -20 -64 -32zM489 -29l-20 9l145 145l21 -8zM961 -12l-17 16l146 143q10 -10 16 -14zM440 -4l-20 12l147 146l19 -13zM-8 0q-6 18 -8 23l145 143q6 -18 8 -23zM395 27
l-14 14l145 145q10 -10 17 -14zM926 31q-8 12 -11 18l144 144q2 -6 10 -19zM-27 57l-6 23l144 145l6 -24zM358 63l-14 19l145 145l15 -18zM326 109l-11 18l144 145l12 -18zM-41 119l-4 24l141 144l6 -27zM301 158q-2 4 -8 22l143 144q6 -16 8 -21zM-49 182l-4 29l141 141
l4 -28zM283 215q-4 16 -4 25l141 141q0 -8 4 -25zM1362 242l12 41l127 127q-14 -39 -20 -50zM-53 254v31l139 139v-31zM274 281v30l138 138q0 -18 2 -29zM-49 350q0 10 2 17l135 137l-2 -33l-137 -137q2 6 2 16zM1384 338q4 20 5 35l135 133q-4 -25 -8 -37zM936 340l4 35
l133 135q-4 -25 -8 -39zM279 362q4 25 8 39l129 129l-4 -34zM938 418q-4 20 -4 26l139 142l4 -29zM1395 451v2l135 137v-33l-137 -135q2 10 2 29zM-39 420q2 8 4 21t4 20l133 131q-4 -12 -8 -37zM311 469q20 45 35 68l103 100q-14 -27 -19 -49zM1057 645l10 -24l-143 -144
q-8 16 -11 23zM1393 496l-2 28l139 140v-29zM895 526l-12 17l145 145l12 -16zM-14 520q14 41 20 51l123 125q-4 -10 -14 -47zM858 563q-10 10 -18 12l145 146l19 -12zM666 596q37 84 125 125zM1384 565q0 10 -4 27l142 141l4 -28zM809 590q-8 4 -25 8l144 143l24 -6z
M717 604l135 137q12 2 35 2l-142 -139h-28zM817 258q123 0 205 84t82 194t-58 170q-58 62 -162 62t-188 -87t-84 -189t58 -168t147 -66zM1372 627l-6 24l143 142l7 -25zM43 651q29 53 47 78l94 94q-16 -29 -28 -57zM1356 684q-4 10 -8 23l143 143q4 -12 8 -23zM1333 737
l-10 21l143 145l11 -20zM1321 801l4 37l115 112l12 -18zM1333 887l4 26h-10l80 82q6 -6 14 -18zM1253 913l119 121l17 -16l-105 -105h-31zM1200 913q-8 8 -12 11l145 145q6 -4 17 -14l-142 -142h-8zM1161 944l-18 12l145 146l19 -12zM489 981l109 106q27 16 64 33l-121 -119
zM1116 973l-20 10l145 145l21 -10zM1067 997q-10 6 -23 9l146 145l20 -8zM608 1022l127 127q14 6 43 14l-131 -131q-5 -2 -19 -5t-20 -5zM1012 1018q-8 4 -25 8l143 143l25 -6zM952 1034q-20 4 -26 4l141 144q17 0 27 -4zM702 1042l136 134l36 6l-137 -135q-25 -5 -35 -5z
M887 1044q-10 2 -29 3l139 141q20 0 31 -2zM786 1049l138 137q10 2 32 2l-139 -139h-31zM766 -242q-285 0 -469 188t-184 480q0 356 260 606t600 250q289 0 473 -188t184 -472t-153 -442q-82 -84 -197 -84q-80 0 -135 39t-74 101q-123 -123 -283 -123t-254 102
q-96 102 -96 262t133 298t301 138t258 -102l11 78h168l-70 -494q-29 -190 92 -190q100 0 164 122q63 122 64 287q0 264 -162 432t-424 166q-313 0 -551 -228t-238 -558q0 -266 164 -432t422 -166q180 0 352 84l33 -59q-188 -95 -389 -95z" />
    <glyph glyph-name="A" unicode="A" horiz-adv-x="1355" 
d="M1141 -164l139 139h29l-138 -139h-30zM1065 -164l139 139h31l-139 -139h-31zM989 -164l139 139h31l-139 -139h-31zM10 -164l140 139h30l-139 -139h-31zM-66 -164l140 139h30l-139 -139h-31zM-141 -164l139 139h33l-140 -139h-32zM971 -137l-10 22l145 144l10 -21z
M-152 -131l25 55l154 154l-25 -55zM948 -86l-8 25l143 145l11 -25zM928 -31l-10 21l145 145l8 -20zM905 23l-10 22l145 143l11 -20zM-92 4l24 55l154 154l-25 -55zM883 76l-9 22l144 146l10 -23zM825 125l140 139h30l-139 -139h-31zM752 125l139 139h31l-140 -139h-30z
M676 125l139 139h31l-139 -139h-31zM600 125l139 139h31l-139 -139h-31zM524 125l140 139h30l-139 -139h-31zM451 125l139 139h31l-140 -139h-30zM375 125l139 139h31l-139 -139h-31zM309 180l21 53l32 31h31zM299 125l139 139h31l-139 -139h-31zM-33 139l25 56l153 153
l-24 -55zM27 274l24 56l154 153l-25 -55zM862 463l47 47l9 -23l-25 -24h-31zM788 463l99 98l10 -20l-78 -78h-31zM723 463l-2 8l143 145l10 -22l-131 -131h-20zM84 408l25 53l155 155l-24 -55zM707 502l-9 22l146 146l8 -23zM684 555l-8 23l145 145l8 -23zM143 543l25 53
l156 156l-25 -56zM664 608l-11 23l146 145l10 -22zM641 662l-8 22l143 145l10 -22zM618 715l-8 22l146 146l8 -23zM205 678l22 55l156 154l-25 -56zM596 768l-8 23l145 145l8 -23zM578 825l20 54l113 110l8 -20zM264 813l25 55l153 154l-24 -55zM629 950l20 54l41 38l8 -22z
M389 438h576l-287 697zM322 944l24 55l154 154l-23 -53zM381 1079l25 56l153 155l-22 -55zM440 1214l25 56l156 155l-25 -55zM20 0l650 1475h16l649 -1475h-188l-119 289h-700l-119 -289h-189z" />
    <glyph glyph-name="B" unicode="B" horiz-adv-x="1226" 
d="M451 -164l139 139h31l-140 -137q-2 0 -6 -2h-24zM377 -164l139 139h31l-139 -139h-31zM301 -164l139 139h31l-139 -139h-31zM225 -164l140 139h30l-139 -139h-31zM150 -164l139 139h30l-139 -139h-30zM76 -164l139 139h31l-140 -139h-30zM0 -164l139 139h31l-139 -139
h-31zM544 -160q-12 0 -16 -2l138 139h32l-137 -135q-5 -2 -17 -2zM614 -150l134 134l36 6l-131 -131q-10 -5 -39 -9zM721 -119l125 123q12 6 47 16l-113 -110q-30 -19 -59 -29zM-18 -137v31l137 137v-31zM-18 -61v30l137 137v-30zM-18 12v33l137 137v-32zM-18 88v31l137 137
v-31zM-18 164v31l137 137v-31zM797 225q2 16 2 35l135 135q0 -12 -4 -37zM-18 240v30l137 138v-31zM932 467l2 -27l-137 -137q-4 20 -6 25zM-18 315v31l137 137v-30zM780 362l-10 21l143 143q4 -10 9 -22zM-18 389v31l137 137v-31zM752 410q-10 10 -15 16l146 145
q10 -10 14 -16zM715 446l-19 13l148 147l18 -12zM670 475l-21 10l146 148l20 -10zM-18 465v31l137 137v-31zM616 498q-8 4 -24 8l143 143l25 -6zM555 512l-29 4l142 141q6 0 15 -1t13 -1zM455 518l139 139h33l-140 -139h-32zM381 518l139 139h31l-139 -139h-31zM350 532v31
l94 94h31zM350 608v31l19 18h30zM326 152h311q156 0 240 70t84 196q0 124 -83 194t-241 70h-311v-530zM-18 541v30l137 138v-31zM-18 616v31l137 137v-30zM-18 690v31l137 137v-31zM-18 766v31l137 137v-31zM-18 842v30l137 138v-31zM694 879q2 10 2 30l140 140l-5 -35z
M-18 918v30l137 137v-30zM690 950l-6 25l143 143l7 -26zM-18 991v33l137 137v-33zM670 1006q-2 10 -13 18l146 145l12 -18zM639 1047l-16 16l145 145q6 -4 16 -14zM-18 1067v31l137 137v-31zM596 1081q-10 4 -21 11l146 145l20 -10zM543 1104l-23 6l144 145l24 -6zM481 1118
l-26 4l141 140q18 0 29 -2zM383 1122l139 140h31l-139 -140h-31zM350 1210v31l21 21h30zM350 1135v30l96 97h31zM326 829h254q132 -1 206 61t74 168t-74 166q-74 62 -206 62h-254v-457zM-18 1143v31l137 137v-31zM-18 1219v30l137 137v-30zM145 0v1434h439q211 0 334 -106
t122 -261q0 -205 -196 -297q143 -39 221 -133t78 -225q0 -178 -134 -295t-368 -117h-496z" />
    <glyph glyph-name="C" unicode="C" horiz-adv-x="1411" 
d="M674 -195l139 140h31l-137 -138q-6 0 -17.5 -1t-15.5 -1zM629 -195q-6 0 -16.5 1t-14.5 1l141 142q10 -2 29 -2zM756 -186l137 135q10 0 35 4l-133 -133zM557 -188q-4 0 -13 1t-14 1l144 143q8 -4 26 -4zM481.5 -176q-8.5 0 -12.5 2l143 143q16 -4 25 -4l-143 -143
q-4 2 -12.5 2zM852 -166l127 129q23 2 45 12l-123 -125q-8 -4 -24.5 -8t-24.5 -8zM434 -164q-16 8 -24 8l145 144q12 -4 23 -8zM377 -143l-21 8l144 145l22 -10zM981 -113l111 111q47 20 57 27l-86 -84q-33 -25 -82 -54zM326 -121l-21 10l146 146l18 -10zM276 -94
q-6 2 -18 10l145 145l19 -10zM231 -66l-18 13l145 147l19 -14zM188 -33q-6 4 -16 15l145 145q6 -4 17 -14zM147 4l-14 14l146 146q4 -2 8 -7t8 -7zM113 41l-17 18l148 146l14 -19zM78 82l-12 18l145 146q8 -12 12 -17zM47 127l-12 18l145 148q4 -8 13 -21zM18 174l-10 21
l146 145l10 -21zM129 391l10 -20l-145 -146l-10 23zM109 446q8 -16 8 -22l-144 -145q-6 10 -8 22zM-45 336l-6 24l143 144l6 -25zM-59 397q-4 16 -4 27l141 143l6 -26zM70 633l2 -27l-142 -141l-2 27zM-74 532v31l140 139q0 -18 2 -28zM68 782l-2 -32l-138 -140l2 35z
M-61 696l6 39l133 133q-4 -25 -4 -37zM-39 797l19 47l122 123l-12 -41zM16 924q20 41 60 94l78 76q-10 -18 -27 -60zM1051 979l-19 16l148 148l18 -17zM1008 1014q-4 4 -17 12l146 148l18 -13zM963 1044q-12 8 -19 11l146 147q8 -4 20 -12zM915 1071l-20 10l145 146
q10 -4 21 -10zM862 1096l-20 8l143 145q4 -2 23 -8zM473 1110l117 117q16 10 53 22l-127 -125q-29 -8 -43 -14zM809 1114l-25 6l144 144q12 0 24 -7zM569 1135l133 133l37 6l-135 -137q-6 0 -17.5 -1t-17.5 -1zM748 1128q-16 4 -27 5l141 143l29 -4zM788 1278h33l-141 -141
q-10 2 -29 2zM807 -31q-301 0 -508 212t-207 535.5t207 535.5t509 212t507 -204l-90 -125q-186 168 -414.5 168t-383.5 -165t-155 -421t155 -421t388.5 -165t435.5 203l90 -135q-233 -230 -534 -230z" />
    <glyph glyph-name="D" unicode="D" horiz-adv-x="1380" 
d="M303 -164l139 139h31l-139 -139h-31zM227 -164l140 139h30l-139 -139h-31zM154 -164l139 139h31l-140 -139h-30zM78 -164l139 139h31l-139 -139h-31zM2 -164l139 139h31l-139 -139h-31zM381 -162l139 139h31l-137 -137q-13 -2 -33 -2zM463 -156l135 136l35 4l-135 -136
q-25 -4 -35 -4zM549 -143l133 133l37 6l-131 -131q-14 -4 -39 -8zM649 -119l129 129l43 13l-125 -125q-27 -11 -47 -17zM-18 -139v30l137 138v-31zM778 -66l115 115q47 20 57 27l-88 -88q-37 -27 -84 -54zM-18 -66v33l137 137v-32zM-18 10v31l137 137v-31zM-18 86v31
l137 137v-31zM-18 162v31l137 137v-31zM-18 238v30l137 138v-31zM-18 311v31l137 137v-30zM905 332q14 37 17 47l129 129q-8 -25 -23 -53zM-18 387v31l137 137v-31zM936 438q4 20 4 35l135 135l-6 -37zM-18 463v31l137 137v-31zM944 522v31l139 139q0 -23 -2 -33zM-18 539
v30l137 138v-31zM944 596l-2 29l141 141v-31zM-18 612v31l137 137v-30zM1077 820.5q0 -9.5 2 -13.5l-143 -143q0 10 -4 26l143 144q2 -4 2 -13.5zM-18 688v31l137 137v-31zM924 727l-6 25l143 143l6 -25zM-18 764v31l137 137v-31zM905 784l-8 23l145 145q4 -16 9 -22z
M883 836l-13 20l146 145q8 -12 12 -20zM-18 840v30l137 138v-31zM854 883l-12 18l145 146l12 -19zM-18 913v33l137 137v-32zM952 1087l17 -14l-148 -147l-14 16zM784 965l-18 12l147 147q12 -8 17 -14zM741 997l-18 13l147 147l19 -12zM-18 989v31l137 137v-31zM696 1026
l-20 10l147 148l19 -13zM770 1206q3 -3 21 -10l-146 -145l-22 8zM590 1071l-23 8l144 144l24 -6zM-18 1065v31l137 137v-31zM530 1087l-24 7l143 143l25 -6zM469 1100l-29 2l144 143q4 0 13 -2t13 -2zM399 1106l-28 2l139 139h31zM350 1208v31l8 8h31zM350 1133v30l84 84h31
zM326 160h174q307 0 457.5 154.5t150.5 402.5t-150.5 402.5t-457.5 154.5h-174v-1114zM-18 1141v30l137 138v-31zM-18 1217v30l137 137v-30zM145 0v1434h357q381 0 583.5 -202t202.5 -515.5t-202.5 -515t-583.5 -201.5h-357z" />
    <glyph glyph-name="E" unicode="E" horiz-adv-x="1161" 
d="M883 -164l139 139h27l-140 -139h-26zM809 -164l139 139h31l-139 -139h-31zM733 -164l139 139h31l-139 -139h-31zM657 -164l140 139h30l-139 -139h-31zM582 -164l139 139h31l-140 -139h-30zM508 -164l139 139h31l-139 -139h-31zM432 -164l139 139h31l-139 -139h-31z
M356 -164l140 139h30l-139 -139h-31zM281 -164l139 139h31l-140 -139h-30zM207 -164l139 139h31l-139 -139h-31zM131 -164l139 139h31l-139 -139h-31zM55 -164l140 139h30l-139 -139h-31zM-18 -164v2l137 137h31l-140 -139h-28zM-18 -119v33l137 137v-33zM-18 -43v31
l137 137v-31zM-18 33v30l137 138v-31zM-18 109v30l137 137v-30zM-18 184v31l137 137v-30zM-18 258v31l137 137v-31zM-18 334v31l137 137v-31zM-18 410v30l137 138v-31zM760 444l139 140h31l-139 -140h-31zM684 444l139 140h31l-139 -140h-31zM608 444l140 140h30l-139 -140
h-31zM532 444l140 140h33l-140 -140h-33zM459 444l139 140h31l-140 -140h-30zM383 444l139 140h31l-139 -140h-31zM350 532v31l21 21h30zM350 457v30l96 97h31zM-18 485v31l137 137v-30zM-18 559v31l137 137v-31zM-18 635v31l137 137v-31zM-18 711v30l137 138v-31zM-18 786
v31l137 137v-30zM-18 860v33l137 137v-33zM-18 936v31l137 137v-31zM-18 1012v30l137 138v-31zM870 1110l138 137h20l-139 -137h-19zM797 1110l137 137h31l-138 -137h-30zM721 1110l137 137h31l-137 -137h-31zM645 1110l137 137h31l-137 -137h-31zM569 1110l138 137h30
l-137 -137h-31zM496 1110l137 137h31l-138 -137h-30zM420 1110l137 137h31l-137 -137h-31zM350 1110v6l131 131h31l-137 -137h-25zM350 1161v31l56 55h30zM350 1247h12l-12 -12v12zM-18 1087v31l137 137v-30zM-18 1163v31l137 137v-31zM-18 1237v31l137 137v-31zM145 0v1434
h908v-160h-727v-506h645v-160h-645v-448h747v-160h-928z" />
    <glyph glyph-name="F" unicode="F" horiz-adv-x="1138" 
d="M129 -164l139 139h31l-139 -139h-31zM53 -164l140 139h30l-139 -139h-31zM-18 -164v4l137 135h28l-139 -139h-26zM-18 -115v31l137 137v-30zM-18 -41v33l137 137v-33zM-18 35v31l137 137v-31zM-18 111v30l137 138v-31zM-18 186v31l137 137v-30zM-18 262v31l137 137v-31z
M-18 336v31l137 137v-31zM-18 412v30l137 138v-31zM737 444l140 140h30l-139 -140h-31zM662 444l139 140h30l-139 -140h-30zM586 444l139 140h31l-140 -140h-30zM510 444l139 140h31l-139 -140h-31zM434 444l139 140h33l-139 -140h-33zM360 444l140 140h30l-139 -140h-31z
M350 584h29l-29 -29v29zM350 479v31l74 74h31zM-18 487v31l137 137v-30zM-18 563v31l137 137v-31zM-18 637v31l137 137v-31zM-18 713v30l137 138v-31zM-18 788v31l137 137v-30zM-18 864v31l137 137v-31zM-18 938v33l137 137v-33zM-18 1014v30l137 138v-31zM866 1110l138 137
h24l-139 -137h-23zM791 1110l137 137h30l-137 -137h-30zM717 1110l137 137h31l-137 -137h-31zM641 1110l137 137h31l-137 -137h-31zM565 1110l137 137h31l-137 -137h-31zM489 1110l138 137h30l-137 -137h-31zM416 1110l137 137h31l-138 -137h-30zM350 1165v31l51 51h31z
M350 1110v10l127 127h31l-137 -137h-21zM-18 1090v30l137 137v-30zM-18 1165v31l137 137v-30zM-18 1241v29l118 121l19 18v-31zM145 0v1434h908v-160h-727v-506h606v-160h-606v-608h-181z" />
    <glyph glyph-name="G" unicode="G" horiz-adv-x="1519" 
d="M672 -195l139 140h31l-137 -138q-23 0 -33 -2zM627 -195q-20 0 -31 2l141 140q18 0 29 -2zM754 -186l135 135l39 6l-133 -133q-6 -2 -19.5 -4t-21.5 -4zM555 -190q-16 4 -27 4l142 143q20 -4 26 -4zM477 -176q-8 0 -12 2l143 145q6 -4 25 -6l-144 -143q-4 2 -12 2z
M854 -162l127 127l43 12l-123 -122q-33 -13 -47 -17zM432 -164q-16 4 -24 8l145 144q12 -4 22 -8zM375 -143l-21 8l146 145l20 -10zM989 -100l107 106q20 8 61 29l-70 -68q-47 -40 -98 -67zM324 -121l-21 10l146 146l20 -10zM274 -94l-18 12l145 145l19 -12zM229 -63
q-12 8 -16 12l145 145l19 -12zM186 -31l-16 15l147 145q10 -10 17 -14zM147 4l-16 16l148 146l14 -14zM111 43q-4 6 -15 16l148 148l12 -17zM78 84q-6 6 -15 18l148 148l12 -19zM47 129l-12 18l145 148l13 -21zM18 176q-6 10 -10 21l146 145l10 -18zM1047 225v31l139 139
v-30zM-6 227l-10 23l145 145l10 -22zM109 449q0 -7 8 -23l-146 -145q-4 16 -8 24zM1047 301v31l139 139v-31zM-45 338l-6 24l143 144l6 -25zM1047 377v31l139 139v-31zM-59 399q-4 16 -4 27l141 143l6 -26zM1012 446l139 140h31l-140 -140h-30zM936 446l139 140h31
l-139 -140h-31zM860 446l139 140h31l-139 -140h-31zM784 446l140 140h30l-139 -140h-31zM711 446l139 140h31l-140 -140h-30zM635 446l139 140h31l-139 -140h-31zM606 463v31l139 139v-31zM70 635l2 -27l-142 -141l-2 27zM-74 537v30l140 140v-29zM606 539v30l139 140v-31z
M68 784l-2 -32l-138 -140l2 35zM-61 698q4 25 8 39l133 133l-6 -36zM-37 799q4 16 17 49l124 123q-10 -20 -12 -43zM20 934q37 59 64 92l74 74q-16 -29 -29 -58zM1049 981l-17 14l148 148l16 -15zM1008 1014q-6 6 -19 14l146 148q2 -2 20 -15zM963 1044q-12 8 -21 13
l148 145l18 -10zM913 1071q-10 6 -20 10l145 148l21 -10zM473 1116l109 109q37 16 55 22l-123 -121zM862 1096q-4 2 -22 8l143 145q4 0 12.5 -4t12.5 -4zM805 1116l-25 6l144 144l26 -6zM569 1135l131 131q12 4 37 8l-135 -137q-6 0 -17.5 -1t-15.5 -1zM745 1128l-26 7
l141 141l29 -4zM678 1137q-10 2 -29 2l137 139h33zM805 -31q-299 0 -506 213t-207 536t207 534.5t509 211.5t507 -204l-90 -125q-186 168 -414.5 168t-383.5 -165t-155 -420t155 -421t376 -166t407 186v293h-440v156h616v-498q-231 -299 -581 -299z" />
    <glyph glyph-name="H" unicode="H" horiz-adv-x="1388" 
d="M1032 -164l139 139h31l-139 -139h-31zM956 -164l140 139h32l-139 -139h-33zM129 -164l139 139h31l-139 -139h-31zM53 -164l140 139h30l-139 -139h-31zM-18 -164v2l137 137h31l-140 -139h-28zM899 -164v14l139 140v-15h15l-140 -139h-14zM-18 -119v31l137 137v-31z
M899 -104v30l139 140v-31zM-18 -43v31l137 137v-31zM899 -29v31l139 139v-30zM-18 33v30l137 138v-31zM899 47v31l139 139v-31zM-18 109v30l137 137v-30zM899 121v31l139 139v-31zM-18 182v31l137 137v-31zM899 197v30l139 140v-31zM-18 258v31l137 137v-31zM899 272v31
l139 139v-30zM-18 334v31l137 137v-31zM899 348v31l139 139v-31zM-18 410v30l137 138v-31zM899 444h-10l137 138h12v-21l-139 -139v22zM813 444l137 138h31l-137 -138h-31zM737 444l137 138h31l-137 -138h-31zM662 444l137 138h30l-137 -138h-30zM586 444l137 138h33
l-138 -138h-32zM512 444l137 138h31l-137 -138h-31zM436 444l137 138h31l-137 -138h-31zM360 444l138 138h30l-137 -138h-31zM350 582h29l-29 -31v31zM350 477v31l72 74h31zM-18 483v31l137 137v-30zM-18 559v31l137 137v-31zM-18 635v31l137 137v-31zM1038 795h-26l26 24
v-24zM-18 711v30l137 138v-31zM936 795l102 100v-33l-69 -67h-33zM-18 784v33l137 137v-32zM899 799v30l139 140v-31zM-18 860v31l137 137v-31zM899 874v31l139 139v-30zM-18 936v31l137 137v-31zM899 950v31l139 139v-30zM-18 1012v30l137 138v-31zM899 1026v31l139 139
v-31zM-18 1087v31l137 137v-30zM899 1100v30l139 140v-31zM-18 1161v31l137 137v-31zM899 1176v30l139 140v-31zM-18 1237v31l137 137v-31zM899 1251v19l139 139v-18zM145 0v1434h181v-666h737v666h180v-1434h-180v608h-737v-608h-181z" />
    <glyph glyph-name="I" unicode="I" horiz-adv-x="530" 
d="M160 -164l139 139h31l-140 -139h-30zM84 -164l139 139h31l-139 -139h-31zM12 -164v2l138 137h30l-139 -139h-29zM12 -119v31l140 137v-31zM12 -43v31l140 137v-31zM12 33v30l140 138v-31zM12 109v30l140 137v-30zM12 182v31l140 137v-31zM12 258v31l140 137v-31zM12 334
v31l140 137v-31zM12 410v30l140 138v-31zM12 483v31l140 137v-30zM12 559v31l140 137v-31zM12 635v31l140 137v-31zM12 711v30l140 138v-31zM12 784v33l140 137v-32zM12 860v31l140 137v-31zM12 936v31l140 137v-31zM12 1012v30l140 138v-31zM12 1087v31l140 137v-30z
M12 1161v31l140 137v-31zM12 1237v31l140 137v-31zM176 0v1434h180v-1434h-180z" />
    <glyph glyph-name="J" unicode="J" horiz-adv-x="960" 
d="M344 -55h33l-139 -138q-4 0 -14.5 -1t-16.5 -1zM162 -193q-18 0 -29 3l141 141l29 -4zM291 -184l135 133l35 6l-127 -129q-8 -2 -22.5 -5t-20.5 -5zM96 -184q-4 0 -12 2t-12 2l143 145q12 -6 25 -6zM37 -168q-16 4 -23 8l144 144q4 0 11 -4.5t11 -4.5zM408 -143l116 114
q8 4 25.5 11.5t25.5 11.5l-53 -53q-51 -51 -114 -84zM-18 -147q-12 8 -19 10l143 145l21 -10zM-66 -119l-18 13l145 145l19 -12zM-66 -47l48 80l84 84l-33 -58l2 -2h2zM459 178q6 18 8 39l131 131q-6 -20 -16 -47zM471 266v31l137 137v-31zM471 342v31l137 137v-31zM471 418
v31l137 137v-31zM471 492v32l137 138v-33zM471 567v31l137 137v-30zM471 643v31l137 137v-31zM471 719v31l137 137v-31zM471 795v30l137 138v-31zM471 868v31l137 137v-30zM471 944v31l137 137v-31zM471 1020v31l137 137v-31zM471 1096v30l137 138v-31zM471 1169v31l137 137
v-30zM471 1245v25l137 139v-27zM368 -31q-176 0 -302 97l77 131q94 -68 210 -68t199 82t83 219v1004h180v-1004q0 -201 -135.5 -331t-311.5 -130z" />
    <glyph glyph-name="K" unicode="K" horiz-adv-x="1267" 
d="M1034 -164l140 139h30l-139 -139h-31zM958 -164l140 139h30l-139 -139h-31zM883 -164l139 139h31l-140 -139h-30zM129 -164l139 139h31l-139 -139h-31zM55 -164l140 139h30l-139 -139h-31zM-18 -164v2l137 137h31l-140 -139h-28zM827 -164l-8 10l146 146l14 -15
l-141 -141h-11zM797 -131l-15 16l146 148l16 -19zM-18 -117v31l137 137v-31zM760 -92l-15 14l148 148l14 -17zM723 -53l-14 14l147 148l14 -17zM-18 -41v31l137 137v-31zM686 -14l-14 16l147 145l15 -14zM649 25l-14 16l147 145l15 -14zM-18 33v33l137 137v-33zM614 61
l-14 17l148 147l14 -16zM578 100l-15 17l148 147l14 -16zM-18 109v30l137 137v-30zM541 139l-15 17l148 147l14 -16zM504 178l-15 17l148 147l14 -16zM-18 184v31l137 137v-30zM469 217l-16 16l147 148l16 -16zM432 256l-16 16l147 148l17 -17zM-18 260v31l137 137v-31z
M395 295l-16 16l149 148l15 -17zM358 334l-8 8v16l142 140l14 -17zM-18 336v31l137 137v-31zM350 401v33l105 103l14 -17zM350 477v31l68 67l16 -16zM-18 410v30l137 138v-31zM350 553v31l31 30l16 -16zM350 629v18l10 -10zM-18 485v31l137 137v-30zM-18 561v31l137 137v-31
zM-18 637v31l137 137v-31zM-18 711v30l137 138v-31zM-18 786v31l137 137v-30zM-18 862v31l137 137v-31zM-18 938v31l137 137v-31zM-18 1012v32l137 138v-33zM-18 1087v31l137 137v-30zM-18 1163v31l137 137v-31zM-18 1239v31l137 137v-31zM145 0v1434h181v-670l645 670h237
l-680 -695l711 -739h-246l-667 711v-711h-181z" />
    <glyph glyph-name="L" unicode="L" horiz-adv-x="1103" 
d="M879 -164l139 139h31l-140 -139h-30zM803 -164l139 139h31l-139 -139h-31zM727 -164l139 139h31l-139 -139h-31zM651 -164l140 139h30l-139 -139h-31zM578 -164l139 139h31l-140 -139h-30zM502 -164l139 139h31l-140 -139h-30zM426 -164l139 139h31l-139 -139h-31z
M350 -164l139 139h31l-139 -139h-31zM276 -164l140 139h30l-139 -139h-31zM201 -164l139 139h31l-140 -139h-30zM125 -164l139 139h31l-139 -139h-31zM49 -164l139 139h31l-139 -139h-31zM-18 -164v6l137 138v-5h26l-139 -139h-24zM-18 -115v31l137 137v-30zM-18 -39v31
l137 137v-31zM-18 37v31l137 137v-31zM-18 113v30l137 138v-31zM-18 186v31l137 137v-30zM-18 262v31l137 137v-31zM-18 338v31l137 137v-31zM-18 414v30l137 138v-31zM-18 487v31l137 137v-30zM-18 563v31l137 137v-31zM-18 639v31l137 137v-31zM-18 715v30l137 138v-31z
M-18 788v33l137 137v-32zM-18 864v31l137 137v-31zM-18 940v31l137 137v-31zM-18 1016v31l137 137v-31zM-18 1092v30l137 138v-31zM-18 1165v31l137 137v-30zM-18 1241v29l137 139v-31zM145 0v1434h181v-1274h751v-160h-932z" />
    <glyph glyph-name="M" unicode="M" horiz-adv-x="1593" 
d="M1247 -164l139 139h31l-139 -139h-31zM1171 -164l140 139h30l-139 -139h-31zM117 -164l139 139h31l-140 -139h-30zM41 -164l139 139h31l-139 -139h-31zM1106 -164v10l139 140v-11h21l-140 -139h-20zM-18 -164v17l137 137v-15h18l-139 -139h-16zM1106 -109v31l139 139v-30
zM-18 -104v30l137 137v-30zM1106 -35v33l139 139v-33zM-18 -29v31l137 137v-30zM1106 41v31l139 139v-31zM-18 47v31l137 137v-31zM1106 117v30l139 140v-31zM-18 123v31l137 137v-31zM1106 193v30l139 139v-30zM-18 197v30l137 138v-31zM1106 268v31l139 139v-30zM-18 272
v31l137 137v-30zM618 307l-14 17l148 147l14 -16zM1106 342v31l139 139v-31zM584 348l-15 17l148 147l14 -16zM-18 348v31l137 137v-31zM549 387l-14 19l147 147l14 -18zM1106 418v31l139 139v-31zM514 428l-14 16l147 148l15 -17zM-18 424v31l137 137v-31zM479 469l-14 16
l147 148l15 -17zM1106 494v30l139 140v-31zM-18 498v30l137 138v-31zM444 510l-14 16l148 148l14 -17zM408 549l-15 16l148 148l14 -17zM1106 569v31l139 139v-30zM-18 573v31l137 137v-30zM373 588l-15 16l150 150l14 -17zM350 641v31l121 121l14 -17zM1106 643v31l139 139
v-31zM-18 649v31l137 137v-31zM350 717v31l86 86l15 -17zM350 793v30l51 51l15 -16zM1106 719v31l139 139v-31zM-18 725v31l137 137v-31zM350 866v31l17 16l14 -16zM-18 799v32l137 138v-33zM-18 874v31l137 137v-30zM-18 950v31l137 137v-31zM-18 1026v31l137 137v-31z
M-18 1102v31l137 137v-31zM-18 1176v30l137 137v-30zM-18 1251v31l137 137v-30zM145 0v1464h17l635 -751l637 751h16v-1464h-180v999l-465 -532h-17l-462 532v-999h-181z" />
    <glyph glyph-name="N" unicode="N" horiz-adv-x="1425" 
d="M1087 -193l-14 19l148 147l14 -18zM106 -164l140 139h33l-140 -139h-33zM33 -164l139 139h31l-140 -139h-30zM-18 -164v27l139 139v-27h6l-139 -139h-6zM1053 -152l-15 17l148 147l14 -16zM1018 -113l-14 17l147 147l14 -14zM-18 -92v31l139 139v-31zM981 -72l-14 17
l147 147l14 -16zM946 -31l-14 17l147 147l15 -16zM-18 -16v30l139 140v-31zM911 8l-14 17l147 147l15 -16zM877 49l-15 17l148 147l14 -16zM-18 57v31l139 139v-30zM842 90l-15 16l146 146l16 -16zM807 129l-14 16l145 148l14 -17zM-18 133v31l139 139v-31zM772 168l-14 16
l145 148l15 -17zM735 209l-14 16l147 148l15 -17zM-18 209v31l139 139v-31zM700 250l-14 16l148 146l14 -17zM666 291l-15 16l146 146l14 -17zM-18 285v30l139 140v-31zM631 330l-15 16l146 148l14 -19zM1073 471l-14 16l16 17v-31zM-18 358v31l139 139v-30zM596 371l-14 16
l145 145l14 -16zM561 410l-14 16l145 145l15 -14zM1038 512l-14 16l51 52v-31zM-18 434v31l139 139v-31zM524 451l-14 16l145 145l15 -16zM489 492l-14 16l146 145l14 -16zM1004 553l-15 16l86 86v-30zM-18 510v31l139 139v-31zM455 530l-15 17l146 145l14 -16zM969 594
l-15 16l121 121v-31zM420 571l-14 17l145 145l14 -16zM-18 586v30l139 140v-31zM385 610l-14 17l143 145l16 -16zM942 641v33l133 133v-33zM350 653v31l129 129l15 -16zM-18 659v33l139 139v-32zM350 727v31l94 94l15 -16zM942 717v31l133 133v-31zM350 803v31l60 59l14 -16
zM-18 735v31l139 139v-31zM350 879v30l25 23l14 -17zM942 793v30l133 133v-30zM-18 811v31l139 139v-31zM942 868v31l133 133v-31zM-18 887v31l139 139v-31zM942 944v31l133 133v-31zM-18 963v30l139 140v-31zM942 1018v31l133 133v-31zM-18 1036v31l139 139v-30zM942 1094
v30l133 133v-30zM-18 1112v31l139 139v-31zM942 1169v31l133 133v-30zM-18 1188v31l139 139v-31zM942 1245v25l133 137v-29zM-18 1264v30l139 140v-31zM326 0h-181v1475h19l936 -1072v1031h180v-1475h-16l-938 1065v-1024z" />
    <glyph glyph-name="O" unicode="O" 
d="M676 -195l139 140h33l-139 -138q-4 0 -15.5 -1t-17.5 -1zM631 -195q-18 0 -29 2l141 142q8 -2 29 -2zM758 -186l135 135q23 0 35 4l-133 -133zM561 -188q-6 0 -14 1t-12 1l141 143q16 -4 26 -4zM496 -178l-25 6l143 143l25 -6zM854 -166l129 129l43 12l-125 -125
q-37 -14 -47 -16zM436 -164q-4 0 -11 4t-11 4l143 144q16 -4 25 -8zM381 -143q-4 0 -11.5 4t-11.5 4l146 145l20 -10zM981 -115l113 113l55 25l-90 -93q-41 -25 -78 -45zM328 -121l-21 10l146 146l20 -10zM279 -94l-19 12l146 145l18 -12zM233 -66l-18 15l145 145
q8 -4 21 -12zM190 -33q-10 10 -16 15l148 147q4 -6 16 -14zM283 166l14 -16l-145 -146q-6 3 -17 14zM115 43q-6 4 -15 16l146 146q10 -10 14 -17zM80 84l-12 16l145 148l12 -19zM49 127l-12 18l147 146q2 -6 11 -19zM20 174l-10 21l146 145q6 -10 10 -21zM131 391l10 -20
l-145 -146l-10 21zM-27 279l-8 22l146 145q4 -16 8 -22zM1151 324q2 8 7 23t7 24l125 125q-12 -31 -24 -56zM92 502q8 -16 8 -23l-145 -145l-6 24zM-61 408.5q0 9.5 -2 13.5l143 143q0 -10 4 -26l-143 -144q-2 4 -2 13.5zM1319 600q-8 -32 -8 -39l-131 -133q4 25 4 37z
M70 631q0 -19 4 -27l-144 -143l-2 28zM1329 684q-4 -12 -4 -33l-137 -137q2 10 2 33zM-74 532v31l140 139q0 -20 2 -30zM1190 588q-2 10 -2 28l139 142q2 -10 2 -29zM68 780l-2 -35l-138 -137l2 35zM1321 825l2 -26l-141 -142q0 10 -4 27zM-63 692q8 32 8 39l133 133
q-4 -25 -4 -37zM1169 721l-6 24l144 144l6 -25zM1151 778q-4 12 -8 23l145 143q6 -16 8 -20zM-39 793q6 20 16 45l125 127l-12 -43zM1130 831l-12 21l146 145q10 -18 10 -22zM1104 881l-12 18l145 145l12 -18zM1073 926q-8 12 -14 16l147 145q4 -4 13 -16zM14 922
q33 57 54 84l88 88q-2 -6 -12.5 -25.5t-14.5 -32.5zM1038 967l-14 16l145 145l17 -16zM1130 1165l17 -14l-146 -145q-12 8 -16 14zM961 1038l-19 13l145 145l19 -12zM915 1067q-8 4 -20 12l145 146q12 -8 21 -11zM864 1094q-6 0 -22 8l145 145q4 -2 11.5 -4t11.5 -4z
M469 1106l121 121q29 14 53 22l-127 -127q-10 -2 -47 -16zM809 1114l-23 6l144 146q16 -4 24 -9zM571 1133l136 135l36 6l-137 -137q-10 0 -35 -4zM879.5 1274q9.5 0 13.5 -2l-143 -144q-16 4 -25 5l141 143q4 -2 13.5 -2zM793 1278h30l-139 -141q-10 2 -31 2zM813 131
q227 0 384 166t157 420t-157 420t-384 166t-384 -166t-157 -420t157 -420t384 -166zM814 -31q-302 0 -512 213t-210 534.5t210 534.5t512 213t512 -213t210 -534.5t-210 -534.5t-512 -213z" />
    <glyph glyph-name="P" unicode="P" horiz-adv-x="1157" 
d="M135 -164l139 139h25l-137 -139h-27zM59 -164l140 139h30l-139 -139h-31zM-16 -164l139 139h33l-140 -139h-32zM-18 -121v31l137 137v-31zM-18 -45v31l137 137v-31zM-18 31v30l137 138v-31zM-18 106v31l137 137v-30zM-18 180v31l137 137v-31zM-18 256v31l137 137v-31z
M350 399v31l64 62h30zM350 492h19l-19 -17v17zM350 352v2l139 138h31l-139 -140h-31zM426 354l139 138q20 0 31 2l-137 -138q-10 -2 -33 -2zM-18 332v30l137 138v-31zM508 362l135 136q10 0 39 4l-133 -131q-12 -5 -41 -9zM610 387l125 127l43 12l-116 -118zM-18 408v30
l137 137v-30zM-18 481v31l137 137v-31zM-18 557v31l137 137v-31zM-18 633v31l137 137v-31zM729 729q2 2 2 6l125 125q-33 -88 -127 -131zM-18 709v30l137 138v-31zM-18 782v33l137 137v-32zM737 786v31l140 139q0 -16 -3 -34zM-18 858v31l137 137v-31zM735 858q-4 20 -4 27
l141 143q4 -16 5 -27zM721 920l-8 20l145 145l6 -22zM-18 934v31l137 137v-31zM696 971l-12 18l147 146q8 -12 11 -19zM666 1014l-17 16l148 146l14 -15zM-18 1010v30l137 138v-31zM625 1051l-19 12l146 145q12 -6 18 -12zM580 1077l-21 10l143 146l23 -10zM524 1100l-24 6
l143 143l25 -6zM-18 1085v31l137 137v-30zM463 1114q-4 0 -13 1t-14 1l139 141q5 0 15 -1t14 -1zM362 1118l140 139h30l-139 -139h-31zM350 1257h33l-33 -30v30zM350 1151v33l76 73h33zM326 668h223q166 0 260 83t94 223t-95 224t-259 84h-223v-614zM-18 1159v31l137 137
v-31zM-18 1235v31l137 137v-31zM145 0v1434h408q244 0 387 -131t143 -328t-143 -328t-387 -131h-227v-516h-181z" />
    <glyph glyph-name="Q" unicode="Q" 
d="M680 -492l139 140h31l-139 -140h-31zM604 -492l139 140h31l-139 -140h-31zM561 -492v31l137 137v-28zM561 -416v31l137 137v-31zM561 -342v31l137 137v-31zM561 -266v30l137 138v-31zM698 -47v-6l-137 -137q-8 0 -29 4l144 143q16 -4 22 -4zM496 -180l-25 6l143 143
l25 -6zM926 -127v31l59 59l41 12zM436 -164l-22 6l143 146q4 0 12.5 -4t12.5 -4zM381 -145l-23 10l146 143q4 0 11 -4t11 -4zM985 -113l111 113q6 2 57 25l-92 -91q-31 -22 -76 -47zM328 -121l-21 10l146 146l20 -10zM279 -94q-12 8 -19 10l146 147l18 -12zM236 -66
q-12 6 -21 15l147 145l19 -14zM193 -33q-6 4 -17 15l146 145l16 -14zM152 2q-14 14 -15 16l146 146l14 -14zM696 170l-24 6l28 29v-31zM115 41q-4 6 -15 16l146 148l14 -17zM80 84q-4 4 -12 16l145 146q4 -4 12 -17zM639 188q-18 9 -23 9l84 84v-31zM49 127l-12 18l147 146
l11 -19zM20 174q-2 6 -10 19l146 147l10 -21zM586 211q-12 8 -21 12l135 133v-30zM-4 223l-10 23l145 145l10 -22zM-27 279q-6 18 -8 22l146 143q6 -18 8 -22zM1147 322q10 27 16 47l125 125q-8 -29 -24 -58zM92 502l8 -25l-145 -143l-6 24zM-61 407.5q0 8.5 -2 12.5
l143 143q0 -8 4 -24l-143 -144q-2 4 -2 12.5zM1178 428l6 37l135 133q-2 -6 -5 -19.5t-5 -19.5zM70 629l4 -27l-144 -141l-2 28zM1188 514q2 10 2 31l139 139q0 -21 -4 -33zM-74 530v31l140 139q0 -18 2 -28zM1190 588q-2 10 -2 28l139 142q2 -10 2 -31zM68 778l-2 -33
l-138 -139l2 35zM1321 825l2 -26l-141 -142q0 8 -4 25zM-63 692q4 25 8 37l133 135l-6 -37zM1169 719l-6 24l144 144l6 -25zM1151 778q-6 18 -8 23l145 143q2 -12 8 -22zM-41 791l16 47l127 125l-12 -41zM1130 829l-12 23l146 145q8 -16 10 -22zM1104 879l-12 18l145 147
q4 -8 12 -20zM1073 924l-12 18l145 145q8 -12 13 -16zM14 920q23 43 52 81l90 91q-12 -25 -27 -58zM1038 967l-14 16l145 145l17 -16zM1001 1004q-10 10 -16 14l145 147l17 -14zM961 1036q-6 6 -19 15l145 145l19 -12zM915 1067q-10 6 -20 10l145 148l21 -13zM864 1094
l-20 8l143 145q4 -2 23 -8zM471 1106l121 121q29 14 53 22l-129 -127q-20 -6 -45 -16zM809 1114l-23 6l144 144l24 -7zM573 1133l134 135l36 6l-135 -137q-15 0 -35 -4zM752 1128q-16 4 -27 5l141 143q20 -4 27 -4zM793 1278h30l-139 -141q-10 2 -31 2zM1354 730
q0 241 -157 407t-384 166t-384 -166t-157 -406.5t128 -400.5t325 -191v264h176v-266q197 33 325 192.5t128 400.5zM725 -328v303q-272 31 -452.5 238t-180.5 516.5t210 522t512 212.5t512 -213t210 -522t-181 -516t-454 -238v-303h-176z" />
    <glyph glyph-name="R" unicode="R" horiz-adv-x="1214" 
d="M961 -164l139 139h24l-139 -139h-24zM887 -164l139 139h31l-139 -139h-31zM811 -164l139 139h31l-139 -139h-31zM133 -164l139 139h27l-137 -139h-29zM57 -164l140 139h30l-139 -139h-31zM-18 -164l139 139h33l-140 -139h-32zM774 -156l-12 19l145 145l13 -18zM-18 -121
v31l137 137v-31zM743 -111l-12 19l148 147l12 -20zM715 -66l-13 19l146 145l12 -18zM-18 -45v31l137 137v-31zM684 -20l-12 18l147 147l12 -20zM653 25l-12 18l147 147l13 -18zM-18 31v30l137 138v-31zM625 72l-13 18l146 146l12 -19zM-18 106v31l137 137v-30zM594 115
l-12 20l147 146l12 -19zM565 162l-12 18l145 146l13 -19zM-18 180v31l137 137v-31zM535 207l-13 18l148 146l12 -19zM504 252l-12 18l147 148l12 -19zM-18 256v31l137 137v-31zM475 299l-12 18l145 146l13 -19zM416 344l147 148h27l2 -3l-146 -145h-30zM350 492h17l-17 -17
v17zM350 399v31l62 62h30zM350 344v10l137 138h31l-147 -148h-21zM-18 332v30l137 138v-31zM-18 408v30l137 137v-30zM-18 481v31l137 137v-31zM-18 557v31l137 137v-31zM-18 633v31l137 137v-31zM729 729q0 4 2 4l125 127q-37 -90 -127 -131zM-18 709v30l137 138v-31z
M-18 782v33l137 137v-32zM737 786v31l140 139q0 -14 -5 -34zM-18 858v31l137 137v-31zM733 858q0 10 -4 27l143 143q2 -10 2 -29zM721 918l-10 22l145 145q4 -10 8 -22zM-18 934v31l137 137v-31zM696 971l-12 18l145 146l13 -19zM664 1014l-15 16l146 146l16 -17zM-18 1010
v30l137 138v-31zM625 1051l-19 12l146 145l18 -12zM702 1233l21 -10l-145 -146q-12 8 -21 10zM524 1100l-24 6l143 143l25 -6zM-18 1085v31l137 137v-30zM463 1112l-29 4l141 141q10 -2 29 -2zM360 1118l140 139h30l-139 -139h-31zM350 1151v33l74 73h33zM350 1257h31
l-31 -30v30zM326 668h223q166 0 260 83t94 223t-95 224t-259 84h-223v-614zM-18 1159v31l137 137v-31zM-18 1235v31l137 137v-31zM145 0v1434h408q244 0 387 -131.5t143 -327.5q0 -143 -79.5 -256t-223.5 -166l369 -553h-205l-340 518q-16 -2 -51 -2h-227v-516h-181z" />
    <glyph glyph-name="S" unicode="S" horiz-adv-x="1181" 
d="M471 -190l135 137h33l-135 -135q-4 0 -16.5 -1t-16.5 -1zM395 -190l140 139q4 0 13 -1t15 -1l-139 -137h-29zM555 -182l133 133l35 4l-131 -131zM354 -186q-4 0 -13 1t-13 1l141 141q8 -4 27 -4zM289 -178l-25 6l142 143l24 -6zM653 -160l127 127l43 13l-121 -119
q-16 -11 -49 -21zM227 -162l-22 6l143 144l23 -6zM172 -143l-22 10l145 143q4 -2 11 -4t11 -4zM121 -119q-10 4 -21 10l146 146q10 -6 20 -10zM74 -92l-19 12l146 148l18 -13zM160 100q12 -12 16 -14l-145 -145q-12 8 -19 14zM-10 -25q-10 10 -15 17l146 145l14 -14zM-47 14
l-14 19l147 145q8 -12 12 -16zM-80 55l-12 19l145 145q8 -12 13 -16zM764 178l133 135q-8 -35 -31 -63l-32 -33q-29 -23 -70 -39zM903 391l2 -26v-3l-141 -141q0 10 -4 27zM750 283q-6 10 -11 20l146 146q2 -4 8 -21zM721 330q-2 4 -14 16l145 146q6 -4 14 -17zM684 369
q-12 8 -18 14l147 145q10 -10 16 -14zM641 399q-8 8 -20 15l145 143q8 -4 20 -12zM594 428q-12 8 -21 12l146 144l20 -11zM545 455q-4 0 -23 10l146 143l12 -6q4 -4 8 -4zM492 477l-21 10l143 144q4 -2 21 -8zM561 653q5 0 21 -8v-2l-144 -143l-10 6q-6 0 -10 4zM387 522
l-20 10l143 144l20 -10zM334 547l-21 8l144 145q18 -8 22 -10zM283 569q-12 8 -21 13l146 143l20 -10zM233 596q-12 8 -20 12l145 144l21 -11zM188 625l-18 12l145 145q4 -4 17 -12zM143 655q-10 10 -16 15l145 145q6 -4 17 -14zM233 854l17 -16l-146 -146l-16 17zM70 733
q-6 6 -15 19l146 145q8 -12 14 -18zM41 778q-8 18 -10 23l143 145q8 -16 12 -22zM18 834l-6 24l144 143q4 -16 8 -24zM145 1067q0 -22 5 -29l-142 -141q-2 8 -2 29zM8 973q0 12 4 37l135 133q-2 -10 -2 -33zM725 1012q-10 10 -14 16l151 154q6 -6 15 -19zM688 1053l-14 14
l149 150q12 -8 17 -13zM33 1073q18 43 45 76l94 94q-8 -16 -14 -45zM649 1085l-18 13l147 147q10 -4 21 -10zM600 1112q-10 6 -20 10l145 146q3 0 23 -8zM406 1143l-31 -2v6l125 123q12 4 41 8zM545 1133l-25 6l142 141q10 0 26 -4zM588 1284h30l-139 -139h-28zM602 -27
q-358 0 -536 279l124 96q147 -223 408 -223q154 0 244 65.5t90 177.5t-108 184q-78 52 -197 102.5t-157 67.5t-107.5 59t-102.5 81q-88 104 -88 236q0 166 118 265t314 99q141 0 254 -52t178 -153l-129 -90q-98 143 -301 144q-123 0 -189.5 -54.5t-66.5 -151.5t100 -163
q74 -48 181.5 -94t135.5 -58t84 -40t85 -50q95 -70 135.5 -142t40.5 -175q0 -188 -142.5 -299t-367.5 -111z" />
    <glyph glyph-name="T" unicode="T" horiz-adv-x="1191" 
d="M492 -164l139 139h31l-140 -139h-30zM416 -164l139 139h31l-140 -139h-30zM342 -164l139 139h31l-139 -139h-31zM342 -119v31l139 139v-31zM342 -43v31l139 139v-31zM342 33v30l139 140v-31zM342 106v33l139 140v-33zM342 182v31l139 139v-30zM342 258v31l139 139v-31z
M342 334v31l139 139v-31zM342 410v30l139 140v-31zM342 483v31l139 139v-30zM342 559v31l139 139v-31zM342 635v31l139 139v-31zM342 711v30l139 140v-31zM342 784v31l139 139v-30zM342 860v31l139 139v-31zM342 936v31l139 139v-31zM342 1012v30l139 140v-31zM938 1110
l137 137h31l-137 -137h-31zM862 1110l137 137h31l-137 -137h-31zM786 1110l138 137h30l-137 -137h-31zM711 1247h18l-18 -18v18zM711 1110l137 137h31l-138 -137h-30zM711 1153v31l63 63h31zM342 1110h-8l137 137h10v-22l-139 -140v25zM260 1110l137 137h31l-137 -137h-31z
M184 1110l138 137h30l-137 -137h-31zM109 1110l137 137h30l-137 -137h-30zM33 1110l137 137h31l-138 -137h-30zM-41 1110l137 137h31l-137 -137h-31zM-117 1110l137 137h31l-137 -137h-31zM-117 1155v31l140 139v-31zM-117 1231v31l140 139v-31zM506 0v1274h-459v160h1098
v-160h-459v-1274h-180z" />
    <glyph glyph-name="U" unicode="U" horiz-adv-x="1409" 
d="M688 -55h31l-139 -140h-31zM504 -195q-4 0 -14.5 1t-14.5 1l141 142q6 0 14.5 -1t14.5 -1zM629 -190l137 137q12 0 33 4l-133 -135zM434 -188l-24 6l141 141q4 0 13 -2t14 -2zM721 -172l131 131l39 8l-125 -125q-33 -11 -45 -14zM373 -176q-16 4 -23 8l144 143
q12 -4 22 -8zM315 -158q-4 2 -11 4t-11 4l145 146q6 -4 23 -8zM852 -117l109 109q2 2 16 8t22 10l-53 -55q-39 -39 -94 -72zM262 -135q-10 6 -20 10l145 145q4 -2 11.5 -5t9.5 -5zM213 -106q-8 4 -18 12l147 145q4 -4 16 -12zM170 -76l-16 15l145 145l18 -14zM262 121
l14 -17l-145 -145l-14 16zM227 162q14 -14 15 -17l-146 -145q-10 10 -14 16zM63 45q-2 6 -10 18l146 146q4 -10 10 -21zM172 258l10 -20l-145 -144q0 5 -8 21zM152 311l8 -22l-144 -144q-8 16 -8 23zM895 199l12 41l125 125q-6 -20 -26 -58l-107 -106q-2 -2 -4 -2zM0 205
l-6 24l141 142l6 -25zM-12 268q-4 8 -4 29l141 139q0 -10 4 -26zM915 293l5 35l135 135q0 -14 -4 -35zM-18 338v31l137 137q0 -18 2 -29zM920 371v30l139 140v-31zM-18 412v30l137 138v-31zM920 446v31l139 139v-30zM-18 487v31l137 137v-30zM920 522v31l139 139v-30z
M-18 563v31l137 137v-31zM920 598v31l139 139v-31zM-18 639v31l137 137v-31zM920 672v33l139 139v-33zM-18 713v32l137 138v-33zM920 748v30l139 140v-31zM-18 788v31l137 137v-30zM920 823v31l139 139v-30zM-18 864v31l137 137v-31zM920 899v31l139 139v-31zM-18 940v31
l137 137v-31zM920 975v31l139 139v-31zM-18 1016v31l137 137v-31zM920 1049v30l139 140v-31zM-18 1090v30l137 137v-30zM920 1124v31l139 139v-30zM-18 1165v31l137 137v-30zM920 1200v31l139 139v-31zM-18 1241v29l137 139v-31zM704.5 -31q-251.5 0 -405.5 150.5
t-154 408.5v906h181v-906q0 -188 101 -292.5t277.5 -104.5t277.5 104.5t101 292.5v906h181v-906q0 -258 -154 -408.5t-405.5 -150.5z" />
    <glyph glyph-name="V" unicode="V" horiz-adv-x="1314" 
d="M485 -205v4l146 144l2 -9h8l-139 -139h-17zM471 -170l-8 20l145 146l8 -21zM449 -117l-9 21l146 145l8 -20zM426 -66l-8 23l145 143l8 -20zM403 -12l-8 22l146 144l8 -21zM381 41l-8 22l145 144l8 -21zM358 94l-8 21l144 145l10 -20zM338 145l-10 23l145 143l8 -20z
M313 199l-8 22l146 144l8 -21zM291 252l-8 22l145 144l8 -21zM653 389l-8 21l45 47l-20 -51zM268 305l-8 23l143 143l11 -20zM248 356l-10 23l143 145l10 -22zM225 410l-10 22l145 143l9 -20zM633 440l-10 23l116 117l-20 -52zM201 463l-8 22l145 144l8 -21zM178 516l-8 23
l143 143l11 -20zM647 532l21 52l120 121l-18 -52zM156 569l-9 23l144 143l10 -20zM135 621l-10 22l145 143l9 -20zM698 657l21 52l121 122l-21 -51zM113 674l-11 22l146 144l8 -21zM88 727l-8 23l143 143l10 -21zM66 780l-9 23l144 143l10 -20zM748 784l20 52l121 120
l-21 -51zM45 831l-10 23l145 143l8 -20zM23 885l-11 22l146 144l8 -21zM797 907l22 56l121 118l-22 -53zM0 938l-10 23l143 143l10 -21zM-25 991l-8 23l144 143l10 -20zM848 1034l20 51l121 119l-20 -51zM-45 1042l-10 25l143 143l10 -22zM-68 1096l-10 22l144 144l10 -21z
M-90 1149l-10 22l143 144l10 -21zM899 1161l21 51l118 119l-20 -51zM-113 1202l-10 23l143 143l11 -20zM-137 1255l-6 15l143 145l8 -16zM649 -41l-629 1475h189l448 -1127l449 1127h188l-628 -1475h-17z" />
    <glyph glyph-name="W" unicode="W" horiz-adv-x="2011" 
d="M399 -205l-4 10l146 146l6 -17h6l-139 -139h-15zM1260 -188l-9 20l146 145l8 -22zM383 -162l-8 23l145 145l8 -22zM1239 -135l-8 22l143 146l10 -23zM362 -106l-8 22l146 145l8 -22zM1217 -80l-9 23l146 145l8 -22zM342 -51l-8 22l145 146l8 -23zM1196 -27l-8 25l145 143
l8 -22zM322 4l-9 23l146 145l8 -22zM1176 29l-9 22l146 144l8 -23zM303 57l-10 25l145 145l8 -24zM1155 82l-8 22l143 146l10 -23zM283 113l-9 22l144 146l8 -23zM1135 137l-11 23l146 145l8 -22zM262 168l-8 22l143 146l9 -23zM1112 193l-8 22l145 143l8 -20zM242 223
l-9 23l144 145l8 -22zM1092 246l-9 22l146 144l8 -21zM221 279l-8 22l143 145l9 -22zM584 424l-6 16l20 19zM1071 301l-8 21l143 145l11 -23zM1427 430l-10 23l33 32l-14 -47zM201 334l-8 22l145 144l8 -23zM1051 354l-11 23l146 145l8 -22zM180 389l-8 23l145 143l9 -23z
M1028 410l-8 22l145 143l9 -20zM565 473l-6 23l84 84l-18 -50zM1405 485l-8 23l94 92l-16 -45zM160 444l-8 23l145 143l8 -22zM1008 463l-9 22l146 144l8 -21zM139 500l-8 22l145 144l9 -23zM987 518l-8 21l143 145l11 -22zM549 530l18 50l121 122l-18 -49zM1389 543l16 47
l125 123l-17 -45zM121 553l-8 22l143 146l8 -23zM967 571l-9 23l144 145l8 -22zM100 608l-8 23l144 145l8 -22zM944 627l-8 22l145 144l9 -21zM594 651l18 49l121 123l-18 -49zM1430 657l16 48l123 124l-17 -47zM80 664l-8 22l143 145l8 -22zM924 680l-9 25l146 143l8 -23z
M59 719l-8 22l144 146l8 -23zM909 739l19 52l110 110l11 -22zM639 770l18 49l121 123l-18 -51zM39 774l-8 23l143 145l8 -24zM1468 774l17 45l125 125l-17 -47zM956 864l21 49l41 43l8 -22zM18 829l-8 23l144 143l8 -22zM-2 885l-8 22l143 144l8 -23zM1507 889l17 47
l125 125l-17 -47zM684 891l18 51l121 121l-18 -49zM-23 940l-8 23l144 143l8 -23zM-43 995l-8 23l143 143l8 -22zM1546 1001l17 48l125 125l-17 -48zM729 1014l19 49l120 121l-18 -49zM-61 1049l-9 22l144 143l8 -22zM-82 1104l-8 22l143 144l8 -23zM1585 1116l17 47
l127 125l-17 -47zM776 1135l19 49l120 121l-18 -50zM-102 1159l-9 23l144 143l8 -22zM-123 1214l-8 23l143 143l8 -22zM1626 1231l12 39l125 123l-12 -35zM819 1253l15 37l120 121l-14 -37zM563 -41l-543 1475h189l373 -1084l415 1104h19l414 -1104l372 1084h191l-545 -1475
h-16l-426 1102l-424 -1102h-19z" />
    <glyph glyph-name="X" unicode="X" horiz-adv-x="1284" 
d="M1022 -164l139 139h31l-139 -139h-31zM946 -164l139 139h31l-139 -139h-31zM43 -164l139 139h31l-139 -139h-31zM-33 -164l139 139h31l-139 -139h-31zM-109 -164l140 139h32l-139 -139h-33zM872 -164v2l146 146l6 -9h18l-139 -139h-31zM854 -137l-12 18l147 148l12 -19z
M825 -90l-12 18l145 146l13 -19zM-61 -74l65 97l68 67l-66 -96zM795 -45l-13 18l146 148l12 -19zM764 0l-12 18l147 148l12 -19zM735 45l-12 18l145 146l13 -19zM705 90l-13 19l148 147l12 -18zM676 137l-12 19l145 145l12 -18zM102 166l68 98l68 68l-68 -99zM645 182
l-12 19l145 145l13 -18zM616 227l-12 19l146 145l12 -18zM586 272l-13 19l146 145l12 -18zM555 317l-12 19l145 145l12 -18zM524 365l66 94l69 69l13 -18zM268 408l68 98l65 65l-67 -98zM365 580l-13 18l146 145l10 -14l-8 -14zM334 623l-12 18l145 145l12 -18zM303 668
l-12 18l145 145l13 -18zM270 713l-12 16l148 148l12 -19zM240 756l-13 18l146 146l12 -19zM209 799l-12 18l145 146l14 -17zM178 844l-12 18l145 146l13 -19zM145 889l-12 16l148 148l12 -19zM115 932l-13 18l146 146l14 -17zM84 975l-12 20l145 146l14 -19zM53 1020l-12 18
l145 146l13 -19zM20 1065l-12 16l148 148l12 -19zM-10 1108l-13 18l146 146l14 -17zM-41 1153l-12 18l145 146l12 -19zM-72 1196l-12 18l145 146l13 -19zM-104 1241l-13 16l148 148l12 -19zM41 0l498 729l-498 705h207l399 -572l385 572h207l-483 -705l487 -729h-207
l-389 592l-399 -592h-207z" />
    <glyph glyph-name="Y" unicode="Y" horiz-adv-x="1255" 
d="M530 -164l140 139h22l-139 -139h-23zM455 -164l139 139h31l-140 -139h-30zM379 -164l139 139h31l-139 -139h-31zM373 -127v31l139 139v-31zM373 -51v31l139 139v-31zM373 25v30l139 140v-31zM373 100v31l139 139v-30zM373 174v33l139 139v-33zM373 250v31l139 139v-31z
M373 326v30l139 140v-31zM373 401l-13 21l146 145l6 -10v-16zM344 451l-12 18l145 145l12 -18zM317 496l-12 20l146 146l12 -21zM289 543l-13 20l146 146l12 -21zM260 592l-12 18l145 146l13 -19zM231 639l-10 18l146 146l10 -19zM205 684l-12 21l145 145l12 -21zM176 733
l-12 19l145 145l13 -18zM616 797l-8 16l6 12l91 90l-43 -73zM147 780l-10 19l146 145l10 -18zM119 827l-10 19l145 145l10 -18zM92 874l-12 21l145 145l13 -20zM63 922l-10 18l146 145l10 -18zM676 932l43 74l92 90l-43 -74zM35 969l-10 18l145 146l10 -19zM8 1016l-12 20
l145 146l13 -21zM-20 1063l-13 20l146 146l12 -21zM-49 1110l-10 18l145 146l10 -19zM780 1112l43 72l92 94l-43 -74zM-76 1157l-12 21l145 145l13 -20zM-104 1204l-13 21l146 145l12 -20zM-133 1253l-10 17l145 145l10 -16zM539 0v565l-519 869h199l410 -705l409 705h199
l-518 -869v-565h-180z" />
    <glyph glyph-name="Z" unicode="Z" horiz-adv-x="1243" 
d="M932 -164l139 139h23l-140 -139h-22zM858 -164l139 139h31l-139 -139h-31zM782 -164l140 139h30l-139 -139h-31zM707 -164l139 139h31l-140 -139h-30zM631 -164l139 139h31l-139 -139h-31zM557 -164l139 139h31l-139 -139h-31zM481 -164l140 139h30l-139 -139h-31z
M406 -164l139 139h30l-139 -139h-30zM330 -164l139 139h31l-140 -139h-30zM256 -164l139 139h31l-139 -139h-31zM180 -164l139 139h31l-139 -139h-31zM104 -164l140 139h30l-139 -139h-31zM29 -164l139 139h31l-140 -139h-30zM-47 -164l139 139h33l-139 -139h-33zM-33 -106
l45 75l94 94l-24 -40v-15zM76 78l43 76l96 94l-45 -76zM184 262l43 74l95 94l-43 -74zM293 446l43 74l92 94l-43 -75zM397 625l45 75l90 93l-43 -76zM506 809l45 76l90 90l-43 -74zM614 993l43 76l91 88l-43 -74zM631 1116l139 139h31l-139 -139h-31zM557 1116l139 139h31
l-139 -139h-31zM481 1116l140 139h30l-139 -139h-31zM406 1116l139 139h30l-139 -139h-30zM330 1116l139 139h31l-140 -139h-30zM254 1116l139 139h33l-139 -139h-33zM180 1116l139 139h31l-139 -139h-31zM104 1116l140 139h30l-139 -139h-31zM43 1116v14l139 140v-15h17
l-140 -139h-16zM43 1176v30l139 140v-31zM43 1249v21l139 139v-20zM104 0v16l744 1264h-643v154h932v-17l-756 -1263h735v-154h-1012z" />
    <glyph glyph-name="bracketleft" unicode="[" horiz-adv-x="450" 
d="M211 -416l139 140h23l-140 -140h-22zM135 -416l139 140h31l-139 -140h-31zM59 -416l140 140h30l-139 -140h-31zM-16 -416l139 140h31l-140 -140h-30zM-82 -416v6l139 140v-6h23l-139 -140h-23zM-82 -365v31l139 139v-30zM-82 -289v31l139 139v-31zM-82 -213v31l139 139
v-31zM-82 -139v30l139 140v-31zM-82 -63v30l139 139v-30zM-82 12v31l139 139v-30zM-82 88v31l139 139v-31zM-82 162v33l139 139v-33zM-82 238v30l139 140v-31zM-82 313v31l139 139v-30zM-82 389v31l139 139v-31zM-82 465v31l139 139v-31zM-82 539v30l139 140v-31zM-82 614
v31l139 139v-30zM-82 690v31l139 139v-31zM-82 766v31l139 139v-31zM-82 840v30l139 140v-31zM-82 915v31l139 139v-30zM-82 991v31l139 139v-31zM-82 1067v31l139 139v-31zM279 1210v21l73 76h21zM279 1307h28l-28 -31v31zM-82 1141v33l139 139v-33zM-82 1217v30l139 139
v-30zM-82 1292v29l139 139v-28zM80 -252v1737h315v-156h-139v-1425h139v-156h-315z" />
    <glyph glyph-name="backslash" unicode="\" horiz-adv-x="866" 
d="M578 -293l139 139h33l-140 -139h-32zM504 -293l139 139h31l-139 -139h-31zM455 -293l-6 21l143 143l8 -23l-141 -141h-4zM436 -240l-6 25l143 143l9 -22zM418 -182l-8 22l145 146l6 -25zM399 -127l-8 23l146 145l6 -25zM381 -70l-8 23l143 143l8 -22zM360 -14l-6 24
l144 144l8 -23zM342 43l-8 23l145 145l6 -25zM324 98l-9 23l146 145l6 -24zM305 156l-8 22l143 144l9 -23zM285 211l-6 25l143 143l8 -23zM266 268l-8 23l145 145l9 -22zM248 324l-8 24l145 146l8 -25zM229 381l-8 22l144 144l8 -23zM209 436l-6 25l143 143l8 -22zM190 494
l-8 22l146 146l8 -23zM172 551l-8 22l145 146l6 -25zM154 606l-9 23l146 145l6 -24zM133 662l-6 24l143 143l9 -22zM115 719l-9 22l146 146l8 -23zM96 776l-8 23l145 145l7 -24zM78 831l-8 23l145 145l6 -24zM57 887l-6 24l144 144l8 -23zM39 944l-8 23l145 145l8 -22z
M20 1001l-8 23l146 145l6 -24zM2 1057l-8 24l143 144l8 -25zM-18 1112l-7 25l144 143l8 -23zM-37 1169l-8 23l145 145l9 -22zM-55 1227l-8 22l145 146l8 -23zM-74 1284l-8 23l145 145l7 -25zM618 -129l-542 1614h172l543 -1614h-173z" />
    <glyph glyph-name="bracketright" unicode="]" horiz-adv-x="450" 
d="M190 -416l140 140h14l-139 -140h-15zM115 -416l139 140h31l-140 -140h-30zM41 -416l139 140h31l-139 -140h-31zM-35 -416l139 140h31l-139 -140h-31zM-111 -416l140 140h30l-139 -140h-31zM-113 -373v31l140 139v-30zM-113 -299v31l140 139v-31zM168 -70h-8l8 9v-9z
M86 -70l82 82v-30l-51 -52h-31zM29 -70v19l139 139v-31l-127 -127h-12zM29 -6v31l139 139v-31zM29 70v30l139 140v-31zM29 143v33l139 139v-32zM29 219v31l139 139v-31zM29 295v31l139 139v-31zM29 371v30l139 140v-31zM29 446v31l139 139v-30zM29 520v31l139 139v-31z
M29 596v31l139 139v-31zM29 672v30l139 140v-31zM29 748v30l139 140v-31zM29 821v31l139 139v-30zM29 897v31l139 139v-31zM29 973v31l139 139v-31zM29 1049v30l139 140v-31zM29 1122v33l139 139v-32zM-35 1165l137 138h31l-137 -138h-31zM-111 1165l138 138h30l-137 -138
h-31zM-113 1208v31l140 139v-30zM-113 1284v31l140 139v-31zM53 -252v156h142v1425h-142v156h316v-1737h-316z" />
    <glyph glyph-name="asciicircum" unicode="^" horiz-adv-x="1044" 
d="M655 915l140 140h32l-139 -140h-33zM582 915l139 140h31l-140 -140h-30zM129 915l139 140h21l-139 -140h-21zM53 915l140 140h30l-139 -140h-31zM553 932l-12 16l143 146l14 -17zM27 932l57 88l76 76l-27 -41h17zM520 973l-14 18l145 146l13 -19zM485 1016l-14 16
l145 146l15 -17zM453 1057l-15 16l146 146l14 -19zM418 1098l-15 16l146 146l14 -17zM449 1204l73 88l6 -8zM168 1147l55 88l78 78l-57 -88zM180 1079l242 373h201l243 -373h-135l-209 254l-209 -254h-133z" />
    <glyph glyph-name="underscore" unicode="_" horiz-adv-x="1210" 
d="M985 -399l137 137h31l-137 -137h-31zM909 -399l138 137h30l-137 -137h-31zM836 -399l137 137h31l-138 -137h-30zM760 -399l137 137h31l-137 -137h-31zM684 -399l137 137h31l-137 -137h-31zM608 -399l137 137h31l-137 -137h-31zM535 -399l137 137h30l-137 -137h-30z
M459 -399l137 137h31l-138 -137h-30zM383 -399l137 137h31l-137 -137h-31zM307 -399l137 137h31l-137 -137h-31zM231 -399l138 137h32l-137 -137h-33zM158 -399l137 137h31l-138 -137h-30zM82 -399l137 137h31l-137 -137h-31zM6 -399l137 137h31l-137 -137h-31zM-70 -399
l138 137h30l-137 -137h-31zM-143 -399l137 137h31l-138 -137h-30zM-164 -375v31l139 139v-31zM-164 -299v31l139 137v-29zM0 -236v132h1210v-132h-1210z" />
    <glyph glyph-name="grave" unicode="`" horiz-adv-x="989" 
d="M506 1372l139 139h31l-139 -139h-31zM446 1372l-8 10l148 148l14 -17l-139 -141h-15zM418 1407l-15 16l148 146l14 -17zM383 1446l-14 16l145 148l14 -17zM348 1485l-14 16l145 148l15 -17zM311 1526l-14 16l147 146l15 -17zM276 1567l-14 16l146 146l14 -17zM242 1606
l-15 16l146 145l14 -14zM207 1645l-14 16l145 147l14 -16zM172 1686l-14 16l145 145l14 -16zM610 1536l-291 330h242l141 -330h-92z" />
    <glyph glyph-name="a" unicode="a" horiz-adv-x="1355" 
d="M1141 -164l139 139h29l-138 -139h-30zM1065 -164l139 139h31l-139 -139h-31zM989 -164l139 139h31l-139 -139h-31zM10 -164l140 139h30l-139 -139h-31zM-66 -164l140 139h30l-139 -139h-31zM-141 -164l139 139h33l-140 -139h-32zM971 -137l-10 22l145 144l10 -21z
M-152 -131l25 55l154 154l-25 -55zM948 -86l-8 25l143 145l11 -25zM928 -31l-10 21l145 145l8 -20zM905 23l-10 22l145 143l11 -20zM-92 4l24 55l154 154l-25 -55zM883 76l-9 22l144 146l10 -23zM825 125l140 139h30l-139 -139h-31zM752 125l139 139h31l-140 -139h-30z
M676 125l139 139h31l-139 -139h-31zM600 125l139 139h31l-139 -139h-31zM524 125l140 139h30l-139 -139h-31zM451 125l139 139h31l-140 -139h-30zM375 125l139 139h31l-139 -139h-31zM309 180l21 53l32 31h31zM299 125l139 139h31l-139 -139h-31zM-33 139l25 56l153 153
l-24 -55zM27 274l24 56l154 153l-25 -55zM862 463l47 47l9 -23l-25 -24h-31zM788 463l99 98l10 -20l-78 -78h-31zM723 463l-2 8l143 145l10 -22l-131 -131h-20zM84 408l25 53l155 155l-24 -55zM707 502l-9 22l146 146l8 -23zM684 555l-8 23l145 145l8 -23zM143 543l25 53
l156 156l-25 -56zM664 608l-11 23l146 145l10 -22zM641 662l-8 22l143 145l10 -22zM618 715l-8 22l146 146l8 -23zM205 678l22 55l156 154l-25 -56zM596 768l-8 23l145 145l8 -23zM578 825l20 54l113 110l8 -20zM264 813l25 55l153 154l-24 -55zM629 950l20 54l41 38l8 -22z
M389 438h576l-287 697zM322 944l24 55l154 154l-23 -53zM381 1079l25 56l153 155l-22 -55zM440 1214l25 56l156 155l-25 -55zM20 0l650 1475h16l649 -1475h-188l-119 289h-700l-119 -289h-189z" />
    <glyph glyph-name="b" unicode="b" horiz-adv-x="1226" 
d="M451 -164l139 139h31l-140 -137q-2 0 -6 -2h-24zM377 -164l139 139h31l-139 -139h-31zM301 -164l139 139h31l-139 -139h-31zM225 -164l140 139h30l-139 -139h-31zM150 -164l139 139h30l-139 -139h-30zM76 -164l139 139h31l-140 -139h-30zM0 -164l139 139h31l-139 -139
h-31zM544 -160q-12 0 -16 -2l138 139h32l-137 -135q-5 -2 -17 -2zM614 -150l134 134l36 6l-131 -131q-10 -5 -39 -9zM721 -119l125 123q12 6 47 16l-113 -110q-30 -19 -59 -29zM-18 -137v31l137 137v-31zM-18 -61v30l137 137v-30zM-18 12v33l137 137v-32zM-18 88v31l137 137
v-31zM-18 164v31l137 137v-31zM797 225q2 16 2 35l135 135q0 -12 -4 -37zM-18 240v30l137 138v-31zM932 467l2 -27l-137 -137q-4 20 -6 25zM-18 315v31l137 137v-30zM780 362l-10 21l143 143q4 -10 9 -22zM-18 389v31l137 137v-31zM752 410q-10 10 -15 16l146 145
q10 -10 14 -16zM715 446l-19 13l148 147l18 -12zM670 475l-21 10l146 148l20 -10zM-18 465v31l137 137v-31zM616 498q-8 4 -24 8l143 143l25 -6zM555 512l-29 4l142 141q6 0 15 -1t13 -1zM455 518l139 139h33l-140 -139h-32zM381 518l139 139h31l-139 -139h-31zM350 532v31
l94 94h31zM350 608v31l19 18h30zM326 152h311q156 0 240 70t84 196q0 124 -83 194t-241 70h-311v-530zM-18 541v30l137 138v-31zM-18 616v31l137 137v-30zM-18 690v31l137 137v-31zM-18 766v31l137 137v-31zM-18 842v30l137 138v-31zM694 879q2 10 2 30l140 140l-5 -35z
M-18 918v30l137 137v-30zM690 950l-6 25l143 143l7 -26zM-18 991v33l137 137v-33zM670 1006q-2 10 -13 18l146 145l12 -18zM639 1047l-16 16l145 145q6 -4 16 -14zM-18 1067v31l137 137v-31zM596 1081q-10 4 -21 11l146 145l20 -10zM543 1104l-23 6l144 145l24 -6zM481 1118
l-26 4l141 140q18 0 29 -2zM383 1122l139 140h31l-139 -140h-31zM350 1210v31l21 21h30zM350 1135v30l96 97h31zM326 829h254q132 -1 206 61t74 168t-74 166q-74 62 -206 62h-254v-457zM-18 1143v31l137 137v-31zM-18 1219v30l137 137v-30zM145 0v1434h439q211 0 334 -106
t122 -261q0 -205 -196 -297q143 -39 221 -133t78 -225q0 -178 -134 -295t-368 -117h-496z" />
    <glyph glyph-name="c" unicode="c" horiz-adv-x="1411" 
d="M674 -195l139 140h31l-137 -138q-6 0 -17.5 -1t-15.5 -1zM629 -195q-6 0 -16.5 1t-14.5 1l141 142q10 -2 29 -2zM756 -186l137 135q10 0 35 4l-133 -133zM557 -188q-4 0 -13 1t-14 1l144 143q8 -4 26 -4zM481.5 -176q-8.5 0 -12.5 2l143 143q16 -4 25 -4l-143 -143
q-4 2 -12.5 2zM852 -166l127 129q23 2 45 12l-123 -125q-8 -4 -24.5 -8t-24.5 -8zM434 -164q-16 8 -24 8l145 144q12 -4 23 -8zM377 -143l-21 8l144 145l22 -10zM981 -113l111 111q47 20 57 27l-86 -84q-33 -25 -82 -54zM326 -121l-21 10l146 146l18 -10zM276 -94
q-6 2 -18 10l145 145l19 -10zM231 -66l-18 13l145 147l19 -14zM188 -33q-6 4 -16 15l145 145q6 -4 17 -14zM147 4l-14 14l146 146q4 -2 8 -7t8 -7zM113 41l-17 18l148 146l14 -19zM78 82l-12 18l145 146q8 -12 12 -17zM47 127l-12 18l145 148q4 -8 13 -21zM18 174l-10 21
l146 145l10 -21zM129 391l10 -20l-145 -146l-10 23zM109 446q8 -16 8 -22l-144 -145q-6 10 -8 22zM-45 336l-6 24l143 144l6 -25zM-59 397q-4 16 -4 27l141 143l6 -26zM70 633l2 -27l-142 -141l-2 27zM-74 532v31l140 139q0 -18 2 -28zM68 782l-2 -32l-138 -140l2 35z
M-61 696l6 39l133 133q-4 -25 -4 -37zM-39 797l19 47l122 123l-12 -41zM16 924q20 41 60 94l78 76q-10 -18 -27 -60zM1051 979l-19 16l148 148l18 -17zM1008 1014q-4 4 -17 12l146 148l18 -13zM963 1044q-12 8 -19 11l146 147q8 -4 20 -12zM915 1071l-20 10l145 146
q10 -4 21 -10zM862 1096l-20 8l143 145q4 -2 23 -8zM473 1110l117 117q16 10 53 22l-127 -125q-29 -8 -43 -14zM809 1114l-25 6l144 144q12 0 24 -7zM569 1135l133 133l37 6l-135 -137q-6 0 -17.5 -1t-17.5 -1zM748 1128q-16 4 -27 5l141 143l29 -4zM788 1278h33l-141 -141
q-10 2 -29 2zM807 -31q-301 0 -508 212t-207 535.5t207 535.5t509 212t507 -204l-90 -125q-186 168 -414.5 168t-383.5 -165t-155 -421t155 -421t388.5 -165t435.5 203l90 -135q-233 -230 -534 -230z" />
    <glyph glyph-name="d" unicode="d" horiz-adv-x="1380" 
d="M303 -164l139 139h31l-139 -139h-31zM227 -164l140 139h30l-139 -139h-31zM154 -164l139 139h31l-140 -139h-30zM78 -164l139 139h31l-139 -139h-31zM2 -164l139 139h31l-139 -139h-31zM381 -162l139 139h31l-137 -137q-13 -2 -33 -2zM463 -156l135 136l35 4l-135 -136
q-25 -4 -35 -4zM549 -143l133 133l37 6l-131 -131q-14 -4 -39 -8zM649 -119l129 129l43 13l-125 -125q-27 -11 -47 -17zM-18 -139v30l137 138v-31zM778 -66l115 115q47 20 57 27l-88 -88q-37 -27 -84 -54zM-18 -66v33l137 137v-32zM-18 10v31l137 137v-31zM-18 86v31
l137 137v-31zM-18 162v31l137 137v-31zM-18 238v30l137 138v-31zM-18 311v31l137 137v-30zM905 332q14 37 17 47l129 129q-8 -25 -23 -53zM-18 387v31l137 137v-31zM936 438q4 20 4 35l135 135l-6 -37zM-18 463v31l137 137v-31zM944 522v31l139 139q0 -23 -2 -33zM-18 539
v30l137 138v-31zM944 596l-2 29l141 141v-31zM-18 612v31l137 137v-30zM1077 820.5q0 -9.5 2 -13.5l-143 -143q0 10 -4 26l143 144q2 -4 2 -13.5zM-18 688v31l137 137v-31zM924 727l-6 25l143 143l6 -25zM-18 764v31l137 137v-31zM905 784l-8 23l145 145q4 -16 9 -22z
M883 836l-13 20l146 145q8 -12 12 -20zM-18 840v30l137 138v-31zM854 883l-12 18l145 146l12 -19zM-18 913v33l137 137v-32zM952 1087l17 -14l-148 -147l-14 16zM784 965l-18 12l147 147q12 -8 17 -14zM741 997l-18 13l147 147l19 -12zM-18 989v31l137 137v-31zM696 1026
l-20 10l147 148l19 -13zM770 1206q3 -3 21 -10l-146 -145l-22 8zM590 1071l-23 8l144 144l24 -6zM-18 1065v31l137 137v-31zM530 1087l-24 7l143 143l25 -6zM469 1100l-29 2l144 143q4 0 13 -2t13 -2zM399 1106l-28 2l139 139h31zM350 1208v31l8 8h31zM350 1133v30l84 84h31
zM326 160h174q307 0 457.5 154.5t150.5 402.5t-150.5 402.5t-457.5 154.5h-174v-1114zM-18 1141v30l137 138v-31zM-18 1217v30l137 137v-30zM145 0v1434h357q381 0 583.5 -202t202.5 -515.5t-202.5 -515t-583.5 -201.5h-357z" />
    <glyph glyph-name="e" unicode="e" horiz-adv-x="1161" 
d="M883 -164l139 139h27l-140 -139h-26zM809 -164l139 139h31l-139 -139h-31zM733 -164l139 139h31l-139 -139h-31zM657 -164l140 139h30l-139 -139h-31zM582 -164l139 139h31l-140 -139h-30zM508 -164l139 139h31l-139 -139h-31zM432 -164l139 139h31l-139 -139h-31z
M356 -164l140 139h30l-139 -139h-31zM281 -164l139 139h31l-140 -139h-30zM207 -164l139 139h31l-139 -139h-31zM131 -164l139 139h31l-139 -139h-31zM55 -164l140 139h30l-139 -139h-31zM-18 -164v2l137 137h31l-140 -139h-28zM-18 -119v33l137 137v-33zM-18 -43v31
l137 137v-31zM-18 33v30l137 138v-31zM-18 109v30l137 137v-30zM-18 184v31l137 137v-30zM-18 258v31l137 137v-31zM-18 334v31l137 137v-31zM-18 410v30l137 138v-31zM760 444l139 140h31l-139 -140h-31zM684 444l139 140h31l-139 -140h-31zM608 444l140 140h30l-139 -140
h-31zM532 444l140 140h33l-140 -140h-33zM459 444l139 140h31l-140 -140h-30zM383 444l139 140h31l-139 -140h-31zM350 532v31l21 21h30zM350 457v30l96 97h31zM-18 485v31l137 137v-30zM-18 559v31l137 137v-31zM-18 635v31l137 137v-31zM-18 711v30l137 138v-31zM-18 786
v31l137 137v-30zM-18 860v33l137 137v-33zM-18 936v31l137 137v-31zM-18 1012v30l137 138v-31zM870 1110l138 137h20l-139 -137h-19zM797 1110l137 137h31l-138 -137h-30zM721 1110l137 137h31l-137 -137h-31zM645 1110l137 137h31l-137 -137h-31zM569 1110l138 137h30
l-137 -137h-31zM496 1110l137 137h31l-138 -137h-30zM420 1110l137 137h31l-137 -137h-31zM350 1110v6l131 131h31l-137 -137h-25zM350 1161v31l56 55h30zM350 1247h12l-12 -12v12zM-18 1087v31l137 137v-30zM-18 1163v31l137 137v-31zM-18 1237v31l137 137v-31zM145 0v1434
h908v-160h-727v-506h645v-160h-645v-448h747v-160h-928z" />
    <glyph glyph-name="f" unicode="f" horiz-adv-x="1138" 
d="M129 -164l139 139h31l-139 -139h-31zM53 -164l140 139h30l-139 -139h-31zM-18 -164v4l137 135h28l-139 -139h-26zM-18 -115v31l137 137v-30zM-18 -41v33l137 137v-33zM-18 35v31l137 137v-31zM-18 111v30l137 138v-31zM-18 186v31l137 137v-30zM-18 262v31l137 137v-31z
M-18 336v31l137 137v-31zM-18 412v30l137 138v-31zM737 444l140 140h30l-139 -140h-31zM662 444l139 140h30l-139 -140h-30zM586 444l139 140h31l-140 -140h-30zM510 444l139 140h31l-139 -140h-31zM434 444l139 140h33l-139 -140h-33zM360 444l140 140h30l-139 -140h-31z
M350 584h29l-29 -29v29zM350 479v31l74 74h31zM-18 487v31l137 137v-30zM-18 563v31l137 137v-31zM-18 637v31l137 137v-31zM-18 713v30l137 138v-31zM-18 788v31l137 137v-30zM-18 864v31l137 137v-31zM-18 938v33l137 137v-33zM-18 1014v30l137 138v-31zM866 1110l138 137
h24l-139 -137h-23zM791 1110l137 137h30l-137 -137h-30zM717 1110l137 137h31l-137 -137h-31zM641 1110l137 137h31l-137 -137h-31zM565 1110l137 137h31l-137 -137h-31zM489 1110l138 137h30l-137 -137h-31zM416 1110l137 137h31l-138 -137h-30zM350 1165v31l51 51h31z
M350 1110v10l127 127h31l-137 -137h-21zM-18 1090v30l137 137v-30zM-18 1165v31l137 137v-30zM-18 1241v29l118 121l19 18v-31zM145 0v1434h908v-160h-727v-506h606v-160h-606v-608h-181z" />
    <glyph glyph-name="g" unicode="g" horiz-adv-x="1519" 
d="M672 -195l139 140h31l-137 -138q-23 0 -33 -2zM627 -195q-20 0 -31 2l141 140q18 0 29 -2zM754 -186l135 135l39 6l-133 -133q-6 -2 -19.5 -4t-21.5 -4zM555 -190q-16 4 -27 4l142 143q20 -4 26 -4zM477 -176q-8 0 -12 2l143 145q6 -4 25 -6l-144 -143q-4 2 -12 2z
M854 -162l127 127l43 12l-123 -122q-33 -13 -47 -17zM432 -164q-16 4 -24 8l145 144q12 -4 22 -8zM375 -143l-21 8l146 145l20 -10zM989 -100l107 106q20 8 61 29l-70 -68q-47 -40 -98 -67zM324 -121l-21 10l146 146l20 -10zM274 -94l-18 12l145 145l19 -12zM229 -63
q-12 8 -16 12l145 145l19 -12zM186 -31l-16 15l147 145q10 -10 17 -14zM147 4l-16 16l148 146l14 -14zM111 43q-4 6 -15 16l148 148l12 -17zM78 84q-6 6 -15 18l148 148l12 -19zM47 129l-12 18l145 148l13 -21zM18 176q-6 10 -10 21l146 145l10 -18zM1047 225v31l139 139
v-30zM-6 227l-10 23l145 145l10 -22zM109 449q0 -7 8 -23l-146 -145q-4 16 -8 24zM1047 301v31l139 139v-31zM-45 338l-6 24l143 144l6 -25zM1047 377v31l139 139v-31zM-59 399q-4 16 -4 27l141 143l6 -26zM1012 446l139 140h31l-140 -140h-30zM936 446l139 140h31
l-139 -140h-31zM860 446l139 140h31l-139 -140h-31zM784 446l140 140h30l-139 -140h-31zM711 446l139 140h31l-140 -140h-30zM635 446l139 140h31l-139 -140h-31zM606 463v31l139 139v-31zM70 635l2 -27l-142 -141l-2 27zM-74 537v30l140 140v-29zM606 539v30l139 140v-31z
M68 784l-2 -32l-138 -140l2 35zM-61 698q4 25 8 39l133 133l-6 -36zM-37 799q4 16 17 49l124 123q-10 -20 -12 -43zM20 934q37 59 64 92l74 74q-16 -29 -29 -58zM1049 981l-17 14l148 148l16 -15zM1008 1014q-6 6 -19 14l146 148q2 -2 20 -15zM963 1044q-12 8 -21 13
l148 145l18 -10zM913 1071q-10 6 -20 10l145 148l21 -10zM473 1116l109 109q37 16 55 22l-123 -121zM862 1096q-4 2 -22 8l143 145q4 0 12.5 -4t12.5 -4zM805 1116l-25 6l144 144l26 -6zM569 1135l131 131q12 4 37 8l-135 -137q-6 0 -17.5 -1t-15.5 -1zM745 1128l-26 7
l141 141l29 -4zM678 1137q-10 2 -29 2l137 139h33zM805 -31q-299 0 -506 213t-207 536t207 534.5t509 211.5t507 -204l-90 -125q-186 168 -414.5 168t-383.5 -165t-155 -420t155 -421t376 -166t407 186v293h-440v156h616v-498q-231 -299 -581 -299z" />
    <glyph glyph-name="h" unicode="h" horiz-adv-x="1388" 
d="M1032 -164l139 139h31l-139 -139h-31zM956 -164l140 139h32l-139 -139h-33zM129 -164l139 139h31l-139 -139h-31zM53 -164l140 139h30l-139 -139h-31zM-18 -164v2l137 137h31l-140 -139h-28zM899 -164v14l139 140v-15h15l-140 -139h-14zM-18 -119v31l137 137v-31z
M899 -104v30l139 140v-31zM-18 -43v31l137 137v-31zM899 -29v31l139 139v-30zM-18 33v30l137 138v-31zM899 47v31l139 139v-31zM-18 109v30l137 137v-30zM899 121v31l139 139v-31zM-18 182v31l137 137v-31zM899 197v30l139 140v-31zM-18 258v31l137 137v-31zM899 272v31
l139 139v-30zM-18 334v31l137 137v-31zM899 348v31l139 139v-31zM-18 410v30l137 138v-31zM899 444h-10l137 138h12v-21l-139 -139v22zM813 444l137 138h31l-137 -138h-31zM737 444l137 138h31l-137 -138h-31zM662 444l137 138h30l-137 -138h-30zM586 444l137 138h33
l-138 -138h-32zM512 444l137 138h31l-137 -138h-31zM436 444l137 138h31l-137 -138h-31zM360 444l138 138h30l-137 -138h-31zM350 582h29l-29 -31v31zM350 477v31l72 74h31zM-18 483v31l137 137v-30zM-18 559v31l137 137v-31zM-18 635v31l137 137v-31zM1038 795h-26l26 24
v-24zM-18 711v30l137 138v-31zM936 795l102 100v-33l-69 -67h-33zM-18 784v33l137 137v-32zM899 799v30l139 140v-31zM-18 860v31l137 137v-31zM899 874v31l139 139v-30zM-18 936v31l137 137v-31zM899 950v31l139 139v-30zM-18 1012v30l137 138v-31zM899 1026v31l139 139
v-31zM-18 1087v31l137 137v-30zM899 1100v30l139 140v-31zM-18 1161v31l137 137v-31zM899 1176v30l139 140v-31zM-18 1237v31l137 137v-31zM899 1251v19l139 139v-18zM145 0v1434h181v-666h737v666h180v-1434h-180v608h-737v-608h-181z" />
    <glyph glyph-name="i" unicode="i" horiz-adv-x="530" 
d="M160 -164l139 139h31l-140 -139h-30zM84 -164l139 139h31l-139 -139h-31zM12 -164v2l138 137h30l-139 -139h-29zM12 -119v31l140 137v-31zM12 -43v31l140 137v-31zM12 33v30l140 138v-31zM12 109v30l140 137v-30zM12 182v31l140 137v-31zM12 258v31l140 137v-31zM12 334
v31l140 137v-31zM12 410v30l140 138v-31zM12 483v31l140 137v-30zM12 559v31l140 137v-31zM12 635v31l140 137v-31zM12 711v30l140 138v-31zM12 784v33l140 137v-32zM12 860v31l140 137v-31zM12 936v31l140 137v-31zM12 1012v30l140 138v-31zM12 1087v31l140 137v-30z
M12 1161v31l140 137v-31zM12 1237v31l140 137v-31zM176 0v1434h180v-1434h-180z" />
    <glyph glyph-name="j" unicode="j" horiz-adv-x="960" 
d="M344 -55h33l-139 -138q-4 0 -14.5 -1t-16.5 -1zM162 -193q-18 0 -29 3l141 141l29 -4zM291 -184l135 133l35 6l-127 -129q-8 -2 -22.5 -5t-20.5 -5zM96 -184q-4 0 -12 2t-12 2l143 145q12 -6 25 -6zM37 -168q-16 4 -23 8l144 144q4 0 11 -4.5t11 -4.5zM408 -143l116 114
q8 4 25.5 11.5t25.5 11.5l-53 -53q-51 -51 -114 -84zM-18 -147q-12 8 -19 10l143 145l21 -10zM-66 -119l-18 13l145 145l19 -12zM-66 -47l48 80l84 84l-33 -58l2 -2h2zM459 178q6 18 8 39l131 131q-6 -20 -16 -47zM471 266v31l137 137v-31zM471 342v31l137 137v-31zM471 418
v31l137 137v-31zM471 492v32l137 138v-33zM471 567v31l137 137v-30zM471 643v31l137 137v-31zM471 719v31l137 137v-31zM471 795v30l137 138v-31zM471 868v31l137 137v-30zM471 944v31l137 137v-31zM471 1020v31l137 137v-31zM471 1096v30l137 138v-31zM471 1169v31l137 137
v-30zM471 1245v25l137 139v-27zM368 -31q-176 0 -302 97l77 131q94 -68 210 -68t199 82t83 219v1004h180v-1004q0 -201 -135.5 -331t-311.5 -130z" />
    <glyph glyph-name="k" unicode="k" horiz-adv-x="1267" 
d="M1034 -164l140 139h30l-139 -139h-31zM958 -164l140 139h30l-139 -139h-31zM883 -164l139 139h31l-140 -139h-30zM129 -164l139 139h31l-139 -139h-31zM55 -164l140 139h30l-139 -139h-31zM-18 -164v2l137 137h31l-140 -139h-28zM827 -164l-8 10l146 146l14 -15
l-141 -141h-11zM797 -131l-15 16l146 148l16 -19zM-18 -117v31l137 137v-31zM760 -92l-15 14l148 148l14 -17zM723 -53l-14 14l147 148l14 -17zM-18 -41v31l137 137v-31zM686 -14l-14 16l147 145l15 -14zM649 25l-14 16l147 145l15 -14zM-18 33v33l137 137v-33zM614 61
l-14 17l148 147l14 -16zM578 100l-15 17l148 147l14 -16zM-18 109v30l137 137v-30zM541 139l-15 17l148 147l14 -16zM504 178l-15 17l148 147l14 -16zM-18 184v31l137 137v-30zM469 217l-16 16l147 148l16 -16zM432 256l-16 16l147 148l17 -17zM-18 260v31l137 137v-31z
M395 295l-16 16l149 148l15 -17zM358 334l-8 8v16l142 140l14 -17zM-18 336v31l137 137v-31zM350 401v33l105 103l14 -17zM350 477v31l68 67l16 -16zM-18 410v30l137 138v-31zM350 553v31l31 30l16 -16zM350 629v18l10 -10zM-18 485v31l137 137v-30zM-18 561v31l137 137v-31
zM-18 637v31l137 137v-31zM-18 711v30l137 138v-31zM-18 786v31l137 137v-30zM-18 862v31l137 137v-31zM-18 938v31l137 137v-31zM-18 1012v32l137 138v-33zM-18 1087v31l137 137v-30zM-18 1163v31l137 137v-31zM-18 1239v31l137 137v-31zM145 0v1434h181v-670l645 670h237
l-680 -695l711 -739h-246l-667 711v-711h-181z" />
    <glyph glyph-name="l" unicode="l" horiz-adv-x="1103" 
d="M879 -164l139 139h31l-140 -139h-30zM803 -164l139 139h31l-139 -139h-31zM727 -164l139 139h31l-139 -139h-31zM651 -164l140 139h30l-139 -139h-31zM578 -164l139 139h31l-140 -139h-30zM502 -164l139 139h31l-140 -139h-30zM426 -164l139 139h31l-139 -139h-31z
M350 -164l139 139h31l-139 -139h-31zM276 -164l140 139h30l-139 -139h-31zM201 -164l139 139h31l-140 -139h-30zM125 -164l139 139h31l-139 -139h-31zM49 -164l139 139h31l-139 -139h-31zM-18 -164v6l137 138v-5h26l-139 -139h-24zM-18 -115v31l137 137v-30zM-18 -39v31
l137 137v-31zM-18 37v31l137 137v-31zM-18 113v30l137 138v-31zM-18 186v31l137 137v-30zM-18 262v31l137 137v-31zM-18 338v31l137 137v-31zM-18 414v30l137 138v-31zM-18 487v31l137 137v-30zM-18 563v31l137 137v-31zM-18 639v31l137 137v-31zM-18 715v30l137 138v-31z
M-18 788v33l137 137v-32zM-18 864v31l137 137v-31zM-18 940v31l137 137v-31zM-18 1016v31l137 137v-31zM-18 1092v30l137 138v-31zM-18 1165v31l137 137v-30zM-18 1241v29l137 139v-31zM145 0v1434h181v-1274h751v-160h-932z" />
    <glyph glyph-name="m" unicode="m" horiz-adv-x="1593" 
d="M1247 -164l139 139h31l-139 -139h-31zM1171 -164l140 139h30l-139 -139h-31zM117 -164l139 139h31l-140 -139h-30zM41 -164l139 139h31l-139 -139h-31zM1106 -164v10l139 140v-11h21l-140 -139h-20zM-18 -164v17l137 137v-15h18l-139 -139h-16zM1106 -109v31l139 139v-30
zM-18 -104v30l137 137v-30zM1106 -35v33l139 139v-33zM-18 -29v31l137 137v-30zM1106 41v31l139 139v-31zM-18 47v31l137 137v-31zM1106 117v30l139 140v-31zM-18 123v31l137 137v-31zM1106 193v30l139 139v-30zM-18 197v30l137 138v-31zM1106 268v31l139 139v-30zM-18 272
v31l137 137v-30zM618 307l-14 17l148 147l14 -16zM1106 342v31l139 139v-31zM584 348l-15 17l148 147l14 -16zM-18 348v31l137 137v-31zM549 387l-14 19l147 147l14 -18zM1106 418v31l139 139v-31zM514 428l-14 16l147 148l15 -17zM-18 424v31l137 137v-31zM479 469l-14 16
l147 148l15 -17zM1106 494v30l139 140v-31zM-18 498v30l137 138v-31zM444 510l-14 16l148 148l14 -17zM408 549l-15 16l148 148l14 -17zM1106 569v31l139 139v-30zM-18 573v31l137 137v-30zM373 588l-15 16l150 150l14 -17zM350 641v31l121 121l14 -17zM1106 643v31l139 139
v-31zM-18 649v31l137 137v-31zM350 717v31l86 86l15 -17zM350 793v30l51 51l15 -16zM1106 719v31l139 139v-31zM-18 725v31l137 137v-31zM350 866v31l17 16l14 -16zM-18 799v32l137 138v-33zM-18 874v31l137 137v-30zM-18 950v31l137 137v-31zM-18 1026v31l137 137v-31z
M-18 1102v31l137 137v-31zM-18 1176v30l137 137v-30zM-18 1251v31l137 137v-30zM145 0v1464h17l635 -751l637 751h16v-1464h-180v999l-465 -532h-17l-462 532v-999h-181z" />
    <glyph glyph-name="n" unicode="n" horiz-adv-x="1425" 
d="M1087 -193l-14 19l148 147l14 -18zM106 -164l140 139h33l-140 -139h-33zM33 -164l139 139h31l-140 -139h-30zM-18 -164v27l139 139v-27h6l-139 -139h-6zM1053 -152l-15 17l148 147l14 -16zM1018 -113l-14 17l147 147l14 -14zM-18 -92v31l139 139v-31zM981 -72l-14 17
l147 147l14 -16zM946 -31l-14 17l147 147l15 -16zM-18 -16v30l139 140v-31zM911 8l-14 17l147 147l15 -16zM877 49l-15 17l148 147l14 -16zM-18 57v31l139 139v-30zM842 90l-15 16l146 146l16 -16zM807 129l-14 16l145 148l14 -17zM-18 133v31l139 139v-31zM772 168l-14 16
l145 148l15 -17zM735 209l-14 16l147 148l15 -17zM-18 209v31l139 139v-31zM700 250l-14 16l148 146l14 -17zM666 291l-15 16l146 146l14 -17zM-18 285v30l139 140v-31zM631 330l-15 16l146 148l14 -19zM1073 471l-14 16l16 17v-31zM-18 358v31l139 139v-30zM596 371l-14 16
l145 145l14 -16zM561 410l-14 16l145 145l15 -14zM1038 512l-14 16l51 52v-31zM-18 434v31l139 139v-31zM524 451l-14 16l145 145l15 -16zM489 492l-14 16l146 145l14 -16zM1004 553l-15 16l86 86v-30zM-18 510v31l139 139v-31zM455 530l-15 17l146 145l14 -16zM969 594
l-15 16l121 121v-31zM420 571l-14 17l145 145l14 -16zM-18 586v30l139 140v-31zM385 610l-14 17l143 145l16 -16zM942 641v33l133 133v-33zM350 653v31l129 129l15 -16zM-18 659v33l139 139v-32zM350 727v31l94 94l15 -16zM942 717v31l133 133v-31zM350 803v31l60 59l14 -16
zM-18 735v31l139 139v-31zM350 879v30l25 23l14 -17zM942 793v30l133 133v-30zM-18 811v31l139 139v-31zM942 868v31l133 133v-31zM-18 887v31l139 139v-31zM942 944v31l133 133v-31zM-18 963v30l139 140v-31zM942 1018v31l133 133v-31zM-18 1036v31l139 139v-30zM942 1094
v30l133 133v-30zM-18 1112v31l139 139v-31zM942 1169v31l133 133v-30zM-18 1188v31l139 139v-31zM942 1245v25l133 137v-29zM-18 1264v30l139 140v-31zM326 0h-181v1475h19l936 -1072v1031h180v-1475h-16l-938 1065v-1024z" />
    <glyph glyph-name="o" unicode="o" 
d="M676 -195l139 140h33l-139 -138q-4 0 -15.5 -1t-17.5 -1zM631 -195q-18 0 -29 2l141 142q8 -2 29 -2zM758 -186l135 135q23 0 35 4l-133 -133zM561 -188q-6 0 -14 1t-12 1l141 143q16 -4 26 -4zM496 -178l-25 6l143 143l25 -6zM854 -166l129 129l43 12l-125 -125
q-37 -14 -47 -16zM436 -164q-4 0 -11 4t-11 4l143 144q16 -4 25 -8zM381 -143q-4 0 -11.5 4t-11.5 4l146 145l20 -10zM981 -115l113 113l55 25l-90 -93q-41 -25 -78 -45zM328 -121l-21 10l146 146l20 -10zM279 -94l-19 12l146 145l18 -12zM233 -66l-18 15l145 145
q8 -4 21 -12zM190 -33q-10 10 -16 15l148 147q4 -6 16 -14zM283 166l14 -16l-145 -146q-6 3 -17 14zM115 43q-6 4 -15 16l146 146q10 -10 14 -17zM80 84l-12 16l145 148l12 -19zM49 127l-12 18l147 146q2 -6 11 -19zM20 174l-10 21l146 145q6 -10 10 -21zM131 391l10 -20
l-145 -146l-10 21zM-27 279l-8 22l146 145q4 -16 8 -22zM1151 324q2 8 7 23t7 24l125 125q-12 -31 -24 -56zM92 502q8 -16 8 -23l-145 -145l-6 24zM-61 408.5q0 9.5 -2 13.5l143 143q0 -10 4 -26l-143 -144q-2 4 -2 13.5zM1319 600q-8 -32 -8 -39l-131 -133q4 25 4 37z
M70 631q0 -19 4 -27l-144 -143l-2 28zM1329 684q-4 -12 -4 -33l-137 -137q2 10 2 33zM-74 532v31l140 139q0 -20 2 -30zM1190 588q-2 10 -2 28l139 142q2 -10 2 -29zM68 780l-2 -35l-138 -137l2 35zM1321 825l2 -26l-141 -142q0 10 -4 27zM-63 692q8 32 8 39l133 133
q-4 -25 -4 -37zM1169 721l-6 24l144 144l6 -25zM1151 778q-4 12 -8 23l145 143q6 -16 8 -20zM-39 793q6 20 16 45l125 127l-12 -43zM1130 831l-12 21l146 145q10 -18 10 -22zM1104 881l-12 18l145 145l12 -18zM1073 926q-8 12 -14 16l147 145q4 -4 13 -16zM14 922
q33 57 54 84l88 88q-2 -6 -12.5 -25.5t-14.5 -32.5zM1038 967l-14 16l145 145l17 -16zM1130 1165l17 -14l-146 -145q-12 8 -16 14zM961 1038l-19 13l145 145l19 -12zM915 1067q-8 4 -20 12l145 146q12 -8 21 -11zM864 1094q-6 0 -22 8l145 145q4 -2 11.5 -4t11.5 -4z
M469 1106l121 121q29 14 53 22l-127 -127q-10 -2 -47 -16zM809 1114l-23 6l144 146q16 -4 24 -9zM571 1133l136 135l36 6l-137 -137q-10 0 -35 -4zM879.5 1274q9.5 0 13.5 -2l-143 -144q-16 4 -25 5l141 143q4 -2 13.5 -2zM793 1278h30l-139 -141q-10 2 -31 2zM813 131
q227 0 384 166t157 420t-157 420t-384 166t-384 -166t-157 -420t157 -420t384 -166zM814 -31q-302 0 -512 213t-210 534.5t210 534.5t512 213t512 -213t210 -534.5t-210 -534.5t-512 -213z" />
    <glyph glyph-name="p" unicode="p" horiz-adv-x="1157" 
d="M135 -164l139 139h25l-137 -139h-27zM59 -164l140 139h30l-139 -139h-31zM-16 -164l139 139h33l-140 -139h-32zM-18 -121v31l137 137v-31zM-18 -45v31l137 137v-31zM-18 31v30l137 138v-31zM-18 106v31l137 137v-30zM-18 180v31l137 137v-31zM-18 256v31l137 137v-31z
M350 399v31l64 62h30zM350 492h19l-19 -17v17zM350 352v2l139 138h31l-139 -140h-31zM426 354l139 138q20 0 31 2l-137 -138q-10 -2 -33 -2zM-18 332v30l137 138v-31zM508 362l135 136q10 0 39 4l-133 -131q-12 -5 -41 -9zM610 387l125 127l43 12l-116 -118zM-18 408v30
l137 137v-30zM-18 481v31l137 137v-31zM-18 557v31l137 137v-31zM-18 633v31l137 137v-31zM729 729q2 2 2 6l125 125q-33 -88 -127 -131zM-18 709v30l137 138v-31zM-18 782v33l137 137v-32zM737 786v31l140 139q0 -16 -3 -34zM-18 858v31l137 137v-31zM735 858q-4 20 -4 27
l141 143q4 -16 5 -27zM721 920l-8 20l145 145l6 -22zM-18 934v31l137 137v-31zM696 971l-12 18l147 146q8 -12 11 -19zM666 1014l-17 16l148 146l14 -15zM-18 1010v30l137 138v-31zM625 1051l-19 12l146 145q12 -6 18 -12zM580 1077l-21 10l143 146l23 -10zM524 1100l-24 6
l143 143l25 -6zM-18 1085v31l137 137v-30zM463 1114q-4 0 -13 1t-14 1l139 141q5 0 15 -1t14 -1zM362 1118l140 139h30l-139 -139h-31zM350 1257h33l-33 -30v30zM350 1151v33l76 73h33zM326 668h223q166 0 260 83t94 223t-95 224t-259 84h-223v-614zM-18 1159v31l137 137
v-31zM-18 1235v31l137 137v-31zM145 0v1434h408q244 0 387 -131t143 -328t-143 -328t-387 -131h-227v-516h-181z" />
    <glyph glyph-name="q" unicode="q" 
d="M680 -492l139 140h31l-139 -140h-31zM604 -492l139 140h31l-139 -140h-31zM561 -492v31l137 137v-28zM561 -416v31l137 137v-31zM561 -342v31l137 137v-31zM561 -266v30l137 138v-31zM698 -47v-6l-137 -137q-8 0 -29 4l144 143q16 -4 22 -4zM496 -180l-25 6l143 143
l25 -6zM926 -127v31l59 59l41 12zM436 -164l-22 6l143 146q4 0 12.5 -4t12.5 -4zM381 -145l-23 10l146 143q4 0 11 -4t11 -4zM985 -113l111 113q6 2 57 25l-92 -91q-31 -22 -76 -47zM328 -121l-21 10l146 146l20 -10zM279 -94q-12 8 -19 10l146 147l18 -12zM236 -66
q-12 6 -21 15l147 145l19 -14zM193 -33q-6 4 -17 15l146 145l16 -14zM152 2q-14 14 -15 16l146 146l14 -14zM696 170l-24 6l28 29v-31zM115 41q-4 6 -15 16l146 148l14 -17zM80 84q-4 4 -12 16l145 146q4 -4 12 -17zM639 188q-18 9 -23 9l84 84v-31zM49 127l-12 18l147 146
l11 -19zM20 174q-2 6 -10 19l146 147l10 -21zM586 211q-12 8 -21 12l135 133v-30zM-4 223l-10 23l145 145l10 -22zM-27 279q-6 18 -8 22l146 143q6 -18 8 -22zM1147 322q10 27 16 47l125 125q-8 -29 -24 -58zM92 502l8 -25l-145 -143l-6 24zM-61 407.5q0 8.5 -2 12.5
l143 143q0 -8 4 -24l-143 -144q-2 4 -2 12.5zM1178 428l6 37l135 133q-2 -6 -5 -19.5t-5 -19.5zM70 629l4 -27l-144 -141l-2 28zM1188 514q2 10 2 31l139 139q0 -21 -4 -33zM-74 530v31l140 139q0 -18 2 -28zM1190 588q-2 10 -2 28l139 142q2 -10 2 -31zM68 778l-2 -33
l-138 -139l2 35zM1321 825l2 -26l-141 -142q0 8 -4 25zM-63 692q4 25 8 37l133 135l-6 -37zM1169 719l-6 24l144 144l6 -25zM1151 778q-6 18 -8 23l145 143q2 -12 8 -22zM-41 791l16 47l127 125l-12 -41zM1130 829l-12 23l146 145q8 -16 10 -22zM1104 879l-12 18l145 147
q4 -8 12 -20zM1073 924l-12 18l145 145q8 -12 13 -16zM14 920q23 43 52 81l90 91q-12 -25 -27 -58zM1038 967l-14 16l145 145l17 -16zM1001 1004q-10 10 -16 14l145 147l17 -14zM961 1036q-6 6 -19 15l145 145l19 -12zM915 1067q-10 6 -20 10l145 148l21 -13zM864 1094
l-20 8l143 145q4 -2 23 -8zM471 1106l121 121q29 14 53 22l-129 -127q-20 -6 -45 -16zM809 1114l-23 6l144 144l24 -7zM573 1133l134 135l36 6l-135 -137q-15 0 -35 -4zM752 1128q-16 4 -27 5l141 143q20 -4 27 -4zM793 1278h30l-139 -141q-10 2 -31 2zM1354 730
q0 241 -157 407t-384 166t-384 -166t-157 -406.5t128 -400.5t325 -191v264h176v-266q197 33 325 192.5t128 400.5zM725 -328v303q-272 31 -452.5 238t-180.5 516.5t210 522t512 212.5t512 -213t210 -522t-181 -516t-454 -238v-303h-176z" />
    <glyph glyph-name="r" unicode="r" horiz-adv-x="1214" 
d="M961 -164l139 139h24l-139 -139h-24zM887 -164l139 139h31l-139 -139h-31zM811 -164l139 139h31l-139 -139h-31zM133 -164l139 139h27l-137 -139h-29zM57 -164l140 139h30l-139 -139h-31zM-18 -164l139 139h33l-140 -139h-32zM774 -156l-12 19l145 145l13 -18zM-18 -121
v31l137 137v-31zM743 -111l-12 19l148 147l12 -20zM715 -66l-13 19l146 145l12 -18zM-18 -45v31l137 137v-31zM684 -20l-12 18l147 147l12 -20zM653 25l-12 18l147 147l13 -18zM-18 31v30l137 138v-31zM625 72l-13 18l146 146l12 -19zM-18 106v31l137 137v-30zM594 115
l-12 20l147 146l12 -19zM565 162l-12 18l145 146l13 -19zM-18 180v31l137 137v-31zM535 207l-13 18l148 146l12 -19zM504 252l-12 18l147 148l12 -19zM-18 256v31l137 137v-31zM475 299l-12 18l145 146l13 -19zM416 344l147 148h27l2 -3l-146 -145h-30zM350 492h17l-17 -17
v17zM350 399v31l62 62h30zM350 344v10l137 138h31l-147 -148h-21zM-18 332v30l137 138v-31zM-18 408v30l137 137v-30zM-18 481v31l137 137v-31zM-18 557v31l137 137v-31zM-18 633v31l137 137v-31zM729 729q0 4 2 4l125 127q-37 -90 -127 -131zM-18 709v30l137 138v-31z
M-18 782v33l137 137v-32zM737 786v31l140 139q0 -14 -5 -34zM-18 858v31l137 137v-31zM733 858q0 10 -4 27l143 143q2 -10 2 -29zM721 918l-10 22l145 145q4 -10 8 -22zM-18 934v31l137 137v-31zM696 971l-12 18l145 146l13 -19zM664 1014l-15 16l146 146l16 -17zM-18 1010
v30l137 138v-31zM625 1051l-19 12l146 145l18 -12zM702 1233l21 -10l-145 -146q-12 8 -21 10zM524 1100l-24 6l143 143l25 -6zM-18 1085v31l137 137v-30zM463 1112l-29 4l141 141q10 -2 29 -2zM360 1118l140 139h30l-139 -139h-31zM350 1151v33l74 73h33zM350 1257h31
l-31 -30v30zM326 668h223q166 0 260 83t94 223t-95 224t-259 84h-223v-614zM-18 1159v31l137 137v-31zM-18 1235v31l137 137v-31zM145 0v1434h408q244 0 387 -131.5t143 -327.5q0 -143 -79.5 -256t-223.5 -166l369 -553h-205l-340 518q-16 -2 -51 -2h-227v-516h-181z" />
    <glyph glyph-name="s" unicode="s" horiz-adv-x="1181" 
d="M471 -190l135 137h33l-135 -135q-4 0 -16.5 -1t-16.5 -1zM395 -190l140 139q4 0 13 -1t15 -1l-139 -137h-29zM555 -182l133 133l35 4l-131 -131zM354 -186q-4 0 -13 1t-13 1l141 141q8 -4 27 -4zM289 -178l-25 6l142 143l24 -6zM653 -160l127 127l43 13l-121 -119
q-16 -11 -49 -21zM227 -162l-22 6l143 144l23 -6zM172 -143l-22 10l145 143q4 -2 11 -4t11 -4zM121 -119q-10 4 -21 10l146 146q10 -6 20 -10zM74 -92l-19 12l146 148l18 -13zM160 100q12 -12 16 -14l-145 -145q-12 8 -19 14zM-10 -25q-10 10 -15 17l146 145l14 -14zM-47 14
l-14 19l147 145q8 -12 12 -16zM-80 55l-12 19l145 145q8 -12 13 -16zM764 178l133 135q-8 -35 -31 -63l-32 -33q-29 -23 -70 -39zM903 391l2 -26v-3l-141 -141q0 10 -4 27zM750 283q-6 10 -11 20l146 146q2 -4 8 -21zM721 330q-2 4 -14 16l145 146q6 -4 14 -17zM684 369
q-12 8 -18 14l147 145q10 -10 16 -14zM641 399q-8 8 -20 15l145 143q8 -4 20 -12zM594 428q-12 8 -21 12l146 144l20 -11zM545 455q-4 0 -23 10l146 143l12 -6q4 -4 8 -4zM492 477l-21 10l143 144q4 -2 21 -8zM561 653q5 0 21 -8v-2l-144 -143l-10 6q-6 0 -10 4zM387 522
l-20 10l143 144l20 -10zM334 547l-21 8l144 145q18 -8 22 -10zM283 569q-12 8 -21 13l146 143l20 -10zM233 596q-12 8 -20 12l145 144l21 -11zM188 625l-18 12l145 145q4 -4 17 -12zM143 655q-10 10 -16 15l145 145q6 -4 17 -14zM233 854l17 -16l-146 -146l-16 17zM70 733
q-6 6 -15 19l146 145q8 -12 14 -18zM41 778q-8 18 -10 23l143 145q8 -16 12 -22zM18 834l-6 24l144 143q4 -16 8 -24zM145 1067q0 -22 5 -29l-142 -141q-2 8 -2 29zM8 973q0 12 4 37l135 133q-2 -10 -2 -33zM725 1012q-10 10 -14 16l151 154q6 -6 15 -19zM688 1053l-14 14
l149 150q12 -8 17 -13zM33 1073q18 43 45 76l94 94q-8 -16 -14 -45zM649 1085l-18 13l147 147q10 -4 21 -10zM600 1112q-10 6 -20 10l145 146q3 0 23 -8zM406 1143l-31 -2v6l125 123q12 4 41 8zM545 1133l-25 6l142 141q10 0 26 -4zM588 1284h30l-139 -139h-28zM602 -27
q-358 0 -536 279l124 96q147 -223 408 -223q154 0 244 65.5t90 177.5t-108 184q-78 52 -197 102.5t-157 67.5t-107.5 59t-102.5 81q-88 104 -88 236q0 166 118 265t314 99q141 0 254 -52t178 -153l-129 -90q-98 143 -301 144q-123 0 -189.5 -54.5t-66.5 -151.5t100 -163
q74 -48 181.5 -94t135.5 -58t84 -40t85 -50q95 -70 135.5 -142t40.5 -175q0 -188 -142.5 -299t-367.5 -111z" />
    <glyph glyph-name="t" unicode="t" horiz-adv-x="1191" 
d="M492 -164l139 139h31l-140 -139h-30zM416 -164l139 139h31l-140 -139h-30zM342 -164l139 139h31l-139 -139h-31zM342 -119v31l139 139v-31zM342 -43v31l139 139v-31zM342 33v30l139 140v-31zM342 106v33l139 140v-33zM342 182v31l139 139v-30zM342 258v31l139 139v-31z
M342 334v31l139 139v-31zM342 410v30l139 140v-31zM342 483v31l139 139v-30zM342 559v31l139 139v-31zM342 635v31l139 139v-31zM342 711v30l139 140v-31zM342 784v31l139 139v-30zM342 860v31l139 139v-31zM342 936v31l139 139v-31zM342 1012v30l139 140v-31zM938 1110
l137 137h31l-137 -137h-31zM862 1110l137 137h31l-137 -137h-31zM786 1110l138 137h30l-137 -137h-31zM711 1247h18l-18 -18v18zM711 1110l137 137h31l-138 -137h-30zM711 1153v31l63 63h31zM342 1110h-8l137 137h10v-22l-139 -140v25zM260 1110l137 137h31l-137 -137h-31z
M184 1110l138 137h30l-137 -137h-31zM109 1110l137 137h30l-137 -137h-30zM33 1110l137 137h31l-138 -137h-30zM-41 1110l137 137h31l-137 -137h-31zM-117 1110l137 137h31l-137 -137h-31zM-117 1155v31l140 139v-31zM-117 1231v31l140 139v-31zM506 0v1274h-459v160h1098
v-160h-459v-1274h-180z" />
    <glyph glyph-name="u" unicode="u" horiz-adv-x="1409" 
d="M688 -55h31l-139 -140h-31zM504 -195q-4 0 -14.5 1t-14.5 1l141 142q6 0 14.5 -1t14.5 -1zM629 -190l137 137q12 0 33 4l-133 -135zM434 -188l-24 6l141 141q4 0 13 -2t14 -2zM721 -172l131 131l39 8l-125 -125q-33 -11 -45 -14zM373 -176q-16 4 -23 8l144 143
q12 -4 22 -8zM315 -158q-4 2 -11 4t-11 4l145 146q6 -4 23 -8zM852 -117l109 109q2 2 16 8t22 10l-53 -55q-39 -39 -94 -72zM262 -135q-10 6 -20 10l145 145q4 -2 11.5 -5t9.5 -5zM213 -106q-8 4 -18 12l147 145q4 -4 16 -12zM170 -76l-16 15l145 145l18 -14zM262 121
l14 -17l-145 -145l-14 16zM227 162q14 -14 15 -17l-146 -145q-10 10 -14 16zM63 45q-2 6 -10 18l146 146q4 -10 10 -21zM172 258l10 -20l-145 -144q0 5 -8 21zM152 311l8 -22l-144 -144q-8 16 -8 23zM895 199l12 41l125 125q-6 -20 -26 -58l-107 -106q-2 -2 -4 -2zM0 205
l-6 24l141 142l6 -25zM-12 268q-4 8 -4 29l141 139q0 -10 4 -26zM915 293l5 35l135 135q0 -14 -4 -35zM-18 338v31l137 137q0 -18 2 -29zM920 371v30l139 140v-31zM-18 412v30l137 138v-31zM920 446v31l139 139v-30zM-18 487v31l137 137v-30zM920 522v31l139 139v-30z
M-18 563v31l137 137v-31zM920 598v31l139 139v-31zM-18 639v31l137 137v-31zM920 672v33l139 139v-33zM-18 713v32l137 138v-33zM920 748v30l139 140v-31zM-18 788v31l137 137v-30zM920 823v31l139 139v-30zM-18 864v31l137 137v-31zM920 899v31l139 139v-31zM-18 940v31
l137 137v-31zM920 975v31l139 139v-31zM-18 1016v31l137 137v-31zM920 1049v30l139 140v-31zM-18 1090v30l137 137v-30zM920 1124v31l139 139v-30zM-18 1165v31l137 137v-30zM920 1200v31l139 139v-31zM-18 1241v29l137 139v-31zM704.5 -31q-251.5 0 -405.5 150.5
t-154 408.5v906h181v-906q0 -188 101 -292.5t277.5 -104.5t277.5 104.5t101 292.5v906h181v-906q0 -258 -154 -408.5t-405.5 -150.5z" />
    <glyph glyph-name="v" unicode="v" horiz-adv-x="1314" 
d="M485 -205v4l146 144l2 -9h8l-139 -139h-17zM471 -170l-8 20l145 146l8 -21zM449 -117l-9 21l146 145l8 -20zM426 -66l-8 23l145 143l8 -20zM403 -12l-8 22l146 144l8 -21zM381 41l-8 22l145 144l8 -21zM358 94l-8 21l144 145l10 -20zM338 145l-10 23l145 143l8 -20z
M313 199l-8 22l146 144l8 -21zM291 252l-8 22l145 144l8 -21zM653 389l-8 21l45 47l-20 -51zM268 305l-8 23l143 143l11 -20zM248 356l-10 23l143 145l10 -22zM225 410l-10 22l145 143l9 -20zM633 440l-10 23l116 117l-20 -52zM201 463l-8 22l145 144l8 -21zM178 516l-8 23
l143 143l11 -20zM647 532l21 52l120 121l-18 -52zM156 569l-9 23l144 143l10 -20zM135 621l-10 22l145 143l9 -20zM698 657l21 52l121 122l-21 -51zM113 674l-11 22l146 144l8 -21zM88 727l-8 23l143 143l10 -21zM66 780l-9 23l144 143l10 -20zM748 784l20 52l121 120
l-21 -51zM45 831l-10 23l145 143l8 -20zM23 885l-11 22l146 144l8 -21zM797 907l22 56l121 118l-22 -53zM0 938l-10 23l143 143l10 -21zM-25 991l-8 23l144 143l10 -20zM848 1034l20 51l121 119l-20 -51zM-45 1042l-10 25l143 143l10 -22zM-68 1096l-10 22l144 144l10 -21z
M-90 1149l-10 22l143 144l10 -21zM899 1161l21 51l118 119l-20 -51zM-113 1202l-10 23l143 143l11 -20zM-137 1255l-6 15l143 145l8 -16zM649 -41l-629 1475h189l448 -1127l449 1127h188l-628 -1475h-17z" />
    <glyph glyph-name="w" unicode="w" horiz-adv-x="2011" 
d="M399 -205l-4 10l146 146l6 -17h6l-139 -139h-15zM1260 -188l-9 20l146 145l8 -22zM383 -162l-8 23l145 145l8 -22zM1239 -135l-8 22l143 146l10 -23zM362 -106l-8 22l146 145l8 -22zM1217 -80l-9 23l146 145l8 -22zM342 -51l-8 22l145 146l8 -23zM1196 -27l-8 25l145 143
l8 -22zM322 4l-9 23l146 145l8 -22zM1176 29l-9 22l146 144l8 -23zM303 57l-10 25l145 145l8 -24zM1155 82l-8 22l143 146l10 -23zM283 113l-9 22l144 146l8 -23zM1135 137l-11 23l146 145l8 -22zM262 168l-8 22l143 146l9 -23zM1112 193l-8 22l145 143l8 -20zM242 223
l-9 23l144 145l8 -22zM1092 246l-9 22l146 144l8 -21zM221 279l-8 22l143 145l9 -22zM584 424l-6 16l20 19zM1071 301l-8 21l143 145l11 -23zM1427 430l-10 23l33 32l-14 -47zM201 334l-8 22l145 144l8 -23zM1051 354l-11 23l146 145l8 -22zM180 389l-8 23l145 143l9 -23z
M1028 410l-8 22l145 143l9 -20zM565 473l-6 23l84 84l-18 -50zM1405 485l-8 23l94 92l-16 -45zM160 444l-8 23l145 143l8 -22zM1008 463l-9 22l146 144l8 -21zM139 500l-8 22l145 144l9 -23zM987 518l-8 21l143 145l11 -22zM549 530l18 50l121 122l-18 -49zM1389 543l16 47
l125 123l-17 -45zM121 553l-8 22l143 146l8 -23zM967 571l-9 23l144 145l8 -22zM100 608l-8 23l144 145l8 -22zM944 627l-8 22l145 144l9 -21zM594 651l18 49l121 123l-18 -49zM1430 657l16 48l123 124l-17 -47zM80 664l-8 22l143 145l8 -22zM924 680l-9 25l146 143l8 -23z
M59 719l-8 22l144 146l8 -23zM909 739l19 52l110 110l11 -22zM639 770l18 49l121 123l-18 -51zM39 774l-8 23l143 145l8 -24zM1468 774l17 45l125 125l-17 -47zM956 864l21 49l41 43l8 -22zM18 829l-8 23l144 143l8 -22zM-2 885l-8 22l143 144l8 -23zM1507 889l17 47
l125 125l-17 -47zM684 891l18 51l121 121l-18 -49zM-23 940l-8 23l144 143l8 -23zM-43 995l-8 23l143 143l8 -22zM1546 1001l17 48l125 125l-17 -48zM729 1014l19 49l120 121l-18 -49zM-61 1049l-9 22l144 143l8 -22zM-82 1104l-8 22l143 144l8 -23zM1585 1116l17 47
l127 125l-17 -47zM776 1135l19 49l120 121l-18 -50zM-102 1159l-9 23l144 143l8 -22zM-123 1214l-8 23l143 143l8 -22zM1626 1231l12 39l125 123l-12 -35zM819 1253l15 37l120 121l-14 -37zM563 -41l-543 1475h189l373 -1084l415 1104h19l414 -1104l372 1084h191l-545 -1475
h-16l-426 1102l-424 -1102h-19z" />
    <glyph glyph-name="x" unicode="x" horiz-adv-x="1284" 
d="M1022 -164l139 139h31l-139 -139h-31zM946 -164l139 139h31l-139 -139h-31zM43 -164l139 139h31l-139 -139h-31zM-33 -164l139 139h31l-139 -139h-31zM-109 -164l140 139h32l-139 -139h-33zM872 -164v2l146 146l6 -9h18l-139 -139h-31zM854 -137l-12 18l147 148l12 -19z
M825 -90l-12 18l145 146l13 -19zM-61 -74l65 97l68 67l-66 -96zM795 -45l-13 18l146 148l12 -19zM764 0l-12 18l147 148l12 -19zM735 45l-12 18l145 146l13 -19zM705 90l-13 19l148 147l12 -18zM676 137l-12 19l145 145l12 -18zM102 166l68 98l68 68l-68 -99zM645 182
l-12 19l145 145l13 -18zM616 227l-12 19l146 145l12 -18zM586 272l-13 19l146 145l12 -18zM555 317l-12 19l145 145l12 -18zM524 365l66 94l69 69l13 -18zM268 408l68 98l65 65l-67 -98zM365 580l-13 18l146 145l10 -14l-8 -14zM334 623l-12 18l145 145l12 -18zM303 668
l-12 18l145 145l13 -18zM270 713l-12 16l148 148l12 -19zM240 756l-13 18l146 146l12 -19zM209 799l-12 18l145 146l14 -17zM178 844l-12 18l145 146l13 -19zM145 889l-12 16l148 148l12 -19zM115 932l-13 18l146 146l14 -17zM84 975l-12 20l145 146l14 -19zM53 1020l-12 18
l145 146l13 -19zM20 1065l-12 16l148 148l12 -19zM-10 1108l-13 18l146 146l14 -17zM-41 1153l-12 18l145 146l12 -19zM-72 1196l-12 18l145 146l13 -19zM-104 1241l-13 16l148 148l12 -19zM41 0l498 729l-498 705h207l399 -572l385 572h207l-483 -705l487 -729h-207
l-389 592l-399 -592h-207z" />
    <glyph glyph-name="y" unicode="y" horiz-adv-x="1255" 
d="M530 -164l140 139h22l-139 -139h-23zM455 -164l139 139h31l-140 -139h-30zM379 -164l139 139h31l-139 -139h-31zM373 -127v31l139 139v-31zM373 -51v31l139 139v-31zM373 25v30l139 140v-31zM373 100v31l139 139v-30zM373 174v33l139 139v-33zM373 250v31l139 139v-31z
M373 326v30l139 140v-31zM373 401l-13 21l146 145l6 -10v-16zM344 451l-12 18l145 145l12 -18zM317 496l-12 20l146 146l12 -21zM289 543l-13 20l146 146l12 -21zM260 592l-12 18l145 146l13 -19zM231 639l-10 18l146 146l10 -19zM205 684l-12 21l145 145l12 -21zM176 733
l-12 19l145 145l13 -18zM616 797l-8 16l6 12l91 90l-43 -73zM147 780l-10 19l146 145l10 -18zM119 827l-10 19l145 145l10 -18zM92 874l-12 21l145 145l13 -20zM63 922l-10 18l146 145l10 -18zM676 932l43 74l92 90l-43 -74zM35 969l-10 18l145 146l10 -19zM8 1016l-12 20
l145 146l13 -21zM-20 1063l-13 20l146 146l12 -21zM-49 1110l-10 18l145 146l10 -19zM780 1112l43 72l92 94l-43 -74zM-76 1157l-12 21l145 145l13 -20zM-104 1204l-13 21l146 145l12 -20zM-133 1253l-10 17l145 145l10 -16zM539 0v565l-519 869h199l410 -705l409 705h199
l-518 -869v-565h-180z" />
    <glyph glyph-name="z" unicode="z" horiz-adv-x="1243" 
d="M932 -164l139 139h23l-140 -139h-22zM858 -164l139 139h31l-139 -139h-31zM782 -164l140 139h30l-139 -139h-31zM707 -164l139 139h31l-140 -139h-30zM631 -164l139 139h31l-139 -139h-31zM557 -164l139 139h31l-139 -139h-31zM481 -164l140 139h30l-139 -139h-31z
M406 -164l139 139h30l-139 -139h-30zM330 -164l139 139h31l-140 -139h-30zM256 -164l139 139h31l-139 -139h-31zM180 -164l139 139h31l-139 -139h-31zM104 -164l140 139h30l-139 -139h-31zM29 -164l139 139h31l-140 -139h-30zM-47 -164l139 139h33l-139 -139h-33zM-33 -106
l45 75l94 94l-24 -40v-15zM76 78l43 76l96 94l-45 -76zM184 262l43 74l95 94l-43 -74zM293 446l43 74l92 94l-43 -75zM397 625l45 75l90 93l-43 -76zM506 809l45 76l90 90l-43 -74zM614 993l43 76l91 88l-43 -74zM631 1116l139 139h31l-139 -139h-31zM557 1116l139 139h31
l-139 -139h-31zM481 1116l140 139h30l-139 -139h-31zM406 1116l139 139h30l-139 -139h-30zM330 1116l139 139h31l-140 -139h-30zM254 1116l139 139h33l-139 -139h-33zM180 1116l139 139h31l-139 -139h-31zM104 1116l140 139h30l-139 -139h-31zM43 1116v14l139 140v-15h17
l-140 -139h-16zM43 1176v30l139 140v-31zM43 1249v21l139 139v-20zM104 0v16l744 1264h-643v154h932v-17l-756 -1263h735v-154h-1012z" />
    <glyph glyph-name="braceleft" unicode="{" horiz-adv-x="581" 
d="M332 -416l139 140h31l-140 -140h-30zM287 -416l-29 4l143 142q3 0 13 -2t14 -2zM221 -406q-16 4 -24 9l145 143q12 -4 23 -8zM168 -385q-8 2 -21 10l146 148q12 -8 20 -13zM123 -354q-4 2 -8 7t-9 7l148 147q4 -6 14 -16zM88 -313q-8 12 -10 20l145 146q4 -10 10 -21z
M201 -92q8 -16 8 -25l-146 -143l-6 22zM190 -31q0 -14 3 -26l-142 -144q-2 10 -2 29zM47 -129v31l139 139v-31zM47 -53v30l139 140v-31zM47 23v30l139 140v-31zM47 96v33l139 139v-32zM47 172v31l139 139v-31zM182 414q4 -8 4 -27l-141 -141l-6 26zM29 305q-4 8 -13 21
l148 145l10 -20zM-4 348q-8 8 -19 12l146 146q6 -2 18 -10zM-53 373q-8 4 -29 4l139 137q16 2 31 0zM-90 412v30l139 140v-31zM-90 487v31l139 139v-30zM115 723l59 59q-16 -43 -59 -59zM186 868q0 -20 -2 -28l-121 -123q-10 0 -16 2v12l139 139v-2zM47 774v31l139 139v-31z
M47 850v31l139 139v-31zM47 926v30l139 140v-31zM47 1001v31l139 139v-30zM49 1077q0 12 4 37l135 135q-2 -10 -2 -35zM412 1217q0 20 2 30l57 60h33l-92 -93v3zM66 1169q12 39 36 68l103 102q-8 -23 -10 -41zM487 -252q-139 0 -207 69t-67 214v334q0 176 -137 176v151
q137 0 137 176v334q0 145 68 214t206 69h41v-154h-49q-49 1 -71 -25t-21 -89v-361q0 -82 -40 -146t-105 -94q66 -31 106 -94t39 -145v-361q0 -63 22 -89t70 -25h49v-154h-41z" />
    <glyph glyph-name="bar" unicode="|" horiz-adv-x="608" 
d="M195 -420l139 139h22l-137 -139h-24zM119 -420l139 139h31l-139 -139h-31zM63 -420v19l140 139v-19h12l-139 -139h-13zM63 -356v30l140 140v-31zM63 -281v31l140 139v-30zM63 -205v31l140 139v-31zM63 -131v33l140 139v-33zM63 -55v30l140 140v-31zM63 20v31l140 139v-30
zM63 96v31l140 139v-30zM63 172v31l140 139v-31zM63 246v30l140 140v-31zM63 322v30l140 140v-31zM63 397v31l140 139v-30zM63 473v31l140 139v-31zM63 547v31l140 139v-31zM63 623v30l140 140v-31zM63 698v31l140 139v-30zM63 774v31l140 139v-31zM63 848v33l140 139v-33z
M63 924v30l140 140v-31zM63 999v31l140 139v-30zM63 1075v31l140 139v-31zM63 1151v31l140 139v-31zM63 1225v30l140 140v-31zM63 1300v21l140 139v-20zM227 -256v1741h156v-1741h-156z" />
    <glyph glyph-name="braceright" unicode="}" horiz-adv-x="581" 
d="M-111 -416l140 140h30l-139 -140h-31zM-35 -414l137 138q23 0 33 2l-135 -136q-25 -4 -35 -4zM59 -395l127 127q14 2 39 10l-90 -90q-29 -29 -76 -47zM-113 -373v31l140 139v-30zM-113 -297v31l140 139v-31zM80 -74l88 88q0 -23 -2 -32l-55 -56h-31zM29 -74v25l139 139
v-31l-133 -133h-6zM29 -6v33l139 139v-33zM29 70v30l139 140v-31zM29 145v31l139 139v-30zM29 221q0 23 2 33l137 137v-31zM45 313q14 39 41 72l100 100l-12 -43zM403 444q18 55 68 68zM135 477l-18 12l147 148q4 -6 17 -14zM94 512l-12 18l145 146q8 -12 15 -17zM199 723
l10 -21l-146 -145q-8 12 -10 21zM41 610l-6 25l143 143l6 -24zM168 842l2 -29l-141 -141v30zM29 748v30l139 140v-31zM29 823v31l139 139v-30zM29 899v31l139 139v-31zM29 973v33l139 139v-33zM29 1053q0 18 -2 24l141 142v-31l-139 -139v4zM20 1116q-4 14 -10 21l148 147
q6 -18 6 -24zM-12 1159l-25 6l141 142q14 0 27 -4zM-111 1167l140 140h30l-139 -140h-31zM-113 1208v31l140 139v-30zM-113 1284v31l140 139v-31zM53 -252v154h51q49 0 70 24q20 25 21 90v361q0 84 39 146q40 62 108 93q-66 29 -106 94t-41 146v361q-1 67 -21 91t-70 23h-51
v154h41q139 0 207 -69t68 -214v-334q0 -176 137 -176v-151q-137 0 -137 -176v-334q0 -145 -68 -214t-207 -69h-41z" />
    <glyph glyph-name="asciitilde" unicode="~" horiz-adv-x="1269" 
d="M721 293l139 139h31l-137 -137q-10 -2 -33 -2zM45 295l137 137h31l-137 -137h-31zM-31 295l137 137h31l-137 -137h-31zM678 295q-6 0 -14 1t-15 1l144 143q16 -4 26 -4zM811 305l131 133q25 4 39 8l-119 -118q-33 -17 -51 -23zM614 305l-24 6l143 146q8 -4 25 -8z
M557 324q-4 0 -11 4t-11 4l145 145q6 0 22 -8zM-51 317q0 23 2 33l135 135v-30zM506 346l-21 10l146 148q12 -8 20 -12zM455 373l-19 12l146 145q4 -2 11 -5t9 -5zM408 401q-8 2 -21 11l148 147l18 -12zM-37 408q10 31 21 51l118 116q-8 -25 -10 -38zM356 424q-4 2 -20 8
l149 150q16 -6 21 -9zM301 442l-27 7l152 151l25 -6zM266 485q4 25 8 39l74 74q18 6 37 6zM893 612l65 70l46 45q-2 -20 -11 -43l-65 -66q-15 -6 -35 -6zM1161 758q1 -131 -73 -216t-202 -85t-278 87t-222 87q-73 0 -110 -51t-36 -121h-129q0 135 73 218q74 83 211 83
q55 0 113 -18t84 -32q25 -14 124 -68t171 -54q71 0 107 49t38 121h129z" />
    <glyph glyph-name="exclamdown" unicode="&#xa1;" horiz-adv-x="569" 
d="M184 -723l140 139h30l-139 -139h-31zM109 -723l139 139h31l-140 -139h-30zM33 -723l139 139h31l-140 -139h-30zM35 -678v31l137 137v-31zM37 -600l2 31l137 137l-2 -31zM39 -522l2 30l137 140l-2 -33zM41 -444l2 32l137 138v-33zM43 -369l2 35l137 137v-34zM45 -291l2 33
l137 137v-31zM49 -213v33l139 137l-2 -31zM51 -133v31l139 139l-2 -33zM53 -55v30l140 140l-3 -33zM55 20v31l140 139v-32zM57 98v31l140 139v-30zM59 176l2 31l138 139v-31zM61 254l2 31l140 139l-2 -31zM63 330l3 32l139 140l-2 -33zM197 -559l32 1126h121l35 -1126h-188z
M289 678q8 0 28 4l-114 -113q-23 -20 -56 -26l136 135h6zM102 543q-16 4 -24 8l145 143l21 -8zM51 567q-6 4 -16 15l145 147l17 -16zM16 610q-6 18 -6 23l144 143l8 -20zM145 821v-8l-137 -139q4 31 21 51l118 121q-2 -8 -2 -25zM289 705q-49 -1 -84 33t-35 83t35 83t84 34
t85 -34t36 -83t-36 -83t-85 -33z" />
    <glyph glyph-name="cent" unicode="&#xa2;" horiz-adv-x="911" 
d="M379 -115l137 138h29l-137 -138h-29zM305 -115l137 138h31l-137 -138h-31zM272 -102v30l138 138v-31zM272 -27v31l138 137v-30zM272 49v25q-2 2 -6 2l144 141v-31zM231 82l-26 6l143 145q10 -4 27 -8zM598 147v31l43 45q26 0 43 13zM172 100q-12 2 -22 9l145 145l22 -10z
M119 123l-19 10l146 146l18 -11zM72 152l-19 12l148 145l16 -12zM29 184q-10 10 -17 15l148 147l16 -16zM-8 221q-4 6 -15 17l148 145l14 -16zM-41 264l-12 19l147 145q2 -6 10 -18zM-68 311l-10 23l146 145q2 -4 10 -22zM-90 367l-6 24l143 144q4 -16 8 -25zM35 596
q0 -17 4 -27l-141 -143l-4 29zM-106 498q0 23 2 34l137 138v-33zM-94 588q2 10 16 47l125 123q-4 -14 -8 -39zM592 670l-19 14l146 145l18 -14zM547 700l-21 13l146 143l12 -6q4 -4 8 -4zM279 745q8 25 26 46l47 49q31 20 68 37l-127 -127q-6 -1 -14 -5zM498 725q-4 2 -23 8
l143 146q10 -6 23 -9zM440 743l-26 7l143 141q6 0 27 -4zM344 754l137 137q10 2 33 2l-141 -139h-29zM356 1069l54 51v-30l-11 -11q-14 -2 -43 -10zM270 1032v17l140 139v-23l-127 -125zM434 49v189q-166 24 -271 140t-105 270t106 272q106 117 270 139v153h135v-151
q162 -18 281 -127l-80 -113q-113 97 -244 97t-213 -79t-82 -190t82 -191t209 -79q127 0 252 102l80 -119q-129 -111 -283 -129v-184h-137z" />
    <glyph glyph-name="sterling" unicode="&#xa3;" horiz-adv-x="980" 
d="M705 -164l139 139h18l-139 -139h-18zM637 -164l139 139h31l-139 -139h-31zM563 -164l139 139h31l-139 -139h-31zM487 -164l140 139h30l-139 -139h-31zM412 -164l139 139h31l-140 -139h-30zM338 -164l139 139h31l-139 -139h-31zM262 -164l139 139h31l-139 -139h-31z
M186 -164l140 139h30l-139 -139h-31zM111 -164l139 139h31l-140 -139h-30zM35 -164l139 139h33l-139 -139h-33zM-39 -164l139 139h31l-139 -139h-31zM-106 -164v8l139 140v-9h22l-139 -139h-22zM-106 -111v31l139 139v-30zM-106 -35v27l139 139v-27zM86 188l68 68
q-25 -52 -68 -68zM39 184q2 10 2 33l137 137q0 -12 -4 -37zM43 264v31l139 139v-31zM43 340v31l139 139v-31zM506 381l139 139h31l-139 -139h-31zM430 381l139 139h31l-139 -139h-31zM408 403v31l86 86h30zM408 479v31l10 10h31zM-23 381l140 139h30l-139 -139h-31zM-90 381
v6l139 139v-6h25l-140 -139h-24zM-90 432v31l139 139v-31zM141 694l41 41v-30l-10 -11h-31zM66 694l116 117v-31l-86 -86h-30zM186 891l-2 -33l-137 -137l6 37zM68 815q4 14 22 55l119 117q-10 -23 -12 -45zM686 840l-12 10l147 147l13 -10zM647 866q-8 4 -20 13l145 145
l21 -10zM436 956q25 57 80 82zM594 891q-3 0 -23 8l146 145q16 -8 22 -8zM535 907l-25 6l141 142q8 0 29 -4zM471 915q-10 2 -31 3l138 137q10 2 32 2zM57 0v156q150 12 150 268v121h-133v125h133v141q0 201 106 311t301 109q195 0 310 -109l-74 -118q-92 78 -234 77
q-236 0 -235 -278v-133h330v-125h-330v-109q0 -186 -84 -280h590v-156h-830z" />
    <glyph glyph-name="currency" unicode="&#xa4;" horiz-adv-x="997" 
d="M-12 10l-15 15l148 147l14 -16zM676 18l-17 15l148 147l16 -14zM383 57l137 138q4 0 16 1t17 1l-133 -134zM305 55l141 142q4 0 14 -1t17 -1l-139 -140h-33zM-49 45l-14 16l145 146l16 -14zM268 59l-26 7l143 143l25 -6zM639 53l-16 17l147 145l14 -14zM485 84l123 123
q8 2 24 7t23 7l-106 -104q-41 -25 -64 -33zM207 76q-16 8 -23 8l144 143q16 -8 22 -8zM-86 82l-16 16l147 148l14 -17zM600 92l-16 14l145 146l16 -14zM154 98l-21 11l146 145q12 -8 20 -10zM-4 242q-8 12 -10 20l145 146l12 -19zM-29 291l-10 22l145 146q0 -4 11 -23z
M-47 346l-6 27l143 143l6 -24zM586 393q4 12 4 21l135 135q-6 -29 -18 -49l-97 -97q-16 -8 -24 -10zM-59 438v4l139 140q4 -8 4 -29l-141 -141q-2 8 -2 26zM592 461q-4 8 -4 26l141 142q2 -8 2 -29zM84 662l-2 -35l-137 -135q4 29 8 38zM578 522l-11 21l146 145q4 -6 8 -22z
M551 571l-12 19l147 147l12 -18zM-23 600q14 29 35 59l-4 3l111 110q-10 -20 -21 -51zM518 612l-14 15l145 147q4 -2 9 -7t8 -7zM477 647l-18 12l145 146l19 -12zM285 686q39 94 135 129l-129 -129h-6zM428 672q-8 4 -25 8l144 143l24 -6zM367 688l-27 2h-2l137 137l25 2h8z
M-12 684l-17 16l146 146l16 -17zM498 350q104 0 181 74t77 178t-77 178t-181 74t-180 -74t-76 -178t76 -178t180 -74zM-51 721l-17 14l148 148l16 -15zM-90 758l-16 16l147 148l16 -17zM104 602q0 121 72 221l-119 115l95 92l118 -115q98 70 230 70t227 -72l121 117l92 -92
l-119 -117q72 -98 72 -219t-72 -219l119 -117l-92 -92l-121 117q-100 -72 -227 -72t-230 70l-118 -115l-95 92l119 115q-72 100 -72 221z" />
    <glyph glyph-name="yen" unicode="&#xa5;" horiz-adv-x="1171" 
d="M487 -164l140 139h26l-139 -139h-27zM551 -25h31l-140 -139h-30zM477 -25h31l-139 -139h-31zM473 47v-31l-139 -139v31zM473 92l-139 -139v31l139 139v-31zM741 14l140 140h18l-139 -140h-19zM702 127l27 27h31l-58 -58v31zM702 20v31l103 103h31zM428 154h31l-140 -140
h-30zM352 154h33l-139 -140h-33zM279 154h30l-139 -140h-31zM221 154h12l-139 -140h-12v19l139 139v-18zM82 78v31l139 139v-31zM176 248h-31l76 76v-31zM473 324h-24l24 24v-24zM899 387l-63 -63h-17l64 63h16zM842 387l-64 -63h-30l63 63h31zM702 324v28l35 35h31l-63 -63
h-3zM373 324l63 63h31l-64 -63h-30zM297 324l63 63h31l-63 -63h-31zM221 387h21l-140 -139h-20v10l139 139v-10zM82 303v31l139 139v-31zM221 549v-31l-12 -10l-10 18zM401 578l11 -19h-29zM307 559l66 66l10 -19l-45 -47h-31zM231 559l113 113l12 -19l-94 -94h-31zM612 715
l-24 -43l-6 12zM170 573l145 148l13 -21l-146 -145zM143 621l146 145l10 -18l-145 -146zM115 668l145 145l12 -18l-147 -146zM86 715l145 147l13 -20l-146 -146zM709 885l-41 -70l-103 -102l41 69zM203 909l12 -20l-145 -146l-13 21zM176 956l12 -20l-147 -145l-10 20z
M147 1004l13 -21l-146 -145l-12 18zM119 1051l12 -21l-145 -145l-13 20zM805 1059l-39 -72l-100 -100l39 69zM92 1098l10 -19l-145 -145l-10 18zM63 1145l11 -19l-146 -145l-10 18zM39 1186l8 -15l-145 -145l-8 14zM924 535v-123h-248v-113h248v-121h-248v-178h-180v178
h-250v121h250v113h-250v123h207l-396 669h199l330 -583l329 583h199l-395 -669h205zM221 324l64 63h30l-63 -63h-31z" />
    <glyph glyph-name="brokenbar" unicode="&#xa6;" horiz-adv-x="608" 
d="M195 -420l139 139h22l-137 -139h-24zM119 -420l139 139h31l-139 -139h-31zM63 -420v19l140 139v-19h10l-139 -139h-11zM63 -356v30l140 140v-31zM63 -283v31l140 139v-30zM63 -207v31l140 139v-31zM63 -131v31l140 139v-31zM63 -55v30l140 140v-31zM63 18v33l140 139v-32
zM63 94v31l140 139v-31zM63 170v31l140 139v-31zM63 246v30l140 140v-31zM227 -256v725h156v-725h-156zM156 596l139 139h31l-140 -139h-30zM80 596l139 139h31l-139 -139h-31zM63 623v30l140 140v-31zM63 696v31l140 139v-30zM63 772v31l140 139v-31zM63 848v31l140 139
v-31zM63 924v30l140 140v-31zM63 997v33l140 139v-32zM63 1073v31l140 139v-31zM63 1149v31l140 139v-31zM63 1225v30l140 140v-31zM63 1300v21l140 139v-20zM227 760v725h156v-725h-156z" />
    <glyph glyph-name="dieresis" unicode="&#xa8;" horiz-adv-x="989" 
d="M506 1430h-6l141 143q20 -4 29 -4l-135 -135q-20 -4 -29 -4zM156 1430h-6l141 143q20 -4 28 -4l-135 -135q-20 -4 -28 -4zM465 1438q-8 4 -21 12l146 145q12 -8 20 -12zM115 1438q-8 4 -21 12l146 145q12 -8 20 -12zM422 1470q-8 12 -12 21l145 145l12 -18zM72 1470
q-8 12 -13 21l146 145l12 -18zM399 1536q0 14 2 20l138 138q0 -6 4 -27l-144 -141v10zM49 1536q0 14 2 20l137 138q0 -6 5 -27l-144 -141v10zM776 1701q0 -44 -30 -76t-75 -32q-44 0 -76 32t-32 76t32 75q32 30 76 30q45 0 75 -30t30 -75zM320 1593q-44 0 -76 32t-31 76
q0 44 32 75q31 30 75 30t75 -30t31 -75q0 -44 -31 -76t-75 -32z" />
    <glyph glyph-name="copyright" unicode="&#xa9;" horiz-adv-x="1482" 
d="M610 -184l138 135q20 0 30 2l-135 -135q-10 -2 -33 -2zM565 -186q-4 0 -14 1t-16 1l139 139q10 -2 28 -2zM696 -176l131 133q12 0 37 4l-131 -129q-12 -4 -37 -8zM494 -180q-4 0 -14 1t-13 1l141 141q8 -4 27 -4zM430 -170l-24 6l143 141l22 -6zM793 -152l125 125
q20 2 43 13l-119 -119q-24 -13 -49 -19zM371 -156q-4 2 -23 9l144 143q6 0 22 -8zM315 -135l-22 10l145 143l21 -10zM934 -86l100 98q6 4 22 12t23 11l-28 -29q-51 -51 -117 -92zM262 -111l-18 11l143 145q8 -4 21 -12zM215 -84l-18 12l145 146l18 -13zM172 -53
q-12 8 -18 14l145 145l18 -14zM129 -18l-16 14l147 145q10 -10 16 -14zM92 18l-16 17l147 145q10 -10 15 -16zM55 59q-8 12 -12 17l145 147q6 -6 15 -18zM592 96l139 140h31l-137 -138q-5 0 -17 -1t-16 -1zM678 106l133 134l37 6l-127 -125q-14 -7 -43 -15zM551 100
q-8 4 -23 9l138 137q16 -4 24 -4zM496 123q-10 4 -21 10l131 131q4 -2 23 -8zM25 102q-2 6 -11 19l146 145l12 -18zM813 168l96 98l17 6l-58 -57q-28 -29 -55 -47zM449 147q-8 4 -21 13l129 129q12 -8 21 -13zM-2 150l-10 20l145 145l10 -20zM401 178l-16 12l127 129
q6 -6 18 -14zM360 211l-16 16l129 127l14 -14zM-27 201q-8 16 -8 22l146 146q4 -12 8 -23zM1104 203q14 29 22 53l115 115q-23 -47 -45 -76zM322 250l-13 16l131 131l13 -18zM90 426l8 -25l-145 -143l-6 23zM289 291l-13 18l136 135l10 -18zM1145 317l6 37l131 131l-12 -41z
M-61 317q0 5 -5 25l144 143q0 -8 4 -24zM260 336l-12 20l143 142q6 -18 8 -23zM-72 383v29l140 141l4 -29zM240 391l-4 29l141 141l6 -26zM1294 573l-4 -32l-133 -135v32zM-74 457l2 30l138 140v-31zM375 606v-2l-139 -139l4 35l137 135q-2 -10 -2 -29zM1157 481l-4 29
l139 139q2 -10 2 -28zM-68 539q4 25 9 36l133 134q-4 -20 -4 -35zM1149 547l-6 26l141 142q4 -20 4 -27zM256 559q10 31 25 55l114 115q-2 -4 -12 -41zM756 606l-19 12l146 146q8 -4 12 -8t6 -4zM1133 608l-7 23l142 143q4 -8 8 -24zM709 635q-18 8 -23 10l145 143
q12 -2 23 -8zM569 659q4 20 9 25l102 104q29 8 43 11l-139 -137zM651 655q-8 4 -26 4l143 142q4 0 13 -1t14 -1zM-45 635l18 51l123 123l-12 -45zM1114 664l-10 22l143 143l10 -22zM1090 715q-8 12 -13 20l146 144l10 -21zM18 774q35 55 86 107l41 41l-22 -43zM1061 760
l-14 20l145 144q8 -12 14 -19zM760 260q-154 0 -258 99q-102 99 -102 247t102 248q104 100 264 100t258 -114l-86 -88q-80 74 -178 74t-160 -62t-61 -158q0 -96 61 -158q62 -62 158 -63q96 0 190 90l84 -96q-118 -119 -272 -119zM1061 836l-14 18l112 111l15 -17zM1026 877
q-6 4 -16 14l110 113l17 -17zM983 911l-18 13l114 112l17 -12zM936 938q-10 6 -21 10l117 119l21 -12zM303 938l82 84q57 41 90 57l-119 -116zM883 961l-25 6l127 125l21 -11zM821 975q-4 0 -13 1t-13 1l135 137q10 -4 22 -8zM424 983l129 129q14 6 43 14l-133 -133
q-16 -2 -39 -10zM752 979q-9 0 -25 8l143 143l25 -6zM690 993q-16 4 -26 4l141 144q18 0 26 -4zM516 1001l137 136q20 4 35 4l-139 -137q-3 0 -15 -2t-18 -1zM625 1001q-10 2 -29 3l139 139h31zM164 606q0 -242 168 -402t410 -159q243 0 410 159q167 160 167 402t-168 402
t-410 160q-241 0 -409 -160t-168 -402zM742 1235q270 0 460 -179q190 -180 190 -450t-189 -450q-190 -180 -461 -179q-271 -1 -460 179t-190 450q0 270 190 450t460 179z" />
    <glyph glyph-name="ordfeminine" unicode="&#xaa;" horiz-adv-x="843" 
d="M573 373l138 137h24l-137 -137h-25zM498 373l137 137h31l-138 -137h-30zM424 373l137 137h31l-137 -137h-31zM348 373l137 137h31l-137 -137h-31zM272 373l138 137h30l-137 -137h-31zM197 373l137 137h31l-138 -137h-30zM123 373l137 137h31l-137 -137h-31zM47 373
l137 137h31l-137 -137h-31zM-29 373l138 137h30l-137 -137h-31zM-47 399v31l139 139v-30zM-47 473v25l139 137v-23zM115 537v125h645v-125h-645zM360 686l64 64q6 0 17 1t16 1l-66 -66h-31zM285 686l69 70q16 -4 27 -4l-66 -66h-30zM586 686l84 84h30l-84 -84h-30zM510 686
l84 84h31l-84 -84h-31zM209 686l86 86q6 0 22 -8l-77 -78h-31zM436 686l80 80q20 6 57 27l-106 -107h-31zM133 686l111 111l20 -13l-98 -98h-33zM72 668l-19 12l148 147q10 -10 16 -14zM160 862l16 -14l-145 -146q-4 2 -9 8t-8 7zM-6 741l-12 19l145 145l12 -18zM-37 786
q-2 8 -10 21l145 145q8 -12 11 -20zM-59 838q-4 16 -9 22l146 146q4 -16 8 -23zM63 1067l5 -27l-142 -141q-4 16 -4 27zM463 938v2l137 137q-2 -16 -14 -45l-84 -84q-12 -6 -39 -10zM61 1141l-2 -27q0 -4 2 -4l-139 -139q0 10 4 35zM463 983l-6 27l143 143q2 -10 2 -31z
M582 1208l8 -22l-144 -144q-2 8 -10 21zM-59 1065q6 20 26 57l113 113l-12 -43zM549 1251l14 -16l-145 -145q-8 12 -15 16zM379 1126q-12 8 -21 11l144 143q8 -2 20 -10zM266 1163q4 18 21 51l63 64q23 14 47 16zM456 1294q10 0 13 -2l-143 -143l-25 6l141 141q4 -2 14 -2z
M429 907q85 1 142 59t57 149t-56 149t-142 59q-86 0 -141 -60q-55 -59 -55 -147t54 -148q56 -60 141 -61zM406 774q-126 0 -224 102t-98 239t98 239t224 102t206 -82v60h150v-639h-150v61q-81 -82 -206 -82z" />
    <glyph glyph-name="guillemotleft" unicode="&#xab;" horiz-adv-x="1046" 
d="M711 -113l100 101h2l45 24l-102 -102zM334 -113l100 101h2l45 24l-102 -102zM645 -133l-12 16l147 150l13 -19zM268 -133l-12 16l147 150l13 -19zM612 -90l-12 18l148 148l12 -19zM238 -90l-15 18l148 148l14 -19zM582 -47l-13 16l148 150l12 -19zM205 -47l-12 18
l147 148l12 -19zM549 -4l-12 18l147 148l14 -19zM174 -4l-14 18l147 148l15 -19zM565 88l-12 18l100 99l13 -17zM141 41l-12 16l147 148l13 -17zM535 133l-13 19l99 98l12 -19zM109 84l-13 18l148 148l12 -19zM506 178l-12 21l94 94l14 -19zM78 127l-12 18l147 148l12 -19z
M477 223l-12 21l92 92l12 -19zM45 170l-12 18l147 148l13 -19zM446 270l-12 19l90 90l15 -17zM14 215l-12 16l145 148l15 -17zM418 315l-12 21l88 88l12 -18zM-18 258l-13 18l148 148l12 -18zM-39 309l82 115l57 57l-12 -18l10 -14zM387 362l-4 9l45 63l55 55l-18 -26
l10 -14zM819 20l-323 443l323 442l103 -53l-252 -389l252 -389zM442 20l-323 443l323 442l103 -53l-252 -389l252 -389z" />
    <glyph glyph-name="registered" unicode="&#xae;" horiz-adv-x="1482" 
d="M614 -186l138 137q20 0 30 2l-135 -135q-12 -4 -33 -4zM569 -186q-20 0 -30 2l139 137q18 0 29 -2zM700 -176l131 133q12 0 37 4l-129 -129l-20 -5q-13 -3 -19 -3zM500 -182l-29 4l141 141l27 -6zM434 -172l-24 6l141 141l24 -6zM803 -150l123 123q29 8 43 15l-117 -117
q-16 -9 -49 -21zM373 -156l-23 6l144 144q12 -2 22 -8zM317 -137l-22 10l145 143l21 -8zM946 -80l94 96l39 19l-28 -29q-42 -43 -105 -86zM266 -113q-10 4 -20 11l143 145l23 -12zM219 -86q-8 4 -20 12l145 146l18 -13zM174 -55l-18 12l145 147q6 -6 18 -14zM131 -20l-16 14
l147 145l14 -14zM92 16l-14 17l147 145q4 -6 15 -16zM59 55q-6 6 -14 19l148 145l12 -18zM27 100l-13 19l148 145l12 -18zM856 131l139 139h31l-139 -139h-31zM782 131l140 139h30l-139 -139h-31zM479 131l139 139h23l-143 -139h-19zM451 145q-12 8 -21 13l115 112h30z
M733 131l-10 16l145 146l13 -19l-144 -143h-4zM403 176l-16 12l115 115v-31zM-2 147l-10 21l145 145q4 -8 12 -20zM705 174l-15 19l148 145l12 -19zM1100 195q14 23 24 53l113 114q-20 -43 -53 -86zM-27 199q-6 18 -8 22l146 144l8 -21zM362 209v31l140 139v-31zM674 219
l-15 19l148 145l12 -18zM-45 252q-4 16 -8 24l145 144l6 -23zM686 305v33l90 90l15 -18zM362 285v30l140 140v-31zM686 381v31l62 61l12 -18zM1143 311l8 39l129 129q-10 -37 -12 -41zM-61 313q0 5 -5 25l144 143q0 -8 4 -24zM686 457v30l25 25h10l8 -12zM362 358v31
l140 139v-30zM-70 379q-4 8 -4 29l142 141l4 -29zM1155 401q2 10 2 31l135 137q0 -23 -2 -34zM362 434v31l140 139v-31zM-74 451q0 23 2 32l138 138v-31zM1157 475l-4 29l139 139q2 -10 2 -31zM362 510v31l140 139v-31zM-68 530l7 39l133 136q0 -12 -4 -37zM1149 543l-6 26
l141 142q4 -20 4 -27zM860 724q0 -9 -4 -22l-20 -20q-21 -8 -39 -8l61 63q2 -4 2 -13zM362 586v30l140 140v-31zM1135 604q-4 16 -9 25l144 141l6 -22zM721 674l98 100q10 -2 23 -10l-90 -90h-31zM688 776h17l-17 -16v16zM688 684v31l62 61h30zM-47 627q6 20 16 47l125 125
l-12 -41zM662 649h129q94 0 94 76q0 37 -25 57t-67 21h-131v-154zM1249 825q0 -6 8 -22l-143 -141l-8 20zM362 659v31l140 139v-30zM1092 711l-13 20l144 146l12 -23zM362 735v19l140 139v-19zM526 295v623h269q90 0 153 -54q64 -54 64 -128q0 -72 -36 -120t-95 -63
l172 -258h-156l-164 244h-71v-244h-136zM1063 758q-6 6 -14 18l145 144q4 -4 12 -17zM12 764q41 63 92 117l41 41q-23 -45 -24 -52zM1028 801l-12 18l143 144q10 -10 15 -17zM999 846q-8 12 -14 18l137 135q6 -4 17 -14zM963 887l-17 12l135 135l17 -12zM918 915l-21 9
l139 139q6 -2 19 -10zM309 942l94 92q39 29 82 51l-118 -120q-27 -9 -58 -23zM862 934l-20 10l145 146q10 -4 21 -11zM811 958q-18 9 -23 9l144 145q16 -8 22 -8zM430 985l129 129l43 12l-133 -133l-20 -5q-13 -3 -19 -3zM754 979l-25 6l145 143l25 -6zM694 993q-6 0 -26 4
l143 142q10 0 27 -4zM520 1001l137 136q20 4 35 4l-139 -137q-3 0 -15 -2t-18 -1zM629 1001q-19 0 -31 3l141 139h29zM164 606q0 -242 168 -402t410 -159q243 0 410 159q167 160 167 402t-168 402t-410 160q-241 0 -409 -160t-168 -402zM742 1235q270 0 460 -179
q190 -180 190 -450t-189 -450q-190 -180 -461 -179q-271 -1 -460 179t-190 450q0 270 190 450t460 179z" />
    <glyph glyph-name="macron" unicode="&#xaf;" horiz-adv-x="989" 
d="M664 1464l137 138h26l-137 -138h-26zM588 1464l137 138h31l-138 -138h-30zM512 1464l137 138h31l-137 -138h-31zM436 1464l137 138h33l-137 -138h-33zM362 1464l138 138h30l-137 -138h-31zM287 1464l137 138h31l-138 -138h-30zM211 1464l137 138h31l-137 -138h-31z
M135 1464l137 138h31l-137 -138h-31zM61 1464l138 138h30l-137 -138h-31zM-14 1464l137 138h31l-138 -138h-30zM-29 1495v31l140 139v-31zM-29 1571v31l140 139v-31zM135 1628v144h719v-144h-719z" />
    <glyph glyph-name="degree" unicode="&#xb0;" horiz-adv-x="761" 
d="M381 854h4l-135 -135q-4 0 -16 -1t-17 -1l139 139q8 -2 25 -2zM176 721q-10 0 -26 4l143 143q1 0 9 -3t15 -3zM305 731l127 127q39 10 45 12l-112 -112q-35 -19 -60 -27zM117 737q-16 4 -23 8l144 144q16 -8 22 -8zM66 762l-19 12l146 146l18 -13zM25 795q-6 3 -17 14
l146 145q4 -6 16 -14zM-12 834l-13 18l146 145l12 -18zM-41 881l-8 22l143 144q2 -8 10 -21zM-61 936q-4 16 -5 27l142 141l6 -25zM-70 1006q0 18 2 28l136 135q0 -18 2 -28l-140 -140v5zM385 1022q0 8 -2 12l143 144v-11q0 -14 -2 -22l-121 -121q-6 -2 -18 -2zM510 1237
q0 -3 8 -23l-145 -145q-2 8 -11 21zM-57 1090q8 25 24 55l115 115q-8 -31 -10 -41zM346 1116l-16 14l145 146q12 -8 17 -14zM303 1149q-12 8 -20 10l145 146q8 -2 21 -11zM233 1171q0 10 3 17l124 125h31l-143 -144q-4 2 -15 2zM381 995q70 -1 121 51t51 122t-51 120
q-51 51 -122 51t-121 -50t-50 -121t51 -122t121 -51zM381 881q-119 0 -204 85q-85 86 -85 204t84 201t204 83t204 -84t84 -203t-84 -203t-203 -83z" />
    <glyph glyph-name="acute" unicode="&#xb4;" horiz-adv-x="989" 
d="M211 1372l139 139h31l-139 -139h-31zM156 1372l14 37l115 113l-4 -11h24l-139 -139h-10zM201 1483l22 53l115 115l-23 -54zM256 1614l23 53l116 117l-22 -53zM319 1536l140 330h243l-292 -330h-91z" />
    <glyph glyph-name="periodcentered" unicode="&#xb7;" horiz-adv-x="571" 
d="M291 324q8 0 28 4l-114 -113q-22 -21 -55 -27l135 136h6zM104 188q-16 4 -24 9l145 143l21 -8zM53 213q-6 4 -16 14l145 148l17 -17zM18 256q-6 18 -6 23l144 143l8 -21zM10 319q4 31 21 52l119 121q-2 -8 -3 -25v-8zM291 350q-49 0 -84 34t-35 83t35 83t84 34t85 -34
t36 -83t-36 -83t-85 -34z" />
    <glyph glyph-name="cedilla" unicode="&#xb8;" horiz-adv-x="989" 
d="M440 -510h31l-135 -137q-6 0 -18 -1t-17 -1zM258 -649q-8 0 -29 4l142 141q20 0 28 -4zM395 -631l127 127q35 8 43 12l-110 -110q-27 -21 -60 -29zM193 -639q-10 0 -27 4l143 143l27 -6zM131 -625q-4 0 -16 4v11l137 137v-2q6 -2 22 -6zM115 -565v30l137 138v-31z
M213 -391v31l39 38v-30zM541 -278q0 -10 -2 -15l-31 -31q-25 -12 -45 -14l74 74q4 -4 4 -14zM416 -340q-18 0 -29 2l105 105q12 -4 22 -9zM348 -332q-6 0 -26 4l104 105q6 0 15 -1t14 -1zM350 -225h31l-94 -92l-23 6l86 88v-2zM213 -317v30l137 137v-30zM459 -94
q109 0 181 -52t71 -136t-75 -144q-74 -59 -166 -59t-191 28v117q77 -25 147 -25t106 26q36 27 35 61q0 34 -46 62t-144 15v101q31 6 82 6z" />
    <glyph glyph-name="ordmasculine" unicode="&#xba;" horiz-adv-x="851" 
d="M563 373l137 137h27l-139 -137h-25zM487 373l138 137h30l-137 -137h-31zM412 373l137 137h31l-138 -137h-30zM336 373l137 137h33l-137 -137h-33zM262 373l137 137h31l-137 -137h-31zM186 373l138 137h30l-137 -137h-31zM111 373l137 137h31l-138 -137h-30zM35 373
l137 137h31l-137 -137h-31zM-39 373l137 137h31l-137 -137h-31zM-66 393v31l140 139v-31zM-66 469v29l140 137v-27zM100 537v125h654v-125h-654zM426 750q10 0 16 2l-63 -66h-31l64 66q4 -2 14 -2zM274 686l72 74l27 -6l-68 -68h-31zM424 686l68 70q18 2 40 10l-77 -80h-31z
M199 686l90 92q4 -2 11 -5t11 -5l-82 -82h-30zM123 686l115 117q12 -8 20 -12l-104 -105h-31zM66 676l-19 12l146 146l18 -13zM156 870l14 -16l-145 -145q-10 10 -15 16zM-10 748l-13 18l146 145q8 -12 12 -16zM-41 795l-10 20l145 146l10 -21zM-63 848l-7 22l144 146
q4 -16 8 -25zM457 938v8l135 133q-8 -29 -14 -43l-89 -88q-9 -6 -32 -10zM-78 907l-2 31l141 141q0 -12 5 -28zM-78 981q0 12 4 37l135 135q-2 -12 -2 -33zM590 1155q0 -17 4 -27l-139 -141l-6 27zM436 1047q-4 10 -10 20l143 141l11 -20zM537 1251l14 -16l-143 -143
q-4 6 -15 16zM-53 1083q14 37 41 72l100 98q-8 -14 -16 -47zM369 1128q-4 2 -11 6t-10 5l144 143l20 -12zM272 1182l4 16q33 74 103 92zM315 1151l-24 6l141 139q16 0 27 -2zM427 907q79 1 136 61t57 147t-56 147q-58 60 -138 61q-80 0 -136 -61q-56 -62 -56 -148t56 -146
q58 -60 137 -61zM426 774q-141 0 -242 100q-100 100 -100 240t100 242q100 100 242 100t242 -100t100 -240t-100 -242q-101 -100 -242 -100z" />
    <glyph glyph-name="guillemotright" unicode="&#xbb;" horiz-adv-x="1052" 
d="M63 -143l-16 8l146 145l16 -8zM446 -143l-20 10l145 145l21 -10zM18 -119l-20 10l145 146l21 -10zM397 -117l-20 11l145 145l21 -10zM-31 -94l-6 4l41 61l90 92l21 -12zM348 -92l-2 2l55 86l72 70l21 -11zM213 301l-12 21l145 143l2 -2l-45 -72zM594 305l-12 19l145 145
l4 -6l-35 -55zM184 348l-12 19l145 145l13 -18zM565 352l-12 19l145 145l11 -18zM156 393l-13 19l146 145l10 -18zM539 401l43 62l-7 8l93 90l12 -18zM125 438l-12 19l145 145l12 -18zM559 496l-14 18l94 92l12 -18zM94 485l-10 19l145 145l11 -18zM526 539l-12 18l94 96
l13 -20zM66 530l-13 19l146 145l12 -18zM494 584l-13 16l99 98l12 -18zM37 575l-12 21l143 145l14 -20zM463 627l-14 18l100 100l12 -20zM6 621l-12 20l145 145l13 -20zM432 670l-14 16l102 102l12 -18zM-23 668l-12 18l146 145l12 -18zM399 713l-12 16l105 105l12 -17z
M610 20l-100 54l252 389l-252 389l100 53l326 -442zM227 20l-100 54l252 389l-252 389l100 53l326 -442z" />
    <glyph glyph-name="onequarter" unicode="&#xbc;" horiz-adv-x="716" 
d="M346 -158l137 138h31l-137 -138h-31zM270 -158l138 138h32l-137 -138h-33zM256 -129v31l139 139v-31zM582 92h32l-32 -39v39zM256 -45h-23l138 137h24v-6l-139 -139v8zM158 -45l137 137h31l-138 -137h-30zM82 -45l137 137h31l-137 -137h-31zM8 -45l137 137h31l-137 -137
h-31zM-68 -45l138 137h30l-137 -137h-31zM-100 -33v31l159 160v-31zM395 250h-69l69 82v-82zM422 225v174l-150 -174h150zM420 6v113h-336v45l440 506h35v-441h78v-110h-78v-113h-139zM586 608v33l30 31h33zM328 532l139 140h25l-43 -49l-91 -91h-30zM252 532l139 140h31
l-139 -140h-31zM176 532l139 140h31l-139 -140h-31zM102 532l140 140h30l-139 -140h-31zM27 532l139 140h31l-140 -140h-30zM-49 532l139 140h31l-139 -140h-31zM-123 532v3l139 137h29l-139 -140h-29zM-123 578v30l139 140v-31zM41 696v80h635v-80h-635zM236 803l40 41v-31
l-10 -10h-30zM160 803l116 117v-31l-86 -86h-30zM137 825v31l139 139v-30zM137 899v31l139 139v-31zM137 975v31l139 139v-31zM137 1051v30l139 140v-31zM137 1126v31l139 139v-30zM78 1174l137 137l35 2l-137 -137zM23 1167v25l139 139v-26l-133 -136zM23 1237v31l139 139
v-31zM303 821v520l-115 -10v121l267 21v-652h-152z" />
    <glyph glyph-name="onehalf" unicode="&#xbd;" horiz-adv-x="716" 
d="M395 -150l137 138h31l-137 -138h-31zM319 -150l138 138h30l-137 -138h-31zM244 -150l137 138h33l-138 -138h-32zM170 -150l137 138h31l-137 -138h-31zM94 -150l137 138h31l-137 -138h-31zM18 -150l138 138h30l-137 -138h-31zM-49 -150v9l137 137v-8h23l-138 -138h-22z
M55 305l-22 10l145 144l21 -8zM2 328l-22 10l145 143l20 -8zM428 472q0 -7 -4 -23l-135 -134q0 12 -6 23l143 145q2 -4 2 -11zM-53 352q14 37 35 62l102 104l-6 -16l14 -6l-143 -144h-2zM264 365q-6 6 -18 14l145 145q12 -6 19 -12zM350 532h4l-141 -141q-8 2 -29 2l135 135
q20 4 31 4zM582 604l-17 17l51 51h33zM543 641l-19 12l19 19h30zM27 532l139 140h31l-140 -140h-30zM-49 532l139 140h31l-139 -140h-31zM-123 532v3l139 137h29l-139 -140h-29zM115 14v9l194 235q121 141 132 169q11 29 11 54t-27 51q-28 26 -75 25q-78 0 -131 -88l-108 47
q63 160 245 160q113 0 179 -64q65 -64 65 -149q0 -86 -133 -240l-78 -90h217v-119h-491zM-123 578v30l139 140v-31zM41 696v80h635v-80h-635zM236 803l40 41v-31l-10 -10h-30zM160 803l116 117v-31l-86 -86h-30zM137 825v31l139 139v-30zM137 899v31l139 139v-31zM137 975
v31l139 139v-31zM137 1051v30l139 140v-31zM137 1126v31l139 139v-30zM78 1174l137 137l35 2l-137 -137zM23 1167v25l139 139v-26l-133 -136zM23 1237v31l139 139v-31zM301 821v520l-115 -10v121l267 21v-652h-152z" />
    <glyph glyph-name="threequarters" unicode="&#xbe;" horiz-adv-x="716" 
d="M346 -158l137 138h31l-137 -138h-31zM270 -158l138 138h32l-137 -138h-33zM256 -129v31l139 139v-31zM582 92h32l-32 -39v39zM256 -45h-23l138 137h24v-6l-139 -139v8zM158 -45l137 137h31l-138 -137h-30zM82 -45l137 137h31l-137 -137h-31zM8 -45l137 137h31l-137 -137
h-31zM-68 -45l138 137h30l-137 -137h-31zM-100 -33v31l159 160v-31zM395 250h-69l69 82v-82zM422 225v174l-150 -174h150zM420 6v113h-336v45l440 506h35v-441h78v-110h-78v-113h-139zM586 608v33l30 31h33zM328 532l139 140h25l-46 -51l-88 -89h-30zM252 532l139 140h31
l-139 -140h-31zM176 532l139 140h31l-139 -140h-31zM102 532l140 140h30l-139 -140h-31zM27 532l139 140h31l-140 -140h-30zM-49 532l139 140h31l-139 -140h-31zM-123 532v3l139 137h29l-139 -140h-29zM-123 578v30l139 140v-31zM41 696v80h635v-80h-635zM172 803l12 12
l23 -10l-2 -2h-33zM98 803l35 35q18 -9 21 -11l-25 -24h-31zM23 803l65 67q6 -6 18 -14l-53 -53h-30zM403 956l50 50q-11 -36 -50 -50zM344 946q-4 0 -12 1t-13 1l117 119q10 -10 13 -20l-101 -101h-4zM281 954q-5 2 -13 5t-10 4l131 133l23 -11zM225 977q-6 2 -18 10
l110 111q8 2 33 2zM182 1006q-10 10 -14 16l84 84l18 -12zM78 979l59 88l70 70l18 -13zM176 1182l139 139h17l-31 -45l-94 -94h-31zM100 1182l140 139h30l-139 -139h-31zM27 1182l139 139h31l-140 -139h-30zM-14 1186v31l139 139v-31zM-14 1262v30l139 140v-31zM374 807
q-98 0 -170 27t-112 65l78 86q66 -66 174 -65q57 0 96 28t39 71q0 44 -37 75q-37 30 -84 30t-73 -10l-43 29l137 203h-229v120h452v-8l-164 -239q82 -17 134 -71t52 -137t-75 -143q-77 -60 -175 -61z" />
    <glyph glyph-name="questiondown" unicode="&#xbf;" horiz-adv-x="1007" 
d="M416 -705h-31l139 140h31zM465 -700l135 135l35 4l-135 -135q-25 -4 -35 -4zM331 -700q-9 0 -14 2l142 141q4 0 13 -2t13 -2l-141 -141q-4 2 -13 2zM557 -684l131 131l39 8l-125 -125l-21 -7q-16 -5 -24 -7zM279 -692l-25 6l143 143l25 -6zM219 -676q-4 0 -11 4t-11 4
l143 144q16 -4 22 -8zM166 -653q-8 2 -21 10l146 145l18 -12zM686 -631l111 111q47 20 57 26l-72 -71q-53 -43 -96 -66zM117 -629l-19 13l148 147q10 -10 16 -12zM74 -596q-4 2 -9 7t-8 7l146 146q12 -8 16 -15zM35 -559q-4 9 -15 16l146 146q10 -10 14 -17zM0 -516
q-8 8 -10 18l145 146l12 -19zM-27 -471q-8 10 -10 22l143 144l13 -21zM-49 -418q-4 10 -8 23l143 143q4 -6 8 -22zM-66 -358q-4 16 -4 26l142 142l6 -25zM-74 -291v31l140 139l2 -29zM-70 -211q4 25 9 39l133 133q-4 -25 -4 -35zM-39 -106q25 55 76 106l63 63
q-14 -37 -16 -47zM342 4l125 125q27 10 47 16l-129 -129zM456 29q-12 0 -18 -2l133 133q16 4 41 8l-137 -137q-7 -2 -19 -2zM424 313l65 66l-2 -33l-20 -20zM356 289l2 33l136 135l-2 -33zM362 371l3 32l135 136l-2 -33zM573 -541q-215 0 -348 121t-133 300q0 178 112 284
t304 145l18 258h123l27 -368q-196 -13 -304 -95t-108 -211t88 -203t239 -75q151 0 281 125l93 -127q-177 -154 -392 -154zM586 678q8 0 28 4l-114 -113q-23 -20 -56 -26l136 135h6zM399 543q-16 4 -24 8l145 143l21 -8zM348 567q-6 4 -16 15l145 147l17 -16zM313 610
q-6 18 -6 23l144 143l8 -20zM442 821v-8l-137 -139q4 31 21 51l118 121q-2 -8 -2 -25zM586 705q-49 -1 -84 33t-35 83t35 83t84 34t85 -34t36 -83t-36 -83t-85 -33z" />
    <glyph glyph-name="Agrave" unicode="&#xc0;" horiz-adv-x="1355" 
d="M1141 -164l139 139h29l-138 -139h-30zM1065 -164l139 139h31l-139 -139h-31zM989 -164l139 139h31l-139 -139h-31zM10 -164l140 139h30l-139 -139h-31zM-66 -164l140 139h30l-139 -139h-31zM-141 -164l139 139h33l-140 -139h-32zM971 -137l-10 22l145 144l10 -21z
M-152 -131l25 55l154 154l-25 -55zM948 -86l-8 25l143 145l11 -25zM928 -31l-10 21l145 145l8 -20zM905 23l-10 22l145 143l11 -20zM-92 4l24 55l154 154l-25 -55zM883 76l-9 22l144 146l10 -23zM825 125l140 139h30l-139 -139h-31zM752 125l139 139h31l-140 -139h-30z
M676 125l139 139h31l-139 -139h-31zM600 125l139 139h31l-139 -139h-31zM524 125l140 139h30l-139 -139h-31zM451 125l139 139h31l-140 -139h-30zM375 125l139 139h31l-139 -139h-31zM309 180l21 53l32 31h31zM299 125l139 139h31l-139 -139h-31zM-33 139l25 56l153 153
l-24 -55zM27 274l24 56l154 153l-25 -55zM862 463l47 47l9 -23l-25 -24h-31zM788 463l99 98l10 -20l-78 -78h-31zM723 463l-2 8l143 145l10 -22l-131 -131h-20zM84 408l25 53l155 155l-24 -55zM707 502l-9 22l146 146l8 -23zM684 555l-8 23l145 145l8 -23zM143 543l25 53
l156 156l-25 -56zM664 608l-11 23l146 145l10 -22zM641 662l-8 22l143 145l10 -22zM618 715l-8 22l146 146l8 -23zM205 678l22 55l156 154l-25 -56zM596 768l-8 23l145 145l8 -23zM578 825l20 54l113 110l8 -20zM264 813l25 55l153 154l-24 -55zM629 950l20 54l41 38l8 -22z
M389 438h576l-287 697zM322 944l24 55l154 154l-23 -53zM381 1079l25 56l153 155l-22 -55zM440 1214l25 56l156 155l-25 -55zM20 0l650 1475h16l649 -1475h-188l-119 289h-700l-119 -289h-189zM467 1370l-8 10l147 148l15 -17l-140 -141h-14zM438 1405l-14 16l147 146
l15 -17zM403 1444l-14 16l146 148l14 -17zM369 1483l-15 16l146 148l14 -17zM332 1524l-15 16l148 146l14 -17zM297 1565l-14 16l145 145l14 -16zM262 1604l-14 16l145 145l15 -14zM227 1642l-14 17l145 147l15 -16zM193 1683l-15 17l146 145l14 -16zM631 1534l-291 330h242
l141 -330h-92z" />
    <glyph glyph-name="Aacute" unicode="&#xc1;" horiz-adv-x="1355" 
d="M1141 -164l139 139h29l-138 -139h-30zM1065 -164l139 139h31l-139 -139h-31zM989 -164l139 139h31l-139 -139h-31zM10 -164l140 139h30l-139 -139h-31zM-66 -164l140 139h30l-139 -139h-31zM-141 -164l139 139h33l-140 -139h-32zM971 -137l-10 22l145 144l10 -21z
M-152 -131l25 55l154 154l-25 -55zM948 -86l-8 25l143 145l11 -25zM928 -31l-10 21l145 145l8 -20zM905 23l-10 22l145 143l11 -20zM-92 4l24 55l154 154l-25 -55zM883 76l-9 22l144 146l10 -23zM825 125l140 139h30l-139 -139h-31zM752 125l139 139h31l-140 -139h-30z
M676 125l139 139h31l-139 -139h-31zM600 125l139 139h31l-139 -139h-31zM524 125l140 139h30l-139 -139h-31zM451 125l139 139h31l-140 -139h-30zM375 125l139 139h31l-139 -139h-31zM309 180l21 53l32 31h31zM299 125l139 139h31l-139 -139h-31zM-33 139l25 56l153 153
l-24 -55zM27 274l24 56l154 153l-25 -55zM862 463l47 47l9 -23l-25 -24h-31zM788 463l99 98l10 -20l-78 -78h-31zM723 463l-2 8l143 145l10 -22l-131 -131h-20zM84 408l25 53l155 155l-24 -55zM707 502l-9 22l146 146l8 -23zM684 555l-8 23l145 145l8 -23zM143 543l25 53
l156 156l-25 -56zM664 608l-11 23l146 145l10 -22zM641 662l-8 22l143 145l10 -22zM618 715l-8 22l146 146l8 -23zM205 678l22 55l156 154l-25 -56zM596 768l-8 23l145 145l8 -23zM578 825l20 54l113 110l8 -20zM264 813l25 55l153 154l-24 -55zM629 950l20 54l41 38l8 -22z
M389 438h576l-287 697zM322 944l24 55l154 154l-23 -53zM381 1079l25 56l153 155l-22 -55zM440 1214l25 56l156 155l-25 -55zM20 0l650 1475h16l649 -1475h-188l-119 289h-700l-119 -289h-189zM469 1370l14 37l115 113l-4 -11h24l-139 -139h-10zM514 1481l23 53l114 115
l-22 -54zM569 1612l23 53l117 117l-23 -53zM633 1534l139 330h244l-293 -330h-90z" />
    <glyph glyph-name="Acircumflex" unicode="&#xc2;" horiz-adv-x="1355" 
d="M1141 -164l139 139h29l-138 -139h-30zM1065 -164l139 139h31l-139 -139h-31zM989 -164l139 139h31l-139 -139h-31zM10 -164l140 139h30l-139 -139h-31zM-66 -164l140 139h30l-139 -139h-31zM-141 -164l139 139h33l-140 -139h-32zM971 -137l-10 22l145 144l10 -21z
M-152 -131l25 55l154 154l-25 -55zM948 -86l-8 25l143 145l11 -25zM928 -31l-10 21l145 145l8 -20zM905 23l-10 22l145 143l11 -20zM-92 4l24 55l154 154l-25 -55zM883 76l-9 22l144 146l10 -23zM825 125l140 139h30l-139 -139h-31zM752 125l139 139h31l-140 -139h-30z
M676 125l139 139h31l-139 -139h-31zM600 125l139 139h31l-139 -139h-31zM524 125l140 139h30l-139 -139h-31zM451 125l139 139h31l-140 -139h-30zM375 125l139 139h31l-139 -139h-31zM309 180l21 53l32 31h31zM299 125l139 139h31l-139 -139h-31zM-33 139l25 56l153 153
l-24 -55zM27 274l24 56l154 153l-25 -55zM862 463l47 47l9 -23l-25 -24h-31zM788 463l99 98l10 -20l-78 -78h-31zM723 463l-2 8l143 145l10 -22l-131 -131h-20zM84 408l25 53l155 155l-24 -55zM707 502l-9 22l146 146l8 -23zM684 555l-8 23l145 145l8 -23zM143 543l25 53
l156 156l-25 -56zM664 608l-11 23l146 145l10 -22zM641 662l-8 22l143 145l10 -22zM618 715l-8 22l146 146l8 -23zM205 678l22 55l156 154l-25 -56zM596 768l-8 23l145 145l8 -23zM578 825l20 54l113 110l8 -20zM264 813l25 55l153 154l-24 -55zM629 950l20 54l41 38l8 -22z
M389 438h576l-287 697zM322 944l24 55l154 154l-23 -53zM381 1079l25 56l153 155l-22 -55zM440 1214l25 56l156 155l-25 -55zM20 0l650 1475h16l649 -1475h-188l-119 289h-700l-119 -289h-189zM809 1368l137 137h31l-137 -137h-31zM754 1389l116 116h33l-137 -137h-4z
M283 1368l137 137h31l-138 -137h-30zM207 1368l137 137h31l-137 -137h-31zM731 1438l96 98l17 -16l-105 -103zM707 1491l81 82l17 -14l-88 -89zM621 1450l-17 14l146 146l16 -15l-96 -96h-17l-12 -29zM582 1487l-17 14l146 146l16 -15zM545 1522l-15 14l150 141l8 -10z
M352 1532l316 362h18l315 -362h-133l-190 180l-193 -180h-133z" />
    <glyph glyph-name="Atilde" unicode="&#xc3;" horiz-adv-x="1355" 
d="M1141 -164l139 139h29l-138 -139h-30zM1065 -164l139 139h31l-139 -139h-31zM989 -164l139 139h31l-139 -139h-31zM10 -164l140 139h30l-139 -139h-31zM-66 -164l140 139h30l-139 -139h-31zM-141 -164l139 139h33l-140 -139h-32zM971 -137l-10 22l145 144l10 -21z
M-152 -131l25 55l154 154l-25 -55zM948 -86l-8 25l143 145l11 -25zM928 -31l-10 21l145 145l8 -20zM905 23l-10 22l145 143l11 -20zM-92 4l24 55l154 154l-25 -55zM883 76l-9 22l144 146l10 -23zM825 125l140 139h30l-139 -139h-31zM752 125l139 139h31l-140 -139h-30z
M676 125l139 139h31l-139 -139h-31zM600 125l139 139h31l-139 -139h-31zM524 125l140 139h30l-139 -139h-31zM451 125l139 139h31l-140 -139h-30zM375 125l139 139h31l-139 -139h-31zM309 180l21 53l32 31h31zM299 125l139 139h31l-139 -139h-31zM-33 139l25 56l153 153
l-24 -55zM27 274l24 56l154 153l-25 -55zM862 463l47 47l9 -23l-25 -24h-31zM788 463l99 98l10 -20l-78 -78h-31zM723 463l-2 8l143 145l10 -22l-131 -131h-20zM84 408l25 53l155 155l-24 -55zM707 502l-9 22l146 146l8 -23zM684 555l-8 23l145 145l8 -23zM143 543l25 53
l156 156l-25 -56zM664 608l-11 23l146 145l10 -22zM641 662l-8 22l143 145l10 -22zM618 715l-8 22l146 146l8 -23zM205 678l22 55l156 154l-25 -56zM596 768l-8 23l145 145l8 -23zM578 825l20 54l113 110l8 -20zM264 813l25 55l153 154l-24 -55zM629 950l20 54l41 38l8 -22z
M389 438h576l-287 697zM322 944l24 55l154 154l-23 -53zM381 1079l25 56l153 155l-22 -55zM440 1214l25 56l156 155l-25 -55zM20 0l650 1475h16l649 -1475h-188l-119 289h-700l-119 -289h-189zM735 1432l-10 20l80 80q6 0 14 -1t15 -1zM211 1391l141 141h31l-141 -141h-31z
M135 1391l141 141h31l-141 -141h-31zM752 1403l129 129q24 8 34 8l-94 -94q-30 -31 -69 -43zM713 1483l-8 16h-9l49 49q6 -4 23 -8zM569 1417q-8 2 -20 10l145 146l19 -12zM522 1444q-8 4 -20 12l145 146l19 -13zM135 1434l2 32l137 138q-2 -10 -2 -33zM477 1475l-8 6l-10 6
l145 145l12 -8l7 -4zM438 1532v10l121 121l19 -12l-146 -146q-10 6 -20 11l16 16h10zM492 1673l24 2h10l-88 -86q2 14 11 39zM152 1526q8 31 24 55l115 115q-8 -31 -10 -41zM840 1718l73 74q-17 -78 -73 -74zM297 1554q0 125 52 206t153.5 81t218.5 -90q80 -57 117 -57
q104 0 104 149h117q0 -127 -53.5 -208t-153.5 -81t-221 91q-78 55 -115 55q-104 0 -104 -146h-115z" />
    <glyph glyph-name="Adieresis" unicode="&#xc4;" horiz-adv-x="1355" 
d="M1141 -164l139 139h29l-138 -139h-30zM1065 -164l139 139h31l-139 -139h-31zM989 -164l139 139h31l-139 -139h-31zM10 -164l140 139h30l-139 -139h-31zM-66 -164l140 139h30l-139 -139h-31zM-141 -164l139 139h33l-140 -139h-32zM971 -137l-10 22l145 144l10 -21z
M-152 -131l25 55l154 154l-25 -55zM948 -86l-8 25l143 145l11 -25zM928 -31l-10 21l145 145l8 -20zM905 23l-10 22l145 143l11 -20zM-92 4l24 55l154 154l-25 -55zM883 76l-9 22l144 146l10 -23zM825 125l140 139h30l-139 -139h-31zM752 125l139 139h31l-140 -139h-30z
M676 125l139 139h31l-139 -139h-31zM600 125l139 139h31l-139 -139h-31zM524 125l140 139h30l-139 -139h-31zM451 125l139 139h31l-140 -139h-30zM375 125l139 139h31l-139 -139h-31zM309 180l21 53l32 31h31zM299 125l139 139h31l-139 -139h-31zM-33 139l25 56l153 153
l-24 -55zM27 274l24 56l154 153l-25 -55zM862 463l47 47l9 -23l-25 -24h-31zM788 463l99 98l10 -20l-78 -78h-31zM723 463l-2 8l143 145l10 -22l-131 -131h-20zM84 408l25 53l155 155l-24 -55zM707 502l-9 22l146 146l8 -23zM684 555l-8 23l145 145l8 -23zM143 543l25 53
l156 156l-25 -56zM664 608l-11 23l146 145l10 -22zM641 662l-8 22l143 145l10 -22zM618 715l-8 22l146 146l8 -23zM205 678l22 55l156 154l-25 -56zM596 768l-8 23l145 145l8 -23zM578 825l20 54l113 110l8 -20zM264 813l25 55l153 154l-24 -55zM629 950l20 54l41 38l8 -22z
M389 438h576l-287 697zM322 944l24 55l154 154l-23 -53zM381 1079l25 56l153 155l-22 -55zM440 1214l25 56l156 155l-25 -55zM20 0l650 1475h16l649 -1475h-188l-119 289h-700l-119 -289h-189zM729 1442l-10 20l106 109q20 -4 29 -4zM334 1427l141 144q20 -4 29 -4
l-135 -135q-20 -4 -29 -5h-6zM707 1493l-2 6h-25l94 94q12 -8 21 -12zM299 1436q-8 4 -20 12l145 145q12 -8 20 -12zM606 1468q-8 12 -12 21l145 145l13 -18zM256 1468q-8 12 -12 21l145 145l12 -18zM584 1534q0 14 2 20l137 138q0 -6 4 -27l-143 -141v10zM233 1534
q0 14 3 20l137 138q0 -6 4 -27l-144 -141v10zM855 1591q-44 0 -75.5 32t-31.5 76t31.5 74.5t75.5 30.5t75 -30.5t31 -74.5t-31 -76t-75 -32zM505 1591q-44 0 -76 32t-32 76t32 74.5t76 30.5t74.5 -30.5t30.5 -74.5t-30.5 -76t-74.5 -32z" />
    <glyph glyph-name="Aring" unicode="&#xc5;" horiz-adv-x="1355" 
d="M1141 -164l139 139h29l-138 -139h-30zM1065 -164l139 139h31l-139 -139h-31zM989 -164l139 139h31l-139 -139h-31zM10 -164l140 139h30l-139 -139h-31zM-66 -164l140 139h30l-139 -139h-31zM-141 -164l139 139h33l-140 -139h-32zM971 -137l-10 22l145 144l10 -21z
M-152 -131l25 55l154 154l-25 -55zM948 -86l-8 25l143 145l11 -25zM928 -31l-10 21l145 145l8 -20zM905 23l-10 22l145 143l11 -20zM-92 4l24 55l154 154l-25 -55zM883 76l-9 22l144 146l10 -23zM825 125l140 139h30l-139 -139h-31zM752 125l139 139h31l-140 -139h-30z
M676 125l139 139h31l-139 -139h-31zM600 125l139 139h31l-139 -139h-31zM524 125l140 139h30l-139 -139h-31zM451 125l139 139h31l-140 -139h-30zM375 125l139 139h31l-139 -139h-31zM309 180l21 53l32 31h31zM299 125l139 139h31l-139 -139h-31zM-33 139l25 56l153 153
l-24 -55zM27 274l24 56l154 153l-25 -55zM862 463l47 47l9 -23l-25 -24h-31zM788 463l99 98l10 -20l-78 -78h-31zM723 463l-2 8l143 145l10 -22l-131 -131h-20zM84 408l25 53l155 155l-24 -55zM707 502l-9 22l146 146l8 -23zM684 555l-8 23l145 145l8 -23zM143 543l25 53
l156 156l-25 -56zM664 608l-11 23l146 145l10 -22zM641 662l-8 22l143 145l10 -22zM618 715l-8 22l146 146l8 -23zM205 678l22 55l156 154l-25 -56zM596 768l-8 23l145 145l8 -23zM578 825l20 54l113 110l8 -20zM264 813l25 55l153 154l-24 -55zM629 950l20 54l41 38l8 -22z
M389 438h576l-287 697zM322 944l24 55l154 154l-23 -53zM381 1079l25 56l153 155l-22 -55zM440 1214l25 56l156 155l-25 -55zM20 0l650 1475h16l649 -1475h-188l-119 289h-700l-119 -289h-189zM492 1350q-10 0 -27 4l143 143q2 0 10 -3t15 -3zM432 1366l-18 10l145 146
q12 -8 19 -11zM518 1559l14 -17l-145 -145q-6 4 -14 16zM354 1438l-12 18l145 146l13 -19zM332 1491l-6 25l143 143l6 -25zM678 1622q-12 0 -19 2l93 92q2 -6 2 -16t-2 -14l-62 -64h-12zM328 1563q2 18 10 41l129 129q-2 -10 -2 -33zM631 1640l-15 15l105 106q12 -8 16 -14z
M602 1702q0 10 2 16l55 56q6 2 16.5 2t16.5 -2l-88 -88q-2 6 -2 16zM678 1597q41 0 71.5 30t30.5 72t-30.5 71.5t-71.5 29.5t-70.5 -29.5t-29.5 -71.5t29.5 -72t70.5 -30zM679 1511q-79 0 -134.5 55.5t-55.5 132.5t55.5 132t134.5 55t135 -55t56 -132t-56 -132.5t-135 -55.5
z" />
    <glyph glyph-name="AE" unicode="&#xc6;" horiz-adv-x="1982" 
d="M1694 -164l139 139h31l-140 -139h-30zM1620 -164l139 139h31l-139 -139h-31zM1544 -164l139 139h31l-139 -139h-31zM1468 -164l140 139h30l-139 -139h-31zM1393 -164l139 139h31l-140 -139h-30zM1319 -164l139 139h31l-139 -139h-31zM1243 -164l139 139h31l-139 -139h-31
zM1167 -164l140 139h30l-139 -139h-31zM1092 -164l139 139h31l-140 -139h-30zM1016 -164l139 139h33l-139 -139h-33zM942 -164l139 139h31l-139 -139h-31zM866 -164l140 139h30l-139 -139h-31zM37 -164l139 139h25l-140 -139h-24zM-37 -164l139 139h31l-139 -139h-31z
M-113 -164l140 139h30l-139 -139h-31zM805 -164v14l137 138v-13h19l-140 -139h-16zM-117 -123l60 90l73 74l-43 -66h9zM805 -104v30l137 137v-30zM805 -31v31l137 137v-31zM805 45v31l137 137v-31zM29 98l59 90l74 74l-60 -90zM805 129h-23l140 139h20v-10l-137 -137v8z
M707 129l139 139h31l-140 -139h-30zM633 129l139 139h31l-139 -139h-31zM557 129l139 139h31l-139 -139h-31zM481 129l140 139h30l-139 -139h-31zM406 129l139 139h30l-139 -139h-30zM340 129l18 29l111 110h33l-140 -139h-22zM170 313l59 90l74 74l-59 -90zM897 469l45 45
v-31l-14 -14h-31zM1571 444l139 140h31l-139 -140h-31zM1495 444l139 140h31l-139 -140h-31zM1419 444l140 140h30l-139 -140h-31zM1343 444l140 140h30l-139 -140h-31zM1270 444l139 140h31l-140 -140h-30zM1194 444l139 140h31l-139 -140h-31zM1171 543v30l11 11h30z
M1171 467v31l86 86h31zM821 469l121 121v-31l-90 -90h-31zM803 496v30l139 140v-31zM315 535l60 90l74 73l-60 -90zM803 569v33l139 139v-32zM803 645v31l139 139v-31zM803 721v31l139 139v-31zM461 756l59 88l74 76l-59 -91zM803 797v30l139 140v-31zM848 918l55 86l39 38
v-30zM606 977l60 88l73 76l-57 -90zM967 442v705l-455 -705h455zM1688 1110l137 137h24l-139 -137h-22zM1614 1110l137 137h31l-137 -137h-31zM1538 1110l137 137h31l-137 -137h-31zM1462 1110l137 137h31l-137 -137h-31zM1386 1110l138 137h30l-137 -137h-31zM1311 1110
l137 137h33l-138 -137h-32zM1237 1110l137 137h31l-137 -137h-31zM1171 1165v31l52 51h30zM1171 1110v10l127 127h31l-137 -137h-21zM748 1192l51 78l75 76l-51 -78zM1874 1434v-160h-727v-506h645v-160h-645v-448h747v-160h-927v293h-553l-189 -293h-205l943 1434h911z" />
    <glyph glyph-name="Ccedilla" unicode="&#xc7;" horiz-adv-x="1411" 
d="M799 -510h30l-135 -137q-6 0 -18 -1t-17 -1zM616 -649q-8 0 -28 4l141 141q19 0 29 -4zM754 -631l127 127q35 8 43 12l-111 -110q-26 -21 -59 -29zM551 -639q-10 0 -27 4l144 143l26 -6zM489 -625q-4 0 -16 4v11l137 137v-2q6 -2 23 -6zM473 -565v30l137 138v-31z
M571 -391v31l39 38v-30zM899 -278q0 -10 -2 -15l-31 -31q-25 -12 -45 -14l74 74q4 -4 4 -14zM774 -340q-18 0 -29 2l105 105q12 -4 22 -9zM707 -332q-6 0 -27 4l104 105q6 0 16 -1t13 -1zM709 -225h30l-94 -92l-22 6l86 88v-2zM571 -317v30l138 137v-30zM817 -94
q109 0 181 -52t71 -136t-75 -144q-74 -59 -166 -59t-191 28v117q77 -25 147 -25t106 26q36 27 36 61t-46 62t-145 15v101q31 6 82 6zM629 -195q-7 0 -17 1t-14 1l111 111v-31zM801 -68l12 13h31l-13 -13h-30zM711 -80l28 29q10 -2 29 -2l-18 -19q-25 -4 -39 -8zM899 -76
l-27 4l21 21q10 0 35 4zM557 -188q-4 0 -13 1t-14 1l144 143q8 -4 26 -4zM482 -176q-8 0 -13 2l143 143q16 -4 25 -4l-143 -143q-4 2 -12 2zM956 -94l-24 10l47 47q23 2 45 12zM434 -164q-16 8 -24 8l145 144q12 -4 23 -8zM377 -143l-21 8l144 145l22 -10zM985 -109l107 107
q47 20 57 27l-86 -84q-41 -32 -78 -50zM326 -121l-21 10l146 146l18 -10zM276 -94q-6 2 -18 10l145 145l19 -10zM231 -66l-18 13l145 147l19 -14zM188 -33q-6 4 -16 15l145 145q6 -4 17 -14zM147 4l-14 14l146 146q4 -2 8 -7t8 -7zM113 41l-17 18l148 146l14 -19zM78 82
l-12 18l145 146q8 -12 12 -17zM47 127l-12 18l145 148q4 -8 13 -21zM18 174l-10 21l146 145l10 -21zM129 391l10 -20l-145 -146l-10 23zM109 446q8 -16 8 -22l-144 -145q-6 10 -8 22zM-45 336l-6 24l143 144l6 -25zM-59 397q-4 16 -4 27l141 143l6 -26zM70 633l2 -27
l-142 -141l-2 27zM-74 532v31l140 139q0 -18 2 -28zM68 782l-2 -32l-138 -140l2 35zM-61 696l6 39l133 133q-4 -25 -4 -37zM-39 797l19 47l122 123l-12 -41zM16 924q20 41 60 94l78 76q-10 -18 -27 -60zM1051 979l-19 16l148 148l18 -17zM1008 1014q-4 4 -17 12l146 148
l18 -13zM963 1044q-12 8 -19 11l146 147q8 -4 20 -12zM915 1071l-20 10l145 146q10 -4 21 -10zM862 1096l-20 8l143 145q4 -2 23 -8zM473 1110l117 117q16 10 53 22l-127 -125q-29 -8 -43 -14zM809 1114l-25 6l144 144q12 0 24 -7zM569 1135l133 133l37 6l-135 -137
q-6 0 -18 -1t-17 -1zM748 1128q-16 4 -27 5l141 143l29 -4zM788 1278h33l-141 -141q-10 2 -29 2zM807 -31q-301 0 -508 212t-207 536q0 323 207 535t509 212t507 -204l-90 -125q-187 168 -415 168t-383 -165t-155 -421t155 -421t389 -165t435 203l90 -135
q-233 -230 -534 -230z" />
    <glyph glyph-name="Egrave" unicode="&#xc8;" horiz-adv-x="1161" 
d="M883 -164l139 139h27l-140 -139h-26zM809 -164l139 139h31l-139 -139h-31zM733 -164l139 139h31l-139 -139h-31zM657 -164l140 139h30l-139 -139h-31zM582 -164l139 139h31l-140 -139h-30zM508 -164l139 139h31l-139 -139h-31zM432 -164l139 139h31l-139 -139h-31z
M356 -164l140 139h30l-139 -139h-31zM281 -164l139 139h31l-140 -139h-30zM207 -164l139 139h31l-139 -139h-31zM131 -164l139 139h31l-139 -139h-31zM55 -164l140 139h30l-139 -139h-31zM-18 -164v2l137 137h31l-140 -139h-28zM-18 -119v33l137 137v-33zM-18 -43v31
l137 137v-31zM-18 33v30l137 138v-31zM-18 109v30l137 137v-30zM-18 184v31l137 137v-30zM-18 258v31l137 137v-31zM-18 334v31l137 137v-31zM-18 410v30l137 138v-31zM760 444l139 140h31l-139 -140h-31zM684 444l139 140h31l-139 -140h-31zM608 444l140 140h30l-139 -140
h-31zM532 444l140 140h33l-140 -140h-33zM459 444l139 140h31l-140 -140h-30zM383 444l139 140h31l-139 -140h-31zM350 457v30l96 97h31zM350 532v31l21 21h30zM-18 485v31l137 137v-30zM-18 559v31l137 137v-31zM-18 635v31l137 137v-31zM-18 711v30l137 138v-31zM-18 786
v31l137 137v-30zM-18 860v33l137 137v-33zM-18 936v31l137 137v-31zM-18 1012v30l137 138v-31zM870 1110l138 137h20l-139 -137h-19zM797 1110l137 137h31l-138 -137h-30zM721 1110l137 137h31l-137 -137h-31zM645 1110l137 137h31l-137 -137h-31zM569 1110l138 137h30
l-137 -137h-31zM496 1110l137 137h31l-138 -137h-30zM420 1110l137 137h31l-137 -137h-31zM350 1110v6l131 131h31l-137 -137h-25zM350 1161v31l56 55h30zM350 1247h12l-12 -12v12zM-18 1087v31l137 137v-30zM-18 1163v31l137 137v-31zM-18 1237v31l137 137v-31zM145 0v1434
h908v-160h-727v-506h645v-160h-645v-448h747v-160h-928zM569 1458l54 53h30l-53 -53h-31zM492 1458l71 72l15 -17l-56 -55h-30zM416 1458l112 111l15 -17l-97 -94h-30zM350 1458l-4 4l146 148l14 -17l-133 -135h-23zM326 1485l-15 16l146 148l14 -17zM289 1526l-15 16
l148 146l14 -17zM254 1567l-14 16l145 146l14 -17zM219 1606l-14 16l145 145l15 -14zM184 1645l-14 16l145 147l15 -16zM150 1686l-15 16l146 145l14 -16zM588 1536l-291 330h242l141 -330h-92z" />
    <glyph glyph-name="Eacute" unicode="&#xc9;" horiz-adv-x="1161" 
d="M883 -164l139 139h27l-140 -139h-26zM809 -164l139 139h31l-139 -139h-31zM733 -164l139 139h31l-139 -139h-31zM657 -164l140 139h30l-139 -139h-31zM582 -164l139 139h31l-140 -139h-30zM508 -164l139 139h31l-139 -139h-31zM432 -164l139 139h31l-139 -139h-31z
M356 -164l140 139h30l-139 -139h-31zM281 -164l139 139h31l-140 -139h-30zM207 -164l139 139h31l-139 -139h-31zM131 -164l139 139h31l-139 -139h-31zM55 -164l140 139h30l-139 -139h-31zM-18 -164v2l137 137h31l-140 -139h-28zM-18 -119v33l137 137v-33zM-18 -43v31
l137 137v-31zM-18 33v30l137 138v-31zM-18 109v30l137 137v-30zM-18 184v31l137 137v-30zM-18 258v31l137 137v-31zM-18 334v31l137 137v-31zM-18 410v30l137 138v-31zM760 444l139 140h31l-139 -140h-31zM684 444l139 140h31l-139 -140h-31zM608 444l140 140h30l-139 -140
h-31zM532 444l140 140h33l-140 -140h-33zM459 444l139 140h31l-140 -140h-30zM383 444l139 140h31l-139 -140h-31zM350 532v31l21 21h30zM350 457v30l96 97h31zM-18 485v31l137 137v-30zM-18 559v31l137 137v-31zM-18 635v31l137 137v-31zM-18 711v30l137 138v-31zM-18 786
v31l137 137v-30zM-18 860v33l137 137v-33zM-18 936v31l137 137v-31zM-18 1012v30l137 138v-31zM870 1110l138 137h20l-139 -137h-19zM797 1110l137 137h31l-138 -137h-30zM721 1110l137 137h31l-137 -137h-31zM645 1110l137 137h31l-137 -137h-31zM569 1110l138 137h30
l-137 -137h-31zM496 1110l137 137h31l-138 -137h-30zM420 1110l137 137h31l-137 -137h-31zM350 1247h12l-12 -12v12zM350 1110v6l131 131h31l-137 -137h-25zM350 1161v31l56 55h30zM-18 1087v31l137 137v-30zM-18 1163v31l137 137v-31zM-18 1237v31l137 137v-31zM145 0v1434
h908v-160h-727v-506h645v-160h-645v-448h747v-160h-928zM567 1458l54 53h30l-53 -53h-31zM492 1458l63 64l-4 -11h24l-53 -53h-30zM471 1483l23 53l114 115l-22 -54zM526 1614l23 53l117 117l-23 -53zM590 1536l139 330h244l-293 -330h-90z" />
    <glyph glyph-name="Ecircumflex" unicode="&#xca;" horiz-adv-x="1161" 
d="M883 -164l139 139h27l-140 -139h-26zM809 -164l139 139h31l-139 -139h-31zM733 -164l139 139h31l-139 -139h-31zM657 -164l140 139h30l-139 -139h-31zM582 -164l139 139h31l-140 -139h-30zM508 -164l139 139h31l-139 -139h-31zM432 -164l139 139h31l-139 -139h-31z
M356 -164l140 139h30l-139 -139h-31zM281 -164l139 139h31l-140 -139h-30zM207 -164l139 139h31l-139 -139h-31zM131 -164l139 139h31l-139 -139h-31zM55 -164l140 139h30l-139 -139h-31zM-18 -164v2l137 137h31l-140 -139h-28zM-18 -119v33l137 137v-33zM-18 -43v31
l137 137v-31zM-18 33v30l137 138v-31zM-18 109v30l137 137v-30zM-18 184v31l137 137v-30zM-18 258v31l137 137v-31zM-18 334v31l137 137v-31zM-18 410v30l137 138v-31zM760 444l139 140h31l-139 -140h-31zM684 444l139 140h31l-139 -140h-31zM608 444l140 140h30l-139 -140
h-31zM532 444l140 140h33l-140 -140h-33zM459 444l139 140h31l-140 -140h-30zM383 444l139 140h31l-139 -140h-31zM350 457v30l96 97h31zM350 532v31l21 21h30zM-18 485v31l137 137v-30zM-18 559v31l137 137v-31zM-18 635v31l137 137v-31zM-18 711v30l137 138v-31zM-18 786
v31l137 137v-30zM-18 860v33l137 137v-33zM-18 936v31l137 137v-31zM-18 1012v30l137 138v-31zM870 1110l138 137h20l-139 -137h-19zM797 1110l137 137h31l-138 -137h-30zM721 1110l137 137h31l-137 -137h-31zM645 1110l137 137h31l-137 -137h-31zM569 1110l138 137h30
l-137 -137h-31zM496 1110l137 137h31l-138 -137h-30zM420 1110l137 137h31l-137 -137h-31zM350 1110v6l131 131h31l-137 -137h-25zM350 1247h12l-12 -12v12zM350 1161v31l56 55h30zM-18 1087v31l137 137v-30zM-18 1163v31l137 137v-31zM-18 1237v31l137 137v-31zM145 0v1434
h908v-160h-727v-506h645v-160h-645v-448h747v-160h-928zM852 1458l49 49h31l-49 -49h-31zM776 1458l49 49h33l-49 -49h-33zM326 1458l49 49h31l-50 -49h-30zM250 1458l49 49h31l-49 -49h-31zM705 1458l77 80l17 -16l-64 -64h-30zM627 1458l116 117l17 -14l-103 -103h-30z
M567 1458l-8 8l146 146l16 -15l-139 -139h-15zM537 1489l-17 14l146 146l16 -15zM500 1524l-15 14l150 141l8 -10zM309 1534l316 362h18l315 -362h-133l-190 180l-193 -180h-133z" />
    <glyph glyph-name="Edieresis" unicode="&#xcb;" horiz-adv-x="1161" 
d="M883 -164l139 139h27l-140 -139h-26zM809 -164l139 139h31l-139 -139h-31zM733 -164l139 139h31l-139 -139h-31zM657 -164l140 139h30l-139 -139h-31zM582 -164l139 139h31l-140 -139h-30zM508 -164l139 139h31l-139 -139h-31zM432 -164l139 139h31l-139 -139h-31z
M356 -164l140 139h30l-139 -139h-31zM281 -164l139 139h31l-140 -139h-30zM207 -164l139 139h31l-139 -139h-31zM131 -164l139 139h31l-139 -139h-31zM55 -164l140 139h30l-139 -139h-31zM-18 -164v2l137 137h31l-140 -139h-28zM-18 -119v33l137 137v-33zM-18 -43v31
l137 137v-31zM-18 33v30l137 138v-31zM-18 109v30l137 137v-30zM-18 184v31l137 137v-30zM-18 258v31l137 137v-31zM-18 334v31l137 137v-31zM-18 410v30l137 138v-31zM760 444l139 140h31l-139 -140h-31zM684 444l139 140h31l-139 -140h-31zM608 444l140 140h30l-139 -140
h-31zM532 444l140 140h33l-140 -140h-33zM459 444l139 140h31l-140 -140h-30zM383 444l139 140h31l-139 -140h-31zM350 457v30l96 97h31zM350 532v31l21 21h30zM-18 485v31l137 137v-30zM-18 559v31l137 137v-31zM-18 635v31l137 137v-31zM-18 711v30l137 138v-31zM-18 786
v31l137 137v-30zM-18 860v33l137 137v-33zM-18 936v31l137 137v-31zM-18 1012v30l137 138v-31zM870 1110l138 137h20l-139 -137h-19zM797 1110l137 137h31l-138 -137h-30zM721 1110l137 137h31l-137 -137h-31zM645 1110l137 137h31l-137 -137h-31zM569 1110l138 137h30
l-137 -137h-31zM496 1110l137 137h31l-138 -137h-30zM420 1110l137 137h31l-137 -137h-31zM350 1110v6l131 131h31l-137 -137h-25zM350 1247h12l-12 -12v12zM350 1161v31l56 55h30zM-18 1087v31l137 137v-30zM-18 1163v31l137 137v-31zM-18 1237v31l137 137v-31zM145 0v1434
h908v-160h-727v-506h645v-160h-645v-448h747v-160h-928zM670 1458l112 115q20 -4 29 -4l-111 -111h-30zM319 1458l113 115q20 -4 29 -4l-111 -111h-31zM594 1458l137 137q12 -8 21 -12l-125 -125h-33zM244 1458l137 137q12 -8 20 -12l-125 -125h-32zM563 1470q-8 12 -12 21
l145 145l13 -18zM213 1470q-8 12 -12 21l145 145l12 -18zM541 1536q0 14 2 20l137 138q0 -6 4 -27l-143 -141v10zM190 1536q0 14 3 20l137 138q0 -6 4 -27l-144 -141v10zM812 1593q-44 0 -75.5 32t-31.5 76t31.5 74.5t75.5 30.5t75 -30.5t31 -74.5t-31 -76t-75 -32z
M462 1593q-44 0 -76 32t-32 76t32 74.5t76 30.5t74.5 -30.5t30.5 -74.5t-30.5 -76t-74.5 -32z" />
    <glyph glyph-name="Igrave" unicode="&#xcc;" horiz-adv-x="530" 
d="M160 -164l139 139h31l-140 -139h-30zM84 -164l139 139h31l-139 -139h-31zM12 -164v2l138 137h30l-139 -139h-29zM12 -119v31l140 137v-31zM12 -43v31l140 137v-31zM12 33v30l140 138v-31zM12 109v30l140 137v-30zM12 182v31l140 137v-31zM12 258v31l140 137v-31zM12 334
v31l140 137v-31zM12 410v30l140 138v-31zM12 483v31l140 137v-30zM12 559v31l140 137v-31zM12 635v31l140 137v-31zM12 711v30l140 138v-31zM12 784v33l140 137v-32zM12 860v31l140 137v-31zM12 936v31l140 137v-31zM12 1012v30l140 138v-31zM12 1087v31l140 137v-30z
M12 1161v31l140 137v-31zM12 1237v31l140 137v-31zM176 0v1434h180v-1434h-180zM201 1458l53 53h31l-54 -53h-30zM55 1372l-8 10l148 148l14 -17l-139 -141h-15zM27 1407l-15 16l148 146l14 -17zM-8 1446l-15 16l146 148l14 -17zM-43 1485l-14 16l145 148l14 -17zM-80 1526
l-14 16l147 146l15 -17zM-115 1567l-14 16l145 146l15 -17zM-150 1606l-14 16l146 145l14 -14zM-184 1645l-15 16l146 147l14 -16zM-219 1686l-14 16l145 145l14 -16zM219 1536l-291 330h242l141 -330h-92z" />
    <glyph glyph-name="Iacute" unicode="&#xcd;" horiz-adv-x="530" 
d="M160 -164l139 139h31l-140 -139h-30zM84 -164l139 139h31l-139 -139h-31zM12 -164v2l138 137h30l-139 -139h-29zM12 -119v31l140 137v-31zM12 -43v31l140 137v-31zM12 33v30l140 138v-31zM12 109v30l140 137v-30zM12 182v31l140 137v-31zM12 258v31l140 137v-31zM12 334
v31l140 137v-31zM12 410v30l140 138v-31zM12 483v31l140 137v-30zM12 559v31l140 137v-31zM12 635v31l140 137v-31zM12 711v30l140 138v-31zM12 784v33l140 137v-32zM12 860v31l140 137v-31zM12 936v31l140 137v-31zM12 1012v30l140 138v-31zM12 1087v31l140 137v-30z
M12 1161v31l140 137v-31zM12 1237v31l140 137v-31zM176 0v1434h180v-1434h-180zM199 1458l53 53h31l-54 -53h-30zM57 1372l15 37l114 113l-4 -11h25l-139 -139h-11zM102 1483l23 53l115 115l-23 -54zM158 1614l22 53l117 117l-23 -53zM221 1536l139 330h244l-293 -330h-90z
" />
    <glyph glyph-name="Icircumflex" unicode="&#xce;" horiz-adv-x="530" 
d="M160 -164l139 139h31l-140 -139h-30zM84 -164l139 139h31l-139 -139h-31zM12 -164v2l138 137h30l-139 -139h-29zM12 -119v31l140 137v-31zM12 -43v31l140 137v-31zM12 33v30l140 138v-31zM12 109v30l140 137v-30zM12 182v31l140 137v-31zM12 258v31l140 137v-31zM12 334
v31l140 137v-31zM12 410v30l140 138v-31zM12 483v31l140 137v-30zM12 559v31l140 137v-31zM12 635v31l140 137v-31zM12 711v30l140 138v-31zM12 784v33l140 137v-32zM12 860v31l140 137v-31zM12 936v31l140 137v-31zM12 1012v30l140 138v-31zM12 1087v31l140 137v-30z
M12 1161v31l140 137v-31zM12 1237v31l140 137v-31zM176 0v1434h180v-1434h-180zM395 1370l137 137h31l-137 -137h-31zM381 1399v33l76 75h32zM-131 1370l137 137h31l-137 -137h-31zM-207 1370l137 137h31l-137 -137h-31zM334 1458l80 80l16 -16l-65 -64h-31zM258 1458
l117 117l16 -14l-102 -103h-31zM201 1458l-11 8l146 146l16 -15l-139 -139h-12zM168 1489l-16 14l145 146l16 -15zM131 1524l-14 14l149 141l8 -10zM-59 1534l315 362h18l316 -362h-133l-191 180l-192 -180h-133z" />
    <glyph glyph-name="Idieresis" unicode="&#xcf;" horiz-adv-x="530" 
d="M160 -164l139 139h31l-140 -139h-30zM84 -164l139 139h31l-139 -139h-31zM12 -164v2l138 137h30l-139 -139h-29zM12 -119v31l140 137v-31zM12 -43v31l140 137v-31zM12 33v30l140 138v-31zM12 109v30l140 137v-30zM12 182v31l140 137v-31zM12 258v31l140 137v-31zM12 334
v31l140 137v-31zM12 410v30l140 138v-31zM12 483v31l140 137v-30zM12 559v31l140 137v-31zM12 635v31l140 137v-31zM12 711v30l140 138v-31zM12 784v33l140 137v-32zM12 860v31l140 137v-31zM12 936v31l140 137v-31zM12 1012v30l140 138v-31zM12 1087v31l140 137v-30z
M12 1161v31l140 137v-31zM12 1237v31l140 137v-31zM176 0v1434h180v-1434h-180zM301 1458l113 115q20 -4 28 -4l-110 -111h-31zM-72 1430h-6l141 143q20 -4 29 -4l-135 -135q-20 -4 -29 -4zM225 1458l137 137q12 -8 21 -12l-125 -125h-33zM-113 1438q-8 4 -20 12l145 145
q12 -8 21 -12zM195 1470q-8 12 -13 21l146 145l12 -18zM-156 1470q-8 12 -12 21l145 145l13 -18zM172 1536q0 14 2 20l137 138q0 -6 4 -27l-143 -141v10zM-178 1536q0 14 2 20l137 138q0 -6 4 -27l-143 -141v10zM443 1593q-44 0 -75.5 32t-31.5 76t31.5 74.5t75.5 30.5
t75 -30.5t31 -74.5t-31 -76t-75 -32zM93 1593q-44 0 -75.5 32t-31.5 76t31.5 74.5t75.5 30.5t75 -30.5t31 -74.5t-31 -76t-75 -32z" />
    <glyph glyph-name="Eth" unicode="&#xd0;" horiz-adv-x="1380" 
d="M442 -25h31l-139 -139h-31zM367 -25h30l-139 -139h-31zM293 -25h31l-140 -139h-30zM217 -25h31l-139 -139h-31zM141 -25h31l-139 -139h-31zM520 -23h31l-137 -137q-12 -2 -33 -2zM598 -20l35 4l-135 -136q-25 -4 -35 -4zM682 -10l37 6l-131 -131q-14 -4 -39 -8zM778 10
l43 13l-125 -125q-27 -10 -47 -17zM119 29v-31l-137 -137v30zM778 -66l115 115q47 20 57 27l-88 -88q-37 -27 -84 -54zM-18 -66v33l137 137v-32zM119 178v-31l-137 -137v31zM119 254v-31l-137 -137v31zM119 330v-31l-137 -137v31zM119 406v-31l-137 -137v30zM119 479v-30
l-137 -138v31zM905 332q14 37 17 47l129 129q-8 -25 -23 -53zM119 555v-31l-137 -137v31zM936 438q4 20 4 35l135 135l-6 -37zM424 483l139 140h31l-139 -140h-31zM352 483v4l135 136h31l-139 -140h-27zM412 623h30l-90 -91v31zM352 623h17l-17 -17v17zM-18 483h-11l140 140
h8v-23l-137 -137v20zM35 623h31l-140 -140h-30zM-18 623h10l-139 -140h-9v23l138 137v-20zM944 522v31l139 139q0 -23 -2 -33zM-18 719v-31l-138 -137v31zM944 596l-2 29l141 141v-31zM1077 820q0 -10 2 -13l-143 -143q0 10 -4 26l143 144q2 -4 2 -14zM119 825l-13 -12h-30
l43 43v-31zM924 727l-6 25l143 143l6 -25zM119 901l-137 -137v31l137 137v-31zM905 784l-8 23l145 145q5 -16 9 -22zM1016 1001q8 -12 12 -20l-145 -145l-13 20zM119 1008v-31l-137 -137v30zM987 1047l12 -19l-145 -145l-12 18zM119 1083v-32l-137 -138v33zM821 926
q-2 4 -14 16l145 145l17 -14zM913 1124q12 -8 17 -14l-146 -145l-18 12zM870 1157l19 -12l-148 -148l-18 13zM119 1157v-31l-137 -137v31zM823 1184l19 -13l-146 -145l-20 10zM770 1206q3 -3 21 -10l-146 -145q-6 4 -22 8zM711 1223l24 -6l-145 -146q-16 4 -23 8zM119 1233
v-31l-137 -137v31zM649 1237l25 -6l-144 -144l-24 7zM584 1245q4 0 13 -2t13 -2l-141 -141q-6 0 -14 1t-15 1zM510 1247h31l-142 -141q-8 2 -28 2zM358 1247h31l-39 -39v31zM434 1247h31l-115 -114v30zM500 160q308 0 458 154t150 403t-151 403t-457 154h-174v-486h299v-141
h-299v-487h174zM119 1309v-31l-137 -137v30zM119 1384v-30l-137 -137v30zM502 1434q382 0 584 -202t202 -515t-203 -515t-583 -202h-357v647h-137v141h137v646h357z" />
    <glyph glyph-name="Ntilde" unicode="&#xd1;" horiz-adv-x="1425" 
d="M1087 -193l-14 19l148 147l14 -18zM106 -164l140 139h33l-140 -139h-33zM33 -164l139 139h31l-140 -139h-30zM-18 -164v27l139 139v-27h6l-139 -139h-6zM1053 -152l-15 17l148 147l14 -16zM1018 -113l-14 17l147 147l14 -14zM-18 -92v31l139 139v-31zM981 -72l-14 17
l147 147l14 -16zM946 -31l-14 17l147 147l15 -16zM-18 -16v30l139 140v-31zM911 8l-14 17l147 147l15 -16zM877 49l-15 17l148 147l14 -16zM-18 57v31l139 139v-30zM842 90l-15 16l146 146l16 -16zM807 129l-14 16l145 148l14 -17zM-18 133v31l139 139v-31zM772 168l-14 16
l145 148l15 -17zM735 209l-14 16l147 148l15 -17zM-18 209v31l139 139v-31zM700 250l-14 16l148 146l14 -17zM666 291l-15 16l146 146l14 -17zM-18 285v30l139 140v-31zM631 330l-15 16l146 148l14 -19zM1073 471l-14 16l16 17v-31zM-18 358v31l139 139v-30zM596 371l-14 16
l145 145l14 -16zM561 410l-14 16l145 145l15 -14zM1038 512l-14 16l51 52v-31zM-18 434v31l139 139v-31zM524 451l-14 16l145 145l15 -16zM489 492l-14 16l146 145l14 -16zM1004 553l-15 16l86 86v-30zM-18 510v31l139 139v-31zM455 530l-15 17l146 145l14 -16zM969 594
l-15 16l121 121v-31zM420 571l-14 17l145 145l14 -16zM-18 586v30l139 140v-31zM385 610l-14 17l143 145l16 -16zM942 641v33l133 133v-33zM350 653v31l129 129l15 -16zM-18 659v33l139 139v-32zM350 727v31l94 94l15 -16zM942 717v31l133 133v-31zM350 803v31l60 59l14 -16
zM-18 735v31l139 139v-31zM350 879v30l25 23l14 -17zM942 793v30l133 133v-30zM-18 811v31l139 139v-31zM942 868v31l133 133v-31zM-18 887v31l139 139v-31zM942 944v31l133 133v-31zM-18 963v30l139 140v-31zM942 1018v31l133 133v-31zM-18 1036v31l139 139v-30zM942 1094
v30l133 133v-30zM-18 1112v31l139 139v-31zM942 1169v31l133 133v-30zM-18 1188v31l139 139v-31zM942 1245v25l133 137v-29zM-18 1264v30l139 140v-31zM326 0h-181v1475h19l936 -1072v1031h180v-1475h-16l-938 1065v-1024zM729 1393h-31l142 141q4 0 14 -1t14 -1zM266 1393
l-10 10l131 131h31l-142 -141h-10zM236 1427l-15 17l90 90h31zM786 1405l129 129q24 8 35 8l-94 -94q-31 -31 -70 -43zM659 1399l-24 6l145 145q6 -4 23 -8zM604 1419q-8 2 -20 11l145 145l19 -12zM557 1446q-8 4 -20 12l145 146l18 -13zM201 1466l-15 17l123 123
q-2 -10 -2 -33zM512 1477l-8 6l-10 6l145 145l18 -12zM473 1534v10l121 121l18 -12l-145 -146q-10 6 -21 11l17 16h10zM526 1675l25 2h10l-88 -86q2 14 10 39zM186 1528q10 31 25 55l115 115q-8 -31 -11 -41zM874 1720l74 74q-17 -78 -74 -74zM332 1556q0 125 52 206
t153.5 81t218.5 -90q80 -57 116 -57q104 0 105 149h117q0 -127 -53.5 -208t-154 -81t-220.5 91q-78 55 -115 55q-104 0 -105 -146h-114z" />
    <glyph glyph-name="Ograve" unicode="&#xd2;" 
d="M676 -195l139 140h33l-139 -138q-4 0 -15.5 -1t-17.5 -1zM631 -195q-18 0 -29 2l141 142q8 -2 29 -2zM758 -186l135 135q23 0 35 4l-133 -133zM561 -188q-6 0 -14 1t-12 1l141 143q16 -4 26 -4zM496 -178l-25 6l143 143l25 -6zM854 -166l129 129l43 12l-125 -125
q-37 -14 -47 -16zM436 -164q-4 0 -11 4t-11 4l143 144q16 -4 25 -8zM381 -143q-4 0 -11.5 4t-11.5 4l146 145l20 -10zM981 -115l113 113l55 25l-90 -93q-41 -25 -78 -45zM328 -121l-21 10l146 146l20 -10zM279 -94l-19 12l146 145l18 -12zM233 -66l-18 15l145 145
q8 -4 21 -12zM190 -33q-10 10 -16 15l148 147q4 -6 16 -14zM283 166l14 -16l-145 -146q-6 3 -17 14zM115 43q-6 4 -15 16l146 146q10 -10 14 -17zM80 84l-12 16l145 148l12 -19zM49 127l-12 18l147 146q2 -6 11 -19zM20 174l-10 21l146 145q6 -10 10 -21zM131 391l10 -20
l-145 -146l-10 21zM-27 279l-8 22l146 145q4 -16 8 -22zM1151 324q2 8 7 23t7 24l125 125q-12 -31 -24 -56zM92 502q8 -16 8 -23l-145 -145l-6 24zM-61 408.5q0 9.5 -2 13.5l143 143q0 -10 4 -26l-143 -144q-2 4 -2 13.5zM1319 600q-8 -32 -8 -39l-131 -133q4 25 4 37z
M70 631q0 -19 4 -27l-144 -143l-2 28zM1329 684q-4 -12 -4 -33l-137 -137q2 10 2 33zM-74 532v31l140 139q0 -20 2 -30zM1190 588q-2 10 -2 28l139 142q2 -10 2 -29zM68 780l-2 -35l-138 -137l2 35zM1321 825l2 -26l-141 -142q0 10 -4 27zM-63 692q8 32 8 39l133 133
q-4 -25 -4 -37zM1169 721l-6 24l144 144l6 -25zM1151 778q-4 12 -8 23l145 143q6 -16 8 -20zM-39 793q6 20 16 45l125 127l-12 -43zM1130 831l-12 21l146 145q10 -18 10 -22zM1104 881l-12 18l145 145l12 -18zM1073 926q-8 12 -14 16l147 145q4 -4 13 -16zM14 922
q33 57 54 84l88 88q-2 -6 -12.5 -25.5t-14.5 -32.5zM1038 967l-14 16l145 145l17 -16zM1130 1165l17 -14l-146 -145q-12 8 -16 14zM961 1038l-19 13l145 145l19 -12zM915 1067q-8 4 -20 12l145 146q12 -8 21 -11zM864 1094q-6 0 -22 8l145 145q4 -2 11.5 -4t11.5 -4z
M469 1106l121 121q29 14 53 22l-127 -127q-10 -2 -47 -16zM809 1114l-23 6l144 146q16 -4 24 -9zM571 1133l136 135l36 6l-137 -137q-10 0 -35 -4zM879.5 1274q9.5 0 13.5 -2l-143 -144q-16 4 -25 5l141 143q4 -2 13.5 -2zM793 1278h30l-139 -141q-10 2 -31 2zM813 131
q227 0 384 166t157 420t-157 420t-384 166t-384 -166t-157 -420t157 -420t384 -166zM814 -31q-302 0 -512 213t-210 534.5t210 534.5t512 213t512 -213t210 -534.5t-210 -534.5t-512 -213zM780 1491l21 20h30l-20 -20h-31zM694 1483l47 47l15 -17l-27 -26zM596 1460l111 109
l14 -17l-82 -82zM539 1446l-15 16l146 148l14 -17zM504 1485l-15 16l146 148l14 -17zM467 1526l-14 16l147 146l14 -17zM432 1567l-14 16l145 146l15 -17zM397 1606l-14 16l145 145l15 -14zM362 1645l-14 16l146 147l14 -16zM328 1686l-15 16l146 145l14 -16zM766 1536
l-291 330h242l141 -330h-92z" />
    <glyph glyph-name="Oacute" unicode="&#xd3;" 
d="M676 -195l139 140h33l-139 -138q-4 0 -15.5 -1t-17.5 -1zM631 -195q-18 0 -29 2l141 142q8 -2 29 -2zM758 -186l135 135q23 0 35 4l-133 -133zM561 -188q-6 0 -14 1t-12 1l141 143q16 -4 26 -4zM496 -178l-25 6l143 143l25 -6zM854 -166l129 129l43 12l-125 -125
q-37 -14 -47 -16zM436 -164q-4 0 -11 4t-11 4l143 144q16 -4 25 -8zM381 -143q-4 0 -11.5 4t-11.5 4l146 145l20 -10zM981 -115l113 113l55 25l-90 -93q-41 -25 -78 -45zM328 -121l-21 10l146 146l20 -10zM279 -94l-19 12l146 145l18 -12zM233 -66l-18 15l145 145
q8 -4 21 -12zM190 -33q-10 10 -16 15l148 147q4 -6 16 -14zM283 166l14 -16l-145 -146q-6 3 -17 14zM115 43q-6 4 -15 16l146 146q10 -10 14 -17zM80 84l-12 16l145 148l12 -19zM49 127l-12 18l147 146q2 -6 11 -19zM20 174l-10 21l146 145q6 -10 10 -21zM131 391l10 -20
l-145 -146l-10 21zM-27 279l-8 22l146 145q4 -16 8 -22zM1151 324q2 8 7 23t7 24l125 125q-12 -31 -24 -56zM92 502q8 -16 8 -23l-145 -145l-6 24zM-61 408.5q0 9.5 -2 13.5l143 143q0 -10 4 -26l-143 -144q-2 4 -2 13.5zM1319 600q-8 -32 -8 -39l-131 -133q4 25 4 37z
M70 631q0 -19 4 -27l-144 -143l-2 28zM1329 684q-4 -12 -4 -33l-137 -137q2 10 2 33zM-74 532v31l140 139q0 -20 2 -30zM1190 588q-2 10 -2 28l139 142q2 -10 2 -29zM68 780l-2 -35l-138 -137l2 35zM1321 825l2 -26l-141 -142q0 10 -4 27zM-63 692q8 32 8 39l133 133
q-4 -25 -4 -37zM1169 721l-6 24l144 144l6 -25zM1151 778q-4 12 -8 23l145 143q6 -16 8 -20zM-39 793q6 20 16 45l125 127l-12 -43zM1130 831l-12 21l146 145q10 -18 10 -22zM1104 881l-12 18l145 145l12 -18zM1073 926q-8 12 -14 16l147 145q4 -4 13 -16zM14 922
q33 57 54 84l88 88q-2 -6 -12.5 -25.5t-14.5 -32.5zM1038 967l-14 16l145 145l17 -16zM1130 1165l17 -14l-146 -145q-12 8 -16 14zM961 1038l-19 13l145 145l19 -12zM915 1067q-8 4 -20 12l145 146q12 -8 21 -11zM864 1094q-6 0 -22 8l145 145q4 -2 11.5 -4t11.5 -4z
M469 1106l121 121q29 14 53 22l-127 -127q-10 -2 -47 -16zM809 1114l-23 6l144 146q16 -4 24 -9zM571 1133l136 135l36 6l-137 -137q-10 0 -35 -4zM879.5 1274q9.5 0 13.5 -2l-143 -144q-16 4 -25 5l141 143q4 -2 13.5 -2zM793 1278h30l-139 -141q-10 2 -31 2zM813 131
q227 0 384 166t157 420t-157 420t-384 166t-384 -166t-157 -420t157 -420t384 -166zM814 -31q-302 0 -512 213t-210 534.5t210 534.5t512 213t512 -213t210 -534.5t-210 -534.5t-512 -213zM776 1489l23 22h30l-20 -20zM692 1483l41 39l-4 -11h25l-25 -24zM649 1483l23 53
l114 115l-22 -54zM705 1614l22 53l117 117l-23 -53zM768 1536l139 330h244l-293 -330h-90z" />
    <glyph glyph-name="Ocircumflex" unicode="&#xd4;" 
d="M676 -195l139 140h33l-139 -138q-4 0 -15.5 -1t-17.5 -1zM631 -195q-18 0 -29 2l141 142q8 -2 29 -2zM758 -186l135 135q23 0 35 4l-133 -133zM561 -188q-6 0 -14 1t-12 1l141 143q16 -4 26 -4zM496 -178l-25 6l143 143l25 -6zM854 -166l129 129l43 12l-125 -125
q-37 -14 -47 -16zM436 -164q-4 0 -11 4t-11 4l143 144q16 -4 25 -8zM381 -143q-4 0 -11.5 4t-11.5 4l146 145l20 -10zM981 -115l113 113l55 25l-90 -93q-41 -25 -78 -45zM328 -121l-21 10l146 146l20 -10zM279 -94l-19 12l146 145l18 -12zM233 -66l-18 15l145 145
q8 -4 21 -12zM190 -33q-10 10 -16 15l148 147q4 -6 16 -14zM283 166l14 -16l-145 -146q-6 3 -17 14zM115 43q-6 4 -15 16l146 146q10 -10 14 -17zM80 84l-12 16l145 148l12 -19zM49 127l-12 18l147 146q2 -6 11 -19zM20 174l-10 21l146 145q6 -10 10 -21zM131 391l10 -20
l-145 -146l-10 21zM-27 279l-8 22l146 145q4 -16 8 -22zM1151 324q2 8 7 23t7 24l125 125q-12 -31 -24 -56zM92 502q8 -16 8 -23l-145 -145l-6 24zM-61 408.5q0 9.5 -2 13.5l143 143q0 -10 4 -26l-143 -144q-2 4 -2 13.5zM1319 600q-8 -32 -8 -39l-131 -133q4 25 4 37z
M70 631q0 -19 4 -27l-144 -143l-2 28zM1329 684q-4 -12 -4 -33l-137 -137q2 10 2 33zM-74 532v31l140 139q0 -20 2 -30zM1190 588q-2 10 -2 28l139 142q2 -10 2 -29zM68 780l-2 -35l-138 -137l2 35zM1321 825l2 -26l-141 -142q0 10 -4 27zM-63 692q8 32 8 39l133 133
q-4 -25 -4 -37zM1169 721l-6 24l144 144l6 -25zM1151 778q-4 12 -8 23l145 143q6 -16 8 -20zM-39 793q6 20 16 45l125 127l-12 -43zM1130 831l-12 21l146 145q10 -18 10 -22zM1104 881l-12 18l145 145l12 -18zM1073 926q-8 12 -14 16l147 145q4 -4 13 -16zM14 922
q33 57 54 84l88 88q-2 -6 -12.5 -25.5t-14.5 -32.5zM1038 967l-14 16l145 145l17 -16zM1130 1165l17 -14l-146 -145q-12 8 -16 14zM961 1038l-19 13l145 145l19 -12zM915 1067q-8 4 -20 12l145 146q12 -8 21 -11zM864 1094q-6 0 -22 8l145 145q4 -2 11.5 -4t11.5 -4z
M469 1106l121 121q29 14 53 22l-127 -127q-10 -2 -47 -16zM809 1114l-23 6l144 146q16 -4 24 -9zM571 1133l136 135l36 6l-137 -137q-10 0 -35 -4zM879.5 1274q9.5 0 13.5 -2l-143 -144q-16 4 -25 5l141 143q4 -2 13.5 -2zM793 1278h30l-139 -141q-10 2 -31 2zM813 131
q227 0 384 166t157 420t-157 420t-384 166t-384 -166t-157 -420t157 -420t384 -166zM814 -31q-302 0 -512 213t-210 534.5t210 534.5t512 213t512 -213t210 -534.5t-210 -534.5t-512 -213zM1055 1452l-25 6l49 49h31zM997 1468l-26 7l33 32h32zM436 1391l117 116h31l-82 -82
zM340 1370l137 137h31l-137 -137h-31zM936 1481l-29 4l54 53l16 -16zM866 1489l-28 2l84 84l16 -14zM760 1489l123 123l16 -15l-106 -106zM715 1489l-17 14l146 146l16 -15zM678 1524l-14 14l149 141l8 -10zM487 1534l316 362h18l316 -362h-133l-191 180l-192 -180h-134z
" />
    <glyph glyph-name="Otilde" unicode="&#xd5;" 
d="M676 -195l139 140h33l-139 -138q-4 0 -15.5 -1t-17.5 -1zM631 -195q-18 0 -29 2l141 142q8 -2 29 -2zM758 -186l135 135q23 0 35 4l-133 -133zM561 -188q-6 0 -14 1t-12 1l141 143q16 -4 26 -4zM496 -178l-25 6l143 143l25 -6zM854 -166l129 129l43 12l-125 -125
q-37 -14 -47 -16zM436 -164q-4 0 -11 4t-11 4l143 144q16 -4 25 -8zM381 -143q-4 0 -11.5 4t-11.5 4l146 145l20 -10zM981 -115l113 113l55 25l-90 -93q-41 -25 -78 -45zM328 -121l-21 10l146 146l20 -10zM279 -94l-19 12l146 145l18 -12zM233 -66l-18 15l145 145
q8 -4 21 -12zM190 -33q-10 10 -16 15l148 147q4 -6 16 -14zM283 166l14 -16l-145 -146q-6 3 -17 14zM115 43q-6 4 -15 16l146 146q10 -10 14 -17zM80 84l-12 16l145 148l12 -19zM49 127l-12 18l147 146q2 -6 11 -19zM20 174l-10 21l146 145q6 -10 10 -21zM131 391l10 -20
l-145 -146l-10 21zM-27 279l-8 22l146 145q4 -16 8 -22zM1151 324q2 8 7 23t7 24l125 125q-12 -31 -24 -56zM92 502q8 -16 8 -23l-145 -145l-6 24zM-61 408.5q0 9.5 -2 13.5l143 143q0 -10 4 -26l-143 -144q-2 4 -2 13.5zM1319 600q-8 -32 -8 -39l-131 -133q4 25 4 37z
M70 631q0 -19 4 -27l-144 -143l-2 28zM1329 684q-4 -12 -4 -33l-137 -137q2 10 2 33zM-74 532v31l140 139q0 -20 2 -30zM1190 588q-2 10 -2 28l139 142q2 -10 2 -29zM68 780l-2 -35l-138 -137l2 35zM1321 825l2 -26l-141 -142q0 10 -4 27zM-63 692q8 32 8 39l133 133
q-4 -25 -4 -37zM1169 721l-6 24l144 144l6 -25zM1151 778q-4 12 -8 23l145 143q6 -16 8 -20zM-39 793q6 20 16 45l125 127l-12 -43zM1130 831l-12 21l146 145q10 -18 10 -22zM1104 881l-12 18l145 145l12 -18zM1073 926q-8 12 -14 16l147 145q4 -4 13 -16zM14 922
q33 57 54 84l88 88q-2 -6 -12.5 -25.5t-14.5 -32.5zM1038 967l-14 16l145 145l17 -16zM1130 1165l17 -14l-146 -145q-12 8 -16 14zM961 1038l-19 13l145 145l19 -12zM915 1067q-8 4 -20 12l145 146q12 -8 21 -11zM864 1094q-6 0 -22 8l145 145q4 -2 11.5 -4t11.5 -4z
M469 1106l121 121q29 14 53 22l-127 -127q-10 -2 -47 -16zM809 1114l-23 6l144 146q16 -4 24 -9zM571 1133l136 135l36 6l-137 -137q-10 0 -35 -4zM879.5 1274q9.5 0 13.5 -2l-143 -144q-16 4 -25 5l141 143q4 -2 13.5 -2zM793 1278h30l-139 -141q-10 2 -31 2zM813 131
q227 0 384 166t157 420t-157 420t-384 166t-384 -166t-157 -420t157 -420t384 -166zM814 -31q-302 0 -512 213t-210 534.5t210 534.5t512 213t512 -213t210 -534.5t-210 -534.5t-512 -213zM920 1483l-27 4l47 47q4 0 13.5 -1t15.5 -1zM346 1393l141 141h31l-141 -141h-31z
M270 1393l142 141h30l-141 -141h-31zM981 1473l-23 4l58 57q24 8 35 8zM821 1491l60 59q6 -4 22 -8l-51 -51h-31zM741 1487l88 88l19 -12l-72 -72zM653 1475l129 129l19 -13l-109 -108zM270 1436l2 32l138 138q-2 -10 -2 -33zM612 1477l-8 6l-10 6l145 145l13 -8l6 -4z
M573 1534v10l121 121l19 -12l-146 -146q-10 6 -20 11l16 16h10zM627 1675l24 2h11l-89 -86q2 14 11 39zM287 1528q8 31 24 55l115 115q-8 -31 -10 -41zM975 1720l74 74q-17 -78 -74 -74zM432 1556q0 125 52.5 206t153.5 81t218 -90q80 -57 117 -57q104 0 104 149h117
q0 -127 -53.5 -208t-153.5 -81t-221 91q-78 55 -115 55q-104 0 -104 -146h-115z" />
    </font>
</defs>
</svg>
